<?xml version="1.0" encoding="UTF-8" standalone="no"?>
<!-- Created with Inkscape (http://www.inkscape.org/) -->

<svg
   width="60.327351mm"
   height="35.333645mm"
   viewBox="0 0 60.327353 35.333645"
   version="1.1"
   id="svg1"
   inkscape:version="1.3.2 (1:1.3.2+202311252150+091e20ef0f)"
   sodipodi:docname="CNP logo grayscale.svg"
   xmlns:inkscape="http://www.inkscape.org/namespaces/inkscape"
   xmlns:sodipodi="http://sodipodi.sourceforge.net/DTD/sodipodi-0.dtd"
   xmlns="http://www.w3.org/2000/svg"
   xmlns:svg="http://www.w3.org/2000/svg">
  <sodipodi:namedview
     id="namedview1"
     pagecolor="#ffffff"
     bordercolor="#666666"
     borderopacity="1.0"
     inkscape:showpageshadow="2"
     inkscape:pageopacity="0.0"
     inkscape:pagecheckerboard="0"
     inkscape:deskcolor="#d1d1d1"
     inkscape:document-units="mm"
     inkscape:zoom="1.3968575"
     inkscape:cx="284.92527"
     inkscape:cy="112.39514"
     inkscape:window-width="1920"
     inkscape:window-height="1024"
     inkscape:window-x="0"
     inkscape:window-y="0"
     inkscape:window-maximized="1"
     inkscape:current-layer="svg1" />
  <defs
     id="defs1">
    <clipPath
       clipPathUnits="userSpaceOnUse"
       id="clipPath2">
      <path
         d="M -9,-9 H 605 V 851 H -9 Z"
         transform="translate(0,-2.5000001e-5)"
         clip-rule="evenodd"
         id="path2" />
    </clipPath>
    <clipPath
       clipPathUnits="userSpaceOnUse"
       id="clipPath4">
      <path
         d="M -9,-9 H 605 V 851 H -9 Z"
         transform="translate(0,-2.5000001e-5)"
         clip-rule="evenodd"
         id="path4" />
    </clipPath>
    <clipPath
       clipPathUnits="userSpaceOnUse"
       id="clipPath6">
      <path
         d="M -9,-9 H 605 V 851 H -9 Z"
         transform="translate(0,-2.5000001e-5)"
         clip-rule="evenodd"
         id="path6" />
    </clipPath>
    <clipPath
       clipPathUnits="userSpaceOnUse"
       id="clipPath8">
      <path
         d="M -9,-9 H 605 V 851 H -9 Z"
         transform="translate(0,-2.5000001e-5)"
         clip-rule="evenodd"
         id="path8" />
    </clipPath>
    <clipPath
       clipPathUnits="userSpaceOnUse"
       id="clipPath10">
      <path
         d="M -9,-9 H 605 V 851 H -9 Z"
         transform="translate(0,-2.5000001e-5)"
         clip-rule="evenodd"
         id="path10" />
    </clipPath>
    <clipPath
       clipPathUnits="userSpaceOnUse"
       id="clipPath12">
      <path
         d="M -9,-9 H 605 V 851 H -9 Z"
         transform="translate(0,-2.5000001e-5)"
         clip-rule="evenodd"
         id="path12" />
    </clipPath>
    <clipPath
       clipPathUnits="userSpaceOnUse"
       id="clipPath14">
      <path
         d="M -9,-9 H 605 V 851 H -9 Z"
         transform="translate(0,-2.5000001e-5)"
         clip-rule="evenodd"
         id="path14" />
    </clipPath>
    <clipPath
       clipPathUnits="userSpaceOnUse"
       id="clipPath16">
      <path
         d="M -9,-9 H 605 V 851 H -9 Z"
         transform="translate(0,-2.5000001e-5)"
         clip-rule="evenodd"
         id="path16" />
    </clipPath>
    <clipPath
       clipPathUnits="userSpaceOnUse"
       id="clipPath18">
      <path
         d="M -9,-9 H 605 V 851 H -9 Z"
         transform="translate(0,-2.5000001e-5)"
         clip-rule="evenodd"
         id="path18" />
    </clipPath>
    <clipPath
       clipPathUnits="userSpaceOnUse"
       id="clipPath20">
      <path
         d="M -9,-9 H 605 V 851 H -9 Z"
         transform="translate(0,-2.5000001e-5)"
         clip-rule="evenodd"
         id="path20" />
    </clipPath>
    <clipPath
       clipPathUnits="userSpaceOnUse"
       id="clipPath22">
      <path
         d="M -9,-9 H 605 V 851 H -9 Z"
         transform="translate(0,-2.5000001e-5)"
         clip-rule="evenodd"
         id="path22" />
    </clipPath>
    <clipPath
       clipPathUnits="userSpaceOnUse"
       id="clipPath24">
      <path
         d="M -9,-9 H 605 V 851 H -9 Z"
         transform="translate(0,-2.5000001e-5)"
         clip-rule="evenodd"
         id="path24" />
    </clipPath>
    <clipPath
       clipPathUnits="userSpaceOnUse"
       id="clipPath26">
      <path
         d="M -9,-9 H 605 V 851 H -9 Z"
         transform="translate(0,-2.5000001e-5)"
         clip-rule="evenodd"
         id="path26" />
    </clipPath>
    <clipPath
       clipPathUnits="userSpaceOnUse"
       id="clipPath28">
      <path
         d="M -9,-9 H 605 V 851 H -9 Z"
         transform="translate(0,-2.5000001e-5)"
         clip-rule="evenodd"
         id="path28" />
    </clipPath>
    <clipPath
       clipPathUnits="userSpaceOnUse"
       id="clipPath30">
      <path
         d="M -9,-9 H 605 V 851 H -9 Z"
         transform="translate(0,-2.5000001e-5)"
         clip-rule="evenodd"
         id="path30" />
    </clipPath>
    <clipPath
       clipPathUnits="userSpaceOnUse"
       id="clipPath32">
      <path
         d="M -9,-9 H 605 V 851 H -9 Z"
         transform="translate(0,-2.5000001e-5)"
         clip-rule="evenodd"
         id="path32" />
    </clipPath>
    <clipPath
       clipPathUnits="userSpaceOnUse"
       id="clipPath34">
      <path
         d="M -9,-9 H 605 V 851 H -9 Z"
         transform="translate(0,-2.5000001e-5)"
         clip-rule="evenodd"
         id="path34" />
    </clipPath>
    <clipPath
       clipPathUnits="userSpaceOnUse"
       id="clipPath36">
      <path
         d="M -9,-9 H 605 V 851 H -9 Z"
         transform="translate(0,-2.5000001e-5)"
         clip-rule="evenodd"
         id="path36" />
    </clipPath>
    <clipPath
       clipPathUnits="userSpaceOnUse"
       id="clipPath6-7">
      <path
         d="M -9,-9 H 605 V 851 H -9 Z"
         transform="translate(0,-2.5000001e-5)"
         clip-rule="evenodd"
         id="path6-5" />
    </clipPath>
    <clipPath
       clipPathUnits="userSpaceOnUse"
       id="clipPath8-3">
      <path
         d="M -9,-9 H 605 V 851 H -9 Z"
         transform="translate(0,-2.5000001e-5)"
         clip-rule="evenodd"
         id="path8-5" />
    </clipPath>
    <clipPath
       clipPathUnits="userSpaceOnUse"
       id="clipPath14-6">
      <path
         d="M -9,-9 H 605 V 851 H -9 Z"
         transform="translate(0,-2.5000001e-5)"
         clip-rule="evenodd"
         id="path14-2" />
    </clipPath>
    <clipPath
       clipPathUnits="userSpaceOnUse"
       id="clipPath16-9">
      <path
         d="M -9,-9 H 605 V 851 H -9 Z"
         transform="translate(0,-2.5000001e-5)"
         clip-rule="evenodd"
         id="path16-1" />
    </clipPath>
    <clipPath
       clipPathUnits="userSpaceOnUse"
       id="clipPath18-2">
      <path
         d="M -9,-9 H 605 V 851 H -9 Z"
         transform="translate(0,-2.5000001e-5)"
         clip-rule="evenodd"
         id="path18-7" />
    </clipPath>
    <clipPath
       clipPathUnits="userSpaceOnUse"
       id="clipPath20-0">
      <path
         d="M -9,-9 H 605 V 851 H -9 Z"
         transform="translate(0,-2.5000001e-5)"
         clip-rule="evenodd"
         id="path20-9" />
    </clipPath>
    <clipPath
       clipPathUnits="userSpaceOnUse"
       id="clipPath22-3">
      <path
         d="M -9,-9 H 605 V 851 H -9 Z"
         transform="translate(0,-2.5000001e-5)"
         clip-rule="evenodd"
         id="path22-6" />
    </clipPath>
    <clipPath
       clipPathUnits="userSpaceOnUse"
       id="clipPath24-0">
      <path
         d="M -9,-9 H 605 V 851 H -9 Z"
         transform="translate(0,-2.5000001e-5)"
         clip-rule="evenodd"
         id="path24-6" />
    </clipPath>
    <clipPath
       clipPathUnits="userSpaceOnUse"
       id="clipPath28-2">
      <path
         d="M -9,-9 H 605 V 851 H -9 Z"
         transform="translate(0,-2.5000001e-5)"
         clip-rule="evenodd"
         id="path28-6" />
    </clipPath>
    <clipPath
       clipPathUnits="userSpaceOnUse"
       id="clipPath30-1">
      <path
         d="M -9,-9 H 605 V 851 H -9 Z"
         transform="translate(0,-2.5000001e-5)"
         clip-rule="evenodd"
         id="path30-8" />
    </clipPath>
    <clipPath
       clipPathUnits="userSpaceOnUse"
       id="clipPath34-7">
      <path
         d="M -9,-9 H 605 V 851 H -9 Z"
         transform="translate(0,-2.5000001e-5)"
         clip-rule="evenodd"
         id="path34-9" />
    </clipPath>
    <clipPath
       clipPathUnits="userSpaceOnUse"
       id="clipPath26-2">
      <path
         d="M -9,-9 H 605 V 851 H -9 Z"
         transform="translate(0,-2.5000001e-5)"
         clip-rule="evenodd"
         id="path26-0" />
    </clipPath>
    <clipPath
       clipPathUnits="userSpaceOnUse"
       id="clipPath32-2">
      <path
         d="M -9,-9 H 605 V 851 H -9 Z"
         transform="translate(0,-2.5000001e-5)"
         clip-rule="evenodd"
         id="path32-3" />
    </clipPath>
    <clipPath
       clipPathUnits="userSpaceOnUse"
       id="clipPath6-9">
      <path
         d="M -9,-9 H 605 V 851 H -9 Z"
         transform="translate(0,-2.5000001e-5)"
         clip-rule="evenodd"
         id="path6-1" />
    </clipPath>
    <clipPath
       clipPathUnits="userSpaceOnUse"
       id="clipPath8-2">
      <path
         d="M -9,-9 H 605 V 851 H -9 Z"
         transform="translate(0,-2.5000001e-5)"
         clip-rule="evenodd"
         id="path8-7" />
    </clipPath>
    <clipPath
       clipPathUnits="userSpaceOnUse"
       id="clipPath14-0">
      <path
         d="M -9,-9 H 605 V 851 H -9 Z"
         transform="translate(0,-2.5000001e-5)"
         clip-rule="evenodd"
         id="path14-9" />
    </clipPath>
    <clipPath
       clipPathUnits="userSpaceOnUse"
       id="clipPath16-3">
      <path
         d="M -9,-9 H 605 V 851 H -9 Z"
         transform="translate(0,-2.5000001e-5)"
         clip-rule="evenodd"
         id="path16-6" />
    </clipPath>
    <clipPath
       clipPathUnits="userSpaceOnUse"
       id="clipPath18-0">
      <path
         d="M -9,-9 H 605 V 851 H -9 Z"
         transform="translate(0,-2.5000001e-5)"
         clip-rule="evenodd"
         id="path18-6" />
    </clipPath>
    <clipPath
       clipPathUnits="userSpaceOnUse"
       id="clipPath20-2">
      <path
         d="M -9,-9 H 605 V 851 H -9 Z"
         transform="translate(0,-2.5000001e-5)"
         clip-rule="evenodd"
         id="path20-6" />
    </clipPath>
    <clipPath
       clipPathUnits="userSpaceOnUse"
       id="clipPath22-1">
      <path
         d="M -9,-9 H 605 V 851 H -9 Z"
         transform="translate(0,-2.5000001e-5)"
         clip-rule="evenodd"
         id="path22-8" />
    </clipPath>
    <clipPath
       clipPathUnits="userSpaceOnUse"
       id="clipPath24-7">
      <path
         d="M -9,-9 H 605 V 851 H -9 Z"
         transform="translate(0,-2.5000001e-5)"
         clip-rule="evenodd"
         id="path24-9" />
    </clipPath>
    <clipPath
       clipPathUnits="userSpaceOnUse"
       id="clipPath28-20">
      <path
         d="M -9,-9 H 605 V 851 H -9 Z"
         transform="translate(0,-2.5000001e-5)"
         clip-rule="evenodd"
         id="path28-2" />
    </clipPath>
    <clipPath
       clipPathUnits="userSpaceOnUse"
       id="clipPath30-3">
      <path
         d="M -9,-9 H 605 V 851 H -9 Z"
         transform="translate(0,-2.5000001e-5)"
         clip-rule="evenodd"
         id="path30-7" />
    </clipPath>
    <clipPath
       clipPathUnits="userSpaceOnUse"
       id="clipPath34-5">
      <path
         d="M -9,-9 H 605 V 851 H -9 Z"
         transform="translate(0,-2.5000001e-5)"
         clip-rule="evenodd"
         id="path34-92" />
    </clipPath>
    <clipPath
       clipPathUnits="userSpaceOnUse"
       id="clipPath26-28">
      <path
         d="M -9,-9 H 605 V 851 H -9 Z"
         transform="translate(0,-2.5000001e-5)"
         clip-rule="evenodd"
         id="path26-9" />
    </clipPath>
    <clipPath
       clipPathUnits="userSpaceOnUse"
       id="clipPath32-7">
      <path
         d="M -9,-9 H 605 V 851 H -9 Z"
         transform="translate(0,-2.5000001e-5)"
         clip-rule="evenodd"
         id="path32-36" />
    </clipPath>
  </defs>
  <g
     inkscape:label="Layer 1"
     inkscape:groupmode="layer"
     id="layer1"
     transform="translate(30.222977,-52.549769)" />
  <g
     inkscape:groupmode="layer"
     id="layer2"
     inkscape:label="Trace"
     transform="translate(30.222978,-52.549768)" />
  <path
     id="path5"
     clip-path="url(#clipPath6-9)"
     style="display:inline;fill:#565656;fill-opacity:1;fill-rule:evenodd;stroke:none"
     inkscape:label="Dark"
     d="m 325.75023,489.53426 c -5.06268,-0.0314 -10.37693,-0.29742 -16.00243,-0.89203 -18.01252,-1.90381 -38.13931,-8.09729 -57.09398,-18.67652 l -0.0221,0.002 -1.26087,-0.71162 c -0.4198,-0.2373 -0.83906,-0.47994 -1.25686,-0.72364 -0.0328,-0.0191 -0.0654,-0.039 -0.0982,-0.0581 -0.20213,-0.1179 -0.40357,-0.23789 -0.60538,-0.35681 -0.18269,-0.10771 -0.36481,-0.21436 -0.54725,-0.32273 -0.4158,-0.2469 -0.83304,-0.49741 -1.24884,-0.74971 -0.4145,-0.2523 -0.83093,-0.50754 -1.24483,-0.76374 -0.15255,-0.0946 -0.30438,-0.1914 -0.45704,-0.28665 -0.21717,-0.13563 -0.43475,-0.2701 -0.65149,-0.40693 -0.0435,-0.0274 -0.0869,-0.0547 -0.13029,-0.0822 -0.4127,-0.2608 -0.82411,-0.5245 -1.23481,-0.7898 -0.4099,-0.2642 -0.82141,-0.53253 -1.23081,-0.80183 -0.31312,-0.20632 -0.62569,-0.4163 -0.93813,-0.62542 -0.23951,-0.16035 -0.47876,-0.32124 -0.71764,-0.4831 -0.2631,-0.17837 -0.52562,-0.35719 -0.78779,-0.53722 -0.4054,-0.2786 -0.80946,-0.55932 -1.21276,-0.84192 -0.4028,-0.2826 -0.80735,-0.56674 -1.20875,-0.85394 -0.054,-0.0386 -0.10839,-0.0776 -0.16237,-0.11627 -0.23133,-0.16584 -0.46093,-0.33385 -0.69158,-0.50114 -0.116,-0.084 -0.23297,-0.16625 -0.34879,-0.25057 -0.3988,-0.2911 -0.79792,-0.58631 -1.19472,-0.88201 -0.3974,-0.2956 -0.79321,-0.59383 -1.18871,-0.89403 -0.20924,-0.159 -0.41833,-0.32045 -0.62742,-0.4811 -0.17096,-0.13129 -0.34265,-0.26078 -0.51317,-0.39289 -0.014,-0.0108 -0.0281,-0.0212 -0.0421,-0.0321 -0.3929,-0.3047 -0.78437,-0.6134 -1.17467,-0.9221 -0.3901,-0.3081 -0.78026,-0.62092 -1.16866,-0.93412 -0.36732,-0.29679 -0.73315,-0.59519 -1.0985,-0.89604 -0.0206,-0.0169 -0.0416,-0.0332 -0.0621,-0.0501 -0.1913,-0.15763 -0.38062,-0.31836 -0.5713,-0.47708 -0.19377,-0.16135 -0.38865,-0.32086 -0.58132,-0.4831 -0.383,-0.322 -0.76621,-0.64602 -1.14661,-0.97222 -0.3796,-0.3266 -0.75879,-0.65514 -1.13659,-0.98624 -0.11722,-0.10288 -0.2338,-0.20749 -0.3508,-0.31071 -0.18001,-0.15874 -0.35985,-0.31734 -0.53922,-0.47708 -0.0799,-0.0711 -0.16074,-0.14113 -0.24055,-0.21249 0.004,0.001 0.008,0.003 0.012,0.004 -5.87453,-5.25354 -11.39476,-11.0545 -16.43943,-17.3936 -0.008,-0.002 -0.0176,-0.004 -0.0261,-0.006 -0.11595,-0.14573 -0.22534,-0.29871 -0.34077,-0.44501 -0.49618,-0.62897 -0.98082,-1.27072 -1.46734,-1.91035 -0.52239,-0.68664 -1.0446,-1.37379 -1.55555,-2.07272 -0.47846,-0.65464 -0.94707,-1.31908 -1.41522,-1.98452 -0.52432,-0.74513 -1.04452,-1.49444 -1.55554,-2.25313 -0.4171,-0.61938 -0.82881,-1.24383 -1.23681,-1.87226 -0.52984,-0.8159 -1.04947,-1.64046 -1.56356,-2.47163 -0.39283,-0.63522 -0.78326,-1.27222 -1.16666,-1.91636 -0.49203,-0.8265 -0.97117,-1.66449 -1.4473,-2.5057 -0.37788,-0.66777 -0.75693,-1.33354 -1.12456,-2.01058 -0.48447,-0.89207 -0.95301,-1.79796 -1.41923,-2.70616 -0.32268,-0.62869 -0.65045,-1.25189 -0.96419,-1.8883 -0.5207,-1.05609 -1.01798,-2.13188 -1.51345,-3.20931 -0.24,-0.52194 -0.49169,-1.0346 -0.72565,-1.56155 -0.71706,-1.61501 -1.41011,-3.25104 -2.06871,-4.91319 2.61895,6.04855 7.96826,13.40114 15.74184,19.82313 1.94341,1.6055 4.03843,3.15219 6.2803,4.60649 6.72559,4.36291 14.77147,7.88842 24.01266,9.63393 10.02305,1.89319 18.15768,2.33572 25.70252,2.1088 1.57653,-0.0474 3.12775,-0.12578 4.66461,-0.22451 2.87603,-0.18475 5.70324,-0.4449 8.55949,-0.73768 2.92178,-0.29951 5.87493,-0.63051 8.94035,-0.94415 3.06543,-0.31364 6.24463,-0.61016 9.6199,-0.83791 3.37528,-0.22774 6.94726,-0.38715 10.79859,-0.42897 3.85132,-0.0418 7.98081,0.0345 12.4744,0.27863 1.53631,0.0691 3.01294,0.17006 4.44812,0.29066 0.057,0.005 0.11956,0.007 0.1764,0.012 0.01,0.003 0.0165,0.005 0.0261,0.008 40.92253,3.5188 41.24276,27.2844 41.24189,27.28411 21.42628,1.94604 34.24901,7.91718 41.92545,13.87158 0.0228,0.004 0.0454,0.008 0.0682,0.012 0.734,0.56983 1.40493,1.13798 2.04666,1.70388 0.13498,0.11902 0.26185,0.23615 0.3929,0.35481 0.51021,0.46192 0.94842,0.91114 1.40119,1.3651 0.48063,0.4818 0.94345,0.95492 1.3631,1.42324 0.31653,0.35314 0.60825,0.6912 0.89203,1.03436 0.38337,0.46347 0.73926,0.91005 1.06643,1.35107 0.23862,0.32149 0.46491,0.62882 0.67554,0.93614 0.29491,0.43018 0.55604,0.83281 0.79982,1.2308 0.17219,0.2809 0.34055,0.55116 0.48911,0.81385 0.21518,0.38023 0.3937,0.71894 0.56328,1.05641 0.11145,0.22155 0.22929,0.44026 0.32274,0.64146 0.15752,0.33885 0.2754,0.61862 0.38688,0.89403 0.0604,0.14898 0.11402,0.26404 0.16237,0.3929 0.27474,0.72548 0.38295,1.15671 0.38287,1.15663 -1.02915,-0.33248 -2.0478,-0.63885 -3.06097,-0.92411 -0.4089,-0.11509 -0.8123,-0.21305 -1.21877,-0.32073 -0.60795,-0.16112 -1.21735,-0.32403 -1.82015,-0.46906 -0.43832,-0.10539 -0.87322,-0.19755 -1.30898,-0.29467 -0.56122,-0.1252 -1.12261,-0.25091 -1.67982,-0.36283 -0.48385,-0.0971 -0.96427,-0.18322 -1.44529,-0.27062 -0.49354,-0.0898 -0.9866,-0.17869 -1.47736,-0.25858 -0.33439,-0.0544 -0.66712,-0.10244 -1.00028,-0.15235 -1.64368,-0.24655 -3.27058,-0.4279 -4.88913,-0.57331 -0.87982,-0.0789 -1.75389,-0.12648 -2.62798,-0.1784 -21.37387,-1.27099 -41.22401,5.21121 -68.28947,5.04348 z"
     transform="matrix(0.25779394,0,0,-0.25779394,-46.740983,136.77863)" />
  <path
     style="fill:#818181;stroke:none;stroke-width:0.264583px;stroke-linecap:butt;stroke-linejoin:miter;stroke-opacity:1;fill-opacity:1"
     d="m 0.13229135,35.297896 c 0,0 4.60164715,-16.39466 24.66632465,-23.582868 9.497358,-3.4024463 19.405384,-1.639045 24.361895,-0.986394 5.451509,0.71783 10.701842,-0.54268 10.701842,-0.54268 0,0 -4.877964,-1.7284132 -10.133305,-4.6598957 C 42.275121,1.3681817 37.06311,4.304411 37.06311,4.304411 c 0,0 1.400505,-2.3784191 0.549177,-3.2460831 -2.310664,-2.3550045 -11.056187,1.876295 -11.056187,1.876295 0,0 1.3506,-2.80233148 -0.986818,-2.8023314 -1.829607,6e-8 -9.218932,2.7174756 -14.162778,8.5987301 C 0.15168621,22.119879 0.13229135,35.297896 0.13229135,35.297896"
     id="path122"
     sodipodi:nodetypes="csscscscssc" />
</svg>
