<svg xmlns="http://www.w3.org/2000/svg" width="733.193" height="282.578" viewBox="0 0 193.991 74.765"><defs><clipPath id="a" clipPathUnits="userSpaceOnUse"><path d="M-9-9h614v860H-9Z" clip-rule="evenodd"/></clipPath><clipPath id="b" clipPathUnits="userSpaceOnUse"><path d="M-9-9h614v860H-9Z" clip-rule="evenodd"/></clipPath><clipPath id="c" clipPathUnits="userSpaceOnUse"><path d="M-9-9h614v860H-9Z" clip-rule="evenodd"/></clipPath><clipPath id="d" clipPathUnits="userSpaceOnUse"><path d="M-9-9h614v860H-9Z" clip-rule="evenodd"/></clipPath><clipPath id="e" clipPathUnits="userSpaceOnUse"><path d="M-9-9h614v860H-9Z" clip-rule="evenodd"/></clipPath><clipPath id="f" clipPathUnits="userSpaceOnUse"><path d="M-9-9h614v860H-9Z" clip-rule="evenodd"/></clipPath><clipPath id="g" clipPathUnits="userSpaceOnUse"><path d="M-9-9h614v860H-9Z" clip-rule="evenodd"/></clipPath><clipPath id="h" clipPathUnits="userSpaceOnUse"><path d="M-9-9h614v860H-9Z" clip-rule="evenodd"/></clipPath><clipPath id="i" clipPathUnits="userSpaceOnUse"><path d="M-9-9h614v860H-9Z" clip-rule="evenodd"/></clipPath><clipPath id="j" clipPathUnits="userSpaceOnUse"><path d="M-9-9h614v860H-9Z" clip-rule="evenodd"/></clipPath><clipPath id="n" clipPathUnits="userSpaceOnUse"><path d="M-9-9h614v860H-9Z" clip-rule="evenodd"/></clipPath><clipPath id="k" clipPathUnits="userSpaceOnUse"><path d="M-9-9h614v860H-9Z" clip-rule="evenodd"/></clipPath><clipPath id="l" clipPathUnits="userSpaceOnUse"><path d="M-9-9h614v860H-9Z" clip-rule="evenodd"/></clipPath><clipPath id="o" clipPathUnits="userSpaceOnUse"><path d="M-9-9h614v860H-9Z" clip-rule="evenodd"/></clipPath><clipPath id="m" clipPathUnits="userSpaceOnUse"><path d="M-9-9h614v860H-9Z" clip-rule="evenodd"/></clipPath><clipPath id="p" clipPathUnits="userSpaceOnUse"><path d="M-9-9h614v860H-9Z" clip-rule="evenodd"/></clipPath></defs><g style="display:inline"><text xml:space="preserve" x="-86.563" y="109.475" style="font-weight:700;font-size:13.6548px;line-height:1.25;font-family:&quot;IBM Plex Sans&quot;;-inkscape-font-specification:&quot;IBM Plex Sans Bold&quot;;text-align:center;text-anchor:middle;fill:#4470a2;fill-opacity:1;stroke-width:.341373" transform="translate(86.323 -51.065)"><tspan x="-86.563" y="109.475" dx="0 -0.60000002 0 0 0 0 0 0 0 0 0 0 0 0 -0.40000001 0 0 0 0 0 0.30000001" style="font-style:normal;font-variant:normal;font-weight:400;font-stretch:normal;font-family:Corben;-inkscape-font-specification:Corben;text-align:start;text-anchor:start;fill:#4470a2;fill-opacity:1;stroke-width:.341373">Partneriaeth Natur Ceredigion</tspan></text><text xml:space="preserve" x="-86.56" y="122.973" style="font-weight:700;font-size:13.511px;line-height:1.25;font-family:&quot;IBM Plex Sans&quot;;-inkscape-font-specification:&quot;IBM Plex Sans Bold&quot;;text-align:center;letter-spacing:0;text-anchor:middle;fill:#6e9a68;fill-opacity:1;stroke-width:.337779" transform="translate(86.323 -51.065)"><tspan x="-86.56" y="122.973" dx="0 0.30000001 0 0 0 0 0 0 0 0 0 0 -0.40000001 0 0 0 0 0 0 -0.60000002 0 0 0 0 0 0 -0.17" style="font-style:normal;font-variant:normal;font-weight:400;font-stretch:normal;font-family:Corben;-inkscape-font-specification:Corben;text-align:start;letter-spacing:0;text-anchor:start;fill:#6e9a68;fill-opacity:1;stroke-width:.337779">Ceredigion Nature Partnership</tspan></text></g><g style="display:inline"><g style="display:inline"><path d="M188.943 399.185c22.054 55.655 77.54 84.885 120.804 89.458 45.004 4.757 70.164-11.545 104.822-.348 0 0-5.618-23.94-52.939-28.239.001 0-.328-25.546-45.892-27.593-35.949-1.954-48.686 6.844-80.76.786-24.643-4.655-40.797-21.967-46.035-34.064" clip-path="url(#a)" style="fill:#4470a2 icc-color(ISO-Coated-v2-ECI,.70199585,.3999939,0,.25099182);fill-opacity:1;fill-rule:evenodd;stroke:none" transform="matrix(.35278 0 0 -.35278 -7.56 186.948)"/><path d="M188.943 399.185c4.987 12.585 11.685 23.818 19.564 33.72 31.121 8.76 73.439 15.003 103.437 16.927 13.357.856 24.28.858 30.687-.153 6.762-1.067 8.713-3.225 3.652-6.648-3.863-2.613-12.128-6.007-25.92-10.265-1.49-.128-3.026-.232-4.625-.304-35.949-1.953-48.686 6.845-80.76.787-24.643-4.655-40.797-21.967-46.035-34.064m36.018 51.116a165 165 0 0 0 2.268 1.987 154 154 0 0 0 3.458 2.879 148 148 0 0 0 2.345 1.854 144 144 0 0 0 3.566 2.683 182 182 0 0 0 2.41 1.723 162 162 0 0 0 3.657 2.486 158 158 0 0 0 6.197 3.882 163 163 0 0 0 2.51 1.462l1.26.711.119-.011a5384 5384 0 0 1 13.955 3.303c16.22 3.853 30.762 7.309 39.605 8.847 10.954 1.906 20.922 3.336 26.048 3.323 1.373-.003 2.413-.111 3.04-.342.774-.283 1.017-.733.64-1.372-.289-.489-1.027-1.097-2.274-1.84-7.067-4.205-11.118-7.366-12.605-9.555-.78-1.147-.82-1.996-.198-2.556.678-.61 2.098-.94 4.173-1.004 6.444-.194 18.993 2.237 35.321 6.917l1.822.522c11.832 3.393 21.046 6.035 29.776 8.154 7.244.273 14.633 1.394 22.515 3.94 0 .001-1.681-7.16-10.946-14.353q-1.96-.315-3.916-.639c-18.674-3.088-37.188-6.732-58.876-11.57-42.136-9.4-43.643-4.84-45.014-.686-1.398 4.232-2.65 8.021-53.352-6.014a1751 1751 0 0 0-17.504-4.731" clip-path="url(#b)" style="fill:#4d7eb8 icc-color(ISO-Coated-v2-ECI,.70199585,.3999939,0,.10198975);fill-opacity:1;fill-rule:evenodd;stroke:none" transform="matrix(.35278 0 0 -.35278 -7.56 186.948)"/></g><path d="m227.521 457.388-.74-.583-.266.049h-.005l-.265.05-.014.002-.264.05-.024.004-.118.023-.028.005-.116.022-.032.006-.406.08-.047.008-.101.02-.053.01-.097.02-.058.011-.093.02-.063.011-.089.018-.385.077-.076.016-.727.147-.052.011-.11.023-.046.01-.115.024-.042.009-.604.125-.022.005-.14.03-.016.003-.144.03-.012.004-.149.03-.006.002-.309.066h-.002l-.15.034h-.008l-.145.032-.012.002-.139.03-.017.004-.133.029-.022.005-.127.028-.027.006-.122.026-.03.007-.116.026-.036.007-.11.025-.039.008-.105.024-.043.009-.099.022-.048.01-.093.022-.051.01-.088.02-.055.013-.082.018-.06.014-.076.017-.062.014-.071.016-.066.015-.066.015-.068.016-.06.014-.072.016-.056.013-.074.017-.05.011-.077.018-.045.01-.08.019-.04.009-.08.019-.037.009-.083.019-.033.008-.083.02-.028.007-.085.02-.024.006-.087.02-.02.005-.086.021-.016.004-.088.021-.012.003-.087.022-.01.002-.087.021-.006.001-.087.022h-.003l-.087.022c-4.37 1.097-10.131 2.583-14.992 4.458l.413.777c4.988-1.994 11.066-3.572 15.63-4.71l.087-.02.003-.001.087-.022.006-.001.088-.022.009-.002.087-.021.013-.002.087-.021.016-.004.087-.022.02-.004.086-.02.024-.006.085-.02.028-.008.084-.02.032-.007.083-.02.036-.008.08-.02.042-.009.079-.018.046-.01.076-.018.05-.012.074-.017.056-.013.071-.016.061-.014.068-.016.067-.015.065-.014.071-.017.062-.013.077-.018.059-.013.082-.019.055-.012.088-.02.05-.011.094-.021.048-.01.099-.023.043-.01.105-.023.039-.008.11-.024.036-.007.115-.026.032-.007.122-.027.026-.006.127-.027.022-.004.133-.03.017-.003.139-.03.012-.003.145-.032.008-.001.15-.033h.004l.308-.066.006-.002.149-.031.011-.002.144-.03.017-.004.14-.03.021-.004.605-.126.042-.01.115-.023.047-.01.11-.023.051-.01.727-.148.076-.016.385-.077.089-.018.063-.012.093-.019.058-.011.097-.02.053-.01.1-.02.048-.01.405-.078.033-.006.116-.023.028-.005.118-.022.024-.004.263-.05.014-.003zm132.395 33.174-6.508 1.102-5.056 1.162-8.78.528-.048.003-.196.013-.026.002-.24.018h-.002l-.26.02-.03.003-.249.021-.063.005-.232.02-.101.01-.211.019-.143.014-.185.017-.188.018-.39.038-.122.012-.287.029-.084.009-.34.035-.043.004-.397.042-.408.043-.046.005-.372.04-.095.01-.334.037-.145.017-.293.032-.197.022-.25.028-.252.028-.203.023-.307.035-.155.018-.365.041-.104.012-.422.049-.053.006-.48.056-.484.057-.054.007-.435.051-.109.013-.382.046-.165.02-.329.039-.22.027-.275.032-.277.035-.22.026-.331.04-.166.02-.386.048-.11.014-.44.054-.055.007-.494.061-.49.062-.055.007-.434.054-.107.014-.376.048-.16.02-.319.04-.211.027-.263.034-.26.033-.207.026-.309.04-.153.02-.353.046-.1.013-.396.051-.05.007-.435.058-.428.056-.046.006-.37.05-.091.011-.314.042-.133.02-.26.034-.172.023-.21.029-.208.028-.161.022-.238.033-.117.016-.265.037-.074.011-.29.04-.036.005-.308.045-.293.042-.031.005-.243.036-.06.008-.198.03-.081.012-.157.024-.1.015-.119.019-.112.017-.087.014-.12.02-.057.01-.123.02-.033.006-.12.021-.014.002-.111.022-.042.008c-.327.021-.66.061-.997.131-3.3.309-10.666.225-13.484 1.39-.449.186-2.457.417-4.741.71-.759-.293-1.985.126-2.314.314-.5.073-.991.148-1.464.226-2.69.093-8.366-.194-9.451-.415-2.28-.465-2.957-.398-5.19-.642-2.573-.28-.469-.742-6.86-.416-2.342.12-2.684-.63-3.233-.52-3.242.66-4.029-1.34-6.094.09.299-.205-.765-.212-.767-.193-.306 2.066-5.207.817-5.994 1.283-.602.356-.957.747-1.14 1.132-1.003-.066-1.775-.094-1.902-.041-.267.11-5.584-.673-5.953-.937-.25-.177-5.496-1.035-5.664-.935-.674.4-3.144-1.112-3.918-.96-.26-.17-.45-.173-.567-.327-.382-.497-2.702-.997-3.3-1.457l-.005.01-.007.013-.007.013-.007.013-.101.194-.008.015-.023.044.007.004.007.004.007.005.007.004.007.005.007.004.007.005.007.005.007.005.007.005.007.004.007.005.007.005.006.004v.001l.008.005.004.002.004.002.007.005.006.004.008.005.007.005.003.002.005.003.007.005.006.004h.002l.007.006.003.002.004.003.007.005.006.004.001.001.007.005.007.005.007.005.006.004h.001l.007.006.007.005.007.005h.001l.006.004.009.006.007.005h.003l.005.004.007.004.005.005h.002l.007.006.007.005h.002l.006.004.007.005.004.003.003.002.003.002.005.003.007.005.007.005.009.005.003.003.004.003.008.005.006.006.009.005.008.005.007.005.007.005.008.005.007.005.002.002.005.004.001.001.006.004.009.006.008.006.007.005h.002l.006.005c.011.008 3.353 1.311 3.837 1.598.168.1.338.094.598.265.774-.152 3.416 1.188 4.09.789.168-.1 5.413.757 5.663.935.37.264 5.686 1.046 5.953.936.128-.052.9-.025 1.902.042.183-.385.538-.777 1.14-1.133.788-.466 5.688.784 5.994-1.283.003-.018 1.066-.012.768.195l.096-.065.094-.06.092-.055.091-.05.09-.046.087-.041.087-.038.085-.033.078-.027.006-.002.008-.002.075-.023.082-.022.08-.019.08-.015.077-.011h.003l.04-.006.039-.004h.002l.076-.006.077-.003h.078l.076.002.077.004.076.007.076.009.077.01.076.013.077.014.077.016.038.008.039.009.038.009.039.01.04.01.038.01.079.02.04.011.04.01.04.012.04.011.08.023.042.011.04.011.042.012.042.012.042.011.042.012.043.012.042.012.044.011.043.012.044.012.044.011.045.012.045.011.045.011.046.011.046.011.046.01.047.01.048.011.048.01.048.01.049.01.049.008.05.01.05.008.102.016.105.014.106.013.109.01.11.01.114.007.088.004h.029l.029.001.09.002h.121l.125-.003.127-.006.13-.01.134-.01.137-.016.14-.018.143-.021.146-.026.15-.029.013-.003.013-.002.013-.002h.013l.01-.002h.068l.01.001c.428.035.851.59 2.408.57.193-.012.416-.027.685-.042l.114-.006.114-.007.11-.006.11-.006.108-.005h.035l.037-.003.035-.002h.006l.045-.002.153-.007h.004l.378-.017h.019l.053-.002.042-.002c1.61-.065 2.56-.053 3.128-.001.266.052.507.116.775.183a.26.26 0 0 1 .084.097l.005.01.004.01.001.002v.002l.002.002v.003l.002.002v.002l.002.003v.002l.001.002.001.002v.002l.002.002v.002l.001.002.001.003.001.002v.002l.002.003v.003l.002.002v.002l.001.002.001.002.002.007.001.002v.002l.002.002v.002l.001.002.001.002.001.002.001.002.001.002v.002h.001l.001.003.001.002.001.002.003.004v.002l.002.002.002.003v.002l.002.002v.002l.003.002.005.006.002.002.002.002.002.002.002.002.002.002.002.002.002.002v.001l.002.001.002.002v.001h.001l.002.003.003.002.002.002.003.002.002.002.002.002.003.002.002.002.002.001.004.003.003.002.003.002h.001l.002.002.003.002.003.002.003.002.004.001.003.002.003.002.003.002.004.001.003.002.004.001.003.001h.001l.004.001.004.002.004.001.002.001.002.001.004.002.005.001.005.001.005.001.005.002.005.001.005.001.004.001h.003l.013.004.022.005h.006l.017.004.024.004h.001l.053.006h.002l.03.003.028.002h.005l.034.003.037.002h.04l.027.001h.153l.05-.001.054-.002h.024l.033-.002.06-.002.063-.003.065-.003.069-.004.071-.005.075-.005.079-.006h.007l.16-.013c1.2.148 1.883.093 2.615.085.225.039.451.086.69.139l.036.008.036.008.037.008.011.003.025.006.037.008.013.003.024.006.037.008.015.003.023.004.037.01.016.003.022.004.039.01.017.003.021.005.04.01.018.004.02.005.04.009.02.005.02.005.04.009.023.005.018.004.04.009.025.006.016.004.042.009.042.01.042.01.028.006.015.003.043.01.044.01.043.01.033.007.012.003.045.01.034.007.01.002.046.01.037.008.009.002.047.01.038.01.008.002.048.01.048.01.048.01.044.01h.005l.05.011.05.01.05.011.05.01.002.001.051.01.052.011c1.086.221 6.762.508 9.452.416.472-.08.964-.154 1.464-.227.329-.188 1.555-.607 2.314-.313 2.283-.294 4.292-.525 4.74-.71l.005-.002.005-.002.005-.002.005-.002.005-.002.005-.002.005-.002.058-.022.005-.002.005-.002.006-.002.005-.002.005-.002.005-.002.005-.002.005-.002.006-.002.005-.002.005-.002.006-.002.005-.002.01-.004.006-.002.005-.002.006-.002.005-.002.005-.002.005-.002.006-.002.006-.002.005-.002.006-.002.005-.002.005-.002.005-.002.006-.002.005-.002.005-.002.006-.002.006-.002.006-.002.005-.002.006-.002.006-.002.006-.002.005-.002.006-.002.005-.002.006-.002.006-.002.006-.002.006-.002.006-.002.035-.012.106-.035.036-.01.037-.012.036-.011.038-.012.037-.01.004-.001.004-.001.004-.001.004-.001.004-.001.004-.001.004-.002.009-.002.004-.001.004-.001.004-.001.004-.001.004-.001.004-.001.004-.001.004-.001.004-.001h.004l.004-.003h.004l.004-.002h.004l.004-.002h.004l.004-.002h.004l.002-.001h.003l.004-.002h.004l.004-.002h.004l.005-.002h.004l.004-.002h.004l.003-.001h.002l.004-.002h.004l.004-.002h.004l.004-.002h.004l.004-.002h.005l.003-.002h.001l.004-.001.004-.001.004-.001h.005l.004-.003h.004l.004-.002.004-.002h.003l.006-.002.005-.002h.004l.005-.001.004-.002.004-.001.005-.001.004-.001h.005l.04-.011.04-.01.008-.002.007-.002.008-.002.008-.002.007-.002.003-.001.005-.001.008-.002.007-.002.008-.002.008-.002.005-.001h.003l.008-.002.007-.002.008-.002.008-.002.008-.002.008-.002.008-.002.008-.002.008-.002.008-.002h.002l.005-.002.008-.002.008-.002.008-.002.008-.002h.005l.002-.001.008-.002.008-.002.008-.002.008-.002.008-.002.008-.003.008-.002.008-.002.008-.002.008-.002h.007l.008-.003.008-.002.008-.002.008-.002h.005l.003-.001.008-.002.008-.001.008-.002.008-.002.008-.002.008-.002.008-.001.008-.002.008-.002.008-.002.002-.001.005-.001.008-.002.008-.001.008-.002.008-.002.006-.001h.003l.008-.003.008-.002.008-.002h.008l.008-.003.043-.009.045-.009.044-.009.044-.009.045-.009h.005l.005-.001.005-.001.005-.001h.005l.005-.002h.005l.005-.002h.005l.005-.001.005-.001.005-.001.005-.001.005-.001h.005l.005-.002h.005l.005-.002h.005l.005-.001.005-.001.005-.001h.005l.005-.002h.005l.005-.002h.007l.003-.001.005-.001.005-.001.005-.001h.005l.005-.002h.005l.005-.002h.008l.002-.001.005-.001.005-.001.005-.001h.005l.01-.003h.005l.005-.002h.006l.005-.001.01-.002.005-.001.005-.001.005-.001h.005l.005-.002h.004l.005-.002h.005l.005-.001.005-.001.005-.001h.005l.005-.002h.005l.005-.002.047-.008.047-.008.016-.003.017-.003.014-.002h.002l.016-.003.017-.003.012-.002h.005l.017-.003.017-.003.01-.001.007-.001.016-.003.017-.002.007-.002.01-.001.016-.002.017-.003.034-.005.016-.003h.002l.015-.003.017-.003.017-.003.034-.005.014-.002h.002l.017-.003.017-.003.086-.012.018-.003.104-.015h.003l.032-.005.017-.003.018-.002.017-.003.015-.002h.002l.018-.003.018-.002.012-.002h.005l.018-.003.018-.002h.01l.007-.002.018-.002.025-.003h.01l.018-.004.018-.002h.005l.013-.002.017-.003.018-.002h.003l.016-.002.017-.002.019-.002.017-.002.018-.002.018-.002.018-.003.014-.001.011-.001.01-.001.011-.002.011-.001.01-.001.012-.001.01-.001.011-.001.011-.001.01-.001.012-.002.01-.001.011-.001.011-.001.01-.001.012-.002.01-.001.011-.001.011-.001h.002l.01-.002h.01l.011-.002h.011l.011-.002h.01l.012-.002h.01l.012-.002h.01l.011-.002h.012l.01-.002h.011l.011-.002h.011l.011-.002h.011l.011-.002h.011l.011-.001.012-.001.01-.001.011-.001.011-.001.011-.001.012-.001.01-.001.012-.001.01-.001.012-.001.01-.001.012-.001.01-.001.012-.001.011-.001.011-.001.011-.001.011-.001.023-.002h.003l.02-.003h.01l.012-.002.143-.015.045-.005h.008l.008-.001.009-.001h.008l.009-.001.008-.001.008-.001.009-.001h.008l.009-.002h.008l.008-.001.009-.001.008-.001h.008l.008-.002h.008l.009-.001.008-.001.009-.001h.008l.008-.001.009-.001.008-.001h.008l.008-.001.008-.001.009-.001.009-.001h.008l.008-.002h.008l.009-.001.009-.001h.008l.009-.002h.008l.008-.001.009-.001h.008l.009-.001.008-.001.008-.001h.009l.008-.001.008-.001.009-.001.008-.001h.009l.008-.001.008-.001.009-.001h.008l.008-.002h.009l.008-.001h.008l.009-.002h.008l.009-.001.008-.001h.009l.008-.002h.009l.147-.014.297-.025.15-.012.45-.034.08-.006.072-.005.151-.01.02-.001.132-.01.112-.007.04-.002.152-.01.052-.003.253-.016.153-.009.084-.005.069-.004.152-.009h.023l.245-.014.037-.002.152-.008.054-.003h.015l.016-.001.015-.001.015-.001h.015l.016-.002h.016l.015-.001h.015l.016-.002h.015l.575-.029h.015l.045-.002.015-.001.015-.001h.02l.01-.001.015-.001.015-.001h.015l.015-.001.016-.001h.015l.014-.001.336-.016.08-.004.08-.004.08-.003.08-.003.078-.004.079-.004.078-.003.08-.004.077-.003.078-.003.232-.01.077-.003.076-.003.076-.003.077-.004.075-.003.075-.003.04-.002.035-.002.015-.001h.015l.016-.001.015-.001h.014v-.001h.016l.014-.002h.031l.012-.001h.002l.016-.001.015-.001h.015l.026-.002h.019l.03-.002h.014l.03-.002h.015l.03-.001h.009l.006-.001.03-.001h.014l.015-.002h.029l.015-.002h.015l.015-.001h.007l.008-.001h.015l.014-.001h.015l.014-.002h.03l.014-.002h.015l.014-.001h.014l.015-.001.014-.001h.015l.014-.001h.003l.011-.001h.015l.014-.002h.014l.015-.001h.014l.015-.001.013-.001h.015l.014-.001h.001l.013-.001.015-.001h.013l.015-.001.014-.001.07-.004.024-.001.044-.002.068-.004.069-.003.2-.011.067-.004.065-.004.065-.004.065-.004.064-.004.126-.008.062-.004.062-.004.061-.004.06-.004.06-.004.06-.004.06-.004.057-.004h.006l.052-.005.057-.005.056-.004.057-.005.055-.005.054-.005.054-.005.053-.005.053-.005q.505-.102.997-.13l.041-.008.111-.022.014-.003.12-.021.033-.005.124-.021.056-.01.121-.02.086-.014.113-.018.119-.019.1-.015.156-.024.082-.012.198-.03.06-.008.242-.036.032-.005.292-.042.309-.044.035-.005.29-.04.074-.01.266-.038.117-.016.238-.033.16-.022.208-.028.21-.029.172-.023.26-.035.133-.019.314-.042.091-.011.37-.05.047-.006.427-.056.436-.057.05-.007.396-.052.1-.013.353-.046.152-.02.31-.04.206-.026.26-.033.263-.034.212-.027.135-.017.183-.023.16-.02.333-.042.043-.005.108-.014.433-.055.055-.007.49-.06v-.001l.494-.061.055-.007.046-.006.348-.044.047-.006.051-.006.058-.007.193-.024.194-.023.155-.02h.01l.332-.04.007-.002.213-.025.276-.034.209-.025.066-.008.22-.027.33-.04.079-.01.085-.01.26-.03.122-.015.11-.013.113-.014.32-.037.023-.003.032-.004.484-.057.165-.02.315-.036.053-.006.302-.035.12-.014.105-.012.364-.042.071-.008.084-.009.307-.034.203-.023.252-.029.25-.027.197-.023.293-.032.136-.015.01-.001.159-.018.175-.018.094-.01.372-.04.047-.006.143-.015.264-.028.396-.042.384-.04.084-.007.287-.03.121-.01.391-.039.188-.018.034-.003.15-.014.144-.014.16-.014.05-.005.102-.01.063-.005.169-.015.038-.003.025-.002.25-.021.01-.001.02-.002.26-.02h.003l.172-.013.065-.005.027-.002.07-.005.153-.01.021-.001.121-.007.132-.007.083-.004-.588.052-.004-.003.592-.049c.373-.016.595-.009.628.025 3.69-.358 6.19-.562 6.702-.526.97.071 2.683-.74 5.382-1.218l.013-.002.012-.002.012-.002.012-.002.013-.002h.008l.004-.001.012-.002.012-.002.013-.002.012-.002.013-.002.003-.001.009-.001.012-.002.013-.002.013-.002.012-.002.012-.002.013-.002.013-.002.013-.002.013-.002.012-.002h.008l.005-.001.013-.002.013-.002.013-.002.013-.002.013-.001.003-.001.01-.001.013-.001.013-.002.013-.002.013-.001.011-.002h.001l.014-.002.013-.001.013-.001.013-.001.013-.001.007-.001h.006l.013-.003h.014l.013-.002h.013l.013-.002h.014l.014-.002h.013l.013-.002h.014l.011-.002h.016l.013-.002h.014l.013-.002h.014l.007-.001.007-.001.014-.001h.013l.014-.002h.014l.013-.002h.014l.014-.002h.003l.049-.004.015-.001.063-.004h.001l.065-.004.066-.004.027-.002.039-.002.042-.002.024-.001.056-.003h.01l.067-.004h.004l.063-.003.02-.001.048-.002.034-.001.034-.001.048-.002h.02l.063-.003h.005l.069-.002h.01l.059-.002h.025l.044-.001.04-.001.085-.002h.014l.07-.003.07-.002h.015l.055-.001h.03l.04-.002h.046l.024-.001.062-.001h.009l.07-.002h.006l.065-.002.021-.001.05-.001h.036l.034-.002h.052l.019-.001.067-.002h.003l.071-.002.012-.001.06-.002.026-.001.044-.001.043-.002.028-.001.057-.002h.014l.07-.004h.002l.069-.003h.017l.054-.003.032-.001.038-.002.048-.003.022-.001.063-.004h.007l.07-.005h.008l.062-.004.023-.002.047-.003.038-.003.032-.002.052-.004.017-.001.067-.005h.002l.07-.007h.012l.056-.006.028-.002.04-.004.043-.004.025-.003.057-.006h.011l.068-.009h.004l.063-.008.018-.002.049-.007.032-.005.034-.005.007-.001.06-.009.06-.009h.006l.065-.011.01-.002.055-.01.023-.004.042-.008.037-.007.027-.005.05-.01.014-.003.063-.013.153-.032.02-.004.133-.029.038-.008.116-.025.056-.012.097-.02.075-.017.079-.017.094-.02.06-.013.112-.024.04-.01.132-.028.022-.005.15-.033h.003l.153-.034.016-.003.138-.03.034-.009.119-.026.053-.012.1-.022.071-.016.081-.018.09-.02.064-.015.108-.024.044-.01.127-.03.025-.005.146-.033.007-.001.152-.035.012-.002.14-.032.03-.007.12-.028.05-.011.1-.024.068-.015.083-.02.086-.02.065-.015.103-.024.047-.011.121-.029.028-.007.14-.033.008-.002.15-.035.008-.002.14-.033.026-.007.12-.029.046-.01.102-.025.062-.015.084-.02.08-.02.066-.016.098-.023.048-.012.114-.028.03-.007.132-.033.012-.003.144-.035.006-.001.137-.034.022-.006.12-.03.04-.01.101-.025.057-.014.084-.021.074-.02.065-.015.09-.023.05-.013.106-.027.032-.008.122-.032.015-.004.136-.035h.002l.134-.035.019-.005.116-.03.035-.009.099-.026.05-.013.082-.022.067-.017.065-.017.083-.022.049-.013.097-.026.032-.008.113-.03.016-.004.128-.035.127-.034.015-.004.11-.03.03-.008.095-.026.045-.013.08-.021.058-.017.064-.017.073-.02.048-.014.087-.025.032-.009.102-.028.017-.005.115-.033h.003l.015-.005.029-.009.014-.004.014-.004.014-.004.014-.004.014-.004q.394-.114.759-.223-1.574.178-3.154.37l-.778.094c-1.311.247-2.951.52-5.027.818zM242.19 473.978c.015-.002.396 0 .603.006.555.016 1.084.002 1.474.149.473.177.396.048.62.44.086.148 1.516.163 1.683.492.05.156.23.24.113.31-1.626-.373-2.042-.538-2.067-.784-.014-.14-.249-.312-2.076-.356l-.156-.003h-.01l-.152-.003h-.012l-.149-.002h-.176l-.143-.001h-.339l-.133.002h-.026l-.13.002h-.029l-.127.002-.03.001-.125.003h-.032l-.122.004h-.035l-.119.003-.036.001-.117.003-.039.001-.114.004-.04.001-.112.004-.043.001-.109.004-.045.002-.106.004-.047.002-.104.004-.05.002-.101.004-.052.002-.099.004-.053.002-.097.004-.056.003-.094.005-.058.003-.092.004-.06.003-.09.004-.062.003-.087.004-.065.003-.085.004-.067.003-.083.004-.069.003-.08.004-.072.003-.078.003-.074.003-.076.003-.076.003-.074.003-.078.003-.072.003-.08.003-.07.003-.083.003-.068.002-.085.003-.066.002-.087.003-.063.002-.091.003-.061.002-.152.004-.095.002-.057.001-.098.002-.055.001-.1.002-.053.001-.103.001h-.05l-.107.002h-.203l-.111.001h-.2l-.117-.001h-.04l-.158-.003-.123-.002h-.035l-.126-.004h-.033l-.13-.005h-.03l-.132-.005-.03-.001-.134-.005-.027-.001-.139-.006h-.024l-.141-.008h-.022l-.146-.009h-.02l-.148-.01h-.017l-.167-.012-.155-.011-.013-.001-.16-.013-.01-.001-.162-.014-.008-.001-.166-.016h-.005l-.17-.018h-.004l-.174-.019-.022-.003-.023-.002-.012-.002h-.01l-.022-.004-.022-.002h-.002l-.02-.002-.021-.003-.015-.002h-.007l-.022-.004-.022-.002h-.004l-.017-.003-.021-.002-.017-.002h-.005l-.021-.003-.021-.003h-.007l-.015-.003-.021-.003-.018-.002h-.003l-.021-.003-.021-.003-.01-.001-.011-.002-.021-.003-.02-.003h-.001l-.02-.003-.021-.003-.011-.001-.01-.002-.02-.003-.021-.003h-.002l-.019-.002-.02-.003-.013-.002-.007-.001-.02-.003-.02-.003h-.004l-.016-.004-.02-.003-.015-.002h-.005l-.02-.003-.02-.003-.006-.001-.014-.002-.02-.003-.016-.003h-.003l-.02-.004-.019-.003h-.008l-.011-.003-.02-.003-.018-.003-.039-.007-.01-.002-.009-.002-.13-.023-.003-.001-.046-.01h-.005l-.018-.003-.018-.004-.005-.001-.013-.002-.018-.004-.015-.003h-.003c-.586-.12-1.039-.275-1.318-.472-.22-.156-1.035-.352-2.103-.584l-.031-.007-.135-.029-.174-.037-.023-.005-.155-.034-.181-.038-.01-.002-.175-.037h-.002l-.18-.039h-.005l-.189-.041-.17-.036-.021-.004-.165-.036-.029-.006-.158-.034-.036-.008-.152-.033-.044-.01-.197-.043-.137-.03-.06-.014-.198-.044-.198-.044-.198-.046-.197-.046-.39-.093-.194-.047-.073-.018-.119-.03-.19-.048-.056-.015-.179-.047-.136-.036-.182-.05-.032-.01-.171-.048-.15-.044-.017-.005-.164-.05-.157-.048h-.003l-.013-.005-.014-.005-.013-.004-.013-.005-.014-.004-.013-.004-.013-.004-.014-.005-.013-.004-.013-.004-.052-.017-.013-.004-.013-.005-.014-.004-.012-.004-.013-.005-.013-.004-.013-.005-.064-.022-.012-.005-.013-.005-.012-.004-.013-.004-.012-.005-.013-.004-.012-.005-.013-.004-.012-.004-.012-.005h-.004l-.008-.004-.013-.005-.012-.005-.012-.004-.012-.005-.012-.004-.012-.004-.012-.005-.012-.004-.012-.005-.012-.005-.012-.004-.006-.002-.005-.002-.012-.004-.012-.005-.023-.009-.012-.005-.012-.004-.011-.005-.012-.005-.011-.004-.012-.005-.01-.005-.01-.003h-.003l-.011-.006-.012-.004-.01-.005c-.49-.195-.867-.396-1.061-.613-.097-.104-1.1-.378-2.53-.717h-.001l-.092-.022-.035-.008-.202-.047h-.002l-.21-.05-.033-.007-.182-.042-.068-.015-.152-.035-.104-.024-.12-.026-.142-.032-.537-.12-.013-.003-.237-.053-.026-.005-.279-.06-.178-.04-.104-.022-.285-.06-.102-.023-.185-.04-.064-.013-.225-.047-.024-.005-.25-.053-.016-.003-.236-.05-.056-.01-.196-.041-.096-.02-.156-.032-.136-.028-.116-.024-.175-.036-.076-.015-.215-.043-.036-.007-.25-.05h-.004l-.244-.05-.044-.007-.203-.04-.083-.017-.283-.055-.122-.023-.158-.03-.083-.017-.194-.036-.043-.008-.23-.044h-.005l-.232-.044-.03-.005-.198-.037-.066-.011-.158-.03-.1-.018-.12-.021-.132-.024-.084-.014-.162-.029-.048-.008-.192-.033-.014-.002-.201-.034-.018-.003-.177-.03-.048-.008-.141-.022-.076-.012-.107-.017-.101-.016-.076-.012-.124-.019-.046-.007-.144-.02-.174-.025h-.007l-.141-.02-.03-.003-.11-.014-.05-.006-.082-.01-.066-.007-.058-.006-.08-.008-.035-.003-.09-.008-.016-.001-.096-.006.024-.165.005-.027.006-.02.002-.005.001-.004.002-.004.002-.004.002-.004.002-.004.002-.004.003-.004.011-.018.001-.002.001-.002.015-.017v-.002h.002l.01-.01.003-.004.003-.003.002-.002.005-.004.007-.005.004-.003.004-.003.008-.006.004-.003.004-.003.004-.003.004-.002.004-.002.005-.002.004-.003.005-.002.004-.002.005-.002.005-.003.005-.002.005-.002.005-.002.005-.002.005-.002.005-.002.005-.002.005-.002.005-.002c3.019.453 9.272 1.777 11.549 2.406.55.11 1.333.286 1.45.359l.004.003.036.01c.379.111 2.404 1.157 2.821 1.26s.849.204 1.279.3c.43.095.858.188 1.272.275s.813.172 1.184.252c.37.08.713.156 1.012.228q.237.056.436.109h.004l.007.003h.005c.113.03.064.016.154.043.125.039.84.114.918.15.462.145.695.344 1.782.532.12.02 1.5.266 1.499.3 3.297.263 5.948-.016 9.155.126.258.012.482.02.685.035zm49.24 15.17c-.64.17-1.204.352-2.008.622l-.025.01-.02.005-.044.014-.002.001-.043.014-.016.005-.026.009-.032.01-.01.003-.04.013-.007.002-.032.011-.022.007-.016.005-.035.011h-.001l-.036.011-.012.005-.021.007-.026.007-.007.003-.03.01-.006.001-.025.007-.016.005-.012.003-.027.008-.025.007-.01.002-.014.004-.019.005h-.004l-.021.007h-.004l-.015.004-.01.002-.008.002-.016.003c-.336.069-12.161.977-12.21.971-.122-.015-1.46-.179-2.716-.05-4.692-.787-12.144-.318-14.673-.616-3.427-.405-23.108-.64-25.666-1.136-2.747-.531-8.646-.435-8.585-.458-.962.355-3.03.765-5.06 1.272.048.06.963 1.186.532.658 2.186-.57 4.535-1.02 5.579-1.405-.06.024 5.838-.073 8.585.459 2.558.495 22.239.73 25.666 1.136 2.529.298 9.94.005 14.632.791 1.256-.128 2.635-.14 2.758-.125.048.006 11.874-.903 12.21-.97l.015-.004.007-.002.01-.002.016-.004h.004l.021-.006.005-.001.018-.005.014-.004.01-.003.025-.007.027-.008.012-.003.016-.004.025-.007.005-.002.03-.01.008-.001.025-.007.022-.007.012-.005.035-.01.001-.001.036-.011.016-.005.021-.007.033-.01.006-.003.04-.013.01-.003.031-.01.027-.01.016-.004.043-.014.002-.001.043-.014.02-.007.026-.01.04-.013.006-.002.048-.016.012-.004.037-.012.032-.011.017-.006.05-.016.004-.001.048-.017.024-.008.029-.009.045-.016.008-.003.054-.017.013-.005.041-.013.037-.013.018-.007.057-.018.003-.001.053-.019.027-.009.03-.01.05-.017.009-.003.058-.02.016-.005.043-.014.04-.014.02-.007.06-.02.005-.002.056-.019.03-.01.031-.01.055-.02.007-.001.062-.021.018-.006.045-.015.043-.015.02-.007.062-.021.006-.002.058-.019.03-.01.033-.011.057-.019.007-.002.064-.022.019-.006.044-.014.046-.015.019-.006.064-.022.007-.002.058-.02.033-.01.032-.01.058-.02.006-.001.065-.021.02-.007.045-.014.046-.015.018-.006.064-.021.008-.003.056-.018q-.735-.166-1.47-.34zm-39.328-11.87c.161.058.42-.003.726-.118l.052-.011.009-.002.088-.02h.004l.084-.018.017-.003.07-.014.031-.006.058-.01.043-.01.045-.009.056-.01.032-.006.07-.012.018-.003.083-.014.006-.001.088-.015h.007l.08-.014.021-.003.068-.01.033-.005.055-.008.046-.007.042-.006.06-.008.028-.004.073-.01.015-.002.085-.01h.002l.088-.012h.011l.076-.01.024-.003.064-.007.037-.003.05-.005.05-.005.038-.004.063-.006.024-.002.075-.007h.012l.086-.008h.002l.085-.007h.015l.072-.006.027-.002.059-.004.04-.002.046-.003.053-.003.033-.002.065-.004h.02l.078-.004h.007l.086-.004h.005l.08-.003h.017l.067-.002.03-.001.054-.001.043-.001.041-.001h.055l.03-.001.066-.001h.017l.079-.001h.284l.05.001.081.001h.057l.024.002.068.002h.012l.08.002.08.003h.012l.068.003h.023l.056.003.035.002.044.003.046.002.032.002.057.003h.02l.07.006h.008l.077.007h.002l.074.006h.014l.061.005-.552-.278-.016-.009-.016-.008-.017-.008-.016-.008-.016-.008-.016-.008-.016-.008-.017-.008-.016-.008-.016-.008-.017-.008-.016-.008-.016-.008-.016-.008-.016-.008-.017-.008-.016-.008-.016-.008-.017-.008-.032-.016-.016-.01-.016-.007-.017-.008-.016-.008-.016-.008-.016-.008-.017-.008-.016-.008-.016-.008-.012-.001-.062-.005h-.013l-.074-.007h-.002l-.077-.006h-.009l-.068-.005-.02-.001-.059-.003-.032-.002-.046-.002-.043-.002-.035-.002-.056-.003-.023-.001-.068-.003h-.011l-.08-.003h-.001l-.08-.002h-.012l-.068-.003h-.025l-.056-.001-.082-.001-.049-.001h-.38l-.067.001-.029.001h-.055l-.041.002h-.043l-.054.001-.03.001-.067.002-.018.001-.08.003h-.005l-.085.003-.007.001-.078.004h-.02l-.066.005-.032.002-.053.003-.047.003-.04.002-.059.004-.027.002-.072.005h-.014l-.085.008h-.002l-.087.007h-.011l-.075.008-.025.002-.063.006-.037.004-.05.005-.05.005-.038.003-.063.007-.024.002-.076.009h-.011l-.088.012h-.002l-.086.01-.015.003-.073.01-.028.003-.06.008-.041.006-.047.007-.054.008-.034.005-.068.01-.02.004-.08.013h-.008l-.088.016h-.006l-.082.015-.019.003-.07.012-.03.006-.057.01-.045.009-.044.009-.057.01-.03.007-.071.014-.018.003-.083.018h-.004l-.088.02-.01.002-.077.016-.023.005-.066.015-.035.009-.052.012-.048.011-.04.01-.061.015-.026.007-.074.019-.013.003-.087.023a47 47 0 0 0-5.57-.188 2.7 2.7 0 0 1-.781.603l.051-.003.122-.007.064-.003.119-.006.145-.008.037-.002.068-.003.115-.005.07-.003.112-.005.073-.003.11-.004.074-.003.107-.004.078-.003.104-.003.08-.003.103-.003.361-.01h.004l.087-.001.096-.002.09-.001.093-.001.092-.001.092-.001.095-.001h.09l.096-.001h.564l.081.001.108.001.08.001.11.002.078.002h.022q.271.005.547.014l.123.004.07.002.125.005.067.002.194.008.133.006.063.003.136.007.06.003.14.007.058.003.144.008.056.003.403.025.155.01.05.005.158.01.047.005.162.012.045.004.167.014.042.004.17.014.041.004zm-11.364-.386-.258.023c.064.227.064.436.016.622l.138-.013.01-.001.195-.019h.013l.191-.018.016-.002.06-.006c-.129-.185-.25-.393-.381-.587zm-2.873.217-.305.005a1.8 1.8 0 0 1-.578.543l.971-.009a1.8 1.8 0 0 1-.088-.54zm-2.96.03-1.565.012c-1.204.795-2.384.578-3.236.041-1.118.024-2.03.06-2.483.115-4.388.537-7.773.734-12.231 1.283-.721.089-2.036.14-3.669.17.014.022.484.741.349.537 1.956-.027 3.55-.08 4.37-.182 4.459-.548 7.844-.746 12.232-1.283 1.005-.123 4.272-.146 7.036-.165a3.2 3.2 0 0 1-.803-.527" clip-path="url(#c)" style="display:inline;fill:#1a1a18 icc-color(ISO-Coated-v2-ECI,0,0,0,1);fill-opacity:1;fill-rule:evenodd;stroke:none" transform="matrix(.35278 0 0 -.35278 -7.56 186.948)"/><path d="m211.888 479.017-.005-.009-.01-.015-.01-.015-.01-.014-.01-.014-.008-.015-.01-.014zm-.061-.095-.01-.014zm-.01-.014-.008-.013zm-.008-.013-.008-.013zm28.67-1.98.137-.012h.007l.115-.011c-.165-.244-.344-.467-.569-.593.156.217.257.423.311.616zm5.177-.334.066-.002.109-.002.076-.001.1-.002.086-.001.09-.001.095-.001.082-.001.104-.001h.078l.53-.001h.143l.036.001.153.002h.027l.18.003.174.003h.008l.366.01h.01l.174.005h.021l.164.006.031.001.155.006.041.002.147.006.05.002.138.007.062.003.128.007.072.004.119.007.082.005.11.007.19.012h.004l.104.007.091.006.116.008.08.006.128.01.07.005.139.01.062.006q.285.022.578.048l.087-.022.013-.003.074-.019.026-.007.062-.015.039-.01.048-.01.053-.013.035-.01.065-.014.023-.005.078-.016.009-.002.088-.02h.004l.084-.018.017-.003.07-.014.031-.006.058-.011.043-.01.045-.008.056-.01.032-.006.07-.012.018-.003.083-.015h.006l.088-.015.007-.001.08-.013.02-.003.068-.01.034-.006.054-.008.047-.007.042-.006.06-.008.027-.004.073-.009.016-.003.085-.01h.002l.088-.011.011-.001.076-.01.024-.001.064-.007.037-.003.05-.005.05-.005.038-.004.062-.006.025-.002.075-.007.012-.001.086-.007h.002l.085-.007.015-.001.072-.005.026-.002.06-.004.04-.002.046-.003.053-.003.033-.002.065-.004h.02l.078-.005h.007l.086-.004h.005l.08-.003h.017l.067-.003h.03l.054-.002h.043l.041-.001.056-.001h.028l.067-.001.017-.001h.363l.05.001.081.001h.057l.024.001.068.002.013.001.08.002.08.003h.011l.068.003h.023l.056.004.035.002.043.002.047.002.032.002.058.003h.02l.068.006h.01l.076.006h.002l.074.006h.014l.061.006h.012l.017.009.016.008-.551-.281h-.001l.1.051a29 29 0 0 0-2.292-.01c-2.752.118-5.158-.264-7.268-.714-.33.282-.627.777-1.028 1.206zm-11.443-.194c-.188.26-.393.447-.61.574a4 4 0 0 1-.263.19h.02l.084-.001h.117l.062-.001h.054l.034-.001h.088l.088-.001h.022l.065-.001h.087l.079-.001h.009l.086-.001h.174l.074-.001h.011l.086-.001h.086l.043-.001h.041l.071-.001h.085a4.6 4.6 0 0 1-.692-.753zm3.347.728h.008l.058-.001h.01l.048-.001.028-.001h.028l.045-.001h.01l.055-.001h.013q-.008-.3.07-.673a3.6 3.6 0 0 1-.374.678zm-13.926-2.44c-3.539 2.316-4.018-1.367-4.307-1.276l-.232.072-.087.025-.17.049-.047.013-.176.046-.047.013-.013.003-.196.047-.062.013-.149.032-.055.011-.158.03-.031.006-.185.029-.034.005-.131.017-.062.007-.12.011-.038.003-.149.01h-.046l-.104.003h-.146l-.045-.002-.105-.006h-.024l-.027-.004-.095-.01-.04-.005-.081-.012-.035-.006-.102-.02-.008-.001-.005-.001-.1-.026-.032-.009-.069-.021-.036-.013-.055-.02-.039-.015-.074-.032-.014-.006-.016-.008-.063-.032-.024-.012-.058-.033-.024-.015-.005-.003-.062-.04-.006-.004-.01-.007-.057-.04-.027-.021-.036-.028-.03-.024-.005-.005-.053-.046-.002-.001-.01-.011-.051-.048-.012-.011-.043-.044-.012-.012-.016-.018-.044-.048-.002-.002-.044-.05-.011-.014-.031-.038-.024-.03-.017-.021-.036-.046-.005-.006-.04-.052-.008-.01-.031-.043-.02-.026-.019-.026-.03-.042-.008-.01-.037-.052-.005-.007-.033-.045-.017-.022-.021-.028-.028-.038-.01-.013-.039-.049-.002-.003-.036-.046-.015-.017-.008-.009-.033-.039-.01-.012-.014-.015-.04-.044-.002-.001-.042-.044-.032-.03-.028-.026-.017-.015-.039-.033-.015-.013-.005-.003-.048-.036-.003-.002-.025-.017-.035-.023-.032-.02-.03-.016-.028-.017-.004-.002-.057-.027q-.407-.05-.815-.108l-.013.001-.04.004-.013.001-.013.002-.014.002-.013.002-.014.002-.069.011-.014.002-.014.002-.005.001-.009.002-.117.023-.013.003h-.001l-.015.003-.12.03h-.004l-.007.001-.009.003-.016.004-.114.032-.016.005h-.001l-.154.048-.008.003-.01.003-.163.055-.136.047-.134.042-.132.038-.13.033-.128.03-.126.025-.124.021-.123.018-.12.014-.119.01-.117.008-.115.004h-.113l-.111-.001-.11-.005-.108-.008-.106-.011-.104-.014-.103-.015-.1-.018-.1-.02-.097-.023-.096-.024-.094-.027-.093-.027-.091-.03-.09-.03v-.001l-.087-.032-.086-.034-.085-.034-.083-.036-.082-.037-.08-.037-.078-.038-.077-.039-.076-.039-.074-.039-.073-.04-.07-.039h-.001l-.07-.04-.068-.038-.067-.04-.066-.038-.064-.038-.063-.037-.062-.036-.06-.036-.059-.035-.058-.033-.056-.032-.056-.031-.053-.03-.053-.027-.052-.026-.05-.024-.049-.022-.048-.02-.047-.018-.046-.015-.044-.013-.043-.01-.043-.008-.041-.005-.04-.002a220 220 0 0 0 4.743 7.743l.076-.001.076-.002.075-.001.075-.001.074-.002.074-.002.074-.002.073-.002.072-.002.072-.001.071-.002.07-.002h.001l.07-.002.07-.002.069-.002.068-.002.068-.002.068-.002.067-.002.066-.002.065-.002.066-.002.064-.002.064-.002.063-.002.063-.002.062-.002.06-.002h.001l.06-.003.06-.002.06-.003.059-.002.058-.003.058-.003.056-.003.056-.003.055-.003.055-.003.054-.003.053-.003.053-.003.052-.003.05-.003.051-.003.05-.003.048-.003.048-.003.048-.003.046-.003.046-.003.045-.003.044-.004.043-.003.043-.004.042-.004.04-.004.04-.003.04-.004.039-.004.037-.004.037-.004.036-.004.035-.004.034-.004c4.458-.549 7.844-.746 12.232-1.283.452-.056 1.364-.091 2.482-.115-.904-.57-1.44-1.5-1.241-1.958-3.794 2.329-3.693.353-5.228-.558" clip-path="url(#d)" style="display:inline;fill:#fbf5cd icc-color(ISO-Coated-v2-ECI,0,0,.25099182,.03138733);fill-opacity:1;fill-rule:evenodd;stroke:none" transform="matrix(.35278 0 0 -.35278 -7.56 186.948)"/><path d="M246.683 475.375c2.11.45 4.517.832 7.27.714a29 29 0 0 1 2.291.01l-1.06-.55-.049-.024-.065-.034-.108-.057-1.034-.546-.068-.036-.196-.106-.558-.301-.502-.27-.039-.022-1.093-.601-.009-.005-.003-.002-1.075-.603-.116-.066-.079-.044-1.047-.6-.06-.033-.142-.083-.718-.418-.319-.187-.04-.024-.05-.03-1.02-.605-.063-.038-.024-.014-.98-.593-.163-.099-.19-.118-.707-.435-.108-.067-.155-.096-.08-.05-.01-.006-.702-.44-.242-.153-.117-.074-.003-.002-.339-.216-.349-.223-.323-.208-.025-.016-.262-.17-.08-.051-.344-.224-.703-.46-.793-.526-.013-.01-.23-.152-.174-.118-.168-.113-.343-.232-.215-.145-.187-.126-.106-.074-.518-.355-.32-.22-.02-.014-.01-.007-.273-.19-.692-.483-.01-.007-.371-.262-.24-.17-.098-.069-.336-.24-.04-.028-.605-.434-.025-.019-.336-.243-.096-.07-.051-.037q-.377-.274-.752-.55l-.1-.074c-.437.092-1.193-.35-2.366.083-.974.36 1.166 3.21-2.25 2.181-2.182-.658-.393.647-4.016.647-1.082 0-2.92-1.346-4.157 0-3.062 3.322-2.988.574-4.456 1.18-2.903 1.199-6.128-.67-6.748.447-.524.946-2.196.68-2.772.917 3.02.454 9.272 1.778 11.55 2.406.55.11 1.332.286 1.449.36l.004.003.037.01c.378.11 2.403 1.156 2.82 1.26.418.102.85.203 1.279.299.43.096.858.188 1.272.276s.814.172 1.184.252.713.156 1.012.227q.237.056.436.11h.004l.007.002.005.001c.113.03.064.015.154.043.125.038.84.113.919.149.461.145.694.345 1.781.532.12.02 1.5.267 1.5.3 3.296.264 5.947-.016 9.154.126.258.012.482.02.685.035.015-.002.397 0 .604.006.555.016 1.083.002 1.473.15.473.176.396.047.621.44.085.147 1.515.162 1.682.492l.002.007.003.007.003.007c.06.141.218.221.106.287zm-39.965-7.414.112.008.125.011.138.014.148.017.16.02-.11-.015-.05-.006-.083-.01-.065-.007-.058-.006-.08-.008-.035-.003-.09-.008h-.016zm.854.091.18.026.19.027.2.03.209.033.217.035.225.037-.178-.03-.047-.007-.142-.023-.075-.012-.108-.017-.1-.016-.076-.011-.124-.02-.046-.006-.145-.02-.173-.025zm1.693.27.246.042.253.045.258.047.263.049-.197-.037-.066-.012-.158-.029-.1-.018-.12-.021-.133-.024-.083-.015zm1.288.233.273.051.277.053.28.054-.123-.024-.157-.03-.083-.016-.194-.037-.044-.008zm1.113.213.285.056.288.057-.243-.048-.045-.009-.203-.04zm.863.171.29.059-.075-.016zm.875.178.291.06.292.061-.236-.05-.056-.01-.195-.041zm.873.182.29.061-.064-.013zm.862.184.282.061-.179-.039zm1.374.302.261.06-.119-.028zm.517.118.25.057-.182-.042zm.495.114.237.056.092.021-.092-.021-.034-.008zm2.798.755.006.003zm.006.003.005.003zm.005.003.005.002z" clip-path="url(#e)" style="display:inline;fill:#d4d38b icc-color(ISO-Coated-v2-ECI,.10198975,0,.5019989,.14898682);fill-opacity:1;fill-rule:evenodd;stroke:none" transform="matrix(.35278 0 0 -.35278 -7.56 186.948)"/><path d="M261.094 478.484c-.195.244-.632.49-1.364.722-.016.003-.896 2.66-3.223.813.122-2.03-4.321-3.38-3.461-1.31 1.03 2.484-1.56 2.627-1.915 2.295-1.367-1.276-2.962-.356-3.514-.968-3.232-3.592-5.582.975-7.123-.233-1.615-1.27-4.274-.776-3.75.497 1.337 3.255-4.002 2.425-3.91 1.2.197-2.704-.902-1.762-.888-1.598.226 2.633-2.838 1.218-2.84 1.2-.488-2.81-1.462-1.643-1.21-.777.773 2.668-3.857 1.227-3.91.877-.208-1.427-2.256-.746-1.68.1.83 1.226-1.364 2.524-4.176-.406-.706-.737-3.788.093-4.734.402q.676 1.008 1.298 1.894 1.275 1.824 2.582 3.562c1.959.303 4.096.693 6.276 1.09 1.728.314 3.483.633 5.194.918 1.652.055 3.469.167 4.676.4 1.086.21 5.252.374 9.951.523 5.512.036 11.409.343 17.326.652l1.451.076c3.375.02 8.215-.068 11.61.501h.003c1.256-.128 2.592.036 2.715.05.048.007 11.874-.902 12.21-.97l.016-.003.007-.002.01-.002.015-.004h.004l.022-.007h.004l.018-.005.014-.004.01-.002.025-.007.027-.008.012-.003.016-.005.025-.007.006-.002.03-.01.008-.002.025-.007.021-.007.013-.005.035-.01.001-.001.036-.012.015-.005.022-.007.032-.01.007-.002.04-.013.01-.003.032-.01.027-.01.016-.005.043-.013.002-.001.043-.014.02-.006.026-.01c.803-.27 1.367-.452 2.007-.622-10.457-2.478-20.634-6.094-30.335-10.664zm31.695 11.039.123-.032-.013-.003-.057.017-.008.003zm-80.54-9.954h-.001l.015.022z" clip-path="url(#f)" style="display:inline;fill:#e7e567 icc-color(ISO-Coated-v2-ECI,.14898682,0,.70199585,0);fill-opacity:1;fill-rule:evenodd;stroke:none" transform="matrix(.35278 0 0 -.35278 -7.56 186.948)"/><path d="M227.059 498.315a133 133 0 0 0 4.843 4.845l-.004-.005c2.02.19 3.63.353 4.4.427 6.203.6 19.021-.678 24.882-.65-.27-.112-.492-.274-.634-.501-.767-1.228-2.806 1.629-2.734-1.433a14 14 0 0 0-1.124.149l-.007.045c-.125 1.018-.986.843-1.43.19-.307-.178-.72-.436-1.273-.798a2 2 0 0 0-.501-.242l.034.012-1.083-.063c-1.101.192-2.123.957-3.033.215-.23-.187-.69-.482-1.222-.75q.142.071.274.144a6 6 0 0 1-.348-.074 32 32 0 0 0-2.49-.527.7.7 0 0 1 .117-.068c-.202.093-.346.264-.403.539-2.28.79-.928-1.4-4.86-.597-1.085.221.118-.594-2.287-.104-.385.078-.792-.038-1.204-.22-1.767.023-3.467.023-5.23-.218-1.056-.145-2.673-.249-4.684-.316" clip-path="url(#g)" style="display:inline;fill:#b6bdce icc-color(ISO-Coated-v2-ECI,.30198669,.19999695,.10198975,.05099487);fill-opacity:1;fill-rule:evenodd;stroke:none" transform="matrix(.35278 0 0 -.35278 -7.56 186.948)"/><path d="m227.567 457.38-.038-.03-.037-.032-.338-.275-.038-.03-.037-.032-.037-.03-.038-.031-.485-.4-.038-.031-.037-.03-.037-.032-.038-.03-.037-.031-.037-.032-.075-.061-.037-.031-.037-.031-.037-.031-.037-.031-.038-.031-.036-.03-.038-.032-.482-.404-.037-.031-.037-.031-.037-.031-.037-.032-.036-.03-.038-.032-.036-.031-.037-.031c-1.462.412-2.875.662-5.053.922-1.448.171-2.132-2.71-6.147-.89-.183.082-.436.083-.686.026-.11.109-.133.075-.133-.036-.382-.119-.732-.367-.799-.666-1.747-.61-2.106 1.248-2.116 1.254-1.49 1.094-1.797-.539-4.483 1.38-.988.705-2.167-.78-2.799-.78-3.123 0-2.866.391-3.32.712 1 2.036 2.003 3.999 2.998 5.88 4.86-1.875 10.622-3.36 14.99-4.457l.088-.022h.003l.087-.022.006-.001.087-.022.01-.002.087-.021.012-.003.088-.021.016-.004.087-.022.02-.004.086-.02.024-.006.085-.02.028-.008.083-.02.033-.007.082-.02.037-.008.08-.02.042-.008.079-.019.045-.01.076-.018.051-.012.074-.017.056-.012.071-.017.061-.014.068-.015.066-.015.065-.015.072-.016.062-.014.076-.018.06-.013.082-.018.055-.013.088-.02.05-.01.094-.022.048-.01.098-.023.044-.009.105-.023.039-.008.11-.025.035-.007.116-.026.031-.007.122-.027.026-.006.128-.027.022-.005.133-.03.017-.003.139-.03.012-.002.145-.032h.008l.15-.034h.002l.31-.066.005-.002.149-.03.011-.004.144-.03.017-.004.14-.03.021-.004.605-.126.042-.009.115-.024.047-.01.11-.022.051-.011.727-.148.076-.016.385-.076.089-.018.063-.012.093-.02.058-.01.097-.02.053-.01.1-.02.048-.01.406-.078.032-.006.116-.022.028-.005.118-.023.024-.004.263-.05.014-.003.266-.049h.005l.266-.049q.37.293.74.582l.04-.008h.006z" clip-path="url(#h)" style="display:inline;fill:#6e9a68 icc-color(ISO-Coated-v2-ECI,.5019989,0,.59999084,.30198669);fill-opacity:1;fill-rule:evenodd;stroke:none" transform="matrix(.35278 0 0 -.35278 -7.56 186.948)"/><path d="M383.937 504.215c6.98-3.583 14.63-7.425 23.55-10.92-1.964.68-6.18-1.039-8.401.058-1.311.065-2.51.139-3.481.217-2.466.198-3.91.638-6.55.304-1.277-.162-.116 1.278-1.5 1.56-2.821.578-8.404.705-10.914 1.535-4.98 1.646-19.8 2.542-19.861 2.512-4.096-2.042-12.492-.393-20.442-.377.008 1.282-.875 1.233-.964 1.089-.583-.986-.62-.41-.38-1.1-1.113-.02-2.1-.076-2.915-.18-.51.044-1.03-.134-1.457-.3-.331.155-.641.25-.934.3.06.893-1.047.322-.882.587.642 1.026-.034 1.342-.083 1.442-.6 1.21-1.457.297-1.46.29-.32-.937-.361.247-1.426-.684-.178-.156-.877-.009-.501-.879.141-.326-1.647-.24-1.767.015-.445.948-.738-.174-1.453.12-1.848.762-1.462.017-2.098.045-1.017.043-1.331-.374-1.493-.715-.307.238-.569.38-.797.458.182.35.594.65.602.671.576 1.36.042.926.07 1.818.072 2.245-1.424.292-1.378 1.363.042.99-2.63.54-3.296.54-.596 0-.274-.842-1.018-.905-2.827-.236-1.924-2.759-3.29-2.256-1.84.676-1.22-.726-1.588-.793-.224.127-.108.665-.726.479-.954-.424-2.18-.746-3.183-.4-.274 1.175-1.27 1.261-2.41 1.138.137.265.035.552-.474.854-.58.344-1.549-.388-2.942-.897q-.184.098-.331.253c-.795.854-4.64.471-6.018.08-.63-.178-1.1-.338-1.443-.48a4 4 0 0 1-.425-.204 1.4 1.4 0 0 1-.257-.18c-.08-.077-.09-.12-.104-.133-.092-.007-.18-.009-.273-.011h.003c-.848-.025-1.445.066-1.48.455-.046.546-3.45.839-2.487-.832-.69-1.197-1.806-.176-2.011.815-1.094.226-3.703 1.492-2.251-1.023-.795-1.376-3.018.657-3.838-.035-.643-.541-.095 1.827-1.655 0-.916-1.072-.872 1.58-2.946 1.491-1.224-.052-3.913.182-4.601 1.135-.868 1.2-3.11-2.008-3.395.226-.01.074-.473.224-1.09.314l.09.016c6.667 1.357 16.674.87 24.26 1.804.3.037.575.074.833.11l-.079.038c4.148.641 14.05-.085 17.837-.013 1.024.02 9.12 1.065 9.716 1.22 2.008.52 5.79-2.489 5.882-2.456 1.513.548 5.267.072 7.034 1.262.226.152 4.826-.813 5.272 1.171.376.114 13.11-.302 15.805.974.612.29 2.96-1.345 6.097-.114.065.025 9.112-1.255 9.192-1.618.266-1.207 1.81-.216 4.632-.794 2.769-.566 4.725.726 8.266.001.816-.167 2.985-.33 5.607-.462" clip-path="url(#i)" style="display:inline;fill:#b6bdce icc-color(ISO-Coated-v2-ECI,.30198669,.19999695,.10198975,.05099487);fill-opacity:1;fill-rule:evenodd;stroke:none" transform="matrix(.35278 0 0 -.35278 -7.56 186.948)"/><path d="M399.086 493.353c2.232-1.102 6.478.639 8.43-.067 1.675-.606 3.266-1.258 6.005-2.225-1.193-.281-2.891-.616-4.578-.926-1.686-.31-3.362-.597-4.51-.783a99 99 0 0 0-6.782-.857 105 105 0 0 0-6.585-.394l-.053-.002-.049-.001h-.004l-.052-.001-.045-.001h-.008l-.053-.002h-.041l-.011-.001-.053-.001-.037-.001h-.016l-.052-.001-.034-.001h-.02l-.052-.002h-.03l-.022-.001-.053-.001h-.026l-.027-.001-.052-.001h-.022l-.031-.001-.052-.001h-.018l-.035-.002h-.067l-.038-.002h-.063l-.042-.001-.053-.001h-.007l-.046-.001-.052-.001h-.053l-.052-.002h-.053l-.047-.001h-.005l-.053-.001h-.043l-.01-.001h-.052l-.04-.001h-.012l-.052-.001h-.053l-.052-.002h-.133l-.024-.001h-.077l-.028-.001h-.053l-.02-.001h-.101l-.036-.001h-.065l-.04-.001h-.104l-.052-.001h-.106l-.051-.001h-.574.007c-.102.314-.556.687-1.464 1.1-.016.005-.897 2.784-3.224 1.258.122-2.046-4.32-2.784-3.461-.832 1.03 2.342-1.559 2.842-1.915 2.56-1.367-1.088-2.961.053-3.513-.483-3.232-3.146-5.582 1.746-7.124.75-1.615-1.045-5.25-1.347-4.727-.147 1.338 3.07-4.001 2.978-3.91 1.741.198-2.732-.901-1.639-.888-1.476l.008.119.004.114v.11l-.006.104-.009.099a1 1 0 0 1-.031.184l-.022.086-.025.08a2 2 0 0 1-.06.15l-.036.068-.038.064-.041.061c-.228.312-.575.462-.94.521l-.068.01h-.002l-.067.008h-.001l-.068.006h-.002l-.068.004h-.001l-.068.003h-.002l-.067.001h-.07l-.067-.002h-.002l-.065-.003h-.002l-.065-.004h-.002l-.063-.005h-.002l-.062-.006h-.002l-.062-.008h-.002l-.06-.008h-.002l-.058-.01h-.002a4 4 0 0 1-.59-.133l-.019-.006-.015-.005-.01-.004-.007-.003-.002-.002c-.487-2.743-1.461-1.442-1.21-.61.773 2.56-3.857 1.76-3.91 1.416-.208-1.398-2.256-.434-1.68.332.554.74-.237 1.699-1.656 1.504l-3.75.947c-.85.604-4.612.26-4.853.573-.672.874-1.342-.082-1.28.43q.028.216.027.394c7.95-.015 16.346-1.665 20.442.377.06.03 14.88-.866 19.86-2.512 2.511-.83 8.094-.957 10.915-1.534 1.384-.283.223-1.723 1.5-1.561 2.64.334 4.084-.106 6.55-.304.971-.078 2.17-.152 3.48-.217zm-11.377-5.3zm-55.63 10.86c.814.104 1.802.16 2.915.18.047-.133.104-.315.17-.565a3.47 3.47 0 0 1-1.881-.21l-.102.012c-.333.39-.714.55-1.102.583" clip-path="url(#j)" style="display:inline;fill:#6e9a68 icc-color(ISO-Coated-v2-ECI,.5019989,0,.59999084,.30198669);fill-opacity:1;fill-rule:evenodd;stroke:none" transform="matrix(.35278 0 0 -.35278 -7.56 186.948)"/><path d="M228.748 488.762a356 356 0 0 1-5.196-.919c-2.18-.397-4.317-.786-6.276-1.089.665.873 1.77 2.306 2.502 3.222 2.03-.507 4.097-.917 5.06-1.272-.035.013 1.804-.011 3.91.058" clip-path="url(#k)" style="display:inline;fill:#cacec2 icc-color(ISO-Coated-v2-ECI,.25099182,.14898682,.25099182,0);fill-opacity:1;fill-rule:evenodd;stroke:none" transform="matrix(.35278 0 0 -.35278 -7.56 186.948)"/><path d="m283.488 491.263.006.008.125-.009h.001zm-4.826 2.003v.002l.002.002v.002l.002.002v.001l.001.002.001.002.001.002.001.002.001.002.001.003.001.002.001.002.001.003.001.002.002.003v.002l.002.002.002.004.001.003.001.002.001.002.001.002.001.002.001.003.001.002.001.002.001.002.001.002.001.002.001.003.001.002.001.002.001.002.001.002.001.002.001.002.001.002.001.002.001.002.001.002.001.003.001.002.001.002.001.003.001.002.001.002.001.002v.002l.002.003v.002l.002.002v.002l.002.002v.002l.001.002.001.003.001.002.001.002.001.002.001.003.001.002.001.002.001.002c1.102 2.676-3.217.967-3.893.682-3.01-1.271-1.648 2.152-3.196 1.158-3.41-2.187-3.165.855-4.39-.422-2.726-2.842-.972 1.4-4.93-.623-4.248-2.174-1.822-.05-3.266-.074-1.9-.03-.612-1.745-1.693-1.063-4.467 2.827-4.085-1.522-4.528-.653-1.662 3.265-3.359-1.45-5.092-.237-1.265.885-4.768-.897-4.44-.141.493 1.13-.721 1.228-1.196 2.079-.514.92-2.377-1.66-2.946-.544-1.089 2.134-3.18-.716-3.63.633-.524 1.564-1.55.297-2.576.17-.015-.002-.166.279-.33.595l.008.004.007.004.007.005.007.004.007.005.007.004.007.005.014.01.007.004.007.004.007.005.007.005-.005-.003c1.004.4 2.822 1.128 3.169 1.334.167.099.338.094.598.264.773-.152 3.415 1.189 4.089.79.169-.1 5.414.757 5.664.935.369.263 5.686 1.046 5.953.936.127-.053.9-.025 1.902.041.183-.385.538-.776 1.14-1.132.787-.466 5.688.783 5.994-1.283.003-.019 1.066-.012.768.194 2.064-1.43 2.851.57 6.093-.09.549-.111.89.639 3.232.519 6.392-.326 4.288.136 6.862.417 2.232.243 2.908.176 5.189.641 1.085.221 6.761.508 9.451.416.473-.08.965-.154 1.464-.227.33-.188 1.555-.607 2.314-.313 2.284-.294 4.292-.524 4.74-.71 2.82-1.166 10.185-1.082 13.485-1.39.337-.07.67-.11.997-.131l.042-.008.11-.022.015-.002.12-.022.033-.005.123-.02.057-.01.12-.02.087-.014.112-.018.12-.02.1-.014.156-.024.081-.012.199-.03.059-.008.243-.036.031-.005.293-.042.308-.044.036-.005.29-.04.074-.011.265-.038.117-.016.238-.032.162-.023.207-.028.21-.029.171-.023.261-.035.133-.018.314-.042.091-.012.37-.05.047-.006.427-.056.436-.057.05-.007.395-.052.1-.013.354-.046.152-.02.309-.04.207-.026.26-.033.263-.034.211-.027.319-.04.16-.02.376-.048.108-.013.433-.055.055-.007.49-.061.494-.062.055-.007.44-.054.11-.013.386-.048.166-.02.332-.04.22-.027.276-.034.275-.033.22-.027.33-.039.164-.02.382-.045.11-.013.434-.052.054-.007.484-.056.48-.057.053-.006.423-.049.103-.011.365-.042.155-.018.307-.035.203-.023.252-.028.25-.028.197-.022.293-.032.145-.017.334-.036.095-.01.372-.04.046-.005.408-.043v-.001l.397-.041.043-.004.34-.036.084-.009.287-.029.121-.011.391-.039.188-.018.185-.017.143-.014.211-.019.1-.009.233-.02.063-.006.25-.02.03-.004.26-.02.24-.018.027-.002.196-.013.048-.003 8.78-.528 5.056-1.162 6.508-1.102a118 118 0 0 0 5.03-.818c-1.842.225-3.691.461-5.552.698-16.629 2.12-34.177 4.359-56.394.962q-2.643-.405-5.267-.906l-2.321-.463-.016-.002h-.008l-.008-.002-.016-.002h-.001l-.018-.002h-.008l-.01-.001h-.017l-.02-.002h-.103l-.021.002h-.023l-.02.002h-.003l-.022.002h-.01l-.015.001-.02.001h-.003l-.024.003h-.009l-.016.002-.02.002-.004.001-.025.002-.008.001-.018.002-.02.003h-.005l-.026.004h-.008l-.02.002-.02.003h-.005l-.027.005h-.008l-.02.004-.02.003h-.006l-.028.005h-.007l-.02.004-.021.003h-.007l-.028.006h-.006l-.022.004-.02.003h-.009l-.028.006h-.006l-.023.005-.02.003h-.01l-.028.006h-.005l-.024.004-.02.003-.009.002-.03.005-.004.001-.025.004-.02.003-.01.002-.029.005-.004.001-.026.005-.018.003-.011.002-.03.005h-.002l-.027.006-.018.003-.012.002-.03.005h-.002l-.027.005-.017.003-.013.002-.029.005h-.002l-.028.005-.016.003-.013.002-.03.005h-.001l-.028.006-.015.003-.014.002-.029.005-.029.005-.015.002-.014.002-.028.005c-.393.316.018 1.359-1.614.848-1.602-.5-4.972 2.882-8.233 2.067-.763-.19-.69-.795-1.447-.501-1.42.55-2.753.826-3.801.613zm-45.89 1.8.007.005-.005-.003zm.015.01.007.005h-.002l-.006-.005zm.014.01.007.004-.004-.003zm.095.063.007.005-.005-.003h-.003zm.052.036.007.005-.003-.002zm.007.005.003.002.005.003zm.098.068.008.005-.005-.004-.002-.002zm.039.028.008.005-.006-.004zm36.098 2.25h.002zm.002 0h.002zm.002 0h.002zm.002 0h.003zm.003 0h.002zm.002 0h.002zm.002 0h.003zm.003 0 .002-.001zm.002-.001h.002zm.01 0h.002zm.002 0h.002zm.002 0h.004-.005zm.035 0zm-.003 0h-.004.002m-.005 0h-.008.006m-.009 0h-.009.009zm-.018 0h-.002m2.473.57h.07l.01-.001h.02l.01-.001h.03l.01-.001h.01l.01-.001h.02l.01-.001h.011l.01-.001h.01l.011-.001h.01l.011-.001h.011l.01-.001h.01l.01-.001.01-.001.022-.001.01-.001h.011l.011-.001h.004l.007-.001h.011l.011-.001.065-.005h.011l.045-.005h.011l.011-.002h.012l.011-.001.01-.001h.002l.011-.001.012-.001.011-.001.012-.001.011-.001.012-.001.012-.001.011-.001.012-.001c-.267.015-.49.03-.682.041zm34.089-.555.01-.002zm.01-.002.012-.001zm.012-.001.01-.001zm.01-.001.011-.001zm.011-.001.01-.001zm.01-.001.012-.002zm.012-.002.011-.001zm.011-.001.01-.001zm.01-.001.011-.001zm.011-.001.011-.001h-.009zm.011-.001.011-.001zm.011-.001.011-.001zm.011-.001.01-.001zm.01-.001.012-.001zm.012-.001.01-.001zm.397-.045h.011l.01-.002-.018.002zm.022-.002h.011zm.011 0 .011-.002zm4.782-.33.332-.015h.004zm.336-.015zm18.731-2.157.282-.034-.144.017zm6.123-.703.22-.024m.094-.01.107-.011-.054.006m1.97-.2.217-.02m.949-.083.1-.008-.085.007zm1.042-.072.08-.003m.587.007.004.001zm.04.015.001.001zm0 0-.001-.001m-.001 0v-.001m-.006-.003h-.002zm-.003 0v-.002m-.01-.002-.003-.001m-.003 0-.002-.001m0 0-.004-.001m-115.55 3.315q.529.572 1.06 1.13c2.01.067 3.627.17 4.683.316 1.763.241 3.463.24 5.23.218l-.046-.02-.019-.01-.027-.012-.038-.017-.008-.004-.046-.022-.012-.006-.034-.016-.03-.015-.016-.007-.045-.023-.046-.023-.025-.012-.021-.011-.046-.024-.046-.023-.017-.01-.029-.014-.046-.024-.046-.023-.091-.047-.046-.024-.045-.023-.046-.023-.091-.046-.045-.022-.046-.022-.045-.022-.045-.02-.045-.022-.045-.02-.045-.02-.045-.02-.044-.018-.045-.018h-.003l-.004-.002-.003-.002h-.003l-.003-.002h-.004l-.003-.002h-.003l-.003-.002h-.003l-.004-.002h-.003l-.003-.002-.004-.001-.004-.001-.003-.001-.003-.001-.01-.004-.004-.001-.003-.001-.003-.001-.003-.001-.006-.002-.004-.001-.003-.001-.007-.002-.003-.001-.004-.001-.007-.002-.003-.001-.003-.001-.003-.001-.006-.002-.005-.001-.003-.001-.003-.001-.003-.001-.013-.005-.004-.001-.003-.001-.003-.001h-.003l-.002-.002h-.001l-.003-.001-.003-.001-.003-.001-.003-.001-.003-.001-.003-.001-.003-.001-.003-.001-.003-.001h-.003l-.003-.002h-.003l-.002-.001-.003-.001-.003-.001h-.003l-.008-.003h-.003l-.003-.001-.002-.001-.003-.001h-.003l-.002-.001-.003-.001-.002-.001-.003-.001h-.003l-.003-.001-.002-.001-.003-.001-.003-.001h-.002l-.016-.006h-.002l-.003-.001h-.002l-.003-.002h-.002l-.003-.001h-.002l-.005-.002h-.003l-.005-.002h-.003l-.005-.001-.003-.001-.01-.003h-.005v-.001l-.003-.001h-.003l-.003-.001h-.003l-.003-.001-.003-.001-.01-.002h-.003l-.002-.001-.003-.001h-.003l-.002-.001h-.003l-.044-.01-.085-.015-.043-.006-.042-.004h-.002l-.038-.003h-.005l-.003-.001h-.018l-.004-.001h-.044l-.003-.001h-.061l-.03.003-.042.003-.04.005-.008.002-.03.005h-.003l-.04.008-.04.01-.007.002-.03.009h-.003l-.04.014-.047.018-.012.005-.044.02-.006.001-.009.004-.038.02-.006.003-.002.001-.043.026-.019.012-.044.03c-.669.476-3.534-.664-3.802-.72a9 9 0 0 1-.199-1.53c-.683-.195-1.26-.34-1.24.216.097 2.443-1.953 1.453-2.95 1.017zm19.61 2.114a32 32 0 0 1 2.49.527q.151.038.348.074l-.008-.004-.023-.013-.013-.007-.011-.006-.024-.013-.01-.006-.014-.007-.024-.013-.009-.004-.09-.046-.002-.001-.022-.012-.025-.012-.048-.024-.047-.024-.096-.046-.049-.023-.048-.022-.05-.023-.049-.022-.049-.021-.05-.022-.05-.021-.002-.001-.003-.001-.003-.001-.003-.001-.003-.001-.003-.001-.003-.001-.003-.001-.003-.001-.003-.001-.003-.001-.003-.001-.003-.001-.003-.001-.003-.002-.003-.001-.003-.001-.003-.001h-.003l-.003-.002h-.003l-.003-.002-.003-.002h-.003l-.003-.002h-.003l-.003-.002h-.003l-.003-.002h-.003l-.003-.003h-.003l-.003-.002h-.003l-.003-.002h-.003l-.003-.002-.003-.002h-.003l-.003-.002h-.003l-.003-.002h-.003l-.003-.002h-.003l-.003-.002h-.003l-.003-.002-.003-.002h-.003l-.003-.002h-.003l-.003-.002h-.003l-.003-.002-.003-.002h-.003l-.003-.001-.003-.001-.003-.001-.003-.001-.003-.001-.003-.001-.003-.001-.05-.02-.05-.018-.05-.018-.05-.017-.05-.017-.05-.017-.049-.016-.049-.015-.05-.014-.048-.014-.049-.014-.048-.012-.048-.012-.11-.025-.052-.01-.027-.005-.046-.008-.047-.007-.045-.007-.045-.005-.044-.005-.044-.004-.043-.002h-.001l-.042-.002-.042-.001h-.083l-.034.003h-.006l-.04.003-.038.004h-.006l-.027.005h-.006l-.013.003-.059.012h-.003l-.033.009-.035.01-.034.011-.033.013-.03.013h-.002v.001l-.01.005-.019.009-.002.001-.03.016-.004.002-.024.016h-.001l-.008.006-.017.012h-.002zm6.819.992 1.084.063-.004-.001-.008-.003-.006-.002-.002-.001-.008-.002-.008-.003-.018-.006-.017-.005-.034-.01-.017-.005-.017-.004-.018-.005-.017-.004-.017-.004-.017-.004-.018-.004-.034-.007-.017-.003-.017-.003-.017-.003-.034-.005-.017-.002-.017-.002-.035-.004-.017-.002-.017-.001-.017-.002-.017-.001-.016-.001-.018-.001-.017-.001h-.016l-.017-.001-.017-.001h-.122l-.03.001-.017.001h-.017l-.012.001h-.005l-.017.002h-.016l-.017.002h-.017l-.004.001-.012.001-.017.002-.016.002-.017.002-.014.002h-.004" clip-path="url(#l)" style="display:inline;fill:#9bc7a1 icc-color(ISO-Coated-v2-ECI,.45098877,.05099487,.45098877,0);fill-opacity:1;fill-rule:evenodd;stroke:none" transform="matrix(.35278 0 0 -.35278 -7.56 186.948)"/><path d="m295.71 511.891.39.052c-6.157 1.443-12.397 2.599-18.858 2.972-7.514.433-15.339-.191-23.704-2.654 6.223-.853 10.44-.485 16.976-2.225 1.45-.386 7.52-.668 11.547-1.249 2.8.168 7.956 3.353 10.025 3.156a22 22 0 0 1 3.625-.052" clip-path="url(#m)" style="display:inline;fill:#e8e8e8 icc-color(ISO-Coated-v2-ECI,.105896,.07449341,.08239746,0);fill-opacity:1;fill-rule:evenodd;stroke:none" transform="matrix(.35278 0 0 -.35278 -7.56 186.948)"/><path d="m363.537 513.92-.037.014q-.477.182-.953.356l-.285.104q-.518.186-1.033.365l-.228.077-.882.295-.264.085q-.516.165-1.033.322l-.24.072q-.443.131-.888.255l-.27.076q-.519.143-1.039.277l-.239.06q-.448.11-.895.216l-.232.054a51 51 0 0 1-1.1.238l-.174.035q-.477.096-.957.183l-.226.041q-.544.096-1.092.18l-.23.033q-.484.072-.972.135l-.18.022q-.559.07-1.122.125l-.247.023q-.456.042-.916.075l-.27.02q-.544.037-1.09.06l-.3.01q-.457.018-.918.025l-.26.005q-.561.006-1.128-.004l-.263-.006a41 41 0 0 1-1.046-.033l-.16-.006a47 47 0 0 1-1.182-.072l-.274-.02q-.508-.041-1.021-.092l-.234-.023a47 47 0 0 1-1.186-.14l-.29-.04q-.526-.072-1.058-.155l-.213-.033a55 55 0 0 1-1.213-.213l-.313-.06q-.562-.108-1.128-.23l-.17-.036a56 56 0 0 1-1.247-.29l-.349-.085q-.594-.149-1.193-.31l-.09-.024-.052-.014q-.636-.176-1.277-.369l-.347-.104a70 70 0 0 1-1.224-.384l-.113-.036-.027-.009a77 77 0 0 1-1.358-.464l-.325-.115a77 77 0 0 1-1.402-.515c5.555 9.276 3.419 13.337-1.463 14.71-4.884 1.373-12.527.05-17.989-1.438-11.45-3.122-21.306-7.958-21.306-7.958 8.24 20.563-21.28 5.606-24.965 3.784-3.163-1.563-7.441-4.017-12.32-7.424l-.228-.16-.002-.002-.117-.082-.112-.078-.004-.003-.116-.082-.11-.078-.007-.005-.117-.083-.107-.077-.01-.007-.117-.084-.106-.075-.012-.01-.117-.084-.104-.074-.014-.01-.119-.086-.1-.073-.018-.012-.118-.086-.1-.073-.019-.013-.12-.087-.097-.07-.021-.017-.12-.087-.095-.07-.025-.018-.12-.087-.093-.07-.026-.019-.12-.089-.091-.067-.03-.021-.12-.09-.09-.066-.031-.024-.12-.09-.088-.065-.034-.026-.122-.09-.084-.064-.037-.027-.121-.092-.003-.002c4.245-.176 8.351-.36 10.07-.6l.112-.015c8.365 2.463 16.19 3.087 23.704 2.654 6.46-.373 12.7-1.528 18.858-2.971l-.389-.052c4.09.27 6.45 1.433 11.852-1.128.966-.458 5.531 2.664 10.434.103 1.287-.672 10.374.776 11.356 1.242 1.497.713 12.37 1.71 14.139 1.349 6.224-1.273 7.6.045 11.559-.47 3.42-.444 6.187.612 8.485.933zm-120.26-1.104-.04-.03-.122-.093-.08-.06.15.113zm52.434-.925h-.007z" clip-path="url(#n)" style="fill:#e0f1f4 icc-color(ISO-Coated-v2-ECI,.14898682,0,.05099487,0);fill-opacity:1;fill-rule:evenodd;stroke:none" transform="matrix(.35278 0 0 -.35278 -7.56 186.948)"/><path d="M243.356 512.875c4.246-.176 8.352-.36 10.07-.599 6.285-.872 10.513-.49 17.088-2.24 1.45-.386 7.52-.668 11.548-1.249 2.8.168 7.955 3.353 10.024 3.156 6.694-.638 8.671 2.047 15.477-1.18.966-.458 5.531 2.664 10.434.104 1.288-.672 10.375.775 11.356 1.242 1.498.712 12.37 1.71 14.14 1.348 6.224-1.273 7.6.046 11.558-.469 3.421-.444 6.188.612 8.486.932 6.522-2.487 13.094-5.955 20.4-9.705-2.622.13-4.791.294-5.608.461-3.54.725-5.496-.567-8.265 0-2.822.577-4.367-.413-4.633.794-.08.362-9.127 1.643-9.192 1.618-3.136-1.232-5.484.402-6.096.113-2.695-1.276-15.429-.86-15.805-.973-.447-1.985-5.047-1.02-5.273-1.172-1.767-1.19-5.52-.714-7.033-1.262-.091-.033-3.874 2.977-5.882 2.456-.597-.155-8.692-1.2-9.717-1.22-3.785-.071-13.688.654-17.836.013l.079-.037a49 49 0 0 0-.833-.11c-7.586-.934-17.594-.448-24.26-1.805-3.46-.704-19.971 1.198-27.284.492-.77-.074-2.382-.238-4.401-.427l.005.005.179.17.08.076.104.098.157.148.027.026.184.172.049.045.503.47.016.014.168.155.091.084.259.237.017.016.183.168.06.053.124.114.133.12.05.046.466.42.083.073.364.326.069.06.114.102.143.126.039.035.474.416.071.062.182.158.004.003.177.155.078.067.103.089.153.132.028.024.18.155.047.039.134.115.12.102.06.052.18.153.014.011.166.14.089.075.09.077.162.136.018.015.18.15.055.046.124.103.129.107.05.042.178.148.024.019.154.128.098.08.08.066.17.139.007.007.179.145.065.053.112.091.138.112.215.174.034.027.143.115.106.085.07.057.176.14.002.001.174.139.074.058.101.081.147.115.029.023.174.138.043.034.131.102.115.09.06.047.174.136.011.009.162.125.083.065.488.375.12.092.123.094.05.038.17.13.022.016.15.114.092.07.079.06z" clip-path="url(#o)" style="fill:#d7d5e2 icc-color(ISO-Coated-v2-ECI,.10198975,.10198975,0,.10198975);fill-opacity:1;fill-rule:evenodd;stroke:none" transform="matrix(.35278 0 0 -.35278 -7.56 186.948)"/><path d="M278.662 493.266c1.048.214 2.38-.062 3.8-.613.757-.293.685.31 1.448.501 3.261.815 6.631-2.567 8.233-2.066 1.632.51 1.221-.533 1.614-.848.609-.105 1.324-.26 1.655-.205l-2.513-.548-.057.018-.008.003-.063.021-.018.006-.047.015-.044.014-.02.007-.065.021-.006.001-.059.02-.031.01-.033.011-.058.02-.007.001-.064.022-.02.006-.045.015-.044.015-.02.006-.064.021-.007.002-.057.02-.032.01-.03.01-.058.02-.006.001-.063.021-.02.007-.043.015-.044.015-.018.006-.062.021-.007.002-.055.018-.032.012-.029.01-.056.018-.005.002-.06.02-.02.008-.04.014-.043.013-.016.006-.058.02-.008.003-.05.017-.031.01-.027.009-.053.018-.003.001-.057.019-.018.007-.037.012-.04.013-.015.005-.053.018-.008.003-.045.015-.029.01-.024.007-.049.017-.003.001-.05.016-.017.006-.033.011-.036.012-.012.004-.048.017-.007.002-.04.013-.025.01-.02.006-.043.014-.002.001-.043.014-.016.005-.027.009-.031.01-.01.003-.04.014-.007.002-.032.01-.022.007-.015.005-.036.011v.001l-.036.01-.013.005-.021.007-.026.007-.007.002-.03.01-.005.001-.025.007-.017.004-.011.003-.027.008-.025.007-.01.003-.014.004-.018.005-.005.001-.022.006h-.004l-.015.005-.01.002-.007.002-.016.003c-.336.068-12.161.976-12.21.97-.122-.015-1.501-.002-2.757.126-4.693-.788-12.103-.493-14.633-.792-3.427-.405-23.107-.641-25.665-1.136-2.747-.531-8.646-.435-8.585-.459-1.044.386-3.393.836-5.58 1.405l.088.108.064.08.024.028.088.108.088.107.056.07.032.038.088.107.089.107.048.06.04.047.088.106.088.107.088.106.088.106.09.106.032.04.055.066.089.105.088.106.025.03.064.075.088.105.089.105.017.02.072.084.088.105.088.104.09.104.088.103.178.208.088.103.089.103.09.103.088.103.075.087.014.016.089.103.089.101.09.103.088.102.09.102.058.067.03.034.09.101.089.102.05.058.038.043.09.1.089.101.09.1.089.1.09.1.034.04.053.061.09.1.09.099.027.03.062.07.09.099.09.099.018.021.07.078.09.098.089.099.09.098.089.098.09.098.003.004.086.094.09.097.084.094.005.005.09.097.09.097.077.084.012.013.09.096c.998.436 3.048 1.426 2.951-1.017-.021-.556.557-.41 1.24-.215.01.453.083.975.198 1.53.268.055 3.134 1.195 3.802.718l.045-.03.019-.011.042-.026h.002l.006-.004.048-.024.006-.002.043-.02.012-.005.047-.018h.004l.036-.012h.004l.029-.01.007-.002.038-.009h.001l.04-.008h.003l.03-.006.008-.002.033-.004h.008l.04-.003.03-.002h.02q.056-.002.114.001h.005l.038.004h.002l.039.004h.004l.042.006.086.015.043.01q.085.019.171.045l.005.001q.11.035.22.078l.044.018.006.003.038.016.045.02.044.019h.001l.045.02.045.022.037.017.008.004.045.021.012.005.034.017.03.015.015.007.091.045.024.012.022.012.043.021.003.002.046.024.016.008.065.033.01.005.046.023.01.005.036.02.03.014.016.009.046.023.002.001.044.023.021.01.025.013.04.02.006.002.046.023.014.007.032.015.034.017.011.006.046.021.008.004.039.018.026.012.02.01.045.02c.412.18.82.297 1.204.22 2.405-.49 1.202.324 2.287.103 3.932-.802 2.58 1.387 4.86.597.057-.274.201-.446.404-.539h.003l.03-.014.033-.012.034-.012.035-.01.034-.008.003-.001.06-.012.018-.003.026-.004h.006l.039-.005h.007l.032-.003h.006l.034-.002h.125l.042.002h.001l.038.002h.005l.044.005.025.002.02.002.045.005h.01l.035.006.042.006h.004l.046.008.027.005.053.01.11.026.047.011.03.008.018.005.05.013.013.004.035.01.047.014.002.001.05.015.031.01.018.006.05.017.015.005.034.011.05.018.05.018.05.018.05.02q.1.038.199.08l.05.021.018.008.031.014.05.022.049.022.035.015.014.007.048.023.02.01.029.013.096.047.035.017.013.006.047.024c.532.268.992.563 1.222.75.91.742 1.932-.023 3.033-.214h.003l.075-.013h.005l.016-.003.05-.007h.004l.013-.002.017-.002.017-.002.029-.003h.004l.016-.002.05-.004h.018l.064-.004h.153l.002.001.017.001h.017l.017.002h.017l.017.002.017.002h.017l.017.003.034.004.017.002.017.002.034.005.017.003.017.003.017.003.035.007.017.004.017.004.069.017.017.005.035.01.017.005.017.006q.249.078.502.241c.553.363.965.62 1.272.798.444.654 1.305.829 1.43-.19l.007-.045a14 14 0 0 1 1.124-.148c-.072 3.061 1.967.204 2.734 1.432.784 1.254 4.011.528 4.037.33.285-2.234 2.528.975 3.395-.226.688-.953 3.377-1.187 4.6-1.135 2.076.089 2.032-2.563 2.947-1.49 1.56 1.826 1.012-.542 1.655 0 .82.69 3.043-1.342 3.838.035-1.452 2.515 1.157 1.249 2.25 1.022.207-.99 1.322-2.011 2.012-.814-.963 1.67 2.441 1.377 2.486.832.036-.424.765-.5 1.751-.445.118.246.712.567 2.23.998 1.378.39 5.222.773 6.017-.08q.147-.156.331-.254c1.393.509 2.362 1.242 2.943.897.509-.301.61-.59.474-.854 1.14.123 2.136.037 2.409-1.138 1.004-.346 2.23-.024 3.183.4.618.187.503-.351.726-.478.368.066-.25 1.468 1.588.792 1.366-.503.464 2.02 3.29 2.256.744.063.423.904 1.019.904.665 0 3.338.451 3.296-.539-.046-1.071 1.45.882 1.377-1.363-.028-.892.506-.457-.07-1.818-.008-.021-.42-.32-.601-.67.228-.078.49-.221.797-.459.161.341.475.758 1.492.715.636-.027.25.717 2.098-.044.715-.295 1.008.827 1.453-.12.12-.256 1.909-.342 1.767-.016-.376.87.323.723.502.88 1.064.93 1.106-.254 1.426.683.003.007.86.92 1.459-.29.05-.1.725-.415.084-1.442-.166-.265.941.307.881-.587.293-.05.603-.144.934-.3.752.294 1.79.62 2.56-.283l.101-.011a3.47 3.47 0 0 0 1.88.21c-.403 1.538-.485.487.211 1.664.095.16 1.145.201.938-1.483-.063-.512.607.444 1.28-.43.03-.039.115-.068.242-.09.128-.021.298-.036.498-.047.2-.01.43-.017.677-.022l.781-.018c.27-.007.543-.017.81-.032.265-.015.524-.035.762-.064a5 5 0 0 0 .64-.115c.185-.049.337-.11.443-.185l3.75-.947c1.419.195 2.21-.763 1.656-1.504-.576-.766 1.472-1.73 1.68-.332.053.343 4.683 1.145 3.91-1.416-.252-.832.722-2.133 1.21.61.002.017 3.066 1.01 2.84-1.593-.014-.162 1.085-1.256.887 1.477-.091 1.237 5.248 1.329 3.91-1.741-.522-1.201 3.112-.899 4.728.147 1.541.995 3.891-3.896 7.123-.75.552.535 2.146-.605 3.514.482.356.282 2.945-.217 1.914-2.56-.86-1.951 3.584-1.214 3.462.833 2.326 1.525 3.207-1.254 3.223-1.258.909-.413 1.363-.787 1.464-1.101h-.007q-1.548 0-3.081.04c-2.127.053-4.237.16-6.338.305-2.1.146-4.194.332-6.286.544a276 276 0 0 0-3.128.336c-2.545.769-6.325 1.691-9.99 2.466-1.636.345-3.747.139-5.214.398-2.7.478-4.412 1.29-5.382 1.218-.513-.036-3.013.168-6.702.526-.034-.034-.255-.041-.628-.025l-4.174.37-.408.042-.046.005-.372.04-.095.01-.175.02 1.096-.119-1.4.152-.293.032-.197.023-.25.027-.252.028-.203.023-.307.035-.084.01-.071.007-.365.042-.104.012-.12.014-.302.034-.032.004-.02.002-.317.038-.164.019-.484.057-.032.004-.023.003-.32.037-.114.014-.109.013-.122.014-.26.031-.086.01-.079.01-.184.022-.282.034-.083.01-.067.009-.209.025-.033.004-.243.03-.212.025-.007.001-.332.04-.01.002-.156.018-.194.024-.192.024-.058.007-.052.006-.046.006-.349.043-.045.006-.055.007-.247.031-.246.03v.001h-.001l-.49.061-.055.007-.242.03-.192.025-.107.013-.043.005-.333.043-.16.02-.184.023-.135.017-.2.026h-.011l-.263.034-.26.034-.207.026-.309.04-.152.02-.354.046-.1.012-.396.052-.049.007-.436.057-.427.057-.047.006-.37.05-.091.01-.314.043-.133.018-.26.035-.172.023-.21.03-.207.027-.162.023-.238.032-.117.016-.265.038-.074.01-.29.04-.035.006-.31.044-.292.042-.031.005-.243.036-.06.008-.198.03-.081.012-.157.024-.1.015-.118.019-.113.018-.086.013-.121.02-.057.01-.123.021-.033.005-.12.022-.014.003-.111.021-.042.008a7 7 0 0 0-.997.131c-1.113.104-2.689.163-4.397.241l-.004.001-.332.015-.115.006-.755.037-.098.005-.054.003-.152.008-.037.002-.115.006-.13.007-.023.001-.152.009-.07.004-.083.005-.152.009-.153.009-.1.006-.052.003-.153.01-.04.002-.112.008-.131.009-.02.001-.152.01-.071.005-.08.006-.451.035-.15.012-.297.025-.147.013q-.272.024-.537.051l-.045.005-.144.015q-.358.038-.7.081l-.014.001-.123.016c-1.09.142-2.059.328-2.797.58a6 6 0 0 0-.346.128c-.448.185-2.457.416-4.74.71-.76-.294-1.986.125-2.315.313-.499.073-.991.148-1.464.226-2.69.093-8.366-.194-9.451-.415-1.121-.229-1.853-.432-2.574-.557-.731.009-1.415.063-2.615-.084-1.85.15-1.314-.096-1.595-.3-.268-.067-.51-.13-.775-.183-.713-.065-2.028-.067-4.492.066-2.294.237-2.672-.604-3.206-.524l-.026.005c-3.241.66-4.028-1.34-6.093.09.298-.206-.765-.212-.768-.194-.306 2.067-5.206.817-5.994 1.283-.602.356-.957.748-1.14 1.132-1.003-.066-1.774-.093-1.902-.04-.267.109-5.584-.674-5.953-.937-.25-.178-5.495-1.035-5.664-.936-.673.4-3.315-.94-4.089-.789-.26-.17-.43-.165-.598-.264-.484-.287-3.826-1.59-3.837-1.599a10 10 0 0 0-.47-.315c.163-.317.315-.598.33-.595 1.026.127 2.052 1.393 2.575-.17.45-1.349 2.542 1.5 3.631-.634.569-1.115 2.432 1.464 2.946.544.475-.85 1.689-.948 1.195-2.079-.327-.755 3.176 1.027 4.44.142 1.734-1.213 3.431 3.501 5.093.237.443-.869.06 3.48 4.528.652 1.081-.681-.207 1.033 1.692 1.063 1.445.024-.98-2.1 3.266.074 3.959 2.024 2.205-2.219 4.931.624 1.225 1.276.98-1.765 4.39.421 1.548.994.185-2.429 3.196-1.157.676.284 4.995 1.993 3.893-.682q-.032-.077-.075-.15zm-65.498-37.841c0 .11.023.144.133.036.25.057.503.055.686-.027 4.015-1.818 4.699 1.062 6.147.89 2.178-.259 3.591-.509 5.053-.921l-.465-.393c-19.904-16.954-35.213-38.313-42.892-61.36-.005.385.01.956.039 1.732 1.095 20.293 7.768 40.243 15.186 56.468l.01.023a216 216 0 0 0 2.585 5.453c.455-.322.197-.713 3.321-.713.632 0 1.811 1.485 2.799.78 2.686-1.919 2.993-.286 4.483-1.38.01-.007.369-1.863 2.116-1.254.067.3.417.547.799.666m-.923 24.133.014.023.007.01.021.033.022.032.042.065.021.032.021.032.021.032.021.032.021.032.021.032.021.032.021.032.021.032.021.032.021.031.021.032.021.031.02.032.022.031.021.032.02.031.021.032.02.031.022.032.007.011.013.02.021.03.02.032.021.031.021.031.02.031.021.03.02.031.021.032.02.03.02.031.02.03.022.031.02.03.02.031.02.03.02.03.021.031.02.03.02.03.02.031.021.03.02.03.02.03.02.03.001.002.02.028.02.03.02.03.02.03.02.03.02.028c.946-.31 4.028-1.139 4.734-.402 2.811 2.93 5.006 1.632 4.176.406-.576-.846 1.472-1.528 1.68-.1.052.35 4.683 1.79 3.91-.877-.252-.867.722-2.033 1.21.778.003.017 3.066 1.432 2.84-1.201-.014-.164 1.085-1.106.887 1.599-.091 1.224 5.248 2.054 3.91-1.201-.523-1.273 2.136-1.767 3.75-.497 1.542 1.208 3.892-3.36 7.124.233.552.611 2.147-.308 3.513.968.356.331 2.946.189 1.916-2.295-.86-2.07 3.583-.72 3.46 1.31 2.327 1.847 3.208-.81 3.224-.813l.034-.011.008-.003.026-.008.017-.005.017-.006.023-.008.01-.003.03-.011h.001l.032-.011.007-.002.025-.01.014-.004.017-.006.021-.008.01-.003.028-.011h.003l.03-.012.004-.002.025-.009.011-.005.018-.006.018-.007.01-.004.025-.01h.003l.028-.011.003-.002.024-.01.01-.004.017-.007.016-.007.01-.005.023-.01.003-.001.051-.023.008-.004.017-.007.014-.006.01-.005.02-.009.004-.002.024-.01.001-.002.021-.01.007-.003.016-.008.012-.006.01-.005.018-.01.005-.001.022-.012.021-.012.006-.003.015-.008.011-.006.01-.005.015-.009.005-.003.02-.01.02-.012.004-.003.014-.009.009-.005.01-.006.013-.009.005-.003.018-.01v-.001l.017-.011.003-.002.014-.01.007-.004.01-.006.011-.008.004-.004.015-.01.001-.002.016-.01.003-.003.012-.01.006-.004.008-.006.01-.008.005-.004.014-.01v-.001l.014-.012.002-.001.012-.01.005-.005.009-.007.008-.006.005-.005.01-.01.001-.001.012-.012.001-.001.011-.01.004-.004.007-.008.006-.007.005-.005.008-.01.002-.002.01-.012.01-.012.003-.003.007-.008a161 161 0 0 1-3.392-1.647l-.061-.005h-.014l-.073-.006h-.002l-.077-.006h-.01l-.068-.006h-.02l-.058-.004-.032-.002-.046-.002-.044-.003-.034-.002-.056-.002h-.023l-.068-.004h-.012l-.08-.003-.08-.002h-.013l-.068-.002h-.024l-.056-.002h-.082l-.05-.002h-.363l-.016.001h-.067l-.03.001-.054.001-.042.001h-.043l-.053.002h-.03l-.068.003h-.017l-.08.004h-.005l-.085.003h-.007l-.078.004h-.02l-.066.005-.033.002-.053.003-.046.003-.04.002-.059.004-.027.002-.072.005h-.014l-.085.008h-.002l-.087.007h-.011l-.076.008-.024.002-.063.006-.038.004-.05.005-.05.005-.037.003-.063.007-.024.003-.076.009h-.012l-.087.012h-.002l-.086.01-.015.003-.073.009-.028.004-.06.008-.041.006-.047.007-.054.008-.034.005-.068.01-.02.004-.08.013h-.008l-.088.015h-.006l-.082.015-.02.003-.069.013-.031.006-.057.01-.044.009-.044.009-.057.01-.03.006-.072.015-.017.003-.084.018h-.004l-.088.02-.009.001-.078.017-.023.005-.065.014-.036.01-.052.012-.048.01-.039.01-.062.016-.026.007-.074.019-.013.003-.087.022a48 48 0 0 0-7.402-.11c.868-.424 1.298-1.372 1.81-1.809-1.627-.373-2.044-.538-2.069-.784-.014-.14-.248-.311-2.076-.356-3.533-.086-6.372.432-10.16.011-1.216-.135-2.142-.337-2.603-.665-.74-.525-8.219-1.5-9.392-2.769-.332-.36-11.398-2.724-13.667-2.85l.024-.165c.075-.597 2.343.004 2.969-1.127.62-1.116 3.844.752 6.748-.447 1.468-.606 1.394 2.143 4.455-1.18 1.238-1.346 3.075 0 4.157 0 3.623 0 1.835-1.304 4.016-.647 3.416 1.029 1.276-1.822 2.25-2.181l.055-.02.013-.005.041-.014.025-.008.03-.009.036-.011.016-.005.048-.014h.004l.051-.015.009-.002.043-.01.02-.005.03-.007.031-.007.02-.004.041-.008.007-.001.049-.01h.004l.044-.007.015-.002.032-.005.026-.003.021-.002.036-.004.01-.001.046-.004h.001l.044-.004.011-.001.034-.002.021-.001h.023l.031-.002h.053l.002-.001h.101l.025.001h.025l.016.001.034.002h.006l.039.003h.003l.036.002.012.001.026.002.021.002.017.001.03.003h.008l.036.005h.001l.035.005h.01l.027.005.016.002.019.003.024.003h.01l.033.006h.002l.034.005h.005l.028.005.013.002.02.003.02.002.011.002.028.005.005.001.03.005h.002l.028.005.01.002.02.003.017.003.013.002.023.003h.006l.029.005.027.004h.007l.021.004h.013l.014.003.019.002h.008l.024.003h.001l.026.002h.005l.02.003h.04l.008.002h.024l.023-.001h.002l.02-.001h.007l.027-.004h.01l.016-.004h.004l.021-.004a164 164 0 0 1-6.136-4.752h-.006l-.265.05-.014.002-.264.05-.024.004-.118.022-.028.005-.115.023-.033.006-.406.079-.047.009-.101.02-.053.01-.097.02-.058.011-.093.02-.063.011-.089.018-.385.077-.076.016-.727.147-.051.011-.11.023-.047.01-.115.024-.042.009-.604.126-.022.005-.14.029-.016.004-.144.03-.012.002-.149.031-.006.002-.308.066h-.003l-.15.033-.009.001-.144.032-.013.003-.138.03-.018.003-.133.03-.021.004-.128.027-.026.006-.122.027-.031.007-.116.026-.036.007-.11.025-.039.008-.105.023-.043.01-.099.022-.047.01-.094.021-.051.011-.088.02-.055.013-.082.018-.059.013-.077.018-.061.014-.072.016-.065.014-.067.015-.067.016-.061.014-.071.017-.057.012-.073.017-.05.012-.077.018-.046.01-.079.019-.041.009-.08.019-.037.009-.082.019-.033.008-.084.02-.028.006-.085.02-.024.007-.086.02-.02.005-.087.02-.016.005-.087.021-.013.002-.087.022-.009.002-.088.021-.006.001-.087.022h-.003l-.087.022c-4.562 1.145-10.642 2.716-15.63 4.71l.063.116c.37.69.741 1.383 1.12 2.069l.062.113.062.112.061.113.062.112.123.224.062.111.062.112.061.11.062.111.062.111.06.11.063.11.06.11.062.11.123.218.06.11.062.108.061.108.06.108.062.109.06.108.062.107.06.108.061.107.06.106.061.107.061.107.06.106.061.105.06.106.06.105.121.21.06.105.009.015.05.09.061.104.06.103.3.517.059.102c.846.008 2.41 2.104 5.33 1.063 3.784-1.35 1.247 3.15 7.019 1.32.289-.091.768 3.592 4.307 1.277 1.535.91 1.434 2.887 5.228.558-.43.995 2.592 4.207 5.351 1.153.253.354.83.99 1.495 1.28-2.764.018-6.03.041-7.036.165-4.388.537-7.773.735-12.231 1.283-.822.101-2.415.155-4.371.182l.021.032.022.033.021.033.021.033.022.032.021.033.022.033.02.032zm28.878-2.08-.623.059c.09-.344.014-.766-.327-1.238.404.226.658.76.95 1.18m-3.166.171-.971.01c.344-.193.672-.572.953-1.222-.107.505-.087.906.018 1.212" clip-path="url(#p)" style="fill:#2c7943 icc-color(ISO-Coated-v2-ECI,.74899292,.10198975,.79998779,.34899902);fill-opacity:1;fill-rule:evenodd;stroke:none" transform="matrix(.35278 0 0 -.35278 -7.56 186.948)"/></g></svg>