<?xml version="1.0" encoding="UTF-8" standalone="no"?>
<svg
   viewBox="0 0 699.99998 350.00001"
   version="1.1"
   id="svg134"
   sodipodi:docname="denmark-farm.svg"
   width="700"
   height="350"
   inkscape:export-filename="denmark-farm.png"
   inkscape:export-xdpi="65.89"
   inkscape:export-ydpi="65.89"
   inkscape:version="1.3.2 (1:1.3.2+202311252150+091e20ef0f)"
   xmlns:inkscape="http://www.inkscape.org/namespaces/inkscape"
   xmlns:sodipodi="http://sodipodi.sourceforge.net/DTD/sodipodi-0.dtd"
   xmlns="http://www.w3.org/2000/svg"
   xmlns:svg="http://www.w3.org/2000/svg">
  <sodipodi:namedview
     id="namedview134"
     pagecolor="#ffffff"
     bordercolor="#666666"
     borderopacity="1.0"
     inkscape:showpageshadow="2"
     inkscape:pageopacity="0.0"
     inkscape:pagecheckerboard="0"
     inkscape:deskcolor="#d1d1d1"
     inkscape:export-bgcolor="#ffffffff"
     inkscape:zoom="0.5957143"
     inkscape:cx="208.15347"
     inkscape:cy="381.05514"
     inkscape:window-width="1920"
     inkscape:window-height="1024"
     inkscape:window-x="0"
     inkscape:window-y="0"
     inkscape:window-maximized="1"
     inkscape:current-layer="svg134" />
  <defs
     id="defs1">
    <style
       id="style1">.cls-1{fill:#0e5f2c;}.cls-2{fill:#ca9e67;}.cls-3{fill:#eb6209;}.cls-4{fill:#79b82b;}.cls-5{fill:#2c9e38;}.cls-6{fill:#634e42;}.cls-7{fill:#666;}.cls-8{fill:#4d4d4d;}.cls-9{fill:#fff;}</style>
  </defs>
  <g
     id="Layer_2"
     data-name="Layer 2"
     transform="translate(162.5,58.649919)">
    <g
       id="Layer_1-2"
       data-name="Layer 1">
      <path
         class="cls-1"
         d="m 256.72,119.8 a 10.43,10.43 0 0 0 9.67,-5.45 c 2.54,-4.33 5,-8.9 8.94,-7.77 5.83,1.7 -3.01,16.74 -18.61,13.22 z"
         id="path1" />
      <path
         class="cls-2"
         d="m 288.77,98.9 a 9.24,9.24 0 0 0 -9.69,1.71 c -3.4,2.86 -6.84,6 -9.76,3.85 -4.32,-3.14 7.45,-13.1 19.45,-5.56 z"
         id="path2" />
      <path
         class="cls-3"
         d="m 290.2,105.33 a 6.37,6.37 0 0 0 -5.87,3.37 c -1.53,2.64 -3,5.44 -5.42,4.77 -3.56,-1.01 1.77,-10.22 11.29,-8.14 z"
         id="path3" />
      <path
         class="cls-4"
         d="m 272.58,89.82 a 5,5 0 0 1 5.36,-0.22 c 2.14,1.14 4.33,2.38 5.65,0.93 1.96,-2.18 -5.49,-6.12 -11.01,-0.71 z"
         id="path4" />
      <path
         class="cls-4"
         d="m 248.73,116 a 5,5 0 0 1 -3.24,-4.28 c -0.3,-2.41 -0.53,-4.92 -2.48,-5.16 -2.91,-0.38 -1.88,7.99 5.72,9.44 z"
         id="path5" />
      <path
         class="cls-4"
         d="m 299.18,80.41 a 3.84,3.84 0 0 1 1.76,3.7 c -0.15,1.85 -0.37,3.76 1.05,4.25 2.12,0.73 2.65,-5.7 -2.81,-7.95 z"
         id="path6" />
      <path
         class="cls-3"
         d="m 303,90.39 a 8.49,8.49 0 0 0 0,-9 c -2,-3.53 -4.27,-7.12 -1.9,-9.42 3.59,-3.46 10.66,8.82 1.9,18.42 z"
         id="path7" />
      <path
         class="cls-2"
         d="m 302.77,71 a 5.75,5.75 0 0 0 2.05,-5.76 c -0.5,-2.71 -1.11,-5.51 0.92,-6.44 3.03,-1.43 4.78,8.01 -2.97,12.2 z"
         id="path8" />
      <path
         class="cls-4"
         d="m 299.38,44.07 a 5.73,5.73 0 0 0 -3.32,5.12 c -0.14,2.76 -0.19,5.62 -2.37,6.06 -3.28,0.67 -2.81,-8.92 5.69,-11.18 z"
         id="path9" />
      <path
         class="cls-4"
         d="m 274.86,61.57 a 4.13,4.13 0 0 0 1.06,-4.26 c -0.56,-1.9 -1.19,-3.86 0.19,-4.67 2.07,-1.22 4,5.36 -1.25,8.93 z"
         id="path10" />
      <path
         class="cls-4"
         d="m 264.44,50.13 a 5.74,5.74 0 0 0 -5.63,2.37 c -1.66,2.2 -3.31,4.55 -5.37,3.68 -3.08,-1.29 2.7,-8.96 11,-6.05 z"
         id="path11" />
      <path
         class="cls-2"
         d="m 281,85 a 8.46,8.46 0 0 0 8.76,2.11 c 3.9,-1.15 7.92,-2.49 9.61,0.34 2.5,4.24 -11.08,8.28 -18.37,-2.45 z"
         id="path12" />
      <path
         class="cls-1"
         d="m 304.19,67.86 a 9,9 0 0 0 -6.15,7.3 c -0.75,4.25 -1.38,8.69 -4.86,9 -5.18,0.34 -2.62,-14.44 11.01,-16.3 z"
         id="path13" />
      <path
         class="cls-3"
         d="m 270.84,93.12 a 10.34,10.34 0 0 1 5.83,-9.31 c 4.39,-2.31 9,-4.57 8.08,-8.48 -1.41,-5.83 -16.68,2.22 -13.91,17.79 z"
         id="path14" />
      <path
         class="cls-4"
         d="m 282.85,83.8 a 10.33,10.33 0 0 0 3.57,-10.39 c -1,-4.86 -2.12,-9.89 1.51,-11.61 5.42,-2.58 8.77,14.35 -5.08,22 z"
         id="path15" />
      <path
         class="cls-2"
         d="m 267.36,62.1 c 0,0 -7.22,4.41 -5.93,14.25 0.9,6.91 2.08,14.06 -3.17,16.16 -7.84,3.12 -11.01,-20.93 9.1,-30.41 z"
         id="path16" />
      <path
         class="cls-1"
         d="m 263.57,82.06 a 10.31,10.31 0 0 1 -2.65,10.65 c -3.45,3.57 -7.15,7.16 -5,10.57 C 259,108.39 271,96 263.57,82.06 Z"
         id="path17" />
      <path
         class="cls-4"
         d="m 273.31,73.21 a 5.05,5.05 0 0 1 4.81,-2.43 c 2.43,0.14 4.95,0.37 5.55,-1.51 0.89,-2.81 -7.57,-3.27 -10.36,3.94 z"
         id="path18" />
      <path
         class="cls-3"
         d="m 271.14,51.84 a 10.17,10.17 0 0 1 -2.53,10.52 c -3.38,3.54 -7,7.1 -4.9,10.45 3.15,5.02 14.89,-7.28 7.43,-20.97 z"
         id="path19" />
      <path
         class="cls-5"
         d="m 251.83,74.71 a 10.17,10.17 0 0 1 4.52,-9.84 c 4,-2.82 8.24,-5.61 6.82,-9.31 -2.12,-5.56 -16.02,4.28 -11.34,19.15 z"
         id="path20" />
      <path
         class="cls-1"
         d="m 262.18,42.12 a 8.39,8.39 0 0 1 3.09,8.38 c -0.69,4 -1.54,8.07 1.43,9.4 4.46,2 6.87,-11.82 -4.52,-17.78 z"
         id="path21" />
      <path
         class="cls-5"
         d="M 222.57,3.64 A 14.54,14.54 0 0 1 212.24,15.16 C 205.6,17.33 198.62,19.35 199,25 c 0.56,8.45 23.68,0.92 23.57,-21.36 z"
         id="path22" />
      <path
         class="cls-1"
         d="m 223.94,32.85 a 9.37,9.37 0 0 1 0.48,-10 c 2.44,-3.78 5.1,-7.63 2.62,-10.3 -3.72,-3.95 -12.21,9.21 -3.1,20.3 z"
         id="path23" />
      <path
         class="cls-4"
         d="M 234.79,42.29 A 9.37,9.37 0 0 1 230.7,33.2 c 0.46,-4.48 1.1,-9.12 -2.33,-10.37 -5.11,-1.83 -6.73,13.7 6.42,19.46 z"
         id="path24" />
      <path
         class="cls-4"
         d="m 216.92,22.61 a 11.88,11.88 0 0 1 -7.62,10.07 c -5.3,2.21 -10.8,4.32 -10.11,8.89 1.02,6.83 19.32,-0.85 17.73,-18.96 z"
         id="path25" />
      <path
         class="cls-4"
         d="m 231.09,41.11 a 11.87,11.87 0 0 0 0.62,12.61 c 3.1,4.78 6.48,9.65 3.34,13 -4.69,5.1 -15.48,-11.55 -3.96,-25.61 z"
         id="path26" />
      <path
         class="cls-5"
         d="m 230.24,73.59 a 11.84,11.84 0 0 0 5.4,11.41 c 4.69,3.24 9.68,6.45 8.07,10.78 C 241.31,102.25 225,91 230.24,73.59 Z"
         id="path27" />
      <path
         class="cls-2"
         d="m 221.7,96.27 a 11.87,11.87 0 0 0 -4.43,-11.83 c -4.41,-3.61 -9.11,-7.22 -7.16,-11.4 2.89,-6.25 18.29,6.32 11.59,23.23 z"
         id="path28" />
      <path
         class="cls-2"
         d="M 241.94,67.1 A 7.66,7.66 0 0 0 239,74.7 c 0.58,3.64 1.31,7.39 -1.43,8.57 -4.07,1.73 -6.1,-10.88 4.37,-16.17 z"
         id="path29" />
      <path
         class="cls-3"
         d="m 226.1,79.55 a 8.82,8.82 0 0 0 -2.43,-9.07 c -3,-3 -6.22,-6 -4.47,-9 2.63,-4.38 13.08,6.04 6.9,18.07 z"
         id="path30" />
      <path
         class="cls-4"
         d="m 205.55,60 a 8.83,8.83 0 0 0 0.11,9.39 c 2.17,3.65 4.55,7.36 2.12,9.79 -3.63,3.61 -11.19,-9.07 -2.23,-19.18 z"
         id="path31" />
      <path
         class="cls-5"
         d="m 192.82,58.45 a 10.33,10.33 0 0 0 -1,11 c 2.06,4.51 4.37,9.14 1.24,11.66 -4.71,3.73 -11.93,-11.97 -0.24,-22.66 z"
         id="path32" />
      <path
         class="cls-5"
         d="m 220.8,91 a 12.6,12.6 0 0 0 -13,-3.29 C 202,89.32 196,91.25 193.5,87 c -3.69,-6.34 16.59,-12.13 27.3,4 z"
         id="path33" />
      <path
         class="cls-2"
         d="m 198.35,94.05 a 9.27,9.27 0 0 1 9.84,-0.9 c 4.06,1.88 8.21,4 10.49,1.17 3.42,-4.2 -10.68,-10.75 -20.33,-0.27 z"
         id="path34" />
      <path
         class="cls-1"
         d="m 210.7,100.43 a 9.27,9.27 0 0 1 7.49,6.46 c 1.47,4.22 2.85,8.65 6.45,8.34 5.36,-0.46 0.3,-15.15 -13.94,-14.8 z"
         id="path35" />
      <path
         class="cls-4"
         d="m 240.35,102.09 a 6.78,6.78 0 0 1 5,5.25 c 0.75,3.17 1.41,6.5 4,6.54 3.95,0.12 1.36,-10.97 -9,-11.79 z"
         id="path36" />
      <path
         class="cls-4"
         d="m 251.7,114.54 a 6.77,6.77 0 0 1 -6.27,3.57 c -3.26,0 -6.64,-0.16 -7.31,2.39 -1,3.82 10.33,3.91 13.58,-5.96 z"
         id="path37" />
      <path
         class="cls-4"
         d="m 240.86,103 a 6.76,6.76 0 0 0 -5.93,4.1 c -1.39,3 -2.74,6.06 -5.33,5.56 -3.87,-0.76 0.96,-11.02 11.26,-9.66 z"
         id="path38" />
      <path
         class="cls-3"
         d="m 220.42,114.92 a 9.85,9.85 0 0 0 10.48,-0.09 c 4.07,-2.41 8.21,-5 10.91,-2.33 4.04,4.06 -10.12,12.44 -21.39,2.42 z"
         id="path39" />
      <path
         class="cls-2"
         d="m 241.61,104.41 a 4.12,4.12 0 0 1 -3.1,3.14 c -1.92,0.53 -3.94,1 -3.91,2.62 0.04,2.41 6.73,0.59 7.01,-5.76 z"
         id="path40" />
      <path
         class="cls-4"
         d="m 244.54,63.33 a 5.41,5.41 0 0 1 -0.33,5.74 c -1.43,2.16 -3,4.36 -1.57,5.92 2.11,2.32 7.09,-5.21 1.9,-11.66 z"
         id="path41" />
      <path
         class="cls-4"
         d="m 233.75,99.19 a 5.4,5.4 0 0 1 -5.7,-0.7 c -2.07,-1.56 -4.17,-3.25 -5.81,-1.94 -2.45,1.97 4.76,7.45 11.51,2.64 z"
         id="path42" />
      <path
         class="cls-3"
         d="m 198.39,68.46 a 5.39,5.39 0 0 1 -0.33,5.73 c -1.43,2.17 -3,4.37 -1.58,5.93 2.12,2.32 7.09,-5.21 1.91,-11.66 z"
         id="path43" />
      <path
         class="cls-1"
         d="m 248.1,59 a 5.4,5.4 0 0 0 -5.1,2.67 c -1.37,2.21 -2.72,4.54 -4.72,3.91 -2.97,-0.96 1.79,-8.58 9.82,-6.58 z"
         id="path44" />
      <path
         class="cls-2"
         d="m 202.64,30.41 a 11.9,11.9 0 0 0 -5.42,11.41 c 0.47,5.68 1.14,11.57 -3.22,13.07 -6.54,2.24 -8.17,-17.53 8.64,-24.48 z"
         id="path45" />
      <path
         class="cls-2"
         d="m 216.57,60.63 a 11.86,11.86 0 0 0 2.6,-12.35 c -1.78,-5.42 -3.81,-11 0.08,-13.47 5.83,-3.7 12.04,15.19 -2.68,25.82 z"
         id="path46" />
      <path
         class="cls-3"
         d="M 198.52,43.71 A 11.48,11.48 0 0 1 197,55.83 c -3.36,4.39 -7,8.83 -4.22,12.33 4.1,5.25 15.78,-10 5.74,-24.45 z"
         id="path47" />
      <path
         class="cls-4"
         d="m 275.07,22.1 a 6,6 0 0 1 -6,-2 c -1.89,-2.16 -3.78,-4.46 -5.85,-3.41 -3.11,1.55 3.47,9.06 11.85,5.41 z"
         id="path48" />
      <path
         class="cls-4"
         d="m 251.49,47.65 a 3.62,3.62 0 0 0 0.69,-3.78 c -0.59,-1.63 -1.26,-3.31 -0.09,-4.1 1.74,-1.18 3.79,4.51 -0.6,7.88 z"
         id="path49" />
      <path
         class="cls-1"
         d="m 229.9,97.72 a 3.61,3.61 0 0 0 -2.25,-3.11 c -1.59,-0.71 -3.26,-1.39 -3,-2.77 0.35,-2.07 5.85,0.38 5.25,5.88 z"
         id="path50" />
      <path
         class="cls-4"
         d="m 224.5,105.82 a 2.71,2.71 0 0 0 2.83,-0.57 c 1,-0.87 2,-1.8 2.85,-1.21 1.3,0.89 -2.1,3.96 -5.68,1.78 z"
         id="path51" />
      <path
         class="cls-4"
         d="m 200.82,95 a 4.53,4.53 0 0 0 4.76,0.76 c 2,-0.78 4.12,-1.66 5.13,-0.22 1.52,2.14 -5.54,4.85 -9.89,-0.54 z"
         id="path52" />
      <path
         class="cls-4"
         d="m 216.71,113.54 a 6.36,6.36 0 0 0 -3.61,-5.73 c -2.71,-1.42 -5.57,-2.8 -5,-5.21 0.9,-3.6 10.29,1.34 8.61,10.94 z"
         id="path53" />
      <path
         class="cls-1"
         d="m 217,36.09 a 13.34,13.34 0 0 0 -3.48,13.76 c 1.75,6.16 3.79,12.5 -0.7,15.11 C 206.12,68.85 200,47.41 217,36.09 Z"
         id="path54" />
      <path
         class="cls-1"
         d="M 233.16,25.15 A 3.62,3.62 0 0 1 233,21.3 c 0.82,-1.52 1.73,-3.09 0.7,-4 -1.51,-1.46 -4.38,3.86 -0.54,7.85 z"
         id="path55" />
      <path
         class="cls-2"
         d="m 294.85,57.17 a 8.25,8.25 0 0 0 -8.06,3.5 c -2.36,3.2 -4.71,6.6 -7.69,5.38 -4.45,-1.81 3.75,-12.94 15.75,-8.88 z"
         id="path56" />
      <path
         class="cls-5"
         d="m 293.14,69.36 a 11.5,11.5 0 0 0 5,-11.16 c -0.57,-5.5 -1.35,-11.19 2.85,-12.73 6.28,-2.31 8.28,16.81 -7.85,23.89 z"
         id="path57" />
      <path
         class="cls-2"
         d="m 305.52,44.21 a 11.48,11.48 0 0 0 -12.23,-0.36 c -4.86,2.63 -9.82,5.52 -12.85,2.23 -4.53,-4.92 12.37,-14.08 25.08,-1.87 z"
         id="path58" />
      <path
         class="cls-3"
         d="m 259.62,48.69 a 11.49,11.49 0 0 1 6.11,-10.6 c 4.78,-2.77 9.85,-5.47 8.63,-9.78 -1.81,-6.44 -18.47,3.16 -14.74,20.38 z"
         id="path59" />
      <path
         class="cls-1"
         d="m 269.51,37.77 a 11.48,11.48 0 0 0 7.56,-9.61 c 0.78,-5.47 1.41,-11.18 5.86,-11.66 6.65,-0.71 3.95,18.32 -13.42,21.27 z"
         id="path60" />
      <path
         class="cls-5"
         d="m 251.82,9.15 a 11.46,11.46 0 0 1 1.62,12.12 c -2.11,5.11 -4.48,10.34 -0.89,13 5.36,4.02 12.72,-13.74 -0.73,-25.12 z"
         id="path61" />
      <path
         class="cls-3"
         d="M 254.06,0.72 A 11.5,11.5 0 0 1 242,2.57 c -5.15,-2 -10.42,-4.28 -13,-0.64 -4,5.43 13.94,12.45 25.06,-1.21 z"
         id="path62" />
      <path
         class="cls-2"
         d="m 245.1,26.41 a 8.06,8.06 0 0 0 2.59,-8.2 c -0.85,-3.8 -1.86,-7.71 0.95,-9.13 4.2,-2.08 7.16,11.07 -3.54,17.33 z"
         id="path63" />
      <path
         class="cls-4"
         d="m 247.29,7.31 a 6.61,6.61 0 0 0 -2.11,6.7 c 0.69,3.09 1.52,6.29 -0.77,7.45 -3.41,1.73 -5.84,-9.04 2.88,-14.15 z"
         id="path64" />
      <path
         class="cls-3"
         d="M 256.47,37.65 A 11.49,11.49 0 0 1 246,31.41 c -2.7,-4.82 -5.34,-9.93 -9.66,-8.77 -6.52,1.73 2.86,18.51 20.13,15.01 z"
         id="path65" />
      <path
         class="cls-4"
         d="m 223.8,3.83 a 9.05,9.05 0 0 0 7.73,5.76 c 4.32,0.51 8.83,0.88 9.3,4.37 0.7,5.23 -14.34,3.49 -17.03,-10.13 z"
         id="path66" />
      <path
         class="cls-4"
         d="m 233.13,38.75 a 9.05,9.05 0 0 1 6.94,6.69 c 1.2,4.18 2.3,8.57 5.83,8.46 5.27,-0.16 1.1,-14.72 -12.77,-15.15 z"
         id="path67" />
      <path
         class="cls-3"
         d="m 246.48,99.15 a 9.07,9.07 0 0 0 -1.5,-9.52 c -2.75,-3.38 -5.71,-6.8 -3.6,-9.62 3.15,-4.23 12.7,7.53 5.1,19.14 z"
         id="path68" />
      <path
         class="cls-2"
         d="M 247.89,56.26 A 9.06,9.06 0 0 1 240,50.77 c -1.85,-3.94 -3.64,-8.1 -7.1,-7.43 -5.21,1 1.23,14.71 14.99,12.92 z"
         id="path69" />
      <path
         class="cls-4"
         d="m 301.45,40.73 a 9.09,9.09 0 0 0 -7,-6.65 c -4.25,-1 -8.69,-1.91 -8.75,-5.45 -0.1,-5.28 14.68,-1.78 15.75,12.1 z"
         id="path70" />
      <path
         class="cls-2"
         d="m 260.26,8.23 a 9.06,9.06 0 0 0 9.05,3.37 c 4.31,-0.73 8.75,-1.65 10.19,1.59 2.15,4.81 -12.82,7.39 -19.24,-4.96 z"
         id="path71" />
      <path
         class="cls-4"
         d="m 249.11,6.87 a 9.06,9.06 0 0 1 9.66,0 c 3.77,2.2 7.62,4.61 10.1,2.1 3.71,-3.73 -9.4,-11.4 -19.76,-2.1 z"
         id="path72" />
      <path
         class="cls-2"
         d="m 284.34,34.91 a 8.46,8.46 0 0 0 -6.17,6.57 c -0.92,4 -1.74,8.12 -5,8.18 -4.97,0.1 -1.77,-13.66 11.17,-14.75 z"
         id="path73" />
      <path
         class="cls-4"
         d="m 277.05,49 a 6.33,6.33 0 0 0 6.7,0.79 c 2.79,-1.21 5.65,-2.56 7.16,-0.61 2.25,2.92 -7.47,7.13 -13.86,-0.18 z"
         id="path74" />
      <path
         class="cls-4"
         d="m 282,102.44 a 6.83,6.83 0 0 0 6.88,-2.35 c 2.15,-2.47 4.31,-5.12 6.68,-3.92 3.5,1.83 -4,10.41 -13.56,6.27 z"
         id="path75" />
      <path
         class="cls-5"
         d="m 307.59,83.54 a 8,8 0 0 1 -4.36,7.34 c -3.36,1.89 -6.92,3.73 -6.12,6.74 1.21,4.51 12.89,-2.03 10.48,-14.08 z"
         id="path76" />
      <path
         class="cls-5"
         d="m 266.34,107.25 a 5.85,5.85 0 0 1 -3.76,5 c -2.6,1.09 -5.34,2.14 -5,4.39 0.51,3.36 9.55,-0.44 8.76,-9.39 z"
         id="path77" />
      <path
         class="cls-6"
         d="m 285,93 c -7.67,-1.9 -12.94,0 -15.93,1.79 a 27.52,27.52 0 0 0 0.2,-2.8 c 0.36,-15.81 3.53,-34.16 19.58,-36.78 L 289,55 c -16.18,1.71 -20.38,19.85 -21.64,35.62 -0.88,11 -7.54,15.33 -11.51,17 -1.68,-17.89 -12,-33.73 -2.76,-55.07 9.24,-21.34 11.54,-32.78 2.59,-42.35 9,9.57 5.55,20.72 -4.25,41.81 -0.09,0.19 -0.18,0.38 -0.26,0.57 A 17.46,17.46 0 0 0 244.8,40.44 c -10.25,-9 -13.46,-12.4 -15.59,-25.86 l -0.05,0.27 c 1.67,13.53 4.75,17.06 14.69,26.39 5.64,5.29 6.3,11.1 5.82,15.13 -6.1,17.74 2,32.06 2.95,47.48 a 8.51,8.51 0 0 0 -3.88,-3 c -9.09,-3.56 -11.63,0.78 -18.29,-10.08 -6.66,-10.86 -8.72,-24.05 -23.15,-21.5 14.55,-1.82 15.66,11.35 21.77,22.53 3.08,5.66 5.32,7.38 7.92,8.22 -4.73,1.14 -9.32,3.42 -15.26,1.1 -7.62,-3 -11.66,-3.64 -14.91,-0.37 3.25,-3.27 7.21,-2.22 14.74,1 6.94,2.93 12.16,-0.61 17.88,-1.1 a 30.68,30.68 0 0 1 7.39,2.18 c 3.91,1.76 5.31,5.65 5.66,9.46 -2.05,23.94 -16.87,29.37 -16.87,29.37 h 16 c 0,0 6,-5 4.61,-28.64 l 0.09,0.12 a 23,23 0 0 0 12.22,-15.36 c 2.61,-2.15 8,-5.12 16.61,-3.68 13,2.18 16.29,-5 16.29,-5 0,0 -3.64,7.07 -16.44,3.9 z"
         id="path78" />
      <path
         class="cls-6"
         d="m 0,192.05 c 0,0 162.12,-133.78 375,0 0,0 -192.45,-104.78 -375,0 z"
         id="path79" />
      <path
         class="cls-2"
         d="m 146.13,98 c 0,0 1.23,-11.84 23.87,-15.39 0,0 -2.41,17.44 -16.75,26.44 l 11,4.52 -15.16,10 -1.62,-11 c 0,0 -20.26,3.3 -37.16,-8.86 0,0 7.21,-5.77 24.73,-1.85 0,0 -8,-5.36 -6.59,-12.78 l -4.37,-5.08 5.15,1.85 c 0,0 9.07,-4.36 16.9,12.15 z"
         id="path80" />
      <path
         class="cls-3"
         d="m 97.57,224.5 -0.77,0.59 a 4.14,4.14 0 0 0 -1.52,-1.25 4.51,4.51 0 0 0 -4.1,0.13 4,4 0 0 0 -1.54,1.5 4.14,4.14 0 0 0 -0.54,2.11 4,4 0 0 0 1.22,3 4.18,4.18 0 0 0 3.07,1.19 4.29,4.29 0 0 0 3.41,-1.6 l 0.77,0.58 a 4.86,4.86 0 0 1 -1.81,1.43 5.69,5.69 0 0 1 -2.43,0.51 5,5 0 0 1 -4,-1.7 5.11,5.11 0 0 1 -1.23,-3.46 4.81,4.81 0 0 1 1.49,-3.58 5.18,5.18 0 0 1 3.75,-1.46 5.47,5.47 0 0 1 2.45,0.54 4.8,4.8 0 0 1 1.78,1.47 z"
         id="path81" />
      <path
         class="cls-3"
         d="m 106.37,222.45 a 5,5 0 0 1 3.69,1.48 5.11,5.11 0 0 1 -3.61,8.72 5,5 0 0 1 -3.65,-1.48 4.86,4.86 0 0 1 -1.49,-3.58 5.19,5.19 0 0 1 0.69,-2.59 4.89,4.89 0 0 1 1.85,-1.87 5,5 0 0 1 2.52,-0.68 z m 0,1 a 3.92,3.92 0 0 0 -2,0.56 4,4 0 0 0 -1.51,1.51 4.23,4.23 0 0 0 -0.54,2.12 4.08,4.08 0 0 0 4.09,4.11 4.2,4.2 0 0 0 2.09,-0.54 4,4 0 0 0 1.5,-1.5 4.23,4.23 0 0 0 0.54,-2.12 4.12,4.12 0 0 0 -0.54,-2.09 4,4 0 0 0 -1.52,-1.49 4,4 0 0 0 -2.07,-0.61 z"
         id="path82" />
      <path
         class="cls-3"
         d="m 115.73,232.4 v -9.7 h 0.21 l 6.46,7.44 v -7.44 h 0.95 v 9.7 h -0.21 l -6.41,-7.35 v 7.35 z"
         id="path83" />
      <path
         class="cls-3"
         d="m 126.94,230.6 0.83,-0.5 c 0.58,1.07 1.25,1.6 2,1.6 a 2,2 0 0 0 0.92,-0.22 1.67,1.67 0 0 0 0.65,-0.61 1.61,1.61 0 0 0 0.23,-0.82 1.63,1.63 0 0 0 -0.33,-1 8.13,8.13 0 0 0 -1.67,-1.56 8.16,8.16 0 0 1 -1.51,-1.33 2.42,2.42 0 0 1 -0.51,-1.48 2.24,2.24 0 0 1 0.3,-1.15 2.15,2.15 0 0 1 0.86,-0.83 2.42,2.42 0 0 1 1.19,-0.3 2.64,2.64 0 0 1 1.29,0.34 4.46,4.46 0 0 1 1.26,1.25 l -0.79,0.6 a 3.78,3.78 0 0 0 -0.94,-0.95 1.52,1.52 0 0 0 -0.84,-0.23 1.37,1.37 0 0 0 -1,0.35 1.2,1.2 0 0 0 -0.37,0.88 1.42,1.42 0 0 0 0.13,0.61 2.29,2.29 0 0 0 0.48,0.65 c 0.13,0.12 0.55,0.45 1.26,1 a 7.1,7.1 0 0 1 1.73,1.66 2.68,2.68 0 0 1 0.47,1.46 2.46,2.46 0 0 1 -0.81,1.83 2.68,2.68 0 0 1 -1.95,0.78 2.88,2.88 0 0 1 -1.6,-0.47 4.41,4.41 0 0 1 -1.28,-1.56 z"
         id="path84" />
      <path
         class="cls-3"
         d="m 136.91,222.7 h 5.57 v 1 h -4.6 v 3 h 4.56 v 0.95 h -4.56 v 3.81 h 4.56 v 1 h -5.53 z"
         id="path85" />
      <path
         class="cls-3"
         d="m 146.44,222.7 h 1.93 a 11.56,11.56 0 0 1 2.19,0.13 2.45,2.45 0 0 1 1.41,0.85 2.42,2.42 0 0 1 0.54,1.6 2.6,2.6 0 0 1 -0.38,1.4 2.24,2.24 0 0 1 -1.06,0.9 4.9,4.9 0 0 1 -1.92,0.32 l 3.5,4.5 h -1.2 l -3.5,-4.5 h -0.54 v 4.5 h -1 z m 1,1 v 3.3 h 1.67 a 4.26,4.26 0 0 0 1.44,-0.18 1.56,1.56 0 0 0 0.72,-0.59 1.63,1.63 0 0 0 0.26,-0.91 1.55,1.55 0 0 0 -0.26,-0.89 1.46,1.46 0 0 0 -0.69,-0.57 4.13,4.13 0 0 0 -1.43,-0.17 z"
         id="path86" />
      <path
         class="cls-3"
         d="m 155.55,222.7 h 1 l 3.22,7.5 3.27,-7.5 h 1.06 l -4.23,9.7 h -0.21 z"
         id="path87" />
      <path
         class="cls-3"
         d="m 170.32,222.7 4.53,9.7 h -1 l -1.52,-3.19 h -4.19 l -1.51,3.19 h -1.13 l 4.59,-9.7 z m -0.12,2.06 -1.66,3.51 h 3.32 z"
         id="path88" />
      <path
         class="cls-3"
         d="m 176.53,223.65 v -1 h 5.32 v 1 h -2.17 v 8.75 h -1 v -8.75 z"
         id="path89" />
      <path
         class="cls-3"
         d="m 185.33,222.7 h 1 v 9.7 h -1 z"
         id="path90" />
      <path
         class="cls-3"
         d="m 195.38,222.45 a 5,5 0 0 1 3.69,1.48 4.89,4.89 0 0 1 1.49,3.62 5.13,5.13 0 0 1 -8.74,3.62 4.86,4.86 0 0 1 -1.49,-3.58 5.19,5.19 0 0 1 0.67,-2.59 4.86,4.86 0 0 1 1.84,-1.87 5,5 0 0 1 2.54,-0.68 z m 0,1 a 4,4 0 0 0 -2,0.56 4.13,4.13 0 0 0 -1.51,1.51 4.23,4.23 0 0 0 -0.54,2.12 4.08,4.08 0 0 0 4.09,4.11 4.24,4.24 0 0 0 2.1,-0.54 4,4 0 0 0 1.5,-1.5 4.23,4.23 0 0 0 0.54,-2.12 4.12,4.12 0 0 0 -0.54,-2.09 4.22,4.22 0 0 0 -3.6,-2 z"
         id="path91" />
      <path
         class="cls-3"
         d="m 204.74,232.4 v -9.7 H 205 l 6.46,7.44 v -7.44 h 1 v 9.7 h -0.22 l -6.41,-7.35 v 7.35 z"
         id="path92" />
      <path
         class="cls-7"
         d="m 232,224.5 -0.77,0.59 a 4.14,4.14 0 0 0 -1.52,-1.25 4.36,4.36 0 0 0 -1.95,-0.43 4.31,4.31 0 0 0 -2.15,0.56 4,4 0 0 0 -1.54,1.5 4.14,4.14 0 0 0 -0.54,2.11 3.94,3.94 0 0 0 1.22,3 4.18,4.18 0 0 0 3.07,1.19 4.31,4.31 0 0 0 3.41,-1.6 l 0.77,0.58 a 4.82,4.82 0 0 1 -1.82,1.43 5.61,5.61 0 0 1 -2.42,0.51 5,5 0 0 1 -4,-1.7 5.11,5.11 0 0 1 -1.23,-3.46 4.78,4.78 0 0 1 1.49,-3.58 5.16,5.16 0 0 1 3.75,-1.46 5.47,5.47 0 0 1 2.45,0.54 4.8,4.8 0 0 1 1.78,1.47 z"
         id="path93" />
      <path
         class="cls-7"
         d="m 236.16,222.7 h 5.56 v 1 h -4.59 v 3 h 4.55 v 0.95 h -4.55 v 3.81 h 4.55 v 1 h -5.52 z"
         id="path94" />
      <path
         class="cls-7"
         d="m 245.63,232.4 v -9.7 h 0.22 l 6.46,7.44 v -7.44 h 0.95 v 9.7 H 253 l -6.4,-7.35 v 7.35 z"
         id="path95" />
      <path
         class="cls-7"
         d="m 256.89,223.65 v -1 h 5.32 v 1 h -2.16 v 8.75 h -1 v -8.75 z"
         id="path96" />
      <path
         class="cls-7"
         d="m 265.89,222.7 h 1.94 a 11.7,11.7 0 0 1 2.19,0.13 2.46,2.46 0 0 1 1.4,0.85 2.42,2.42 0 0 1 0.54,1.6 2.59,2.59 0 0 1 -0.37,1.4 2.27,2.27 0 0 1 -1.07,0.9 4.88,4.88 0 0 1 -1.91,0.32 l 3.49,4.5 h -1.2 l -3.49,-4.5 h -0.55 v 4.5 h -1 z m 1,1 v 3.3 h 1.67 a 4.26,4.26 0 0 0 1.44,-0.18 1.64,1.64 0 0 0 0.73,-0.59 1.72,1.72 0 0 0 0.26,-0.91 1.56,1.56 0 0 0 -0.27,-0.89 1.37,1.37 0 0 0 -0.69,-0.57 4.1,4.1 0 0 0 -1.43,-0.17 z"
         id="path97" />
      <path
         class="cls-7"
         d="m 276.28,222.7 h 5.56 v 1 h -4.59 v 3 h 4.55 v 0.95 h -4.55 v 3.81 h 4.55 v 1 h -5.52 z"
         id="path98" />
      <path
         class="cls-7"
         d="m 94.32,170.56 -0.76,0.58 a 4.24,4.24 0 0 0 -1.56,-1.25 4.49,4.49 0 0 0 -2,-0.42 4.21,4.21 0 0 0 -2.15,0.56 4,4 0 0 0 -1.54,1.49 4.21,4.21 0 0 0 -0.54,2.12 4,4 0 0 0 1.21,3 4.26,4.26 0 0 0 3.08,1.19 4.31,4.31 0 0 0 3.41,-1.6 l 0.76,0.58 a 4.71,4.71 0 0 1 -1.81,1.43 5.61,5.61 0 0 1 -2.42,0.51 5,5 0 0 1 -4,-1.7 5.13,5.13 0 0 1 -1.24,-3.46 4.79,4.79 0 0 1 1.5,-3.58 5.15,5.15 0 0 1 3.74,-1.46 5.49,5.49 0 0 1 2.46,0.54 4.69,4.69 0 0 1 1.86,1.47 z"
         id="path99" />
      <path
         class="cls-7"
         d="m 102.47,168.76 4.52,9.7 h -1 l -1.53,-3.19 h -4.18 l -1.52,3.19 h -1.12 l 4.59,-9.7 z m -0.13,2.06 -1.66,3.51 H 104 Z"
         id="path100" />
      <path
         class="cls-7"
         d="m 110.73,178.46 v -9.7 H 111 l 6.46,7.44 v -7.44 h 1 v 9.7 h -0.22 l -6.4,-7.35 v 7.35 z"
         id="path101" />
      <path
         class="cls-7"
         d="m 127.58,168.51 a 5,5 0 0 1 3.69,1.47 5.11,5.11 0 0 1 -3.61,8.73 5,5 0 0 1 -3.65,-1.48 4.87,4.87 0 0 1 -1.48,-3.58 5.18,5.18 0 0 1 0.67,-2.59 4.89,4.89 0 0 1 1.85,-1.87 5,5 0 0 1 2.53,-0.68 z m 0,0.94 a 3.93,3.93 0 0 0 -2,0.57 4,4 0 0 0 -1.51,1.51 4.21,4.21 0 0 0 -0.54,2.12 4.08,4.08 0 0 0 4.09,4.11 4.11,4.11 0 0 0 2.09,-0.55 3.86,3.86 0 0 0 1.5,-1.5 4.17,4.17 0 0 0 0.54,-2.11 4.09,4.09 0 0 0 -0.54,-2.09 4,4 0 0 0 -1.51,-1.51 4.1,4.1 0 0 0 -2.08,-0.55 z"
         id="path102" />
      <path
         class="cls-7"
         d="m 136.93,168.76 h 1 v 8.77 h 3.74 v 0.93 h -4.71 z"
         id="path103" />
      <path
         class="cls-7"
         d="m 145.4,168.76 h 4.87 v 0.94 h -3.9 v 3.05 h 3.9 v 0.95 h -3.9 v 4.76 h -1 z"
         id="path104" />
      <path
         class="cls-7"
         d="m 157.34,168.76 4.53,9.7 h -1.05 l -1.53,-3.19 h -4.18 l -1.51,3.19 h -1.08 l 4.58,-9.7 z m -0.12,2.06 -1.66,3.51 h 3.31 z"
         id="path105" />
      <path
         class="cls-7"
         d="m 165.61,178.46 v -9.7 h 0.21 l 6.46,7.44 v -7.44 h 1 v 9.7 H 173 l -6.41,-7.35 v 7.35 z"
         id="path106" />
      <path
         class="cls-3"
         d="m 193.17,170.38 -0.76,0.72 a 5.63,5.63 0 0 0 -1.78,-1.21 4.68,4.68 0 0 0 -1.88,-0.42 4.4,4.4 0 0 0 -2.17,0.57 4,4 0 0 0 -1.6,1.52 3.93,3.93 0 0 0 0,4.11 4.17,4.17 0 0 0 1.62,1.55 4.74,4.74 0 0 0 2.27,0.56 3.88,3.88 0 0 0 2.53,-0.84 3.38,3.38 0 0 0 1.23,-2.19 h -3.09 v -0.94 h 4.18 a 4.88,4.88 0 0 1 -1.34,3.57 4.75,4.75 0 0 1 -3.54,1.33 5.31,5.31 0 0 1 -4.26,-1.84 4.85,4.85 0 0 1 -1.21,-3.26 5,5 0 0 1 2.6,-4.43 5.47,5.47 0 0 1 2.73,-0.67 6,6 0 0 1 2.3,0.49 7,7 0 0 1 2.17,1.38 z"
         id="path107" />
      <path
         class="cls-3"
         d="m 201.78,168.76 4.53,9.7 h -1.05 l -1.52,-3.19 h -4.19 l -1.55,3.19 h -1 l 4.59,-9.7 z m -0.12,2.06 -1.66,3.51 h 3.32 z"
         id="path108" />
      <path
         class="cls-3"
         d="m 210,178.46 v -9.7 h 2 a 10.08,10.08 0 0 1 3.16,0.35 4.25,4.25 0 0 1 2.21,1.71 5.22,5.22 0 0 1 0.79,2.91 5.13,5.13 0 0 1 -0.63,2.57 4,4 0 0 1 -1.64,1.63 6,6 0 0 1 -2.82,0.53 z m 0.94,-0.92 h 1.12 a 10.34,10.34 0 0 0 2.79,-0.25 3.17,3.17 0 0 0 1.72,-1.28 3.93,3.93 0 0 0 0.63,-2.26 4.16,4.16 0 0 0 -0.68,-2.4 3.46,3.46 0 0 0 -1.9,-1.37 11.54,11.54 0 0 0 -3,-0.28 H 211 Z"
         id="path109" />
      <path
         class="cls-3"
         d="m 221.78,168.76 h 1 l 2,7 2.79,-7 h 0.2 l 2.75,7 2,-7 h 1 l -2.79,9.7 h -0.18 l -2.88,-7.34 -2.93,7.34 h -0.18 z"
         id="path110" />
      <path
         class="cls-3"
         d="m 237.59,168.76 h 1.93 a 11.56,11.56 0 0 1 2.19,0.13 2.45,2.45 0 0 1 1.41,0.85 2.4,2.4 0 0 1 0.54,1.6 2.65,2.65 0 0 1 -0.37,1.39 2.33,2.33 0 0 1 -1.07,0.91 4.72,4.72 0 0 1 -1.91,0.31 l 3.49,4.51 h -1.2 L 239.11,174 h -0.55 v 4.51 h -1 z m 1,0.94 v 3.3 h 1.67 a 4,4 0 0 0 1.44,-0.19 1.52,1.52 0 0 0 0.73,-0.59 1.66,1.66 0 0 0 0.26,-0.9 1.53,1.53 0 0 0 -0.27,-0.89 1.42,1.42 0 0 0 -0.69,-0.57 4,4 0 0 0 -1.43,-0.18 z"
         id="path111" />
      <path
         class="cls-3"
         d="m 251.94,168.76 4.52,9.7 h -1 l -1.52,-3.19 h -4.24 l -1.51,3.19 h -1.08 l 4.59,-9.7 z m -0.13,2.06 -1.66,3.51 h 3.32 z"
         id="path112" />
      <path
         class="cls-3"
         d="m 260.2,168.76 h 5.57 v 0.94 h -4.6 v 3.05 h 4.56 v 0.95 h -4.56 v 3.81 h 4.56 v 1 h -5.53 z"
         id="path113" />
      <path
         class="cls-3"
         d="m 268.71,169.7 v -0.94 H 274 v 0.94 h -2.17 v 8.76 h -1 v -8.76 z"
         id="path114" />
      <path
         class="cls-3"
         d="m 277.64,168.76 h 1 v 4.07 h 4.95 v -4.07 h 1 v 9.7 h -1 v -4.68 h -4.95 v 4.68 h -1 z"
         id="path115" />
      <path
         class="cls-8"
         d="m 47.51,187.74 v 2 a 5.21,5.21 0 0 0 -2,-0.5 1.88,1.88 0 0 0 -1,0.25 1.06,1.06 0 0 0 -0.51,0.57 7.91,7.91 0 0 0 -0.1,1.71 V 194 h 3.4 v 1.8 h -3.4 v 14.46 H 41.8 V 195.82 H 39.66 V 194 h 2.14 v -2.55 a 7,7 0 0 1 0.32,-2.49 2.57,2.57 0 0 1 1.09,-1.2 3.56,3.56 0 0 1 1.86,-0.46 8.84,8.84 0 0 1 2.44,0.44 z"
         id="path116" />
      <path
         class="cls-8"
         d="m 57.21,187.74 v 2 a 5.21,5.21 0 0 0 -2,-0.5 1.88,1.88 0 0 0 -1,0.25 1.06,1.06 0 0 0 -0.51,0.57 7.91,7.91 0 0 0 -0.1,1.71 V 194 H 57 v 1.8 h -3.4 v 14.46 H 51.5 V 195.82 H 49.36 V 194 h 2.14 v -2.55 a 7,7 0 0 1 0.32,-2.49 2.57,2.57 0 0 1 1.09,-1.2 3.56,3.56 0 0 1 1.86,-0.46 8.84,8.84 0 0 1 2.44,0.44 z"
         id="path117" />
      <path
         class="cls-8"
         d="m 73.81,204.88 1.77,0.93 a 9.74,9.74 0 0 1 -2,2.75 8,8 0 0 1 -2.58,1.59 9,9 0 0 1 -3.21,0.55 7.78,7.78 0 0 1 -6.22,-2.61 8.8,8.8 0 0 1 -2.25,-5.9 8.66,8.66 0 0 1 1.9,-5.51 7.76,7.76 0 0 1 6.45,-3.08 8,8 0 0 1 6.64,3.15 8.78,8.78 0 0 1 1.79,5.56 H 61.48 a 6.62,6.62 0 0 0 1.81,4.69 5.78,5.78 0 0 0 4.33,1.82 6.85,6.85 0 0 0 2.41,-0.44 6.27,6.27 0 0 0 2,-1.14 9.91,9.91 0 0 0 1.78,-2.36 z m 0,-4.38 a 6.82,6.82 0 0 0 -1.22,-2.67 5.78,5.78 0 0 0 -2.11,-1.62 6.47,6.47 0 0 0 -2.77,-0.61 6,6 0 0 0 -4.12,1.54 7,7 0 0 0 -1.9,3.36 z"
         id="path118" />
      <path
         class="cls-8"
         d="m 79.22,194 h 2.14 v 2.37 a 7.55,7.55 0 0 1 2,-2.1 4,4 0 0 1 2.21,-0.69 3.76,3.76 0 0 1 1.85,0.55 l -1.09,1.76 a 2.86,2.86 0 0 0 -1.1,-0.28 3,3 0 0 0 -2,0.86 5.4,5.4 0 0 0 -1.48,2.67 25.45,25.45 0 0 0 -0.39,5.62 v 5.5 h -2.14 z"
         id="path119" />
      <path
         class="cls-8"
         d="m 90.06,194 h 2.09 v 2.81 a 8.24,8.24 0 0 1 2.24,-2.28 6.44,6.44 0 0 1 3.34,-1 5.56,5.56 0 0 1 2.25,0.46 4.93,4.93 0 0 1 1.73,1.23 6.68,6.68 0 0 1 1.17,2.21 7.58,7.58 0 0 1 2.61,-2.91 6.16,6.16 0 0 1 3.37,-1 5.25,5.25 0 0 1 3,0.85 5.1,5.1 0 0 1 1.92,2.38 12.84,12.84 0 0 1 0.62,4.57 v 8.88 h -2.13 v -8.8 a 11.53,11.53 0 0 0 -0.38,-3.6 3.19,3.19 0 0 0 -1.27,-1.57 3.79,3.79 0 0 0 -2.15,-0.6 4.68,4.68 0 0 0 -2.78,0.9 5.11,5.11 0 0 0 -1.84,2.39 15.06,15.06 0 0 0 -0.58,5 v 6.37 h -2.09 V 202 a 14.08,14.08 0 0 0 -0.37,-4 3.29,3.29 0 0 0 -1.28,-1.68 3.63,3.63 0 0 0 -2.16,-0.64 4.72,4.72 0 0 0 -2.72,0.87 5.18,5.18 0 0 0 -1.86,2.36 12.48,12.48 0 0 0 -0.61,4.53 v 6.89 h -2.12 z"
         id="path120" />
      <path
         class="cls-4"
         d="m 119.13,210.28 v -22 h 4.55 a 23.21,23.21 0 0 1 7.16,0.79 9.57,9.57 0 0 1 5,3.89 11.8,11.8 0 0 1 1.8,6.59 11.55,11.55 0 0 1 -1.42,5.81 9.19,9.19 0 0 1 -3.71,3.71 13.92,13.92 0 0 1 -6.39,1.2 z m 2.1,-2.08 h 2.54 a 23.67,23.67 0 0 0 6.33,-0.57 7.36,7.36 0 0 0 3.9,-2.9 9,9 0 0 0 1.42,-5.13 9.49,9.49 0 0 0 -1.54,-5.44 7.8,7.8 0 0 0 -4.29,-3.09 25.84,25.84 0 0 0 -6.8,-0.63 h -1.56 z"
         id="path121" />
      <path
         class="cls-4"
         d="m 141.92,188.29 h 12.6 v 2.15 h -10.41 v 6.89 h 10.32 v 2.16 h -10.32 v 8.63 h 10.32 v 2.16 h -12.51 z"
         id="path122" />
      <path
         class="cls-4"
         d="m 158.33,210.28 v -22 h 0.48 l 14.63,16.85 v -16.84 h 2.16 v 22 h -0.49 L 160.6,193.63 v 16.65 z"
         id="path123" />
      <path
         class="cls-4"
         d="m 180,210.28 3.15,-22 h 0.36 l 8.93,18 8.86,-18 h 0.35 l 3.16,22 h -2.15 l -2.17,-15.73 -7.78,15.73 h -0.56 l -7.87,-15.85 -2.15,15.85 z"
         id="path124" />
      <path
         class="cls-4"
         d="m 218.06,188.29 10.26,22 h -2.38 L 222.49,203 H 213 l -3.42,7.24 h -2.45 l 10.38,-22 z m -0.27,4.67 -3.77,8 h 7.51 z"
         id="path125" />
      <path
         class="cls-4"
         d="m 231.84,188.29 h 4.38 a 26.4,26.4 0 0 1 5,0.3 5.69,5.69 0 0 1 3.19,1.92 5.53,5.53 0 0 1 1.22,3.63 5.9,5.9 0 0 1 -0.84,3.16 5.28,5.28 0 0 1 -2.42,2.06 11.13,11.13 0 0 1 -4.33,0.71 l 7.91,10.21 h -2.72 l -7.91,-10.21 H 234 v 10.21 h -2.2 z m 2.2,2.15 v 7.48 h 3.79 a 9.36,9.36 0 0 0 3.25,-0.42 3.37,3.37 0 0 0 1.65,-1.34 3.75,3.75 0 0 0 0.59,-2.06 3.59,3.59 0 0 0 -0.6,-2 3.34,3.34 0 0 0 -1.57,-1.29 9.53,9.53 0 0 0 -3.23,-0.39 z"
         id="path126" />
      <path
         class="cls-4"
         d="m 250.3,188.29 h 2.24 v 8.25 l 8.79,-8.25 h 2.95 l -10.56,9.87 11.38,12.12 h -2.92 L 252.54,200 v 10.24 h -2.24 z"
         id="path127" />
      <path
         class="cls-8"
         d="m 274.74,187.74 v 2 a 5.21,5.21 0 0 0 -2,-0.5 1.85,1.85 0 0 0 -1,0.25 1.06,1.06 0 0 0 -0.51,0.57 7.63,7.63 0 0 0 -0.11,1.71 V 194 h 3.4 v 1.8 h -3.4 v 14.46 H 269 v -14.44 h -2.14 V 194 H 269 v -2.55 a 6.77,6.77 0 0 1 0.32,-2.49 2.52,2.52 0 0 1 1.09,-1.2 3.52,3.52 0 0 1 1.86,-0.46 8.84,8.84 0 0 1 2.47,0.44 z"
         id="path128" />
      <path
         class="cls-8"
         d="m 293.85,194 v 16.26 h -2.06 v -2.8 a 9,9 0 0 1 -3,2.41 8.23,8.23 0 0 1 -9.48,-1.7 8.39,8.39 0 0 1 -2.44,-6.09 8.27,8.27 0 0 1 2.46,-6 8.08,8.08 0 0 1 5.94,-2.49 7.64,7.64 0 0 1 3.62,0.85 8.35,8.35 0 0 1 2.85,2.55 v -3 z m -8.36,1.6 a 6.28,6.28 0 0 0 -5.58,3.26 6.64,6.64 0 0 0 -0.87,3.29 6.56,6.56 0 0 0 0.88,3.28 6.39,6.39 0 0 0 2.37,2.44 6.2,6.2 0 0 0 3.18,0.88 6.53,6.53 0 0 0 3.26,-0.87 6.1,6.1 0 0 0 2.36,-2.34 6.64,6.64 0 0 0 0.83,-3.33 6.49,6.49 0 0 0 -1.86,-4.72 6.16,6.16 0 0 0 -4.57,-1.87 z"
         id="path129" />
      <path
         class="cls-8"
         d="m 297.77,194 h 2.13 v 2.37 a 7.55,7.55 0 0 1 2,-2.1 4,4 0 0 1 2.21,-0.69 3.82,3.82 0 0 1 1.86,0.55 l -1.1,1.76 a 2.82,2.82 0 0 0 -1.1,-0.28 3,3 0 0 0 -2,0.86 5.4,5.4 0 0 0 -1.48,2.67 25.45,25.45 0 0 0 -0.39,5.62 v 5.5 h -2.13 z"
         id="path130" />
      <path
         class="cls-8"
         d="m 308.6,194 h 2.09 v 2.81 a 8.13,8.13 0 0 1 2.25,-2.28 6.43,6.43 0 0 1 3.33,-1 5.56,5.56 0 0 1 2.25,0.46 4.76,4.76 0 0 1 1.73,1.23 6.68,6.68 0 0 1 1.17,2.21 7.75,7.75 0 0 1 2.61,-2.91 6.19,6.19 0 0 1 3.37,-1 5.23,5.23 0 0 1 3,0.85 5.1,5.1 0 0 1 1.92,2.38 12.58,12.58 0 0 1 0.63,4.57 v 8.88 h -2.14 v -8.8 a 11.61,11.61 0 0 0 -0.37,-3.6 3.27,3.27 0 0 0 -1.28,-1.57 3.77,3.77 0 0 0 -2.15,-0.6 4.68,4.68 0 0 0 -2.78,0.9 5.11,5.11 0 0 0 -1.84,2.39 15.33,15.33 0 0 0 -0.58,5 v 6.37 h -2.09 V 202 a 14.08,14.08 0 0 0 -0.37,-4 3.33,3.33 0 0 0 -1.27,-1.68 3.66,3.66 0 0 0 -2.17,-0.64 4.67,4.67 0 0 0 -2.71,0.87 5.14,5.14 0 0 0 -1.87,2.36 12.48,12.48 0 0 0 -0.61,4.53 v 6.89 h -2.12 z"
         id="path131" />
      <path
         class="cls-3"
         d="m 128.49,88.93 c 0,0 0.51,4.14 7.63,5 0,0 -1.78,3.93 1.58,6.26 0,0 2.28,2 3.59,3.11 0,0 -3.06,1.87 -9,-3.68 -0.05,0.05 -5.61,-5.51 -3.8,-10.69 z"
         id="path132" />
      <path
         class="cls-3"
         d="m 128.49,88.93 1.71,-0.19 -1,-2.93 c 0,0 5.47,-0.57 7.47,2.43 a 2.86,2.86 0 0 1 0.13,2.6 6.69,6.69 0 0 0 2.58,3.16 4.33,4.33 0 0 0 -3.26,0 l -3.17,0.51 -3.87,-2.25 -0.63,-1.63 z"
         id="path133" />
      <path
         class="cls-9"
         d="M 134.9,88.08 A 1.14,1.14 0 1 1 133.76,87 1.14,1.14 0 0 1 134.9,88.08 Z"
         id="path134" />
    </g>
  </g>
</svg>
