<?xml version="1.0" encoding="UTF-8" standalone="no"?>
<!-- Generator: Adobe Illustrator 26.0.3, SVG Export Plug-In . SVG Version: 6.00 Build 0)  -->

<svg
   version="1.0"
   id="katman_1"
   x="0px"
   y="0px"
   viewBox="0 0 900 450"
   xml:space="preserve"
   sodipodi:docname="national-trust.svg"
   inkscape:version="1.3.2 (1:1.3.2+202311252150+091e20ef0f)"
   width="900"
   height="450"
   inkscape:export-filename="national-trust.png"
   inkscape:export-xdpi="106.66666"
   inkscape:export-ydpi="106.66666"
   xmlns:inkscape="http://www.inkscape.org/namespaces/inkscape"
   xmlns:sodipodi="http://sodipodi.sourceforge.net/DTD/sodipodi-0.dtd"
   xmlns="http://www.w3.org/2000/svg"
   xmlns:svg="http://www.w3.org/2000/svg"><defs
   id="defs12" /><sodipodi:namedview
   id="namedview12"
   pagecolor="#ffffff"
   bordercolor="#666666"
   borderopacity="1.0"
   inkscape:showpageshadow="2"
   inkscape:pageopacity="0.0"
   inkscape:pagecheckerboard="0"
   inkscape:deskcolor="#d1d1d1"
   inkscape:zoom="0.90036484"
   inkscape:cx="462.03492"
   inkscape:cy="200.47429"
   inkscape:window-width="1920"
   inkscape:window-height="1051"
   inkscape:window-x="1920"
   inkscape:window-y="0"
   inkscape:window-maximized="1"
   inkscape:current-layer="katman_1" />
<style
   type="text/css"
   id="style1">
	.st0{fill:#0C7787;}
</style>
<g
   id="g12"
   style="fill:#007a3b;fill-opacity:1"
   transform="translate(149.9,-0.3)">
	<path
   class="st0"
   d="m 343.9,134.3 c 2.2,-3.9 5.2,-7.8 8.5,-11.1 5.2,-5 11.6,-7.9 15.9,-7.9 4.4,0 6.1,1.5 6.9,1.5 0.7,0 1.3,-1 2.5,-1.4 0.4,-0.1 0.3,-0.2 0.7,-0.2 0.5,0 1.4,0.9 1.4,1.4 0,0.4 -0.2,0.4 -0.2,0.7 -0.2,1.1 -1.2,1.7 -1.2,2.5 0,0.7 2.2,2.1 2.2,7.5 0,5.2 -3.3,13 -8,18.7 -2.9,3.4 -5.3,4.9 -6.3,5.9 -0.6,0.6 -0.8,1.6 -1.4,2.2 -0.7,0.6 -1,0.1 -1.3,0.5 -0.2,0.5 -1,0.6 -1.4,0.5 -0.5,-0.2 -0.1,0.2 -0.6,0.5 -0.5,0.2 -0.6,0.2 -1.1,0.3 -0.6,0.2 -0.2,0.5 -1.8,0.8 0.5,0.2 2.9,-0.1 3.5,-0.1 0.6,0 2.2,-0.5 2.8,-0.5 0.6,0 0.6,-0.2 1.1,-0.2 0.6,0 0.5,0.1 0.8,0.1 0.3,0 1.4,-0.5 2.1,0 0.2,-0.2 1.4,-0.2 1.7,-0.2 0.3,0 0.4,0.3 0.8,0.4 0.4,0.1 1.1,0 1.7,0.2 0.2,0.1 0.3,0.1 0.6,0.4 1.1,-0.1 2.1,0.6 2.3,0.9 0.5,0.6 0.8,0.2 1,0.4 0.2,0.2 1,0.5 1.2,1 0.1,0.2 -0.1,0.4 0.1,0.6 0.2,0.2 0.7,0.2 0.9,0.3 0.2,0.1 0.3,0.3 0.5,0.5 0.2,0.2 0.7,0.4 0.5,1 0.9,0 1.6,1 1.6,1.6 v 0.6 c 0,0 0.2,0.2 0.6,0.3 0.3,0.1 0.9,1.3 0.7,1.9 -0.2,0.5 0.1,0.4 0.1,0.7 0,4.9 -9.3,8.9 -21.8,8.9 -4.8,0 -6.7,-1.9 -6.9,-2.6 -0.2,-0.4 -0.2,-0.6 -0.2,-0.9 -0.2,-0.2 -0.7,-1 -0.3,-1.7 0,0 -0.2,-0.4 -0.2,-1 0.1,-1.1 0.5,-1 0.5,-1.4 0,-0.2 -0.1,-0.4 -0.1,-0.6 0,-0.6 0.2,-0.6 0.4,-1.4 0.2,-0.6 0.2,-0.2 0.6,-0.7 0.3,-0.5 0.3,-0.2 0.3,-0.9 0,-0.7 0.2,-0.8 0.9,-1 0,0 0.2,-1 1,-1.1 0.3,0 0.2,-0.4 0.3,-0.8 0.2,-0.4 0.6,-0.1 0.8,-0.5 0.1,-0.2 0.9,-1 1.7,-1.1 -3.1,-0.1 -4.9,0.7 -6.3,0.6 -0.9,-0.1 -1.3,-0.2 -5.3,0.6 -5,1.1 -14.1,5.8 -18.7,8.6 -5.6,3.5 -20.4,13.7 -25.1,22.7 -0.8,1.4 -2.4,9.8 -4.5,17.3 -2.3,8.7 -5.1,17 -5.2,18.5 1.3,-1.7 2.6,-3.1 4.1,-3.1 2.6,0 1.9,3.1 2.2,3.3 0.4,0.2 0.4,-0.6 0.4,-1.4 0,-0.8 0.2,-2.6 1.3,-4.5 1.3,-2.2 3.7,-4.4 6.7,-6.7 2.9,-2.2 4.8,-8 6.3,-12.3 1.5,-4.3 4.3,-9.1 8.1,-9.1 2.7,0 4.3,2.4 4.8,3.3 0.6,1.2 1.4,3.7 2.4,3.6 2.2,-0.4 7.6,-12.2 12.1,-16.9 2.1,-2.2 4.5,-4.9 8.5,-4.9 7.1,0 6.1,10 9,10 1.9,0 3.2,-2.9 4.1,-4 1.8,-2.6 7.6,-7.3 11.1,-7.3 3.3,0 3.9,2.7 3.9,5.1 0,1.9 -0.5,3.7 1.4,3.7 1.2,0 4.7,-6.2 9.1,-6.2 1.7,0 3.6,1.1 3.6,3.3 0,2.1 -0.3,3.2 -0.3,3.8 0,0.6 0.6,1 1.4,1 1,0 1.9,-0.3 2.7,-0.3 1.9,0 3.6,1.2 3.6,3.7 0,2.9 -1.6,5 -3.5,7.2 -0.8,0.9 -1,1.6 -0.4,2.6 1,1.7 2.7,2.1 2.7,3.5 0,3.5 -2.3,4.7 -4.4,5.2 -2,0.5 -5.9,0.6 -5.9,3.3 0,2.3 3.1,3.9 3.1,8 0,1.8 -0.7,3.3 -3,4.5 -2.6,1.4 -7.8,1.6 -8.6,1.6 -2.4,0 -5.7,-0.5 -7.6,-0.5 -1.9,0 -3.6,0.1 -3.6,1.2 0,2.1 4.4,3.7 4.4,8.2 0,4.6 -7.1,5.4 -11.2,5.4 -4.9,0 -8.7,-0.9 -12.9,-2.3 -2.1,-0.7 -6.5,-2.9 -9.6,-2.9 -1.9,0 -2.9,0.6 -2.9,1.4 0,1.4 3.3,3.8 3.3,7.2 0,2.9 -2.4,4 -4.6,4 -8,0 -13.4,-9.5 -25,-9.5 -2.9,0 -4.1,1.2 -7.6,1.2 -4.4,0 -5.8,-1.5 -5.7,-4.1 -2.9,1.3 -6.4,4.1 -6.4,7.9 0,3 0.3,4.6 1.4,5.8 1.1,1.2 2.5,1.6 2.8,2.6 0.8,0.8 -0.4,2.9 0.2,6.7 0.4,2.9 1.3,6.8 1.8,7.8 0.4,0.9 -2.8,1.2 -3.7,1.2 -1.5,0 -6.4,0.1 -6.6,-1.3 -0.5,-3.8 -3.7,-17.9 -4.9,-21.1 -1.6,-4.2 -2.3,-3.8 -4.9,-5.9 -2.2,-1.9 -13,-9.2 -18.7,-9.2 -1.5,0 -0.7,-0.2 -1.9,-0.2 -0.8,0 -0.2,-0.2 -0.6,-0.2 -0.5,0 -0.4,0.4 -1.2,0.4 -0.5,0 -0.2,1.4 -0.5,1.4 -0.5,0 -0.3,0.5 -0.4,1 -0.1,0.6 -0.6,0.9 -0.7,1.4 -0.1,0.5 -0.6,0 -0.6,0.6 0,0.6 0.3,0.6 0,0.9 -0.5,0.6 -0.4,1 -0.8,1 -0.4,0 -0.4,0.2 -0.4,0.3 0,0.7 0.3,0.6 -0.2,1 -0.5,0.4 -1.1,0.4 -1.1,1 0,0.2 -0.2,0.4 -0.2,0.6 -0.3,0 -0.6,0.3 -0.8,0.6 -0.2,0.2 -0.1,-0.2 -0.4,0.4 -0.3,0.6 -0.2,0.5 -0.6,0.5 -1.1,0 -0.7,0.6 -2.3,0.6 -5.3,0 -11.7,-9.3 -11.7,-16.6 0,-5.1 0.7,-5 0.9,-6.1 0.1,-1 0.9,-2.1 1.6,-2.1 0.6,-0.1 0.4,-0.3 1.1,-0.2 -0.1,-0.4 0.6,-0.5 0.9,-0.7 0.5,-0.2 0.8,-0.2 1.4,0.2 0.2,-0.2 0.4,-0.4 0.9,-0.4 0.5,0 0.6,0.5 0.9,0.5 0.6,0 0.4,-0.2 0.9,-0.2 0.5,0 0.7,0.1 1.3,0.4 0.2,-0.1 0.4,-0.2 0.7,-0.2 0.2,0.1 0.7,0.2 0.8,0.6 0.3,0 0.7,-0.1 1.4,0.4 0.2,0.2 0.5,0.5 0.6,0.7 0.5,0.1 0.2,-0.3 1,0.1 0.7,0.4 0.7,0.5 1.1,1 0.4,0.6 0.3,0.1 0.9,0.4 0.9,0.5 0.5,0.9 0.9,1.2 0.2,0 0.3,0 0.6,0.2 0.4,0.3 0.1,0.6 0.4,0.7 0.2,0.1 0.3,0 0.4,0.6 0.1,0.4 0.6,0.6 1.1,1.3 0.3,0.4 1.1,1.2 1.3,1.2 0.3,0 0.2,-0.3 -0.2,-1 -0.6,-0.9 -0.6,-0.5 -1.1,-1.8 -0.2,-0.4 -0.6,-0.2 -0.6,-0.9 0,-0.5 -0.7,-1 -0.7,-1.4 0,-0.4 0,-0.6 -0.3,-0.7 -0.2,-0.2 -0.3,-0.2 -0.4,-0.5 -0.2,-0.6 0.1,-0.6 0.1,-1 0,-0.4 -0.4,0.1 -0.5,-0.2 -0.1,-0.3 0,-0.7 0,-1 0,-0.3 -0.3,-0.2 -0.3,-0.7 0,-0.5 0.1,-0.3 0.1,-0.9 0,-0.5 -0.3,-0.4 -0.4,-0.9 -0.1,-0.5 0.2,-0.4 0.2,-1 0,-0.6 -0.2,-0.1 -0.2,-0.6 0,-0.6 0.2,-0.4 0.2,-1.1 0,-0.2 0.2,-0.5 0.2,-0.8 0.1,-0.3 -0.2,-0.3 0,-0.7 0.8,-1.2 2.1,-3.2 8.7,-3.2 8.1,0 15.4,2 18.5,6.1 0.2,0.3 0.6,0.3 0.6,1 0.1,0.6 0.3,0.7 0.3,1.5 0,0.5 -0.3,1 -0.4,1.5 -0.2,0.9 0.2,2 -0.4,2 -0.5,0 -0.2,1.7 -0.6,1.7 -0.3,0 -0.1,0.6 -0.8,0.6 -0.6,0 0,1.6 -0.8,1.8 -0.2,0.1 -0.8,-0.1 -1,0.6 -0.1,0.3 -0.4,1.1 -1,1.2 -0.8,0.2 -0.5,0.2 -0.9,0.5 -1,1 -0.3,1.1 -0.6,1.4 -0.8,0.8 -1,-0.9 -1.5,-0.2 -0.2,0.3 -0.4,0.3 -0.4,0.6 0,0.7 -0.2,0.5 -0.7,0.3 -0.6,-0.2 -1.2,0.6 -1,0.8 0.3,0.4 -0.1,0.5 -0.5,0.1 -0.2,-0.1 -0.5,-0.1 -0.7,-0.1 -0.4,-0.2 -0.9,0 -0.9,0.4 0,0.6 0.1,0.6 -0.1,0.6 -0.2,0 -0.2,-0.6 -0.5,-0.6 -0.4,0 -0.8,0.1 -0.8,0.1 0.2,0.5 6.2,3.4 7.7,4.1 3.6,2 6.3,4.1 8,4.1 2.4,0 8.8,-16.1 8.4,-23.5 -0.1,-2.3 -0.2,-2.9 -0.1,-3.2 0.1,-0.7 -1.5,-0.6 -1.5,-3.8 0,-0.7 0.2,-2.2 0.7,-2.9 0.3,-0.4 1.2,-0.9 1.7,-0.9 0.6,0 2,1.1 2.1,1.8 0.6,-1 2.4,-8.9 2.4,-11.4 0,-0.9 -0.3,-2 -0.6,-2.3 -0.3,-0.3 -3.2,-0.9 -5.6,-4.1 -0.2,-0.2 -0.5,-0.4 -0.7,-0.2 -0.1,0.2 0,0.2 0,0.8 0,0.8 -1.3,2.9 -3.4,2.9 -3.6,0 -4.5,-1.6 -8.5,-1.6 -1.9,0 -3.3,0.7 -4.3,1.6 -1.9,1.6 -5.2,3.1 -6.8,3.1 -3.7,0 -1.8,-5.1 -4.1,-5.1 -1.7,0 -1.7,2.7 -2.3,4.4 -1,2.9 -7.6,10.7 -11.3,10.7 -3.6,0 -2.2,-6.3 -4.3,-6.3 -1.3,0 -2.1,1.8 -2.5,3.1 -1.6,5.3 -3.7,9.1 -5.9,11.5 -2.1,2.5 -5,6.9 -8.3,6.9 -3.2,0 -2.4,-5 -3.9,-6.2 -0.7,-0.6 -2.1,-1.2 -2.9,0.3 -1.7,3.3 -3.5,9.5 -8.2,9.5 -2.9,0 -3.6,-2.1 -3.6,-3.7 -0.1,-1.5 -0.1,-1.8 -0.3,-2.7 -0.2,-0.9 -0.5,-1.7 -1.4,-1.7 -0.6,0 -1.4,0.4 -2,2 -0.6,1.6 -2.9,5 -6.9,5 -3.6,0 -4.9,-1.4 -4.9,-2.5 -0.1,-1.4 0.3,-3.5 -2.5,-2.8 -3.1,0.8 -4.9,-3.8 -4.9,-5.6 0,-3.4 2.3,-5.7 2.3,-6.9 0,-1.4 -3.3,-2.2 -3.3,-5.7 0,-7.9 8.4,-5.8 8.4,-9.5 0,-3.3 -5.9,-4.8 -5.9,-8.3 0,-7.1 9.3,-8.3 11.1,-8.3 1.7,0 3.7,0.6 4.7,0.6 1,0 3.5,-0.5 3.5,-1.6 0,-1.1 -1,-2.7 -2,-4 -1,-1.3 -2.2,-2.5 -2.2,-4 0,-4.9 5.2,-6.8 8.8,-6.8 7.2,0 12.1,1.4 14,2.3 2,0.9 3.7,2.4 5.5,2.4 0.9,0 1.5,-0.3 1.5,-1.1 0,-1.7 -2.8,-3.7 -2.8,-6.9 0,-2.5 2.2,-5.1 6,-5.1 3.8,0 9.3,2.2 12.2,4 2.9,1.8 7.8,6.5 10.1,6.5 2.5,0 -0.3,-7.6 5.2,-7.6 4.7,0 10.6,5.1 14.5,12.4 0.7,1.4 2.8,4.3 4.5,5.2 2.9,1.6 6.3,6.8 6.8,10.7 0.1,1.2 0.9,1.9 1.2,1.9 -0.2,-1.2 -0.4,-3.6 1.2,-3.9 1.5,-0.3 4,1.6 4.6,2.5 0.5,-0.9 -0.8,-4.4 -1.2,-5.3 -0.3,-0.8 -2.6,-8.3 -3.1,-9.6 -0.6,-1.4 -3,-7.3 -3.8,-8.8 -1.3,-2.6 -4.1,-3.7 -5.5,-4.4 -2,-1.1 -4.1,-3.7 -4.7,-4.2 -0.6,-0.5 -0.6,-0.4 -0.9,-0.4 -0.3,0 -0.7,1.8 -3.4,1.8 -2.8,0 -6.1,-4.3 -9.5,-6.1 -4.8,-2.6 -11.1,-3.4 -13.4,-3.7 -1.7,-0.2 -7.2,-1.4 -9.9,-3.1 -1.8,-1.1 -2.3,-2.7 -2.3,-4 0,-2.7 3.4,-4.3 4.2,-4.6 0.8,-0.3 1.7,-0.8 1.7,-1.4 0,-0.8 -1.4,-1.4 -2.5,-2.1 -1.4,-0.8 -3.4,-1 -6.2,-1.1 -2.8,-0.1 -7.2,-0.8 -9.8,-1.9 -2.6,-1.1 -8,-5 -8,-8.3 0,-2.3 1.2,-4 3.1,-4.9 1.9,-1 5,-1.9 5,-3.4 0,-1 -1.1,-1.3 -1.9,-1.8 -0.9,-0.6 -5.6,-1.5 -7.2,-1.8 -2.4,-0.5 -12.2,-2.4 -12.2,-8.4 0,-5.7 8.6,-6 8.6,-7.2 0,-1.3 -2.5,-2.1 -5.3,-3.7 -3.2,-2 -6.6,-4.8 -6.6,-7.5 0,-5.4 7.7,-3.8 7.7,-5.8 0,-0.4 -0.5,-1.2 -0.8,-1.5 l -2.4,-2.3 c -0.8,-0.8 -1.7,-2.5 -1.7,-3.2 0,-2.2 2.3,-2.2 2.3,-3.2 0,-0.6 -0.2,-0.8 -0.2,-1.4 0,-1.4 1.6,-3 4.7,-2.2 1,0.2 1.7,0.3 2.6,0.2 0.9,-0.2 1.5,-1.5 3.5,-1.5 2.7,0 3.9,2.9 4.5,3.7 0.6,0.7 0.8,1.3 1.3,1.3 0.8,0 1,-2.1 1.8,-3.1 0.6,-0.7 2.2,-1.9 3.5,-1.9 4.3,0 7.7,3.6 9.5,7.5 0.3,0.8 0.9,1.8 1.4,1.8 1.7,0 3.2,-7.1 8.3,-7.1 3.2,0 4.6,1.1 5.8,2.2 1.9,1.7 2.2,5.4 3.1,7.9 0.8,2.3 0.3,8.8 0.3,10.2 0,1.4 0.3,5 1.4,5 2.1,0 4,-5.2 8.8,-5.2 2.1,0 5.4,2.9 5.4,9.7 0,7.4 -3.3,9.9 -3.3,15.2 0,1 0.2,2.1 1.1,2.1 1,0 1.5,-1.6 2.1,-2.3 0.9,-1 2.5,-1.6 4.7,-1.6 2.6,0 3.8,2.5 3.8,5.7 0,2.3 -1.4,11.4 -1.4,16 0,4.6 1.6,7 1.6,12.5 0,4.3 -2.1,7 -2.1,8.9 0,0.8 1,2.2 1.8,1.9 -0.9,-1.1 0,-4 0.7,-4.4 0.6,-0.3 1.5,-0.1 2,0.1 -0.6,-3.6 0.9,-7.1 2.1,-7.3 1.8,-0.4 5.2,3 5.6,3.6 0.5,-0.5 1,-1 1.7,-1 1,0 2.1,0.8 3.1,1.9 0.2,-0.4 0.3,-0.7 0.3,-1.3 0,-0.9 -1.7,-5.4 -1.7,-9.2 0,-4.6 2.2,-8.9 2.2,-12.5 0,-6.8 -2.2,-11 -2.2,-14.2 0,-6.8 2.1,-10.4 5.3,-10.4 3.1,0 4.8,3.1 6.8,3.1 1.4,0 2.3,-2.8 2.5,-4.4 1.1,-7.8 1.7,-24.6 10.3,-28.6 1.8,-0.9 4,-0.3 5.5,1.3 3,3.1 3.6,6.8 5.9,6.8 1.6,0 3.7,-4 4.5,-5.7 1.2,-2.7 5.4,-7.2 9.7,-7.2 7.3,0 4.7,8 8.3,8 3.7,0 6.6,-6.8 12.7,-6.8 1.8,0 3.8,1.8 3.8,4.1 0,1.4 -0.2,2.5 -0.2,3.3 0,0.7 0,1.6 0.8,1.6 0.8,0 3.2,-2.5 4.9,-2.5 3.1,0 2.4,3 3.8,4 0.8,0.6 3.9,0.8 3.9,4 0,4.1 -3.9,4 -3.9,5.9 0,1.3 3.3,2.3 3.3,4.5 0,2.4 -2.4,5 -4.4,5.2 -1.5,0.2 -6.7,0 -6.7,2.2 0,0.5 1.3,1.2 2.4,2.2 1.4,1.2 2.9,2.5 2.9,4.6 0,2.9 -3.2,5.6 -13,5.6 -1.6,0 -2.1,-0.2 -3.7,-0.2 -0.7,0 -2.1,0.1 -3.3,0.4 -1.8,0.5 -3.4,1.1 -3.4,2 0,2.8 5.6,2.8 5.6,6.3 0,2.6 -1.8,4.4 -4.2,5.7 -1.6,1 -7.8,3.3 -11.4,3.3 -7.4,0 -8.4,-0.9 -10.5,-0.9 -1.8,0 -3.3,0.6 -3.3,1.7 0,1.1 1.1,1.8 2.8,2.7 1,0.6 5.3,2 5.3,5.5 0,3.6 -6.1,5.6 -8.7,6.1 -6.8,1.4 -10.6,3.3 -15.2,7.7 -2.4,2.3 -7.4,8.4 -12.4,6 -2.1,3.1 -5.3,6.2 -5.7,8.8 -0.7,4.5 6,25.8 9,25.8 1.8,0 4.5,-2.4 8.3,-4.9 2.5,-1.7 5.2,-3.5 8.2,-5.6 13.2,-9 24.1,-13.6 24.1,-15.3 0,-1.4 -1.1,-2.5 -1.5,-3.3 -0.3,-0.6 -0.7,-0.9 -1,-1.4 -0.3,-0.6 -0.2,-0.7 -0.5,-1.2 -0.2,-0.5 -0.6,-0.8 -0.7,-1.4 -0.1,-0.6 -0.1,-0.6 -0.1,-1.1 -0.5,-0.2 -0.5,-0.6 -0.5,-1.1 0,-0.5 0.1,-0.5 0.1,-0.9 0,-0.5 -0.3,-0.2 -0.3,-0.9 0,-1 0.3,-0.9 0.3,-1.4 0,-0.2 -0.6,-0.5 -0.6,-0.9 0,-0.7 0.6,-0.9 0.6,-1.4 0,-0.5 -0.4,-0.3 -0.4,-0.8 0,-1.6 0.5,-1.4 0.6,-1.8 -0.1,-0.3 0.1,-1.3 0.6,-1.7 0.6,-0.4 1.2,-1.2 1.7,-1.1 -0.1,0.3 0.1,-0.4 0.7,-0.3"
   id="path1"
   style="fill:#007a3b;fill-opacity:1" />
	<polygon
   class="st0"
   points="224.8,356.2 209.3,356.2 209.3,396.8 200.7,396.8 200.7,356.2 185.2,356.2 185.2,351.6 224.8,351.6 "
   id="polygon1"
   style="fill:#007a3b;fill-opacity:1" />
	<path
   class="st0"
   d="m 264.5,390.7 c -0.6,3 -3.1,6.7 -8.4,6.7 -6,0 -9,-4.7 -9,-10.7 v -19.2 l 8.4,-0.6 v 21 c 0,4 1.8,5.9 4.5,5.9 2.1,-0.1 3.6,-1.6 4.5,-3.1"
   id="path2"
   style="fill:#007a3b;fill-opacity:1" />
	<path
   class="st0"
   d="m 273.9,391 c 0,3 0.4,4.7 2.5,4.7 -1.2,0.8 -3.2,1.3 -4.8,1.3 -3.5,0 -6.1,-1.8 -6.1,-6.2 v -23.3 l 8.4,-0.6 z"
   id="path3"
   style="fill:#007a3b;fill-opacity:1" />
	<path
   class="st0"
   d="m 304,369.7 c 4.1,-2 8.3,-6.4 10.6,-10.1 h 1.1 v 7.7 h 7.2 v 3.3 h -7.2 v 18.6 c 0,2.8 1.6,5.2 5.1,5.2 1.6,0 3.4,-0.7 4.4,-2.4 -0.8,2.5 -3.3,5.4 -8.4,5.4 -6.1,0 -9.3,-4.6 -9.3,-10.6 V 370.5 H 304 Z"
   id="path4"
   style="fill:#007a3b;fill-opacity:1" />
	<path
   class="st0"
   d="m 231.2,373.3 c 1.3,-3.8 4.1,-7.1 8.4,-7.1 1,0 1.9,0.2 2.6,0.5 l -0.7,5.8 c -4,-2.6 -8.6,0 -9.7,4.8 v 19.5 h -8.2 v -29.3 l 7.6,-0.6 z"
   id="path5"
   style="fill:#007a3b;fill-opacity:1" />
	<path
   class="st0"
   d="m 289.3,394.6 c -3.6,0 -6.4,-2.4 -8,-5.1 l -0.7,5.4 c 2.2,1.4 5.5,2.7 9.2,2.7 7.3,0 11.5,-4.5 11.5,-9.2 0,-5.6 -4.1,-7.8 -7.6,-9.8 -3.3,-1.8 -6.6,-2.8 -6.6,-5.8 0,-1.5 1.3,-3.4 4.3,-3.4 2.5,0 4.5,1.6 6.4,3.9 l 1,-5 c -1.8,-0.9 -4.3,-1.9 -7.6,-1.9 -6.9,0 -10.5,4.3 -10.5,9 0,4.7 3.4,7.5 6.8,9.4 3.5,1.9 7,3 7,5.9 -0.1,2.2 -2.3,3.9 -5.2,3.9"
   id="path6"
   style="fill:#007a3b;fill-opacity:1" />
	<polygon
   class="st0"
   points="406.7,293 415,292.3 415,338.5 406.7,338.5 "
   id="polygon6"
   style="fill:#007a3b;fill-opacity:1" />
	<path
   class="st0"
   d="m 265.1,311.1 c 4,-2 8.3,-6.3 10.6,-10.1 h 1.1 v 7.7 h 7.3 v 3.2 h -7.3 v 18.6 c 0,2.8 1.7,5.2 5.1,5.2 1.6,0 3.4,-0.8 4.4,-2.4 -0.8,2.5 -3.3,5.4 -8.4,5.4 -6.1,0 -9.3,-4.6 -9.3,-10.6 v -16.3 h -3.3 v -0.7 z"
   id="path7"
   style="fill:#007a3b;fill-opacity:1" />
	<path
   class="st0"
   d="m 292,295.5 c 0,1.9 1.5,3.3 3.3,3.3 1.8,0 3.3,-1.4 3.3,-3.3 0,-1.8 -1.5,-3.3 -3.3,-3.3 -1.8,0.1 -3.3,1.5 -3.3,3.3"
   id="path8"
   style="fill:#007a3b;fill-opacity:1" />
	<polygon
   class="st0"
   points="299.5,308.5 291.1,309.2 291.1,338.5 299.5,338.5 "
   id="polygon8"
   style="fill:#007a3b;fill-opacity:1" />
	<path
   class="st0"
   d="m 369.3,332.9 c 0,3 0.4,4.7 2.5,4.7 -1.2,0.8 -3.1,1.3 -4.8,1.3 -3.5,0 -6.1,-1.8 -6.1,-6.2 v -15.8 c 0,-3.4 -1.9,-5.2 -4.3,-5.2 -1.7,0 -3.5,0.8 -4.5,2.2 1,-2.8 3.6,-5.9 8.6,-5.9 5.6,0 8.7,4.2 8.7,9.4 v 15.5 z"
   id="path9"
   style="fill:#007a3b;fill-opacity:1" />
	<polygon
   class="st0"
   points="342.5,338.5 342.5,309.1 350.9,308.5 350.9,338.5 "
   id="polygon9"
   style="fill:#007a3b;fill-opacity:1" />
	<path
   class="st0"
   d="m 320.9,336.4 c -4.1,0 -6.6,-3.8 -6.6,-12.8 0,-8.9 2.5,-12.7 6.6,-12.7 4.1,0 6.6,3.9 6.6,12.7 0,8.9 -2.5,12.8 -6.6,12.8 m 0,-28.4 c -7.8,0 -15.4,6.1 -15.4,15.6 0,9.6 7.6,15.6 15.4,15.6 7.7,0 15.3,-6.1 15.3,-15.6 0,-9.4 -7.5,-15.6 -15.3,-15.6"
   id="path10"
   style="fill:#007a3b;fill-opacity:1" />
	<path
   class="st0"
   d="m 398.9,332.9 c 0,3 0.4,4.7 2.4,4.7 -1.1,0.8 -2.9,1.3 -4.4,1.3 -3.2,0 -5.7,-1.8 -5.7,-6.2 v -10.4 c -5.7,2.9 -7.6,5.3 -7.6,9 0,4.8 4.8,5.4 6.6,2.9 -1,2.7 -3.5,4.6 -6.6,4.6 -4.3,0 -7.8,-2.9 -7.8,-7.3 0,-7 8.9,-9 15.4,-12.2 v -3 c 0,-3 -1.7,-4.6 -5.2,-4.6 -2.1,0 -4.8,0.6 -6.6,1.4 v -3.6 c 1.4,-0.6 4.8,-1.3 7.9,-1.3 5.5,0 11.7,2 11.7,10.8 v 13.9 z"
   id="path11"
   style="fill:#007a3b;fill-opacity:1" />
	<path
   class="st0"
   d="m 260,332.9 c 0,3 0.4,4.7 2.3,4.7 -1.1,0.8 -2.9,1.3 -4.4,1.3 -3.3,0 -5.7,-1.8 -5.7,-6.2 v -10.4 c -5.6,2.9 -7.6,5.3 -7.6,9 0,4.8 4.8,5.4 6.6,2.9 -1,2.7 -3.5,4.6 -6.6,4.6 -4.3,0 -7.8,-2.9 -7.8,-7.3 0,-7 8.9,-9 15.4,-12.2 v -3 c 0,-3 -1.7,-4.6 -5.2,-4.6 -2.1,0 -4.8,0.6 -6.6,1.4 v -3.6 c 1.4,-0.6 4.8,-1.3 7.9,-1.3 5.5,0 11.7,2 11.7,10.8 z"
   id="path12"
   style="fill:#007a3b;fill-opacity:1" />
	<polygon
   class="st0"
   points="225.7,324.4 225.7,293 230.7,293 230.7,339 228.8,339 195.6,307.3 195.6,338.5 190.2,338.5 190.2,292.5 192.2,292.5 "
   id="polygon12"
   style="fill:#007a3b;fill-opacity:1" />
</g>
</svg>
