<?xml version="1.0" encoding="UTF-8" standalone="no"?>
<svg
   width="240"
   height="120"
   viewBox="0 0 240 120"
   fill="none"
   version="1.1"
   id="svg8"
   sodipodi:docname="rspb.svg"
   inkscape:version="1.3.2 (1:1.3.2+202311252150+091e20ef0f)"
   inkscape:export-filename="rspb.png"
   inkscape:export-xdpi="444"
   inkscape:export-ydpi="444"
   xmlns:inkscape="http://www.inkscape.org/namespaces/inkscape"
   xmlns:sodipodi="http://sodipodi.sourceforge.net/DTD/sodipodi-0.dtd"
   xmlns="http://www.w3.org/2000/svg"
   xmlns:svg="http://www.w3.org/2000/svg">
  <sodipodi:namedview
     id="namedview8"
     pagecolor="#ffffff"
     bordercolor="#666666"
     borderopacity="1.0"
     inkscape:showpageshadow="2"
     inkscape:pageopacity="0.0"
     inkscape:pagecheckerboard="0"
     inkscape:deskcolor="#d1d1d1"
     inkscape:zoom="1.7324116"
     inkscape:cx="137.38075"
     inkscape:cy="40.983332"
     inkscape:window-width="1920"
     inkscape:window-height="1024"
     inkscape:window-x="0"
     inkscape:window-y="0"
     inkscape:window-maximized="1"
     inkscape:current-layer="svg8"
     inkscape:export-bgcolor="#ffffffff" />
  <g
     clip-path="url(#clip0_1373_65058)"
     id="g8"
     transform="translate(79.032308,20)">
    <path
       d="m 40.9677,80.0008 c 22.0916,0 40.0004,-17.9088 40.0004,-40.0004 C 80.9681,17.9088 63.0593,0 40.9677,0 18.8761,0 0.967285,17.9088 0.967285,40.0004 c 0,22.0916 17.908815,40.0004 40.000415,40.0004 z"
       fill="#ffffff"
       id="path1" />
    <path
       d="m 50.8249,27.0072 0.0274,0.0233 0.2386,0.1962 c 2.0084,1.6567 6.189,5.104 12.2475,7.3759 3.4517,1.2855 7.1045,1.947 10.7878,1.9535 1.0324,0 2.0782,0.0507 3.1115,-0.0349 C 76.3829,27.5989 72.2735,19.3035 65.6935,13.2172 58.9508,6.96606 50.2214,3.49882 41.0206,3.49882 31.8968,3.48467 23.1034,6.91273 16.3967,13.0984 c 1.6343,1.7573 2.6344,3.2527 3.523,4.5811 0.488,0.729 0.9485,1.4182 1.464,2.0782 1.5038,1.9119 2.5545,1.7872 3.2146,1.5237 l 0.1463,-0.0548 c 0.4215,-0.1485 0.8284,-0.3358 1.2153,-0.5595 0.3982,-0.2361 0.6825,-0.4239 0.9835,-0.6234 0.3433,-0.227 0.7315,-0.4847 1.3442,-0.8479 1.2469,-0.7415 2.0782,-1.2037 2.6119,-1.4531 2.4449,-1.1472 4.9728,-2.3326 8.5133,-2.3641 0.924,-0.0011 1.8462,0.0824 2.755,0.2493 4.1864,0.7424 7.0868,3.3152 8.1666,7.2429 0.3533,1.3841 0.5304,2.8022 0.4872,3.8979 -0.0056,0.0794 -0.0044,0.1592 0.0033,0.2385 z"
       fill="#009bff"
       id="path2" />
    <path
       d="m 5.5094,48.4463 c 1.86383,7.7422 6.3181,14.8235 12.5314,19.8954 6.4618,5.2723 14.618,8.1246 22.9204,8.1246 9.5876,0 18.5302,-3.6579 25.3645,-10.3085 6.703,-6.5218 10.6692,-15.2241 11.0192,-24.555 l -0.1189,0.0158 c -2.5985,0.3763 -5.225,0.524 -7.8493,0.4415 -5.9141,-0.1996 -11.4989,-1.7774 -18.1079,-5.116 -3.8998,-1.9711 -6.0537,-3.0103 -8.7214,-3.2073 -3.278,-0.2494 -4.8151,0.8862 -7.3639,2.7633 -1.375,1.0084 -5.2141,3.539 -7.6166,4.8741 -5.1268,2.8482 -14.1491,5.9864 -22.0575,7.0721 z"
       fill="#64be2d"
       id="path3" />
    <path
       d="M 74.7307,39.7411 C 69.8262,40.3629 63.955,39.683 58.6399,37.6945 55.3531,36.4651 51.3705,34.5506 47.6381,32.4309 46.7129,31.9063 45.1967,31.2213 45.6747,30.6677 47.0463,29.08 45.9523,27.8971 43.944,28.375 c -5.0923,1.2096 -7.4814,-1.8836 -8.163,-4.5346 -0.463,-1.7931 -2.9169,-1.8114 -5.1971,-0.0158 -1.5303,1.2054 -4.3674,4.9794 -7.4713,4.2503 -4.1938,-0.985 -2.1613,-4.9627 -2.0907,-4.9045 2.7764,2.1222 6.1888,-0.4689 7.513,-1.2262 1.3491,-0.7689 2.66,-1.6168 4.0674,-2.2802 2.8728,-1.3658 5.5312,-2.3275 9.1862,-1.6766 5.6609,1.0008 6.7549,5.6219 6.4091,9.834 -0.0081,0.0665 0.0012,0.1339 0.027,0.1957 0.0258,0.0618 0.0672,0.1158 0.1201,0.1568 1.2162,0.8953 6.0367,5.6527 13.9378,8.6154 4.9045,1.8379 10.3908,2.212 15.1864,1.7772 0.1554,-0.0141 0.8204,0.7233 -2.7382,1.1746 z M 37.9839,22.6168 c -0.0114,0.0071 -0.0206,0.0172 -0.0265,0.0293 -0.0058,0.012 -0.0082,0.0255 -0.0068,0.0388 0.0249,0.3691 0.2652,2.9677 1.9693,3.8397 1.0498,0.537 2.2394,0.4406 3.0524,-0.1546 0.0144,-0.0111 0.0245,-0.0268 0.0286,-0.0446 0.0041,-0.0177 0.0018,-0.0363 -0.0064,-0.0526 -0.0081,-0.0162 -0.0217,-0.0291 -0.0384,-0.0364 -0.0166,-0.0073 -0.0353,-0.0086 -0.0528,-0.0036 -0.6443,0.1871 -1.5196,0.2062 -2.2819,-0.1953 -1.5744,-0.8313 -1.4322,-2.6485 -1.3757,-2.7607 0.0565,-0.1122 1.4622,-1.2536 3.0566,-0.4115 0.793,0.4156 1.2768,1.1987 1.468,1.8546 0.0049,0.0173 0.0157,0.0324 0.0305,0.0426 0.0148,0.0102 0.0327,0.0149 0.0506,0.0133 0.0179,-0.0016 0.0347,-0.0093 0.0476,-0.022 0.0128,-0.0126 0.0208,-0.0293 0.0226,-0.0472 0.1039,-1.0749 -0.5246,-2.2046 -1.6493,-2.7806 -1.7365,-0.8928 -3.9759,0.4846 -4.2884,0.6866 z m 3.6966,1.1272 c 0.0047,-0.141 -0.0326,-0.2803 -0.1071,-0.4001 -0.0745,-0.1198 -0.1829,-0.2148 -0.3114,-0.2729 -0.1286,-0.0581 -0.2715,-0.0768 -0.4106,-0.0536 -0.1392,0.0232 -0.2683,0.0872 -0.3711,0.1839 -0.1027,0.0967 -0.1745,0.2217 -0.2061,0.3592 -0.0316,0.1375 -0.0217,0.2813 0.0285,0.4131 0.0502,0.1319 0.1384,0.2458 0.2535,0.3275 0.115,0.0817 0.2517,0.1273 0.3928,0.1312 0.1882,0.0056 0.371,-0.0638 0.5081,-0.1928 0.1372,-0.1291 0.2175,-0.3073 0.2234,-0.4955 z"
       fill="#000000"
       id="path4" />
    <path
       d="m 26.573,54.1996 c 0,-2.8313 -2.3364,-4.099 -4.6546,-4.099 h -4.2432 v 13.0386 h 2.6897 v -4.73 h 1.3424 l 3.3995,4.73 h 3.2525 l -3.9731,-5.3426 c 1.3939,-0.7423 2.1868,-2.0383 2.1868,-3.597 z m -6.2081,-1.6451 h 1.4263 c 1.2826,0 2.0173,0.6484 2.0173,1.7773 0,1.1064 -0.748,1.7407 -2.0538,1.7407 h -1.3898 z"
       fill="#ffffff"
       id="path5" />
    <path
       d="M 36.4588,55.4046 36.103,55.2583 c -1.2934,-0.5287 -2.0856,-0.8929 -2.0856,-1.6868 0,-0.7208 0.6251,-1.2612 1.6218,-1.2728 1.9061,-0.0241 2.9145,1.1897 2.9145,1.1897 l 1.2319,-2.1217 c 0,0 -1.473,-1.4482 -4.0275,-1.4507 -2.6809,0 -4.4125,1.4856 -4.4125,3.7852 0,2.0784 1.3642,3.0577 3.5604,3.9681 l 0.3242,0.1396 c 1.261,0.5421 1.9743,0.8871 1.9743,1.676 0,0.8098 -0.7665,1.2945 -1.8513,1.3019 -1.3832,0.01 -2.5104,-0.6218 -3.5138,-1.7566 l -1.2951,2.1989 c 0,0 1.8072,2.0477 4.8089,2.0593 2.6942,0.01 4.5047,-1.5796 4.5047,-3.9323 -0.0016,-2.3312 -1.7548,-3.2623 -3.3991,-3.9515 z"
       fill="#ffffff"
       id="path6" />
    <path
       d="m 48.4476,50.1006 h -4.2645 v 13.0386 h 2.6908 v -4.2129 h 1.5737 c 3.2228,0 4.69,-2.2877 4.69,-4.4124 0,-2.1248 -1.4688,-4.4133 -4.69,-4.4133 z m -1.5753,2.4539 h 1.33 c 1.3475,0 2.1846,0.7482 2.1846,1.9444 0,1.2328 -0.8371,1.9951 -2.1846,1.9951 h -1.33 z"
       fill="#ffffff"
       id="path7" />
    <path
       d="m 64.5314,56.4241 c 0.802,-0.6317 1.2383,-1.5794 1.2383,-2.7232 0,-2.1198 -1.7154,-3.6003 -4.1713,-3.6003 h -4.6892 v 13.0386 h 4.9476 c 2.6164,0 4.375,-1.5428 4.375,-3.8397 0.0034,-1.2012 -0.6283,-2.2511 -1.7004,-2.8754 z m -4.9502,1.301 h 2.146 c 1.1128,0 1.7777,0.5545 1.7777,1.4822 0,0.9767 -0.6482,1.537 -1.7777,1.537 h -2.146 z m 1.8509,-2.3392 h -1.8509 v -2.8896 h 1.7952 c 1.0547,0 1.6847,0.5262 1.6847,1.4074 0,0.9418 -0.5934,1.4822 -1.629,1.4822 z"
       fill="#ffffff"
       id="path8" />
  </g>
  <defs
     id="defs8">
    <clipPath
       id="clip0_1373_65058">
      <rect
         width="81"
         height="80"
         fill="#ffffff"
         transform="translate(0.967285)"
         id="rect8"
         x="0"
         y="0" />
    </clipPath>
  </defs>
</svg>
