<?xml version="1.0" encoding="UTF-8" standalone="no"?>
<!-- Created with Inkscape (http://www.inkscape.org/) -->

<svg
   width="42.33342mm"
   height="53.646713mm"
   viewBox="0 0 42.33342 53.646713"
   version="1.1"
   id="svg730"
   inkscape:version="1.2.2 (b0a8486541, 2022-12-01)"
   sodipodi:docname="crustacean-barnacle.svg"
   xmlns:inkscape="http://www.inkscape.org/namespaces/inkscape"
   xmlns:sodipodi="http://sodipodi.sourceforge.net/DTD/sodipodi-0.dtd"
   xmlns="http://www.w3.org/2000/svg"
   xmlns:svg="http://www.w3.org/2000/svg">
  <sodipodi:namedview
     id="namedview732"
     pagecolor="#ffffff"
     bordercolor="#000000"
     borderopacity="0.25"
     inkscape:showpageshadow="2"
     inkscape:pageopacity="0.0"
     inkscape:pagecheckerboard="0"
     inkscape:deskcolor="#d1d1d1"
     inkscape:document-units="mm"
     showgrid="false"
     inkscape:zoom="0.75722503"
     inkscape:cx="456.93154"
     inkscape:cy="172.33979"
     inkscape:window-width="1920"
     inkscape:window-height="1024"
     inkscape:window-x="0"
     inkscape:window-y="0"
     inkscape:window-maximized="1"
     inkscape:current-layer="layer1" />
  <defs
     id="defs727" />
  <g
     inkscape:label="Layer 1"
     inkscape:groupmode="layer"
     id="layer1"
     transform="translate(15.576124,-103.1577)">
    <path
       style="fill:#000000;stroke-width:0.264583"
       d="m -2.6099699,156.73593 c -0.9643931,-0.0629 -1.9398483,-0.33789 -2.706833,-0.76304 -1.4635374,-0.81124 -1.57666,-0.86117 -2.3731141,-1.04766 -1.7706048,-0.41457 -2.503704,-0.76059 -3.707987,-1.75017 -1.144641,-0.94058 -1.78951,-1.35625 -2.345008,-1.51151 -0.671658,-0.18775 -0.968237,-0.3568 -1.312867,-0.74832 -0.367078,-0.41702 -0.563822,-0.96267 -0.512212,-1.42057 0.05225,-0.46353 0.736068,-1.82663 1.422235,-2.83504 0.6622,-0.97317 0.716037,-1.10356 0.890371,-2.15642 0.147222,-0.88913 0.868307,-3.78529 1.486188,-5.96911 0.918425,-3.24604 2.0061479,-5.42418 5.0925548,-10.19772 0.6724862,-1.04009 1.4482154,-2.26238 1.7238398,-2.71619 l 0.5011367,-0.82513 0.5685869,-0.0348 c 0.813644,-0.0498 4.9309972,-1.23006 4.85812566,-1.39256 -0.20177389,-0.44995 -0.78910126,-2.34413 -0.94726124,-3.055 -0.3691202,-1.65906 -0.43835901,-2.34074 -0.44295483,-4.36098 -0.003704,-1.62659 0.0194998,-2.04028 0.16586465,-2.95794 0.71294624,-4.46993 2.57497786,-7.62669 5.60650226,-9.50488 0.3235484,-0.20046 0.6040014,-0.34874 0.623226,-0.32951 0.019235,0.0192 -0.3626591,0.44419 -0.8486299,0.94436 -2.5101629,2.58352 -3.7718761,5.22727 -4.38024842,9.17822 -0.10114227,0.65685 -0.13032316,1.28742 -0.12697618,2.74391 0.003916,1.70499 0.0234421,1.99689 0.19846395,2.96639 0.17722585,0.98175 0.80429895,3.44627 0.90163385,3.54361 0.069927,0.0699 0.045281,-0.14964 -0.077277,-0.68848 -0.1607661,-0.70683 -0.2326375,-4.30197 -0.1076695,-5.38589 0.4311597,-3.73974 1.4363462,-6.07686 3.6458789,-8.47689 0.8973238,-0.97468 2.4663903,-2.16304 3.6359756,-2.75376 0.4501382,-0.22736 1.886418,-0.75557 2.38071,-0.87554 0.423519,-0.1028 0.176541,0.0934 -0.581551,0.46197 -3.2953169,1.60217 -6.219439,4.86775 -7.2887075,8.13984 -0.3036835,0.92931 -0.5863167,2.35185 -0.7247096,3.64759 -0.1892644,1.77203 -0.081301,4.4348 0.2441416,6.02138 0.1907937,0.93015 0.2442025,0.85739 0.2466181,-0.33593 0.00336,-1.65853 0.2929335,-3.78655 0.7868365,-5.78225 0.3587697,-1.44965 0.5049334,-1.87484 0.9944549,-2.8928 1.2149773,-2.52656 3.3272359,-4.75539 5.937419,-6.26511 1.465602,-0.84769 2.867295,-1.28409 5.006819,-1.5588 1.31545,-0.1689 1.292921,-0.16736 1.292921,-0.0887 0,0.0325 -0.408805,0.14858 -0.908457,0.25803 -3.084182,0.67564 -5.489996,2.04183 -7.7908842,4.42422 -1.5274078,1.58152 -2.6147024,3.32197 -3.1534629,5.04781 -0.2892954,0.92671 -0.7984675,3.44135 -0.9402312,4.64351 -0.1175861,0.99713 -0.2373657,3.4399 -0.1686745,3.4399 0.021775,0 0.079925,-0.32537 0.1292172,-0.72306 0.1547256,-1.24831 0.427056,-2.46093 0.9220623,-4.10571 0.5161703,-1.71511 0.819695,-2.47402 1.376463,-3.44159 1.6755242,-2.9118 5.1510803,-5.75205 8.2964043,-6.7799 1.941219,-0.63436 4.767908,-0.78682 6.627884,-0.35749 0.195747,0.0452 0.355918,0.10145 0.355934,0.12504 1.8e-5,0.0236 -0.434698,0.0312 -0.966031,0.0169 -1.64016,-0.0442 -3.505354,0.20708 -4.96678,0.66914 -3.205871,1.01361 -6.9520035,4.1057 -8.5698035,7.0736 -0.5467218,1.00297 -0.8408035,1.86775 -1.661713,4.88641 -0.1214067,0.44644 -0.205949,0.82651 -0.18787,0.84458 0.018071,0.0181 0.065498,-0.0529 0.1053782,-0.15784 0.7304432,-1.92121 1.2403243,-2.97991 1.9865075,-4.12471 1.51325,-2.32165 3.2306238,-3.89969 5.4771978,-5.03282 1.034095,-0.52158 3.141382,-1.11047 4.579064,-1.27965 1.490329,-0.17536 3.764992,0.0397 5.131017,0.48512 0.724178,0.23614 2.410193,1.04411 2.410193,1.15502 0,0.0442 -0.04171,0.063 -0.0927,0.0417 -0.513469,-0.2144 -2.127459,-0.68321 -2.836612,-0.82395 -2.186352,-0.43389 -4.428807,-0.27305 -6.730513,0.48276 -2.896584,0.95116 -5.072559,2.6253 -6.8564915,5.27521 -0.7035376,1.04506 -1.2478993,1.97387 -1.190498,2.03127 0.018944,0.0189 0.2270628,-0.21708 0.4625102,-0.52448 0.4850077,-0.63322 1.4958642,-1.61173 2.3781703,-2.30206 4.32181,-3.38148 10.465707,-3.717 14.56033,-0.79514 0.551231,0.39335 1.863159,1.65377 1.863159,1.79001 0,0.0719 -0.02893,0.0709 -0.130903,-0.005 -0.07199,-0.0533 -0.380685,-0.28255 -0.685977,-0.50944 -2.287987,-1.70041 -4.654989,-2.4452 -7.451934,-2.34479 -3.520995,0.12641 -6.300816,1.35931 -8.9009032,3.94771 -0.5716826,0.56912 -1.4671093,1.66676 -1.4079511,1.72592 0.014896,0.0149 0.2540873,-0.21357 0.5315452,-0.50769 0.277458,-0.29412 0.8485532,-0.79311 1.2691004,-1.10888 1.3878007,-1.04201 2.7654437,-1.6378 4.7523057,-2.05523 2.099559,-0.44111 4.423227,-0.18001 6.436349,0.72321 1.646772,0.73886 3.120845,2.17212 4.065683,3.95312 0.296863,0.55957 0.283713,0.7494 -0.02389,0.34504 -1.402495,-1.84357 -2.684312,-2.8693 -4.493633,-3.59587 -1.199351,-0.48162 -2.371085,-0.70709 -3.674713,-0.70709 -2.330106,0 -4.988708,0.94089 -6.738258,2.38468 -0.5323175,0.4393 -0.7040003,0.70484 -0.214122,0.33119 0.38475,-0.29346 1.43478,-0.75997 2.094916,-0.93073 1.230156,-0.31821 2.369566,-0.37607 3.661391,-0.18593 1.735069,0.25539 3.036798,0.88137 4.181033,2.0106 0.636829,0.62848 0.978511,1.14116 1.325772,1.98926 0.257765,0.62952 0.509225,1.7679 0.411996,1.86513 -0.02445,0.0245 -0.102365,-0.10154 -0.173144,-0.27998 -0.925933,-2.33436 -2.74143,-3.96539 -5.101209,-4.58289 -0.747873,-0.19571 -2.417765,-0.21497 -3.28927,-0.0379 -1.690868,0.34345 -2.645061,0.88807 -4.1229629,2.35322 -0.5959475,0.59081 -1.0038238,1.05012 -0.9651735,1.08688 0.036817,0.035 0.4507151,0.22035 0.9197763,0.41185 0.4690613,0.19149 1.4497821,0.6186 2.1793811,0.94913 l 1.326541,0.60097 0.309949,0.48541 c 0.36635,0.57374 2.061334,3.57115 2.926001,5.17434 0.6995,1.29695 1.44172,2.82585 2.085676,4.29628 0.246271,0.56235 0.537763,1.1735 0.647758,1.35812 0.322485,0.54128 0.444966,0.84974 0.792501,1.99576 0.387625,1.27823 1.509033,5.38118 1.743083,6.37749 0.297545,1.2666 0.885211,2.92928 1.379074,3.90182 0.440862,0.86815 0.477912,0.97813 0.477912,1.41864 0,0.87626 -0.174538,1.08231 -1.460487,1.72414 -0.94778,0.47305 -1.667356,0.67661 -2.394328,0.67735 -1.277178,0.001 -1.960541,0.23243 -2.782483,0.94121 -0.948227,0.81768 -1.417224,1.04754 -3.148224,1.54302 -1.214776,0.34771 -2.55098,0.61183 -3.3778348,0.66767 -0.3670909,0.0248 -0.8382741,0.0565 -1.0470727,0.0706 -0.625467,0.042 -2.4453161,-0.09 -3.5137539,-0.25488 -2.0890574,-0.32238 -2.6330777,-0.29442 -4.23981028,0.21792 -0.87822086,0.28005 -1.88095993,0.46004 -2.43262412,0.43667 -0.1438275,-0.006 -0.6452817,-0.0361 -1.1143403,-0.0667 z m 4.5250972,-6.59658 c 0.042955,-0.71379 0.1428062,-1.99861 0.2218902,-2.85515 0.2130769,-2.30779 0.7223786,-8.43223 0.810969,-9.75201 0.1272276,-1.89538 0.2999555,-5.75953 0.3003206,-6.71857 l 2.646e-4,-0.89702 0.9826175,-0.0444 c 1.0768912,-0.0487 1.918671,-0.16112 3.9080599,-0.52201 l 1.3119549,-0.238 1.311558,3.93191 c 2.076969,6.22651 3.028069,9.63496 3.973584,14.24011 0.18969,0.92389 -0.0093,-1.44175 -0.252651,-3.00347 -0.470498,-3.01954 -0.723273,-4.16792 -1.567058,-7.11934 -0.715785,-2.50369 -0.802068,-2.77639 -1.861013,-5.88164 l -0.779187,-2.28489 0.201308,-0.27362 c 0.110718,-0.1505 0.349835,-0.49888 0.531368,-0.7742 0.181533,-0.27532 0.343657,-0.50058 0.360275,-0.50058 0.106069,0 2.558997,4.50386 3.433109,6.30358 0.913863,1.88156 1.575126,3.13666 1.625859,3.08592 0.02,-0.02 -0.189142,-0.61404 -0.464743,-1.32012 -0.919128,-2.35473 -2.274438,-5.30804 -3.497347,-7.62093 -0.509286,-0.96321 -0.58987,-1.16123 -0.494332,-1.21469 0.0982,-0.055 0.0925,-0.0791 -0.04084,-0.17245 -0.08525,-0.0597 -0.204306,-0.20392 -0.264578,-0.32047 -0.09545,-0.18459 -0.145616,-0.20891 -0.388917,-0.18856 -0.270708,0.0226 -0.510145,-0.0706 -3.3525219,-1.30558 l -0.3292845,-0.14307 -0.1686269,0.20601 c -0.092744,0.1133 -0.1698281,0.22896 -0.1712965,0.25701 -0.00238,0.0449 1.2788026,0.68973 2.8663348,1.44261 l 0.532966,0.25276 -0.322424,0.54535 c -0.4931915,0.8342 -0.6625328,1.0806 -0.7435085,1.08186 -0.040788,7.9e-4 -1.1086888,0.15405 -2.373114,0.34092 -2.7604323,0.40798 -4.5533363,0.50733 -5.376582,0.29792 -0.6175349,-0.15708 -1.92570363,-0.79629 -2.78099305,-1.35886 -0.63532015,-0.4179 -1.59443475,-1.23283 -1.59443475,-1.35475 0,-0.061 2.58101836,-1.00732 3.44842835,-1.26434 0.28551715,-0.0846 0.55962545,-0.16717 0.60913165,-0.18349 0.1132205,-0.0373 -0.023125,-0.47456 -0.1649544,-0.52898 -0.1559825,-0.0599 -2.425663,0.63926 -4.1180702,1.26847 -0.619178,0.2302 -0.7016909,0.24469 -0.8403432,0.14757 -0.2090605,-0.14643 -0.2878137,-0.13525 -0.2343308,0.0333 0.047847,0.15076 -0.1302306,0.50758 -0.6688535,1.3402 -1.1470269,1.77312 -2.1187674,3.51492 -3.3317153,5.97192 -1.4521232,2.94149 -1.996096,4.11144 -1.9384353,4.1691 0.01987,0.0199 0.1562258,-0.20236 0.3030114,-0.49384 0.1467882,-0.29148 0.5159163,-0.91353 0.820285,-1.38232 0.3043687,-0.46879 1.1090566,-1.76049 1.7881917,-2.87044 0.6791352,-1.10995 1.5899368,-2.58541 2.0240017,-3.27881 0.4340648,-0.69339 0.9487826,-1.51934 1.1438202,-1.83545 0.1950349,-0.31611 0.3717316,-0.57474 0.3926549,-0.57474 0.020928,0 0.2214244,0.1752 0.4455583,0.38934 0.3487975,0.33324 1.076825,0.88937 1.4267709,1.08988 0.082087,0.047 -0.053155,0.37005 -0.642067,1.53352 -1.6851657,3.32923 -2.9265298,6.54288 -4.4652618,11.55965 -0.8293735,2.70404 -0.9942856,3.32911 -1.1897042,4.50933 -0.1617795,0.97708 -0.1632744,1.38328 -0.00291,0.7931 0.4344458,-1.59894 2.3928228,-7.11249 3.674573,-10.34529 0.846066,-2.13392 3.15533079,-7.26383 3.3636346,-7.47214 0.0395182,-0.0395 0.22540647,0.0137 0.45594851,0.13053 0.57059777,0.28914 1.59212759,0.667 2.20769389,0.81661 l 0.5381863,0.13081 -0.038036,0.34195 c -0.1122495,1.00906 -0.4942469,6.67139 -0.6684565,9.90855 -0.12709,2.36154 -0.272288,7.80367 -0.2245731,8.41713 0.017436,0.22434 0.051657,1.05189 0.076023,1.83902 0.042545,1.37448 0.128061,2.07238 0.165399,1.34985 0.0095,-0.18354 0.052393,-0.91772 0.095348,-1.63151 z"
       id="path6" />
  </g>
</svg>
