<?xml version="1.0" encoding="UTF-8" standalone="no"?>
<!-- Generator: Adobe Illustrator 25.0.1, SVG Export Plug-In . SVG Version: 6.00 Build 0)  -->

<svg
   version="1.0"
   id="Layer_1"
   x="0px"
   y="0px"
   viewBox="0 0 280 140"
   xml:space="preserve"
   sodipodi:docname="aberystwyth-university.svg"
   width="280"
   height="140"
   inkscape:version="1.3.2 (1:1.3.2+202311252150+091e20ef0f)"
   inkscape:export-filename="aberystwyth-university.png"
   inkscape:export-xdpi="342.85715"
   inkscape:export-ydpi="342.85715"
   xmlns:inkscape="http://www.inkscape.org/namespaces/inkscape"
   xmlns:sodipodi="http://sodipodi.sourceforge.net/DTD/sodipodi-0.dtd"
   xmlns="http://www.w3.org/2000/svg"
   xmlns:svg="http://www.w3.org/2000/svg"><defs
   id="defs64" /><sodipodi:namedview
   id="namedview64"
   pagecolor="#ffffff"
   bordercolor="#666666"
   borderopacity="1.0"
   inkscape:showpageshadow="2"
   inkscape:pageopacity="0.0"
   inkscape:pagecheckerboard="0"
   inkscape:deskcolor="#d1d1d1"
   inkscape:zoom="1.6013047"
   inkscape:cx="132.39204"
   inkscape:cy="141.13491"
   inkscape:window-width="1920"
   inkscape:window-height="1024"
   inkscape:window-x="0"
   inkscape:window-y="0"
   inkscape:window-maximized="1"
   inkscape:current-layer="Layer_1"
   inkscape:export-bgcolor="#ffffffff" />
<style
   type="text/css"
   id="style1">
	.st0{fill:#1D1D1B;}
	.st1{fill:url(#SVGID_1_);}
	.st2{fill:url(#SVGID_2_);}
	.st3{fill:#FFFFFF;}
	.st4{fill:#A5A5A4;}
	.st5{fill:url(#SVGID_3_);}
	.st6{fill:url(#SVGID_4_);}
	.st7{fill:url(#SVGID_5_);}
	.st8{fill:url(#SVGID_6_);}
</style>































<linearGradient
   id="SVGID_1_"
   gradientUnits="userSpaceOnUse"
   x1="24.860001"
   y1="562.10449"
   x2="53.049999"
   y2="562.10449"
   gradientTransform="translate(-1.34,-477.45)">
	<stop
   offset="0"
   style="stop-color:#F1DE9C"
   id="stop31" />
	<stop
   offset="0.5"
   style="stop-color:#FDF3D2"
   id="stop32" />
	<stop
   offset="1"
   style="stop-color:#F7E3A4"
   id="stop33" />
</linearGradient>


<linearGradient
   id="SVGID_2_"
   gradientUnits="userSpaceOnUse"
   x1="27.68"
   y1="573.67499"
   x2="50.16"
   y2="573.67499"
   gradientTransform="translate(-1.34,-477.45)">
	<stop
   offset="0"
   style="stop-color:#58A132"
   id="stop34" />
	<stop
   offset="0.33"
   style="stop-color:#94C04E"
   id="stop35" />
	<stop
   offset="0.66"
   style="stop-color:#77B140"
   id="stop36" />
	<stop
   offset="1"
   style="stop-color:#58A132"
   id="stop37" />
</linearGradient>

















<linearGradient
   id="SVGID_3_"
   gradientUnits="userSpaceOnUse"
   x1="25.91"
   y1="561.19537"
   x2="51.459999"
   y2="561.19537"
   gradientTransform="translate(-1.34,-477.45)">
	<stop
   offset="0"
   style="stop-color:#B1251A"
   id="stop53" />
	<stop
   offset="0.5"
   style="stop-color:#D7352E"
   id="stop54" />
	<stop
   offset="1"
   style="stop-color:#B1251A"
   id="stop55" />
</linearGradient>

<linearGradient
   id="SVGID_4_"
   gradientUnits="userSpaceOnUse"
   x1="25.91"
   y1="555.19751"
   x2="51.459999"
   y2="555.19751"
   gradientTransform="translate(-1.34,-477.45)">
	<stop
   offset="0"
   style="stop-color:#B1251A"
   id="stop56" />
	<stop
   offset="0.5"
   style="stop-color:#D7352E"
   id="stop57" />
	<stop
   offset="1"
   style="stop-color:#B1251A"
   id="stop58" />
</linearGradient>

<linearGradient
   id="SVGID_5_"
   gradientUnits="userSpaceOnUse"
   x1="25.91"
   y1="555.24329"
   x2="51.459999"
   y2="555.24329"
   gradientTransform="translate(-1.34,-477.45)">
	<stop
   offset="0"
   style="stop-color:#B1251A"
   id="stop59" />
	<stop
   offset="0.5"
   style="stop-color:#D7352E"
   id="stop60" />
	<stop
   offset="1"
   style="stop-color:#B1251A"
   id="stop61" />
</linearGradient>

<linearGradient
   id="SVGID_6_"
   gradientUnits="userSpaceOnUse"
   x1="25.91"
   y1="561.31818"
   x2="51.459999"
   y2="561.31818"
   gradientTransform="translate(-1.34,-477.45)">
	<stop
   offset="0"
   style="stop-color:#B1251A"
   id="stop62" />
	<stop
   offset="0.5"
   style="stop-color:#D7352E"
   id="stop63" />
	<stop
   offset="1"
   style="stop-color:#B1251A"
   id="stop64" />
</linearGradient>
<g
   id="g64"
   transform="translate(18.35,-16.397479)"><path
     class="st0"
     d="m 158,100.9 h 1.2 v 3.4 c 0,0.8 0,1.9 1.6,1.9 1.6,0 1.5,-1 1.5,-1.8 V 101 h 1.2 v 3.4 c 0,1 0,2.8 -2.7,2.8 -2.7,0 -2.8,-1.8 -2.8,-2.8 z"
     id="path1" /><path
     class="st0"
     d="m 164.8,100.9 h 1.4 l 3.4,4.5 v 0 -4.5 h 1.1 v 6 h -1.4 l -3.5,-4.5 v 0 4.5 h -1.1 z"
     id="path2" /><path
     class="st0"
     d="m 172.7,100.9 h 1.2 v 6 h -1.2 z"
     id="path3" /><path
     class="st0"
     d="m 175,100.9 h 1.3 l 1.8,4.8 1.8,-4.8 h 1.3 l -2.5,6 h -1.2 z"
     id="path4" /><path
     class="st0"
     d="m 183.1,100.9 h 4.8 v 0.9 h -3.8 v 1.5 h 3.6 v 0.9 h -3.6 v 1.7 h 3.8 v 0.9 H 183 Z"
     id="path5" /><path
     class="st0"
     d="m 189.8,100.9 h 3.5 c 1.4,0 1.9,0.7 1.9,1.6 0,0.6 -0.3,1.2 -0.9,1.4 v 0 c 0.7,0.1 0.8,0.8 0.8,1.6 0,0.4 0.1,0.9 0.2,1.3 H 194 c -0.1,-0.3 -0.2,-0.6 -0.1,-0.9 0,-0.9 -0.1,-1.5 -1,-1.5 h -2 v 2.4 h -1.1 z m 3.2,2.7 c 0.7,0 1,-0.2 1,-0.9 0,-0.7 -0.4,-0.9 -1,-0.9 h -2.1 v 1.8 z"
     id="path6" /><path
     class="st0"
     d="m 199.7,100.8 c 0.9,0 2.6,0.2 2.7,1.8 h -1.3 c 0,-0.4 -0.4,-0.9 -1.4,-0.9 -0.8,0 -1.3,0.2 -1.3,0.8 0,1.4 4.1,0.1 4.1,2.6 0,1.5 -1.5,1.9 -2.7,1.9 -2,0 -2.8,-0.8 -2.8,-2.1 h 1.3 c 0,0.8 0.6,1.1 1.6,1.1 0.7,0 1.4,-0.2 1.4,-0.9 0,-1.4 -4.1,-0.2 -4.1,-2.6 0,-1.2 1.1,-1.7 2.5,-1.7 z"
     id="path7" /><path
     class="st0"
     d="m 204.4,100.9 h 1.2 v 6 h -1.2 z"
     id="path8" /><path
     class="st0"
     d="m 208.7,101.9 h -2.1 V 101 h 5.5 v 0.9 H 210 v 5.1 h -1.2 v -5.1 z"
     id="path9" /><path
     class="st0"
     d="m 215.4,104.6 -2.4,-3.7 h 1.5 l 1.6,2.7 1.6,-2.7 h 1.5 l -2.5,3.7 v 2.3 h -1.2 z"
     id="path10" /><path
     class="st0"
     d="m 74.3,66.2 h 3.4 c 0.9,-0.1 1.7,0.5 1.8,1.4 0,0.1 0,0.3 0,0.4 0.1,0.9 -0.6,1.8 -1.6,1.8 -0.1,0 -0.2,0 -0.2,0 H 75.4 V 72 h -1.2 v -5.8 z m 1.2,2.7 h 1.9 c 0.7,0 1,-0.2 1,-0.9 0,-0.5 -0.3,-0.9 -0.7,-0.9 h -2.1 z"
     id="path11" /><path
     class="st0"
     d="m 81.2,66.2 h 3.5 c 1.4,0 1.9,0.7 1.9,1.6 0.1,0.6 -0.3,1.2 -0.9,1.4 v 0 c 0.7,0.1 0.8,0.8 0.8,1.6 0,0.4 0,0.9 0.2,1.3 h -1.2 c -0.1,-0.3 -0.2,-0.6 -0.1,-0.9 0,-0.8 -0.1,-1.4 -1,-1.4 h -2 V 72 h -1.1 v -5.8 z m 3.2,2.6 c 0.7,0 1,-0.2 1,-0.9 0,-0.7 -0.4,-0.8 -1,-0.8 h -2 v 1.7 z"
     id="path12" /><path
     class="st0"
     d="m 88.4,66.2 h 1.2 V 72 h -1.2 z"
     id="path13" /><path
     class="st0"
     d="M 91.4,66.2 H 96 v 0.9 h -3.5 v 1.5 h 3.3 v 0.9 H 92.5 V 72 h -1.2 v -5.8 z"
     id="path14" /><path
     class="st0"
     d="M 100,69.8 97.6,66.2 H 99 l 1.6,2.6 1.6,-2.6 h 1.5 l -2.4,3.6 V 72 H 100 Z"
     id="path15" /><path
     class="st0"
     d="m 106.8,66 c 0.9,0 2.6,0.2 2.7,1.9 h -1.3 c 0,-0.4 -0.4,-0.9 -1.4,-0.9 -0.8,0 -1.3,0.3 -1.3,0.8 0,1.4 4.2,0 4.2,2.6 0,1.5 -1.5,1.9 -2.7,1.9 -2,0 -2.8,-0.8 -2.8,-2.1 h 1.3 c 0,0.8 0.6,1.1 1.6,1.1 0.7,0 1.4,-0.2 1.4,-0.9 0,-1.5 -4.1,-0.2 -4.1,-2.6 0,-1.2 1.1,-1.8 2.4,-1.8 z"
     id="path16" /><path
     class="st0"
     d="M 117.7,72 H 117 l -0.2,-0.8 c -0.5,0.6 -1.3,1 -2.1,0.9 -1.7,0.1 -3.2,-1.2 -3.3,-2.9 -0.1,-1.7 1.2,-3.2 2.9,-3.3 0.1,0 0.2,0 0.4,0 1.7,0 2.8,0.9 2.9,2.1 h -1.3 c -0.2,-0.7 -0.9,-1.2 -1.7,-1.1 -1.4,0 -2,0.9 -2,2.2 -0.1,1 0.6,2 1.6,2.1 0.1,0 0.2,0 0.3,0 0.9,0.1 1.8,-0.5 1.9,-1.5 0,0 0,0 0,0 0,0 0,-0.1 0,-0.1 h -1.6 v -0.9 h 2.7 V 72 Z"
     id="path17" /><path
     class="st0"
     d="m 119.1,69.1 c -0.1,-1.8 1.3,-3.4 3.1,-3.5 1.8,-0.1 3.4,1.3 3.5,3.1 0.1,1.8 -1.3,3.4 -3.1,3.5 -0.1,0 -0.1,0 -0.2,0 -1.6,0.2 -3.1,-0.9 -3.3,-2.5 0,-0.2 -0.1,-0.4 0,-0.6 z m 5.3,0 c 0.1,-1.1 -0.8,-2.1 -1.9,-2.2 -1.1,-0.1 -2.1,0.8 -2.2,1.9 0,0.1 0,0.2 0,0.3 -0.1,1.1 0.8,2.1 1.9,2.2 1.1,0.1 2.1,-0.8 2.2,-1.9 v 0 c 0,-0.1 0,-0.2 0,-0.3 z"
     id="path18" /><path
     class="st0"
     d="m 126.9,66.2 h 1.2 v 4.9 h 3.4 v 1 h -4.6 z"
     id="path19" /><path
     class="st0"
     d="m 74.4,84.6 c 0,-3.4 0,-4 0,-4.7 -0.1,-0.7 -0.2,-1.2 -0.9,-1.2 -0.3,0 -0.5,0 -0.8,0 -0.1,0 -0.2,-0.1 -0.2,-0.1 0,0 0.1,-0.2 0.3,-0.2 1,0 2.5,0 2.6,0 0.5,0 1.6,0 2.6,0 3.8,0 4.7,2.2 4.7,3.3 0,1.7 -1.1,2.8 -2.3,3.8 1.7,0.5 4,2.1 4,4.5 0,2.4 -1.8,4.8 -5.6,4.8 -0.4,0 -1.2,0 -1.9,-0.1 l -1.4,-0.1 h -0.9 c -0.4,0 -1,0.1 -1.3,0.1 -0.3,0 -0.3,-0.1 -0.3,-0.2 0,-0.1 0.1,-0.1 0.2,-0.1 l 0.7,-0.1 c 0.4,-0.1 0.5,-0.6 0.6,-1.2 0.1,-1.6 0.2,-3.1 0.1,-4.7 z m 1.9,0.4 c 0,0.2 0,0.2 0.2,0.2 0.5,0.1 0.9,0.1 1.4,0.1 1.2,0 1.7,0 2.2,-0.6 0.6,-0.6 0.9,-1.5 0.9,-2.3 0,-1.7 -0.9,-3.5 -3.2,-3.5 -0.4,0 -0.8,0 -1.1,0.1 -0.2,0 -0.3,0.1 -0.3,0.2 V 85 Z m 0,2.4 V 92 c 0.1,1 0.1,1.3 0.8,1.6 0.6,0.2 1.3,0.3 2,0.3 1.5,0 3.3,-0.6 3.3,-3.3 0,-1.6 -0.8,-3.1 -2.2,-4 -0.6,-0.3 -1.3,-0.5 -2,-0.6 -0.3,0 -1.4,0 -1.8,0 -0.1,0 -0.1,0 -0.1,0.2 z"
     id="path20" /><path
     class="st0"
     d="m 88.4,84.6 c 0,-3.4 0,-4 -0.1,-4.7 -0.1,-0.7 -0.2,-1.1 -0.9,-1.2 -0.3,0 -0.5,0 -0.8,0 -0.1,0 -0.2,-0.1 -0.2,-0.2 0,-0.1 0.1,-0.2 0.4,-0.2 1,0 2.5,0 2.6,0 h 5.3 c 0.3,0 0.7,0 1,-0.1 0.2,0 0.2,-0.1 0.3,-0.1 0.1,0 0.1,0.1 0.1,0.2 -0.1,0.3 -0.1,0.7 -0.2,1 0,0.2 -0.1,1.2 -0.1,1.4 0,0.1 -0.1,0.2 -0.2,0.2 -0.1,0 -0.2,-0.1 -0.2,-0.3 0,-0.3 0,-0.5 -0.1,-0.8 -0.2,-0.3 -0.4,-0.5 -1.6,-0.7 -0.4,0 -3,-0.1 -3.2,-0.1 -0.1,0 -0.1,0.1 -0.1,0.2 v 5.9 c 0,0.2 0,0.2 0.1,0.2 0.3,0 3.2,0 3.8,-0.1 0.6,-0.1 0.9,-0.1 1.1,-0.3 0.2,-0.2 0.3,-0.3 0.3,-0.3 0,0 0.1,0.1 0.1,0.2 0,0.1 -0.1,0.5 -0.2,1.2 0,0.4 -0.1,1.2 -0.1,1.4 0,0.2 0,0.4 -0.2,0.4 -0.2,0 -0.2,-0.1 -0.2,-0.2 0,-0.2 0,-0.5 -0.1,-0.7 -0.1,-0.3 -0.3,-0.6 -1.2,-0.7 -0.6,-0.1 -3,-0.1 -3.4,-0.1 -0.1,0 -0.2,0.1 -0.2,0.2 v 5.5 c 0,1.4 0.5,1.7 2.7,1.7 0.8,0 1.5,0 2.2,-0.2 0.6,-0.3 1,-0.8 1,-1.5 0,-0.3 0.1,-0.3 0.2,-0.3 0.1,0 0.2,0.2 0.2,0.3 -0.1,0.7 -0.2,1.4 -0.3,2.1 -0.2,0.6 -0.4,0.6 -1.2,0.6 -1.7,0 -3,-0.1 -3.9,-0.1 -0.9,0 -1.5,-0.1 -1.8,-0.1 h -1 c -0.5,0 -0.9,0.1 -1.3,0.1 -0.4,0 -0.4,-0.1 -0.4,-0.2 0,-0.1 0.1,-0.2 0.2,-0.2 v 0 c 0.2,0 0.5,-0.1 0.7,-0.1 0.4,-0.1 0.5,-0.5 0.6,-1.1 0.1,-1.6 0.2,-3.1 0.1,-4.7 z"
     id="path21" /><path
     class="st0"
     d="m 117.7,94.6 h -3.9 c -0.8,0.1 -1.6,-0.1 -2.4,-0.4 -1,-0.5 -1.8,-1.6 -3,-3.2 -0.9,-1.2 -1.9,-2.6 -2.4,-3.2 -0.1,-0.1 -0.2,-0.1 -0.3,-0.1 l -2.9,-0.1 c -0.1,0 -0.2,0.1 -0.2,0.2 v 0.5 c 0,2.1 0,3.8 0.1,4.7 0.1,0.6 0.2,1 0.9,1.2 0.3,0.1 0.7,0.1 1,0.1 0.1,0 0.2,0.1 0.2,0.1 v 0 c 0,0.1 -0.1,0.2 -0.3,0.2 -1.2,0 -2.7,-0.1 -2.8,-0.1 -0.1,0 -1.5,0.1 -2.2,0.1 -0.2,0 -0.4,0 -0.4,-0.2 0,-0.1 0.1,-0.2 0.2,-0.2 v 0 c 0.2,0 0.5,0 0.7,-0.1 0.4,-0.1 0.5,-0.5 0.6,-1.2 0.1,-1.6 0.2,-3.1 0.1,-4.7 v -3.8 c 0,-3.4 0,-4 -0.1,-4.7 -0.1,-0.7 -0.2,-1.1 -0.9,-1.2 -0.3,0 -0.5,0 -0.8,0 -0.1,0 -0.2,-0.1 -0.2,-0.2 0,-0.1 0.1,-0.2 0.4,-0.2 1,0 2.5,0.1 2.7,0.1 0.2,0 2.1,-0.1 2.8,-0.1 1.5,-0.1 2.9,0.3 4.2,1 0.9,0.7 1.5,1.8 1.6,2.9 0,1.6 -0.7,3.2 -2.7,4.9 1.8,2.3 3.4,4.3 4.7,5.6 0.6,0.8 1.5,1.3 2.5,1.5 0.4,0.1 2.6,0.1 2.7,0.1 m -14.9,-7.7 c 0,0.1 0.1,0.2 0.2,0.3 0.8,0.2 1.6,0.4 2.5,0.3 0.6,0.1 1.2,-0.1 1.7,-0.4 1,-0.8 1.5,-2.1 1.3,-3.3 0,-2.7 -1.5,-4.3 -3.9,-4.3 -0.5,0 -1.1,0 -1.6,0.1 -0.1,0 -0.2,0.1 -0.2,0.2 z"
     id="path22" /><path
     class="st0"
     d="m 127.8,94.4 c -0.3,-0.2 -0.3,-0.2 -0.3,-0.8 0,-1.1 0.1,-1.9 0.1,-2.3 0,-0.4 0,-0.4 0.2,-0.4 0.2,0 0.2,0.1 0.2,0.2 0,0.3 0,0.5 0.1,0.8 0.4,1.6 2,2.1 3.6,2.1 2.2,0 3.4,-1.2 3.4,-2.9 0,-1.7 -0.8,-2.3 -2.8,-3.8 l -1,-0.8 c -2.4,-1.8 -3.2,-3.1 -3.2,-4.6 0,-2.6 2,-4.1 5,-4.1 0.8,0 1.6,0.1 2.3,0.3 0.3,0.1 0.5,0.1 0.8,0.1 0.2,0 0.2,0 0.2,0.2 -0.1,0.8 -0.1,1.5 -0.1,2.3 0,0.3 0,0.5 -0.2,0.5 -0.2,0 -0.2,-0.1 -0.2,-0.3 -0.1,-0.4 -0.2,-0.7 -0.3,-1.1 -0.2,-0.3 -0.9,-1.1 -2.9,-1.1 -1.6,0 -3,0.8 -3,2.3 0,1.4 0.7,2.2 2.9,3.7 l 0.6,0.4 c 2.7,1.8 3.7,3.4 3.7,5.2 0,1.5 -0.8,2.9 -2.1,3.7 -1.1,0.6 -2.3,0.8 -3.5,0.8 -1.3,0.2 -2.4,0 -3.5,-0.4 z"
     id="path23" /><path
     class="st0"
     d="m 150.1,78.4 c 0,0.7 -0.1,2.3 -0.1,2.5 0,0.2 -0.1,0.3 -0.2,0.3 -0.1,0 -0.2,-0.1 -0.2,-0.4 v -0.2 c -0.1,-0.7 -0.6,-1.2 -2.7,-1.2 h -1.8 v 9.1 c 0,2.1 0,3.8 0.1,4.7 0.1,0.6 0.2,1 0.9,1.1 0.3,0.1 0.7,0.1 1,0.1 0.1,0 0.2,0 0.2,0.1 0,0 0,0 0,0 v 0 c 0,0.1 -0.1,0.2 -0.4,0.2 -1.2,0 -2.7,-0.1 -2.8,-0.1 -0.1,0 -1.7,0.1 -2.3,0.1 -0.3,0 -0.3,-0.1 -0.3,-0.2 0,-0.1 0.1,-0.2 0.2,-0.2 0.2,0 0.4,0 0.7,-0.1 0.5,-0.1 0.6,-0.5 0.7,-1.2 0.1,-0.9 0.1,-2.6 0.1,-4.7 v -9.1 l -2.2,0.1 c -1.4,0 -1.9,0.2 -2.3,0.7 -0.1,0.2 -0.3,0.4 -0.4,0.7 -0.1,0.2 -0.1,0.2 -0.2,0.2 -0.1,0 -0.2,-0.1 -0.2,-0.2 0,-0.2 0.5,-2.2 0.5,-2.4 h 11.7 z"
     id="path24" /><path
     class="st0"
     d="m 218.2,88.4 c 0,2.1 0,3.8 0.1,4.7 0.1,0.6 0.1,1 0.8,1.1 0.3,0.1 0.7,0.1 1,0.1 0.1,0 0.2,0.1 0.2,0.2 v 0 c 0,0.1 -0.1,0.2 -0.4,0.2 -1.2,0 -2.6,-0.1 -2.8,-0.1 -0.2,0 -1.6,0.1 -2.2,0.1 -0.3,0 -0.4,-0.1 -0.4,-0.2 0,-0.1 0.1,-0.2 0.2,-0.2 v 0 c 0.2,0 0.4,0 0.7,-0.1 0.5,-0.1 0.5,-0.5 0.6,-1.2 0.1,-0.9 0.1,-2.5 0.1,-4.6 v -2.2 c 0,-0.1 0,-0.1 -0.1,-0.1 h -9.4 c -0.1,0 -0.1,0 -0.1,0.1 v 2.2 c 0,2.1 0,3.8 0.1,4.6 0.1,0.6 0.1,1 0.8,1.1 0.3,0.1 0.7,0.1 1,0.1 0.1,0 0.2,0.1 0.2,0.1 0,0 0,0 0,0 v 0 c 0,0.1 -0.1,0.2 -0.4,0.2 -1.2,0 -2.7,-0.1 -2.8,-0.1 -0.1,0 -1.6,0.1 -2.2,0.1 -0.2,0 -0.4,-0.1 -0.4,-0.2 0,-0.1 0.1,-0.2 0.1,-0.2 0,0 0,0 0,0 v 0 c 0.2,0 0.5,0 0.7,-0.1 0.4,-0.1 0.5,-0.5 0.6,-1.1 0.1,-1.6 0.2,-3.1 0.1,-4.7 v -3.8 c 0,-3.4 0,-4 0,-4.7 0,-0.7 -0.2,-1.1 -0.9,-1.2 -0.3,0 -0.5,0 -0.8,0 -0.1,0 -0.2,-0.1 -0.2,-0.2 0,-0.1 0.1,-0.2 0.4,-0.2 1,0 2.4,0 2.6,0 0.2,0 1.5,0 2.2,0 0.3,0 0.4,0 0.4,0.2 0,0.1 -0.1,0.2 -0.2,0.2 -0.2,0 -0.4,0 -0.6,0 -0.6,0.1 -0.7,0.4 -0.8,1.2 -0.1,0.8 0,1.3 0,4.7 v 0.5 c 0,0.1 0.1,0.1 0.1,0.1 h 9.3 c 0.1,0 0.1,0 0.1,-0.1 v -0.5 c 0,-3.4 0,-4 -0.1,-4.7 -0.1,-0.7 -0.1,-1.1 -0.9,-1.2 -0.3,0 -0.5,0 -0.8,0 -0.1,0 -0.2,-0.1 -0.2,-0.2 0,-0.1 0.1,-0.2 0.4,-0.2 1,0 2.4,0 2.6,0 0.2,0 1.6,0 2.2,0 0.2,0 0.4,0 0.4,0.2 0,0.1 -0.1,0.2 -0.2,0.2 -0.2,0 -0.4,0 -0.6,0 -0.6,0.1 -0.7,0.4 -0.8,1.2 -0.1,0.8 -0.1,1.3 -0.1,4.7 z"
     id="path25" /><path
     class="st0"
     d="m 117.4,94.3 c 0.2,0 0.5,0 0.7,-0.1 0.4,0 0.6,-0.5 0.7,-1.1 0,-0.9 0,-1.8 0,-2.2 V 89 c 0.1,-0.8 -0.1,-1.6 -0.5,-2.2 -0.2,-0.3 -3.2,-5.1 -4,-6.3 -0.4,-0.6 -0.9,-1.2 -1.5,-1.6 -0.3,-0.2 -0.6,-0.3 -1,-0.3 -0.1,0 -0.2,-0.1 -0.2,-0.2 0,-0.1 0.1,-0.2 0.3,-0.2 h 2.2 c 0.1,0 1.1,-0.1 1.9,-0.1 0.3,0 0.3,0 0.3,0.2 0,0.2 -0.2,0.2 -0.3,0.2 -0.2,0 -0.3,0.2 -0.3,0.4 0,0.3 0.1,0.6 0.3,0.8 l 4.1,6.8 c 0.4,-0.9 3.3,-5.6 3.7,-6.3 0.2,-0.3 0.4,-0.7 0.4,-1.1 0,-0.3 -0.1,-0.5 -0.3,-0.6 -0.2,-0.1 -0.3,-0.2 -0.3,-0.3 0,-0.1 0.1,-0.1 0.4,-0.1 0.6,0 1.4,0 1.6,0 h 2.2 c 0.2,0 0.3,0 0.3,0.1 0,0.1 -0.1,0.3 -0.3,0.2 0,0 0,0 0,0 v 0 c -0.4,0 -0.7,0.1 -1,0.3 -0.4,0.3 -0.8,0.6 -1.1,1.1 -0.7,0.9 -3.9,6 -4.4,6.9 -0.3,0.7 -0.4,1.4 -0.3,2.2 v 1.9 c 0,0.4 0,1.3 0.1,2.2 0,0.6 0.2,1 0.9,1.1 0.3,0.1 0.7,0.1 1,0.1 0.1,0 0.2,0.1 0.2,0.2 0,0 0,0 0,0 v 0 c 0,0.1 -0.1,0.2 -0.4,0.2 -1.2,0 -2.7,-0.1 -2.8,-0.1 h -2.2"
     id="path26" /><path
     class="st0"
     d="m 150.1,78.4 c 0,0.7 -0.1,2.3 -0.1,2.5 0,0.2 -0.1,0.3 -0.2,0.3 -0.1,0 -0.2,-0.1 -0.2,-0.4 v -0.2 c -0.1,-0.7 -0.6,-1.2 -2.7,-1.2 h -1.8 v 9.1 c 0,2.1 0,3.8 0.1,4.7 0.1,0.6 0.2,1 0.9,1.1 0.3,0.1 0.7,0.1 1,0.1 0.1,0 0.2,0 0.2,0.1 0,0 0,0 0,0 v 0 c 0,0.1 -0.1,0.2 -0.4,0.2 -1.2,0 -2.7,-0.1 -2.8,-0.1 -0.1,0 -1.7,0.1 -2.3,0.1 -0.3,0 -0.4,-0.1 -0.4,-0.2 0,-0.1 0.1,-0.2 0.2,-0.2 0.2,0 0.4,0 0.7,-0.1 0.5,-0.1 0.6,-0.5 0.7,-1.2 0.1,-0.9 0.1,-2.6 0.1,-4.7 v -9.1 l -2.2,0.1 c -1.4,0 -1.9,0.2 -2.3,0.7 -0.1,0.2 -0.3,0.4 -0.4,0.7 0,0.2 -0.1,0.2 -0.2,0.2 -0.1,0 -0.2,-0.1 -0.2,-0.2 v 0 c 0,-0.2 0.5,-2.2 0.5,-2.4 h 11.8 z"
     id="path27" /><path
     class="st0"
     d="m 201.8,78.4 c 0,0.7 -0.1,2.3 -0.1,2.5 0,0.2 -0.1,0.3 -0.2,0.3 -0.1,0 -0.1,-0.1 -0.2,-0.4 v -0.2 c -0.1,-0.7 -0.6,-1.2 -2.7,-1.2 h -1.8 v 9.1 c 0,2.1 0,3.8 0.1,4.7 0.1,0.6 0.2,1 0.9,1.1 0.3,0.1 0.7,0.1 1,0.1 0.1,0 0.2,0 0.2,0.1 0,0 0,0 0,0 v 0 c 0,0.1 -0.1,0.2 -0.4,0.2 -1.2,0 -2.6,-0.1 -2.8,-0.1 -0.2,0 -1.7,0.1 -2.3,0.1 -0.3,0 -0.4,-0.1 -0.4,-0.2 0,-0.1 0.1,-0.2 0.2,-0.2 0.2,0 0.5,0 0.7,-0.1 0.5,-0.1 0.6,-0.5 0.7,-1.2 0.1,-0.9 0.1,-2.6 0.1,-4.7 v -9.1 l -2.2,0.1 c -1.4,0 -1.9,0.2 -2.3,0.7 -0.2,0.2 -0.3,0.4 -0.4,0.7 -0.1,0.2 -0.1,0.2 -0.2,0.2 -0.1,0 -0.2,-0.1 -0.2,-0.2 0,-0.2 0.5,-2.2 0.5,-2.4 h 11.8 z"
     id="path28" /><path
     class="st0"
     d="M 189.2,78.3 H 187 c -0.2,0 -1,0 -1.6,0 -0.2,0 -0.4,0 -0.4,0.1 0,0.1 0.1,0.2 0.3,0.3 0.2,0.1 0.4,0.3 0.4,0.6 0,0.4 -0.2,0.8 -0.4,1.1 -0.4,0.7 -3.2,5.4 -3.7,6.3 l -4.1,-6.8 c -0.2,-0.3 -0.3,-0.5 -0.3,-0.8 0,-0.2 0.1,-0.3 0.3,-0.4 0.2,-0.1 0.4,-0.2 0.4,-0.2 0,0 -0.1,-0.2 -0.3,-0.2 -0.9,0 -1.8,0 -1.9,0 v 0 c -0.1,0 -0.6,0 -1.1,0 -0.5,0 -1,0 -1,0 v 0 c -0.2,0 -1.1,0 -2.3,0 -0.3,0 -0.4,0 -0.4,0.2 0,0.1 0.1,0.2 0.2,0.2 1,0 1.2,0.2 1.2,0.6 0,0.5 -0.1,0.9 -0.3,1.3 -0.8,2.8 -2.8,9 -3.4,10.8 h -0.1 l -4.4,-12.1 c -0.3,-0.7 -0.5,-1 -0.6,-1 -0.1,0 -0.3,0.1 -0.6,1 l -4.7,12.2 h -0.1 c -0.3,-0.9 -2.6,-8.8 -2.9,-10.2 -0.2,-0.7 -0.3,-1.3 -0.4,-2 0,-0.2 0.1,-0.4 0.3,-0.5 0.3,-0.1 0.5,-0.1 0.8,-0.1 0.1,0 0.2,-0.1 0.2,-0.2 0,-0.1 -0.1,-0.2 -0.4,-0.2 -1.1,0 -2.1,0.1 -2.4,0.1 -0.3,0 -1.1,-0.1 -2.3,-0.1 -0.2,0 -0.4,0 -0.4,0.2 0,0.1 0.1,0.2 0.2,0.2 v 0 c 0.2,0 0.5,0 0.7,0.1 0.6,0.2 0.8,0.5 1.2,1.6 l 4,12.8 c 0.5,1.5 0.6,1.7 0.9,1.7 0.3,0 0.4,-0.2 0.8,-1.2 0.8,-2 3.9,-10 4.6,-11.8 l 4.4,11.9 c 0.3,0.8 0.5,1.1 0.7,1.1 0.2,0 0.4,-0.3 1,-1.9 0.9,-2.4 3.1,-9.3 4.1,-12.1 0.2,-0.6 0.5,-1.2 0.8,-1.8 v 0 c 0.1,-0.1 0.2,-0.2 0.3,-0.2 0.1,0 0.2,0 0.3,0 0.2,0.1 0.4,0.2 1.2,1.5 0.7,1.2 3.8,6 4,6.3 0.4,0.7 0.6,1.4 0.5,2.2 v 1.9 c 0,0.4 0,1.3 -0.1,2.2 0,0.6 -0.2,1 -0.7,1.1 -0.2,0.1 -0.4,0.1 -0.7,0.1 -0.1,0 -0.2,0.1 -0.2,0.2 0,0 0,0 0,0 v 0 c 0,0.1 0.1,0.2 0.4,0.2 0.7,0 2.1,-0.1 2.2,-0.1 0.1,0 1.6,0.1 2.8,0.1 0.2,0 0.4,-0.1 0.4,-0.2 0,-0.1 -0.1,-0.2 -0.1,-0.2 0,0 0,0 0,0 v 0 c -0.3,0 -0.7,-0.1 -1,-0.1 -0.7,-0.1 -0.8,-0.5 -0.9,-1.1 -0.1,-0.9 -0.1,-1.8 -0.1,-2.2 v -1.9 c -0.1,-0.7 0,-1.5 0.3,-2.2 0.5,-0.9 3.6,-6 4.4,-6.9 0.3,-0.4 0.7,-0.8 1.1,-1.1 0.3,-0.2 0.7,-0.3 1,-0.3 0.1,0 0.3,-0.1 0.3,-0.2 0.1,0.2 0,0.1 -0.2,0.1 z"
     id="path29" /><path
     class="st0"
     d="M 68.4,85.6 63.7,73.5 c -0.3,-0.9 -0.5,-1 -0.6,-1 -0.1,0 -0.3,0.2 -0.6,1.1 l -6.7,18.1 c -0.5,1.5 -1.1,2.6 -2.5,2.8 -0.2,0 -0.6,0.1 -0.8,0.1 -0.2,0 -0.3,0.1 -0.3,0.2 0,0.1 0.2,0.2 0.6,0.2 1.4,0 3,-0.1 3.3,-0.1 0.3,0 1.6,0.1 2.3,0.1 0.3,0 0.4,-0.1 0.4,-0.2 0,-0.1 -0.1,-0.2 -0.3,-0.2 h -0.3 c -0.5,0 -1.1,-0.3 -1.1,-0.8 0,-0.7 0.2,-1.4 0.4,-2 l 1.8,-5.2 c 0,-0.1 0.2,-0.2 0.3,-0.2 h 6.3 c 0.1,0 0.2,0.1 0.3,0.2 v 0.1 c 2.4,6.3 4.8,15.6 19.2,17.6 h 0.1 C 74.2,102.1 71.2,92.4 68.4,85.6 Z m -2.9,-0.4 h -5.6 c -0.1,0 -0.2,-0.1 -0.1,-0.2 l 2.6,-7.9 c 0.2,-0.4 0.3,-0.4 0.4,0 l 2.8,7.9 c 0.1,0.1 0.1,0.2 -0.1,0.2 z"
     id="path30" /><path
     class="st0"
     d="m 118.3,99.4 c -13.1,0 -19.2,4.5 -29.7,4.9 15,-0.3 18.7,-3 29.7,-3 11.8,0 30.8,5 30.8,5 0,0 -17.1,-6.9 -30.8,-6.9 z"
     id="path31" /><path
     class="st1"
     d="m 23.5,76.6 v 11 c 0.3,2.9 1.2,5.8 2.6,8.3 3,-4.2 6.9,-7.6 11.3,-10.2 l 0.1,-0.1 0.1,0.1 c 4.5,2.6 8.4,6.1 11.4,10.3 1.5,-2.6 2.4,-5.5 2.6,-8.4 v -11 c -0.7,-0.6 -1.4,-1 -2.3,-1.4 -1.1,-0.4 -2.2,-0.8 -3.4,-1 -2.8,-0.6 -5.6,-0.9 -8.5,-0.8 -4.5,0 -8.9,0.6 -11.8,1.9 -0.7,0.2 -1.4,0.7 -2.1,1.3 z"
     id="path33"
     style="fill:url(#SVGID_1_)" /><path
     class="st0"
     d="m 28.8,68.4 -1.5,0.3 V 68 h 0.3 c 0.7,-0.1 1.3,-0.5 1.5,-1.2 l 0.8,-0.1 v 5.2 l -1,0.2 v -3.7 z m 4,0.2 v 0 c -0.5,0 -0.9,-0.5 -0.9,-1 0,-0.8 0.5,-1.4 2.2,-1.6 1.7,-0.2 2.2,0.5 2.2,1.3 0,0.5 -0.4,1 -0.9,1.1 v 0 c 0.6,0.1 1.1,0.6 1.1,1.3 0,0.6 -0.4,1.6 -2.4,1.7 -2,0.1 -2.4,-0.8 -2.4,-1.4 0.1,-0.7 0.5,-1.2 1.1,-1.4 z m 1.4,2 c 0.9,-0.1 1.2,-0.4 1.2,-0.9 0,-0.5 -0.4,-0.8 -1.2,-0.8 -0.8,0 -1.2,0.4 -1.2,1 0,0.6 0.3,0.8 1.2,0.7 z m 1,-3.1 c 0,-0.4 -0.4,-0.7 -1.1,-0.6 -0.7,0.1 -1.1,0.3 -1.1,0.7 0,0.4 0.4,0.6 1.1,0.6 0.7,0 1.1,-0.3 1.1,-0.7 z m 2.5,-1.4 c 1.5,0 3.1,0.1 4.6,0.2 v 0.9 c -1.2,1.1 -2,2.5 -2.4,4 h -1.3 c 0.1,-1.4 1.6,-3.3 2.6,-4.1 C 40,67 38.9,67 37.7,67 Z m 5.7,5.4 c 0,-1.3 1,-1.8 2,-2.1 1,-0.3 1.5,-0.4 1.5,-1 0,-0.6 -0.6,-1 -1,-1 -0.8,-0.1 -1.2,0.3 -1.3,0.9 l -1.1,-0.1 c 0,-1.2 1,-1.8 2.2,-1.6 1.2,0.2 2.3,0.8 2.3,2.1 0,0.9 -0.7,1.2 -1.5,1.3 -0.8,0.1 -1.6,0.3 -1.9,0.8 1.1,0.1 2.3,0.3 3.4,0.5 v 0.8 c -1.5,-0.2 -3.1,-0.5 -4.6,-0.6 z"
     id="path34" /><path
     class="st2"
     d="m 35.1,105 c 0.8,0.5 1.7,1 2.6,1.3 v 0 l 0.4,-0.2 c 0.3,-0.2 0.9,-0.4 1.5,-0.8 1.6,-0.9 3.2,-2 4.6,-3.3 1.8,-1.6 3.4,-3.5 4.7,-5.6 L 48.8,96.2 C 48.7,96 48.5,95.8 48.2,95.4 47.5,94.5 46.8,93.6 46,92.8 c -2.4,-2.7 -5.3,-4.9 -8.4,-6.7 -4.4,2.6 -8.2,6 -11.2,10.2 0.6,1 1.2,1.9 1.9,2.8 1.8,2.3 4.2,4.3 6.8,5.9 z"
     id="path37"
     style="fill:url(#SVGID_2_)" /><path
     class="st3"
     d="m 38.4,99.4 c 0.7,-0.8 2.9,-0.2 5.5,-0.1 h 0.8 L 44.1,99 c -0.4,-0.2 -0.7,-0.4 -1,-0.7 l -0.2,-0.1 -0.7,-0.1 c -0.7,-0.1 -1.4,-0.2 -2.1,-0.2 -0.5,0 -0.9,0 -1.3,0.1 -0.4,0.1 -0.7,0.2 -0.9,0.5 -0.1,0.2 -0.2,0.3 -0.2,0.6 z"
     id="path38" /><path
     class="st3"
     d="m 37.7,98.6 v 0 c 0.2,-0.3 0.4,-0.4 0.7,-0.5 0.6,-0.2 1.2,-0.3 1.8,-0.2 1,0 2,0.1 2.9,0.3 0,-0.1 0,-0.1 0,-0.2 l -0.2,-0.7 c -0.1,-0.6 -0.3,-1.4 -0.5,-2.2 l -0.8,-3.3 v 0 H 41.5 L 41.3,91.7 C 41.1,91.6 40.9,91.5 40.6,91.4 40,91.1 39.4,91 38.8,91 c -0.4,0 -0.7,0.1 -1,0.3 -0.1,0.1 -0.1,0.2 -0.2,0.2 z"
     id="path39" /><path
     class="st3"
     d="m 43.2,98.1 v 0 c 0.2,0.3 0.4,0.5 0.6,0.6 0.3,0.2 0.5,0.3 0.8,0.4 l -2.2,-6.9 -0.6,-0.4 c 0,0.2 0.1,0.4 0.2,0.7 0.1,0.5 0.3,1.3 0.5,2 0.3,1.5 0.7,3.2 0.7,3.6 z"
     id="path40" /><path
     class="st3"
     d="M 30.5,99.2 30.8,99 c 0.3,-0.2 0.6,-0.3 0.8,-0.5 0.1,-0.1 0.2,-0.2 0.3,-0.3 V 98 c 0,-0.1 0.1,-0.3 0.1,-0.4 0.1,-0.4 0.2,-0.9 0.4,-1.5 0.3,-1.2 0.6,-2.6 0.8,-3.5 0.1,-0.3 0.1,-0.6 0.2,-0.8 l -0.6,0.5 z"
     id="path41" /><path
     class="st3"
     d="m 32,98.2 c 1,-0.2 2,-0.3 2.9,-0.3 0.5,0 0.9,0 1.4,0.1 0.4,0.1 0.7,0.3 1,0.5 v 0.1 -7.3 c 0,-0.1 -0.1,-0.1 -0.1,-0.2 -0.3,-0.2 -0.6,-0.4 -1,-0.3 -0.5,0 -1.1,0.1 -1.6,0.4 -0.3,0.1 -0.7,0.3 -1,0.5 h -0.1 c -0.1,0.6 -1.1,4.9 -1.5,6.2 0.1,0.1 0.1,0.2 0,0.3 z"
     id="path42" /><path
     class="st3"
     d="m 36.7,99.4 0.8,-0.3 c 0,-0.2 -0.1,-0.4 -0.2,-0.5 C 37.1,98.4 37,98.3 36.7,98.2 36.1,98 35.6,98 35,98 c -0.9,0 -1.8,0.1 -2.8,0.3 H 32 c -0.1,0.1 -0.2,0.2 -0.3,0.3 -0.2,0.1 -0.4,0.3 -0.6,0.4 l -0.5,0.3 H 31 c 2.7,-0.1 5,-0.7 5.7,0.1 z"
     id="path43" /><path
     class="st4"
     d="m 34.7,97.3 c -0.7,0 -1.5,0.1 -2.2,0.3 l 0.7,-3 c 0.6,-0.2 1.2,-0.3 1.8,-0.2 z"
     id="path44" /><path
     class="st4"
     d="m 37,96 c -0.6,-0.2 -1.2,-0.3 -1.8,-0.1 0,0 0.4,-4.7 0.4,-4.7 0.3,0 1.1,-0.2 1.5,0.2 z"
     id="path45" /><path
     class="st4"
     d="m 35.1,94.2 c -0.6,-0.1 -1.2,0 -1.8,0.2 0,0 0.5,-2.6 0.5,-2.6 0.5,-0.3 1,-0.5 1.5,-0.6 0,0.1 -0.2,3 -0.2,3 z"
     id="path46" /><path
     class="st4"
     d="m 37,97.6 c -0.6,-0.2 -1.3,-0.3 -1.9,-0.3 l 0.1,-1.2 c 0.6,-0.2 1.2,-0.1 1.8,0.1 z"
     id="path47" /><path
     class="st4"
     d="m 40.1,95.2 c 0.7,-0.1 1.3,0 1.9,0.2 0,0 -0.8,-3.6 -0.8,-3.6 -0.5,-0.3 -1,-0.5 -1.6,-0.7 z"
     id="path48" /><path
     class="st4"
     d="m 38.1,92.6 c 0.5,-0.2 1,-0.3 1.5,-0.1 0,0 -0.1,-1.2 -0.1,-1.2 -0.3,-0.1 -1,-0.2 -1.4,0.2 z"
     id="path49" /><path
     class="st4"
     d="m 38.1,97.6 c 0.6,-0.3 1.2,-0.4 1.9,-0.3 0,0 -0.4,-4.7 -0.4,-4.7 -0.5,-0.2 -1,-0.1 -1.5,0.1 z"
     id="path50" /><path
     class="st4"
     d="m 40.3,97.3 c 0.7,0 1.4,0.1 2.1,0.2 0,0 -0.4,-1.9 -0.4,-1.9 -0.6,-0.2 -1.3,-0.3 -1.9,-0.3 0,0.1 0.2,2 0.2,2 z"
     id="path51" /><path
     class="st0"
     d="m 52.2,76.3 c -0.7,-0.6 -1.6,-1.2 -2.5,-1.5 -3,-1.3 -7.6,-1.9 -12.1,-1.9 -2.9,0 -5.7,0.3 -8.6,0.8 -1.2,0.3 -2.3,0.6 -3.5,1.1 -0.9,0.4 -1.7,0.9 -2.4,1.5 H 23 v 11.3 c 0.6,5.7 3.4,11 7.7,14.8 1.4,1.3 3,2.4 4.7,3.4 0.6,0.4 1.2,0.6 1.5,0.8 l 0.4,0.2 0.1,0.1 h 0.2 l 0.2,-0.1 c 2.7,-1.3 5.2,-2.9 7.3,-5 4,-3.7 6.5,-8.7 7,-14.1 z m -8,25.7 c -1.4,1.3 -2.9,2.4 -4.6,3.3 -0.6,0.3 -1.1,0.6 -1.5,0.8 l -0.4,0.2 v 0 c -0.9,-0.4 -1.7,-0.8 -2.5,-1.3 -2.6,-1.6 -4.9,-3.6 -6.9,-5.9 -0.7,-0.9 -1.3,-1.8 -1.9,-2.8 3,-4.1 6.8,-7.6 11.2,-10.2 3.1,1.8 6,4.1 8.4,6.7 1,1 1.7,2 2.2,2.6 0.2,0.3 0.4,0.6 0.6,0.8 l 0.1,0.2 c -1.3,2.1 -2.9,4 -4.7,5.6 z m 7.5,-14.4 c -0.3,3 -1.2,5.8 -2.6,8.4 -3,-4.2 -6.9,-7.7 -11.4,-10.2 l -0.1,-0.1 -0.1,0.1 C 33,88.4 29.2,91.8 26.2,96 24.8,93.4 23.9,90.6 23.6,87.7 v -11 c 0.7,-0.6 1.4,-1 2.2,-1.4 3.8,-1.3 7.8,-2 11.8,-1.9 2.8,0 5.7,0.3 8.5,0.8 1.2,0.2 2.3,0.6 3.4,1 0.8,0.3 1.6,0.8 2.3,1.4 v 11 z"
     id="path52" /><path
     class="st0"
     d="m 45,99.5 -2.4,-7.4 -0.9,-0.6 v 0 c 0,0 -0.4,-0.2 -0.9,-0.4 -0.6,-0.3 -1.2,-0.4 -1.8,-0.5 -0.4,0 -0.8,0.1 -1.2,0.4 -0.1,0.1 -0.1,0.1 -0.1,0.2 0,-0.1 -0.1,-0.1 -0.2,-0.2 -0.3,-0.3 -0.7,-0.4 -1.2,-0.4 -0.6,0 -1.3,0.2 -1.8,0.5 -0.3,0.1 -0.6,0.3 -0.9,0.4 v 0 l -0.9,0.6 -2.4,7.3 v 0 m -0.2,0.1 c 0,0 6.5,0.2 6.5,0.2 0.5,0.4 1.3,0.4 1.8,0 l 6.5,-0.1 z m 0.5,-0.2 0.5,-0.3 c 0.2,-0.1 0.4,-0.2 0.6,-0.4 0.1,-0.1 0.2,-0.2 0.3,-0.3 h 0.2 C 33.1,98.1 34,98 35,98 c 0.6,0 1.2,0.1 1.7,0.2 0.2,0.1 0.4,0.2 0.6,0.4 0.1,0.1 0.2,0.3 0.2,0.5 l -0.8,0.3 C 36,98.5 33.6,99.2 30.9,99.3 Z m 7.8,0.1 -0.8,-0.3 c 0,-0.2 0.1,-0.4 0.2,-0.6 0.3,-0.2 0.6,-0.4 0.9,-0.5 0.4,-0.1 0.9,-0.1 1.3,-0.1 0.7,0 1.4,0.1 2.1,0.2 l 0.7,0.1 0.2,0.1 c 0.3,0.3 0.6,0.6 0.9,0.8 l 0.5,0.3 h -0.8 c -2.3,-0.2 -4.5,-0.8 -5.2,0 z m 6.2,-0.2 c -0.2,-0.1 -0.5,-0.3 -0.8,-0.4 -0.2,-0.2 -0.4,-0.3 -0.6,-0.6 v -0.1 l -0.8,-3.5 c -0.2,-0.8 -0.3,-1.5 -0.5,-2 -0.1,-0.3 -0.1,-0.6 -0.2,-0.7 l 0.6,0.4 z m -6.7,-8.1 c 0.3,-0.2 0.6,-0.3 1,-0.3 0.6,0 1.2,0.2 1.8,0.4 0.3,0.1 0.5,0.2 0.7,0.3 l 0.2,0.1 h 0.1 v 0 c 0,0 0.4,1.6 0.8,3.3 0.2,0.8 0.4,1.6 0.5,2.2 l 0.2,0.7 c 0,0.1 0,0.1 0,0.2 -1,-0.2 -1.9,-0.3 -2.9,-0.3 -0.6,0 -1.2,0.1 -1.8,0.3 -0.2,0.1 -0.4,0.2 -0.6,0.4 l -0.1,0.2 v -7.2 c -0.1,-0.2 0,-0.2 0.1,-0.3 z m -3.2,0 c 0.5,-0.2 1,-0.3 1.6,-0.3 0.4,0 0.7,0.1 1,0.3 0,0.1 0.1,0.1 0.1,0.2 v 7.3 -0.1 c -0.3,-0.3 -0.6,-0.4 -1,-0.5 -0.5,-0.1 -0.9,-0.2 -1.4,-0.2 -1,0 -2,0.1 -2.9,0.3 0,-0.1 0,-0.2 0.1,-0.3 0.3,-1.3 1.3,-5.7 1.5,-6.2 h 0.1 c 0.2,-0.2 0.5,-0.3 0.9,-0.5 z m -1.9,1.2 0.6,-0.5 -0.2,0.8 c -0.2,0.9 -0.5,2.3 -0.8,3.5 -0.1,0.6 -0.3,1.1 -0.3,1.5 0,0.2 -0.1,0.3 -0.1,0.4 v 0.2 c -0.1,0.1 -0.2,0.2 -0.3,0.3 -0.2,0.2 -0.6,0.4 -0.8,0.5 l -0.3,0.2 z"
     id="path53" /><path
     class="st5"
     d="m 48.2,83.6 c -0.1,0.2 -0.1,0.4 0,0.5 0.5,-0.7 0.8,-0.6 0.8,-0.6 -0.3,1 0.3,1.6 0.2,1.9 -0.1,0.3 -1.9,0.4 -3.4,-2.1 0,0 -0.6,-0.9 -0.8,-1 0.8,-0.2 2,0.7 2.7,0.9 0.4,-0.9 1.3,-1.5 2.3,-1.4 -0.4,-0.6 -0.4,-2.3 0.8,-2.6 -1.6,-0.7 -0.6,-2.6 -0.1,-3.1 -0.6,0 -2.6,-0.9 -4.7,2.1 1.7,1.7 0.1,3.9 -1.2,2.6 0,-0.4 0.4,-0.6 0.6,-1 0,-0.6 -0.1,-1.3 -0.2,-1.9 0.2,0 0.3,0 0.5,0.2 0.1,0.1 -0.1,-0.5 -0.4,-0.6 0.2,0 0.5,0 0.7,0.1 0,0 -0.4,-0.6 -0.8,-0.7 0,0 1.2,0 0.8,-1.4 -0.2,0.5 -0.8,0.9 -1.4,0.8 -0.5,-0.2 -0.9,-0.4 -1.4,-0.5 -0.2,0 -0.2,0.1 -0.4,0.2 -0.1,0.1 -0.7,-0.3 -1.3,-0.1 0.1,0.1 0.3,0.1 0.4,0.2 0.1,0.2 0.1,0.4 0.1,0.6 0.5,-0.4 0.8,0.2 0.8,0.2 -0.2,0.1 -0.5,0.2 -0.8,0.3 -0.3,0.1 -0.6,0 -0.7,-0.3 -0.1,0.2 0.1,0.3 0.5,0.4 0.4,0 0.7,0 1.1,-0.1 0,0.1 0,0.1 0,0.1 0,0 0,0 0,0 v 0 c -0.2,0.1 -0.7,0 -0.9,0.1 0,0.3 0,0.6 0,0.9 0.1,-0.1 0.8,-0.8 1.1,-0.7 0.4,0.1 0.7,0 1.1,-0.1 0,0 -0.3,0.2 -0.7,0.3 -1,0.5 -1.6,1.4 -1.7,2.5 -0.2,0.7 -0.9,1 -1.5,0.8 -0.3,-0.1 -0.5,-0.2 -0.7,-0.5 -0.4,-0.1 -1.2,0 -1.1,0.6 0,0 1.1,-0.4 0.9,0 -0.3,0.1 -0.6,0.2 -0.9,0.3 -0.1,0.2 -0.2,0.5 -0.1,0.7 0.4,-0.3 0.7,-0.7 1.1,-0.5 -0.2,0.2 -0.4,0.4 -0.4,0.7 0,0.2 0,0.3 0.1,0.5 0.2,-0.5 0.5,-1 1.1,-0.9 0.5,0.1 0.5,-0.2 1.4,0.2 0,-0.3 -0.7,-0.5 -0.7,-0.5 0.6,-0.2 1.3,-0.1 2,-1 -0.2,0.4 -0.6,0.8 -1.1,0.9 0.3,1.6 1.8,2.3 2.4,3 -0.5,0 -1.4,-0.5 -1.7,0.2 0,0.6 0.1,1.1 0.3,1.7 -0.2,0.1 -0.5,-0.1 -0.8,-0.1 C 41.6,86 42.1,84.7 41,85 l 0.1,0.3 c 0.2,0.2 0.4,0.4 0.5,0.7 -0.3,0 -0.5,-0.4 -0.6,-0.6 -0.2,-0.2 -0.1,-0.5 -0.4,-0.4 -0.2,0.1 -0.5,-0.1 -0.6,0.2 0.4,0.2 0.7,0.5 0.9,0.8 -0.3,0.1 -0.5,-0.3 -0.7,-0.4 -0.3,0 -0.5,0 -0.8,0.1 0,0.2 0.4,0.3 0.5,0.4 0.6,0.5 1.4,0.7 1.9,1.4 0.2,0.2 0.2,0.3 0.3,0.9 0.2,-0.2 0.2,-0.5 0.1,-0.7 l -0.1,-0.3 c 0.9,0.2 2.5,0.5 2.5,1.2 0.4,0 -0.4,-1.6 -0.3,-2.1 0,0 0.8,0.2 1,-0.1 0.1,-0.2 0.2,-0.4 0.1,-0.6 0.2,0.3 0,0.6 -0.3,1.4 0.4,0.5 1.3,0.5 1.3,1.3 -0.1,0.5 0.5,0.8 -0.3,0.9 -0.4,0.2 -1,0 -1.2,0.4 0,0.2 -0.1,0.5 0.1,0.7 0.1,-0.3 0.5,-0.5 0.8,-0.4 0,0 0,0 0,0 v 0 c -0.1,0.2 -0.4,0.3 -0.5,0.6 0,0.3 0.2,0.6 0.4,0.6 -0.1,-0.7 0.4,-0.8 0.8,-1.2 h 0.2 c -0.1,0.3 -0.2,0.7 -0.1,1.1 0,0 0.8,0.6 0.7,0.5 -0.4,-0.6 0.3,-1.1 0.1,-1.7 0.4,-0.4 0.9,-0.5 1.3,-0.3 -0.1,-0.4 -1,-0.2 -1.3,-0.5 0,-0.1 -0.2,0.3 -0.2,0.1 0.2,-0.3 -0.4,-0.3 0,-1.2 0.1,-0.2 0,-0.2 0.7,-0.2 -0.3,-0.1 -0.6,-0.2 -0.9,-0.2 0,-0.3 -0.1,-0.6 -0.3,-0.9 0.9,0.5 1.9,0.6 2.8,0.1 0.3,-0.2 0.6,-0.5 0.6,-0.9 0.2,-1.3 -1.1,-1.6 -1,-2.5 0.4,0.1 0.8,0.4 0.9,0.8 0,-0.4 0,-0.7 0,-1.1 0,-0.4 0.1,-0.9 0.5,-1 -0.8,0 -1.8,0.5 -2.3,1.4 z m -4.7,-6.8 c -0.1,0 0,-0.3 0,-0.3 0,0 0.1,-0.1 0.4,0 0.3,0.1 0.4,0.3 0.4,0.3 -0.3,0 -0.6,0 -0.8,0 z"
     id="path55"
     style="fill:url(#SVGID_3_)" /><path
     class="st6"
     d="m 39.9,77 c 0.1,0.3 -0.1,0.6 -0.4,0.7 0,0 0,0 0,0 -0.1,0 -0.3,0 -0.4,-0.1 0,0 0.2,0.5 1,0.1 h 0.2 c 0.4,0.9 0.9,1.8 1.6,2.5 0,-0.3 0.1,-0.6 0.2,-0.8 -0.5,-0.8 -0.9,-1.6 -1.2,-2.4 0.1,-0.5 0.5,-0.8 0.2,-1.5 -0.1,-0.2 -0.3,-0.3 -0.6,-0.3 0,0 0,0 0,0 v 0 c 0.2,0.1 0.4,0.4 0.3,0.7 -0.2,-0.2 -0.1,-0.5 -0.5,-0.7 -0.4,-0.2 -0.5,-0.3 -0.9,-0.1 0.1,0.2 0.5,0.3 0.7,0.5 V 76 c -0.2,-0.3 -0.5,-0.4 -0.8,-0.4 -0.4,0 -0.6,0 -0.6,0.4 0.9,-0.1 1,0.5 1.2,1 z"
     id="path58"
     style="fill:url(#SVGID_4_)" /><path
     class="st7"
     d="m 33.2,79.6 c 0.2,0.2 0.2,0.5 0.2,0.8 0.7,-0.7 1.2,-1.6 1.6,-2.5 h 0.2 c 0.7,0.4 1,-0.1 1,-0.1 -0.3,0.2 -0.6,0.1 -0.8,-0.2 -0.1,-0.1 -0.1,-0.3 -0.1,-0.4 0.2,-0.6 0.3,-1.1 1.3,-0.9 0,-0.4 -0.3,-0.4 -0.6,-0.4 -0.3,0 -0.6,0.2 -0.8,0.4 v -0.4 c 0.2,-0.2 0.6,-0.3 0.7,-0.5 -0.4,-0.1 -0.5,0 -0.9,0.2 -0.4,0.2 -0.4,0.4 -0.5,0.7 -0.1,-0.3 0,-0.5 0.3,-0.7 -0.2,-0.1 -0.5,0 -0.6,0.2 0,0 0,0 0,0 v 0.1 c -0.4,0.7 0.1,1 0.2,1.5 -0.3,0.6 -0.7,1.4 -1.2,2.2 z"
     id="path61"
     style="fill:url(#SVGID_5_)" /><path
     class="st8"
     d="m 35.8,81.6 c -0.2,-0.4 0.9,0 0.9,0 0,-0.6 -0.7,-0.7 -1.1,-0.6 -0.4,0.6 -1.2,0.7 -1.7,0.3 -0.2,-0.2 -0.4,-0.4 -0.5,-0.7 -0.1,-1.1 -0.7,-2 -1.6,-2.5 -0.4,-0.2 -0.7,-0.3 -0.7,-0.3 0.3,0.1 0.7,0.2 1.1,0.1 0.3,-0.1 1,0.6 1.1,0.7 0,-0.3 0,-0.6 0,-0.9 -0.2,-0.1 -0.7,0 -0.9,-0.1 -0.1,0 -0.1,-0.1 -0.1,-0.2 0,0 0,0 0,0 v 0 c 0.3,0.1 0.7,0.1 1.1,0.1 0.3,-0.1 0.5,-0.2 0.5,-0.4 0,0.2 -0.3,0.3 -0.7,0.3 -0.3,-0.1 -0.5,-0.2 -0.8,-0.3 0,0 0.3,-0.6 0.8,-0.2 0,-0.2 0,-0.4 0.1,-0.6 l 0.4,-0.2 C 33.1,75.9 32.5,76.3 32.4,76.2 32.3,76.1 32.3,76 32,76 c -0.5,0.1 -1,0.3 -1.4,0.5 -0.6,0.1 -1.1,-0.3 -1.4,-0.8 -0.4,1.4 0.8,1.4 0.8,1.4 -0.4,0.1 -0.8,0.7 -0.8,0.7 0.2,-0.1 0.4,-0.2 0.7,-0.2 -0.3,0 -0.5,0.6 -0.4,0.6 0.1,-0.1 0.3,-0.2 0.5,-0.2 -0.1,0.7 -0.2,1.3 -0.2,2 0.2,0.4 0.5,0.6 0.6,1 -1.3,1.3 -2.9,-0.9 -1.2,-2.6 -2.1,-3 -4.1,-2 -4.7,-2.1 0.5,0.4 1.5,2.3 -0.1,3 1.2,0.3 1.2,2 0.8,2.6 1,0 1.9,0.5 2.3,1.4 0.8,-0.2 2,-1.1 2.7,-0.9 -0.2,0 -0.8,1 -0.8,1 -1.4,2.4 -3.1,2.4 -3.3,2 -0.2,-0.4 0.5,-0.9 0.2,-1.9 0,0 0.3,-0.1 0.8,0.6 0.1,-0.2 0.1,-0.4 0,-0.5 -0.6,-1.3 -2.4,-1.4 -2.6,-1.1 0.5,0.1 0.5,0.5 0.5,1 -0.1,0.4 -0.1,0.7 0,1.1 0.1,-0.4 0.5,-0.7 0.9,-0.8 0,0.9 -1.3,1.2 -1,2.4 0.1,0.4 0.3,0.7 0.6,0.9 0.9,0.4 2,0.4 2.8,-0.1 -0.2,0.3 -0.3,0.6 -0.3,0.9 -0.3,0 -0.6,0 -0.9,0.2 0.6,0.1 0.5,0 0.6,0.2 0.4,0.9 -0.1,0.9 0,1.2 0,0.2 -0.1,-0.2 -0.2,-0.1 -0.3,0.3 -1.2,0.1 -1.3,0.5 0.5,-0.2 1,-0.1 1.3,0.3 -0.2,0.7 0.5,1.2 0.1,1.7 -0.1,0.2 0.7,-0.5 0.7,-0.5 0,-0.4 0,-0.7 -0.1,-1.1 h 0.2 c 0.4,0.4 0.9,0.5 0.8,1.2 0.3,-0.1 0.5,-0.3 0.4,-0.6 -0.1,-0.3 -0.4,-0.4 -0.5,-0.6 0.3,-0.1 0.7,0 0.9,0.3 v 0 c 0.2,-0.2 0.1,-0.4 0.1,-0.7 -0.2,-0.5 -0.8,-0.2 -1.2,-0.4 -0.8,-0.1 -0.1,-0.4 -0.3,-0.9 0,-0.8 0.9,-0.8 1.3,-1.3 -0.2,-0.8 -0.5,-1.1 -0.3,-1.4 -0.1,0.2 -0.1,0.4 0.1,0.6 0.2,0.4 1,0.1 1,0.1 0.1,0.5 -0.7,2.1 -0.3,2.1 0,-0.7 1.6,-1 2.4,-1.2 l -0.1,0.3 c -0.1,0.3 0,0.5 0.1,0.7 0.1,-0.6 0.1,-0.8 0.3,-0.9 0.5,-0.7 1.3,-0.8 1.9,-1.4 0.2,-0.1 0.5,-0.2 0.5,-0.4 -0.2,-0.1 -0.5,0 -0.8,-0.1 -0.3,-0.1 -0.4,0.5 -0.7,0.4 0.2,-0.3 0.6,-0.6 0.9,-0.8 -0.1,-0.3 -0.5,-0.1 -0.6,-0.2 -0.1,-0.1 -0.3,0.3 -0.4,0.4 -0.1,0.2 -0.4,0.6 -0.6,0.6 0.1,-0.2 0.3,-0.5 0.5,-0.7 l 0.1,-0.3 c -1.1,-0.3 -0.6,1 -1.1,1.4 -0.3,0 -0.5,0.2 -0.8,0.1 0.2,-0.5 0.2,-1.1 0.3,-1.7 0.1,-0.5 -0.8,0.1 -1.3,0.1 0.7,-0.7 2.1,-1.4 2.5,-3 -0.5,-0.1 -0.9,-0.5 -1.1,-0.9 0.6,0.8 1.3,0.7 2,1 0,0 -0.7,0.2 -0.7,0.5 0.9,-0.4 0.9,-0.1 1.4,-0.2 0.5,-0.1 0.8,0.3 1.1,0.9 0.1,-0.2 0.1,-0.3 0.1,-0.5 -0.1,-0.3 -0.2,-0.5 -0.4,-0.6 0.4,-0.2 0.7,0.2 1.1,0.5 0.1,-0.2 0,-0.5 -0.1,-0.7 -0.4,-0.2 -0.7,-0.4 -1.1,-0.4 z m -4.3,-5 c 0.3,-0.2 0.4,0 0.4,0 v 0.3 c -0.2,0 -0.5,0 -0.7,0 -0.1,-0.1 -0.1,-0.2 0.3,-0.3 z"
     id="path64"
     style="fill:url(#SVGID_6_)" /></g>
</svg>
