<?xml version="1.0" encoding="UTF-8" standalone="no"?>
<svg
   width="240"
   height="120"
   version="1.1"
   id="svg3"
   sodipodi:docname="dwr-cymru.svg"
   inkscape:version="1.3.2 (1:1.3.2+202311252150+091e20ef0f)"
   inkscape:export-filename="dwr-cymru.png"
   inkscape:export-xdpi="400"
   inkscape:export-ydpi="400"
   xmlns:inkscape="http://www.inkscape.org/namespaces/inkscape"
   xmlns:sodipodi="http://sodipodi.sourceforge.net/DTD/sodipodi-0.dtd"
   xmlns:xlink="http://www.w3.org/1999/xlink"
   xmlns="http://www.w3.org/2000/svg"
   xmlns:svg="http://www.w3.org/2000/svg">
  <sodipodi:namedview
     id="namedview3"
     pagecolor="#ffffff"
     bordercolor="#666666"
     borderopacity="1.0"
     inkscape:showpageshadow="2"
     inkscape:pageopacity="0.0"
     inkscape:pagecheckerboard="0"
     inkscape:deskcolor="#d1d1d1"
     inkscape:zoom="1.6178571"
     inkscape:cx="129.80132"
     inkscape:cy="3.7086093"
     inkscape:window-width="1920"
     inkscape:window-height="1024"
     inkscape:window-x="0"
     inkscape:window-y="0"
     inkscape:window-maximized="1"
     inkscape:current-layer="svg3"
     inkscape:export-bgcolor="#ffffffff" />
  <defs
     id="defs1">
    <path
       id="a"
       d="m 0,0.439 h 28.54 v 20.47 H 0 Z" />
    <path
       id="c"
       d="M 0,1.087 H 28.54 V 21.56 H 0 Z" />
  </defs>
  <g
     fill="none"
     fill-rule="evenodd"
     id="g3"
     transform="translate(50.4905,41.725)">
    <g
       transform="translate(0,0.914)"
       id="g1">
      <mask
         id="b"
         fill="#ffffff">
        <use
           xlink:href="#a"
           id="use1" />
      </mask>
      <path
         d="m 28.48,0.439 c -1.106,0 -1.82,1.696 -2.579,3.493 -0.972,2.307 -2.075,4.918 -4.56,4.918 -2.385,0 -3.305,-2.384 -4.119,-4.486 -0.869,-2.255 -1.549,-3.732 -3.011,-3.732 -1.467,0 -2.148,1.477 -3.019,3.732 C 10.38,6.466 9.46,8.85 7.071,8.85 4.589,8.85 3.488,6.24 2.518,3.935 1.775,2.168 1.071,0.506 0,0.445 V 12.5 c 1.85,0.046 2.745,2.164 3.61,4.217 0.867,2.06 1.766,4.192 3.461,4.192 1.466,0 2.147,-1.477 3.016,-3.731 0.812,-2.103 1.734,-4.488 4.124,-4.488 2.385,0 3.305,2.385 4.117,4.488 0.87,2.254 1.55,3.731 3.013,3.731 1.7,0 2.599,-2.133 3.47,-4.195 0.874,-2.074 1.777,-4.219 3.669,-4.219 h 0.06 V 0.44 h -0.06 z"
         fill="#009edb"
         mask="url(#b)"
         id="path1" />
    </g>
    <g
       transform="translate(0,13.64)"
       id="g2">
      <mask
         id="d"
         fill="#ffffff">
        <use
           xlink:href="#c"
           id="use2" />
      </mask>
      <path
         d="m 28.48,1.087 c -1.106,0 -1.82,1.697 -2.579,3.493 C 24.929,6.887 23.826,9.5 21.341,9.5 18.956,9.5 18.036,7.115 17.222,5.013 16.353,2.757 15.673,1.281 14.211,1.281 12.744,1.281 12.063,2.757 11.192,5.013 10.38,7.115 9.46,9.5 7.071,9.5 4.589,9.5 3.488,6.889 2.518,4.582 1.775,2.818 1.071,1.155 0,1.094 V 13.15 c 1.85,0.046 2.745,2.164 3.61,4.216 0.867,2.06 1.766,4.193 3.461,4.193 1.466,0 2.147,-1.476 3.016,-3.731 0.812,-2.103 1.734,-4.488 4.124,-4.488 2.385,0 3.305,2.385 4.117,4.488 0.87,2.254 1.55,3.731 3.013,3.731 1.7,0 2.599,-2.134 3.47,-4.197 0.874,-2.073 1.777,-4.217 3.669,-4.217 h 0.06 V 1.087 Z"
         fill="#8abd43"
         mask="url(#d)"
         id="path2" />
    </g>
    <path
       d="m 51.44,31.98 3.108,-9.098 c 0.134,-0.418 0.399,-0.606 0.816,-0.606 0.493,0 0.815,0.321 0.815,0.815 0,0.074 -0.02,0.207 -0.058,0.322 l -3.847,11.143 c -0.113,0.342 -0.341,0.645 -0.853,0.645 -0.397,0 -0.682,-0.209 -0.795,-0.549 l -3.071,-9.116 -3.07,9.116 c -0.115,0.34 -0.398,0.549 -0.797,0.549 -0.511,0 -0.74,-0.303 -0.853,-0.645 L 38.988,23.413 a 1.163,1.163 0 0 1 -0.057,-0.322 c 0,-0.494 0.322,-0.815 0.816,-0.815 0.416,0 0.682,0.188 0.814,0.606 l 3.108,9.098 3.071,-9.117 c 0.133,-0.36 0.38,-0.587 0.815,-0.587 0.436,0 0.682,0.227 0.816,0.587 l 3.07,9.117 z m 14.745,3.221 c -0.531,0 -0.891,-0.397 -0.891,-0.89 V 23.164 c 0,-0.491 0.36,-0.89 0.89,-0.89 0.531,0 0.892,0.399 0.892,0.89 V 34.31 c 0,0.494 -0.36,0.891 -0.891,0.891 m 5.989,0.076 c -1.193,0 -2.254,-0.38 -3.014,-0.967 a 0.947,0.947 0 0 1 -0.378,-0.738 c 0,-0.38 0.303,-0.627 0.682,-0.627 0.303,0 0.493,0.114 0.701,0.266 0.512,0.378 1.232,0.739 2.142,0.739 1.024,0 1.573,-0.378 1.573,-0.966 0,-0.644 -0.532,-0.891 -1.858,-1.251 -2.331,-0.625 -3.184,-1.422 -3.184,-2.786 0,-1.422 1.308,-2.351 3.355,-2.351 0.776,0 1.65,0.19 2.35,0.53 0.512,0.247 0.872,0.55 0.872,0.93 0,0.34 -0.19,0.663 -0.682,0.663 -0.247,0 -0.494,-0.114 -0.777,-0.265 a 3.715,3.715 0 0 0 -1.801,-0.437 c -0.947,0 -1.593,0.247 -1.593,0.91 0,0.646 0.57,0.853 1.934,1.252 2.046,0.588 3.109,1.137 3.109,2.672 0,1.403 -1.176,2.426 -3.431,2.426 m 12.129,-0.076 c -0.53,0 -0.89,-0.397 -0.89,-0.89 v -3.79 c 0,-1.328 -0.721,-2.313 -2.143,-2.313 -1.42,0 -2.236,1.042 -2.236,2.33 v 3.772 c 0,0.494 -0.378,0.891 -0.89,0.891 -0.532,0 -0.892,-0.397 -0.892,-0.89 V 23.183 c 0,-0.567 0.38,-0.908 0.891,-0.908 0.494,0 0.891,0.283 0.891,0.908 v 5.005 c 0.53,-1.024 1.478,-1.593 2.731,-1.593 2.18,0 3.43,1.612 3.43,3.848 v 3.866 c 0,0.474 -0.324,0.891 -0.892,0.891 M 63.626,30.956 c 0,0.302 -0.17,0.608 -0.682,0.608 h -5.667 c 0.095,1.306 0.986,2.292 2.56,2.292 0.984,0 1.572,-0.342 2.197,-0.929 0.152,-0.151 0.36,-0.285 0.588,-0.285 0.398,0 0.74,0.285 0.74,0.74 0,0.189 -0.096,0.36 -0.228,0.511 -0.72,0.835 -2.01,1.385 -3.374,1.385 -2.824,0 -4.321,-1.972 -4.321,-4.342 0,-2.483 1.8,-4.34 4.246,-4.34 2.387,0 3.941,1.934 3.941,4.36 m -3.941,-2.938 c -1.309,0 -2.2,0.928 -2.37,2.104 h 4.663 c -0.153,-1.138 -1.005,-2.104 -2.293,-2.104 m 44.349,3.962 3.107,-9.098 c 0.133,-0.418 0.4,-0.606 0.816,-0.606 0.493,0 0.815,0.321 0.815,0.815 0,0.074 -0.019,0.207 -0.057,0.322 l -3.849,11.143 c -0.113,0.342 -0.34,0.645 -0.852,0.645 -0.397,0 -0.682,-0.209 -0.797,-0.549 l -3.07,-9.116 -3.07,9.116 c -0.114,0.34 -0.397,0.549 -0.796,0.549 -0.51,0 -0.74,-0.303 -0.853,-0.645 L 91.582,23.413 a 1.163,1.163 0 0 1 -0.058,-0.322 c 0,-0.494 0.324,-0.815 0.816,-0.815 0.416,0 0.682,0.188 0.814,0.606 l 3.109,9.098 3.07,-9.117 c 0.132,-0.36 0.379,-0.587 0.814,-0.587 0.438,0 0.682,0.227 0.817,0.587 z m 16.716,3.221 c -0.53,0 -0.891,-0.397 -0.891,-0.89 V 28.3 h -1.44 a 0.728,0.728 0 0 1 -0.74,-0.737 c 0,-0.418 0.322,-0.74 0.74,-0.74 h 1.44 V 24.34 c 0,-0.492 0.36,-0.89 0.89,-0.89 0.53,0 0.892,0.398 0.892,0.89 v 2.483 h 1.629 c 0.419,0 0.74,0.322 0.74,0.74 a 0.728,0.728 0 0 1 -0.74,0.738 h -1.63 v 6.008 c 0,0.494 -0.36,0.891 -0.89,0.891 m 11.769,-4.244 c 0,0.302 -0.17,0.608 -0.682,0.608 h -5.667 c 0.095,1.306 0.986,2.292 2.557,2.292 0.987,0 1.575,-0.342 2.2,-0.929 0.152,-0.151 0.36,-0.285 0.588,-0.285 0.398,0 0.74,0.285 0.74,0.74 0,0.189 -0.096,0.36 -0.229,0.511 -0.72,0.835 -2.008,1.385 -3.374,1.385 -2.823,0 -4.32,-1.972 -4.32,-4.342 0,-2.483 1.8,-4.34 4.245,-4.34 2.388,0 3.942,1.934 3.942,4.36 m -3.942,-2.938 c -1.308,0 -2.2,0.928 -2.37,2.104 h 4.664 c -0.152,-1.138 -1.005,-2.104 -2.294,-2.104 m 9.609,0.284 c -1.498,0 -2.408,0.986 -2.408,2.9 v 3.11 c 0,0.491 -0.378,0.89 -0.89,0.89 -0.568,0 -0.89,-0.399 -0.89,-0.89 v -6.73 c 0,-0.53 0.38,-0.91 0.91,-0.91 0.51,0 0.87,0.36 0.87,0.91 v 0.814 c 0.322,-1.078 1.215,-1.761 2.408,-1.761 0.51,0 0.833,0.36 0.833,0.835 0,0.472 -0.36,0.832 -0.833,0.832 m -21.397,2.539 v -3.374 c 0,-0.494 -0.343,-0.89 -0.891,-0.89 a 0.84,0.84 0 0 0 -0.857,0.713 c -0.686,-0.454 -1.56,-0.712 -2.591,-0.712 -2.675,0 -4.38,1.971 -4.38,4.34 0,2.409 1.535,4.342 4.188,4.342 1.232,0 2.237,-0.587 2.768,-1.383 v 0.416 c 0,0.494 0.342,0.89 0.873,0.89 0.549,0 0.891,-0.396 0.891,-0.89 v -3.374 c 0,-0.028 -0.004,-0.054 -0.004,-0.083 z m -4.36,2.902 c -1.686,0 -2.577,-1.194 -2.577,-2.824 0,-1.555 1.062,-2.823 2.576,-2.823 1.519,0 2.58,1.08 2.58,2.823 0,1.48 -1.004,2.824 -2.58,2.824 z M 43.756,14.123 H 40.25 A 0.93,0.93 0 0 1 39.32,13.195 V 2.43 c 0,-0.512 0.418,-0.929 0.93,-0.929 h 3.506 c 3.905,0 6.33,2.692 6.33,6.311 0,3.62 -2.425,6.312 -6.33,6.312 M 43.7,3.167 h -2.56 v 9.289 h 2.558 c 2.9,0 4.568,-1.934 4.568,-4.645 0,-2.71 -1.668,-4.644 -4.568,-4.644 m 15.978,8.245 1.668,-5.098 c 0.133,-0.396 0.36,-0.568 0.72,-0.568 0.417,0 0.816,0.246 0.816,0.759 0,0.094 -0.038,0.245 -0.077,0.34 l -2.331,6.92 c -0.114,0.321 -0.341,0.51 -0.738,0.51 -0.399,0 -0.646,-0.21 -0.759,-0.531 l -1.933,-5.25 -1.914,5.25 c -0.114,0.303 -0.342,0.53 -0.759,0.53 -0.416,0 -0.663,-0.208 -0.74,-0.51 l -2.33,-6.92 a 1.092,1.092 0 0 1 -0.076,-0.34 c 0,-0.512 0.398,-0.758 0.816,-0.758 0.359,0 0.586,0.172 0.719,0.568 l 1.668,5.098 1.895,-5.136 c 0.114,-0.322 0.322,-0.53 0.72,-0.53 0.4,0 0.608,0.208 0.721,0.53 z m -0.34,-7.865 a 0.646,0.646 0 0 1 0.208,0.473 c 0,0.322 -0.304,0.588 -0.626,0.588 A 0.59,0.59 0 0 1 58.502,4.457 l -1.46,-1.328 -1.46,1.328 a 0.59,0.59 0 0 1 -0.416,0.151 c -0.324,0 -0.626,-0.266 -0.626,-0.588 0,-0.19 0.076,-0.34 0.208,-0.473 l 1.838,-1.65 c 0.153,-0.132 0.285,-0.19 0.456,-0.19 0.17,0 0.303,0.058 0.454,0.19 z m 9.154,3.828 c -1.499,0 -2.408,0.985 -2.408,2.9 v 3.11 c 0,0.491 -0.379,0.89 -0.89,0.89 -0.57,0 -0.891,-0.399 -0.891,-0.89 V 6.656 c 0,-0.53 0.379,-0.91 0.91,-0.91 0.511,0 0.871,0.36 0.871,0.91 V 7.47 c 0.322,-1.078 1.213,-1.762 2.407,-1.762 0.512,0 0.834,0.36 0.834,0.835 0,0.473 -0.36,0.832 -0.834,0.832 m 41.338,6.9 a 0.878,0.878 0 0 1 -0.89,-0.891 v -3.79 c 0,-1.309 -0.624,-2.313 -2.028,-2.313 -1.403,0 -2.254,1.08 -2.254,2.332 v 3.77 c 0,0.493 -0.344,0.892 -0.894,0.892 -0.53,0 -0.89,-0.399 -0.89,-0.891 v -3.79 c 0,-1.309 -0.681,-2.313 -2.085,-2.313 -1.438,0 -2.198,1.08 -2.198,2.332 v 3.77 c 0,0.493 -0.36,0.892 -0.89,0.892 a 0.878,0.878 0 0 1 -0.89,-0.891 V 6.656 c 0,-0.53 0.339,-0.91 0.89,-0.91 0.606,0 0.89,0.418 0.89,0.91 v 0.606 c 0.511,-1.004 1.555,-1.592 2.674,-1.592 1.364,0 2.387,0.682 2.899,1.686 0.74,-1.136 1.82,-1.686 3.164,-1.686 2.295,0 3.393,1.573 3.393,3.791 v 3.923 c 0,0.492 -0.36,0.89 -0.89,0.89 m 6.501,-6.899 c -1.497,0 -2.408,0.985 -2.408,2.9 v 3.11 c 0,0.491 -0.378,0.89 -0.89,0.89 -0.569,0 -0.89,-0.399 -0.89,-0.89 V 6.656 c 0,-0.53 0.377,-0.91 0.908,-0.91 0.513,0 0.872,0.36 0.872,0.91 V 7.47 c 0.322,-1.078 1.214,-1.762 2.408,-1.762 0.51,0 0.832,0.36 0.832,0.835 a 0.815,0.815 0 0 1 -0.832,0.832 m 1.913,3.015 V 6.636 a 0.89,0.89 0 0 1 0.89,-0.89 0.89,0.89 0 0 1 0.892,0.89 v 3.961 c 0,1.194 0.929,2.123 2.178,2.123 1.253,0 2.201,-0.93 2.201,-2.123 v -3.96 c 0,-0.494 0.397,-0.892 0.89,-0.892 0.493,0 0.89,0.398 0.89,0.891 v 3.752 c 0,2.217 -1.687,3.961 -3.98,3.961 -2.293,0 -3.961,-1.744 -3.961,-3.96 M 94.732,5.706 c -0.436,0 -0.683,0.209 -0.836,0.647 L 91.712,12.261 89.28,6.2 C 89.148,5.897 88.918,5.706 88.52,5.706 c -0.419,0 -0.798,0.266 -0.798,0.798 0,0.115 0.038,0.247 0.076,0.362 l 3.133,7.509 -1.19,3.224 c 0,0 -0.047,0.176 -0.047,0.273 a 0.81,0.81 0 0 0 1.569,0.287 h 10e-4 c 0,0 3.853,-10.387 4.153,-11.219 0.037,-0.094 0.076,-0.285 0.076,-0.416 0,-0.591 -0.4,-0.819 -0.76,-0.819 M 86.876,3.357 c 0.151,0.19 0.247,0.398 0.247,0.647 0,0.472 -0.324,0.795 -0.815,0.795 -0.36,0 -0.607,-0.209 -0.795,-0.438 -0.817,-0.908 -1.916,-1.44 -3.3,-1.44 -3.07,0 -4.682,2.218 -4.682,4.89 0,2.675 1.612,4.892 4.683,4.892 1.383,0 2.482,-0.531 3.299,-1.442 0.188,-0.228 0.435,-0.436 0.795,-0.436 0.491,0 0.815,0.322 0.815,0.796 0,0.247 -0.096,0.456 -0.247,0.644 -0.948,1.195 -2.69,2.086 -4.777,2.086 -3.96,0 -6.405,-2.996 -6.405,-6.54 0,-3.543 2.446,-6.539 6.405,-6.539 2.086,0 3.829,0.893 4.777,2.085"
       fill="#009edb"
       id="path3" />
  </g>
</svg>
