<?xml version="1.0" encoding="UTF-8" standalone="no"?>
<!-- Created with Inkscape (http://www.inkscape.org/) -->

<svg
   width="54.926529mm"
   height="54.097141mm"
   viewBox="0 0 54.926529 54.097141"
   version="1.1"
   id="svg3248"
   inkscape:version="1.2.2 (b0a8486541, 2022-12-01)"
   sodipodi:docname="robin.svg"
   xmlns:inkscape="http://www.inkscape.org/namespaces/inkscape"
   xmlns:sodipodi="http://sodipodi.sourceforge.net/DTD/sodipodi-0.dtd"
   xmlns="http://www.w3.org/2000/svg"
   xmlns:svg="http://www.w3.org/2000/svg">
  <sodipodi:namedview
     id="namedview3250"
     pagecolor="#ffffff"
     bordercolor="#000000"
     borderopacity="0.25"
     inkscape:showpageshadow="2"
     inkscape:pageopacity="0.0"
     inkscape:pagecheckerboard="0"
     inkscape:deskcolor="#d1d1d1"
     inkscape:document-units="mm"
     showgrid="false"
     inkscape:zoom="0.75722503"
     inkscape:cx="752.74849"
     inkscape:cy="344.01927"
     inkscape:window-width="1920"
     inkscape:window-height="1024"
     inkscape:window-x="0"
     inkscape:window-y="0"
     inkscape:window-maximized="1"
     inkscape:current-layer="layer1" />
  <defs
     id="defs3245" />
  <g
     inkscape:label="Layer 1"
     inkscape:groupmode="layer"
     id="layer1"
     transform="translate(93.851486,-57.509075)">
    <path
       style="fill:#000000;stroke-width:0.264583"
       d="m -73.653375,111.49082 c 0.0554,-0.0637 0.141914,-0.20394 0.192243,-0.31168 0.127612,-0.27315 0.825233,-0.81912 1.11315,-0.87114 0.335367,-0.0606 0.576271,-0.19635 0.924452,-0.52094 0.513717,-0.47889 1.739968,-1.48296 2.12326,-1.73852 0.199882,-0.13327 0.542351,-0.31785 0.761039,-0.41013 0.378635,-0.15984 0.45765,-0.16785 1.654988,-0.16785 1.360146,0 1.407284,-0.0101 1.802595,-0.38418 0.176739,-0.16727 0.281596,-0.20772 0.597726,-0.23061 0.469826,-0.034 0.713806,0.0604 1.215088,0.47014 0.352748,0.28834 0.378404,0.29837 0.478745,0.18751 0.12173,-0.13452 0.0925,-0.28033 -0.177533,-0.88543 -0.130762,-0.29305 -0.237725,-0.42275 -0.470151,-0.57015 -0.661517,-0.41952 -1.448835,-0.44953 -2.247421,-0.0857 -0.689856,0.31433 -0.905058,0.35695 -1.381839,0.27377 -0.769962,-0.13436 -1.107668,-0.25535 -1.107668,-0.39688 0,-0.23077 0.390708,-1.11953 0.838854,-1.90814 0.241252,-0.42455 1.223433,-2.33535 2.182624,-4.246223 0.959191,-1.910874 1.795941,-3.53822 1.859447,-3.616351 0.07438,-0.09149 0.60992,-0.3243 1.505185,-0.654289 0.76435,-0.281728 1.978414,-0.780018 2.697925,-1.107307 l 1.308198,-0.595075 0.313145,0.117158 c 0.715264,0.267573 2.692945,1.136729 3.562492,1.565645 l 0.933143,0.460296 0.947791,1.00502 c 2.562254,2.716979 7.379922,7.670796 7.658259,7.874656 0.448508,0.32854 1.092136,0.64151 1.31931,0.64151 0.106836,0 0.246245,-0.038 0.309808,-0.0845 0.09894,-0.0724 0.106056,-0.12685 0.04946,-0.37873 -0.03636,-0.16182 -0.05894,-0.30139 -0.05017,-0.31017 0.0088,-0.009 0.242903,0.20741 0.520324,0.48038 0.277416,0.27297 0.52292,0.46633 0.54556,0.42968 0.02405,-0.0389 0.459772,0.15084 1.047666,0.45622 1.354219,0.70345 1.702313,0.75311 1.700717,0.24278 -0.0021,-0.64262 -0.892759,-1.77098 -3.776448,-4.78382 -0.59782,-0.6246 -2.147144,-2.232715 -3.442954,-3.57357 -2.189496,-2.265653 -4.335833,-4.561231 -4.548301,-4.864576 -0.04999,-0.07138 -0.07808,-0.142584 -0.0624,-0.158274 0.01566,-0.01561 0.537486,0.207725 1.159592,0.496385 0.622113,0.288687 1.246463,0.559435 1.387441,0.601662 0.314156,0.09414 0.57367,0.06448 0.598956,-0.06842 0.04699,-0.246962 -5.06181,-7.987506 -7.752654,-11.746388 -1.497891,-2.092405 -4.820158,-6.490415 -6.223831,-8.239072 -1.497333,-1.865339 -3.65692,-4.092813 -5.43461,-5.605436 -1.360131,-1.157314 -2.040642,-1.918997 -3.333221,-3.730811 -1.361427,-1.908307 -2.01952,-2.736664 -2.784364,-3.504776 -1.889593,-1.897618 -3.62412,-2.90195 -5.850035,-3.387275 -0.581091,-0.126709 -0.872329,-0.146077 -2.223826,-0.14785 -1.459529,-0.0026 -1.599935,0.0087 -2.283119,0.173514 -1.792009,0.432144 -2.643131,0.915141 -3.93755,2.234433 -0.466182,0.475139 -0.942747,1.032483 -1.091925,1.277038 l -0.26471,0.433943 -0.860306,-0.03495 c -1.213736,-0.04929 -2.705838,0.137425 -3.599601,0.450427 -0.461901,0.161793 -0.602657,0.293608 -0.602657,0.564436 0,0.211561 0.02114,0.2277 0.843759,0.643705 1.219668,0.61677 2.307728,0.997479 3.797721,1.328737 0.1456,0.03239 0.218665,0.140335 0.440997,0.651563 0.35578,0.818092 0.508238,1.339136 0.642649,2.19628 0.20389,1.300242 0.09074,1.752176 -1.144432,4.570968 -0.496612,1.133342 -0.914519,2.563442 -1.20863,4.136099 -0.205269,1.097571 -0.253087,3.217783 -0.100012,4.43439 0.439838,3.495728 1.757497,6.548146 4.113488,9.529021 0.629015,0.795841 2.384536,2.521374 3.183905,3.129545 2.695549,2.050732 5.918581,3.396377 9.480153,3.958061 0.510736,0.08054 0.928611,0.166184 0.928611,0.190341 0,0.02408 -0.09988,0.160946 -0.221956,0.30398 -0.122076,0.143033 -0.943761,1.138581 -1.825969,2.212313 -3.414186,4.155357 -3.136098,3.851827 -3.750011,4.093207 -0.496917,0.19537 -1.202658,0.32568 -2.199584,0.40611 -0.753555,0.0608 -1.006555,0.0542 -1.720612,-0.0447 -1.099251,-0.15227 -1.589863,-0.14454 -2.1712,0.0342 -0.352986,0.1085 -0.559626,0.22283 -0.81067,0.44855 -0.569527,0.51204 -0.582004,0.50779 1.367136,0.46767 l 1.704065,-0.035 -0.285157,0.13176 c -0.156837,0.0725 -0.631638,0.22048 -1.055111,0.32893 -1.261861,0.32314 -1.822744,0.72424 -2.023758,1.44724 -0.06066,0.21818 -0.110281,0.49266 -0.110281,0.60997 v 0.21331 l 0.2844,-0.27911 c 0.345956,-0.33951 1.016082,-0.61373 1.964524,-0.80388 1.060767,-0.21265 1.643906,-0.37632 2.955488,-0.82952 1.432737,-0.49506 1.439577,-0.47752 0.181187,0.46527 -0.845243,0.63325 -1.302285,1.12122 -1.446459,1.54434 -0.111403,0.32695 -0.13585,0.86802 -0.03922,0.86802 0.0339,0 0.213452,-0.17454 0.39901,-0.3879 0.333195,-0.38307 0.55721,-0.51782 1.106154,-0.66525 0.151985,-0.0408 0.449784,-0.19399 0.661773,-0.34036 1.874851,-1.2945 2.208766,-1.50111 2.770264,-1.71413 0.555379,-0.21071 1.067255,-0.25728 1.912747,-0.17401 1.001935,0.0986 1.488366,0.046 2.036898,-0.22029 0.289319,-0.14044 0.548571,-0.21746 0.742003,-0.22038 0.29909,-0.004 0.336367,0.0143 1.017971,0.51089 0.212336,0.15473 0.341307,0.1588 0.525147,0.0164 0.327949,-0.25376 -0.341127,-1.21443 -1.102513,-1.583 -0.500727,-0.24241 -0.921965,-0.23262 -1.751531,0.0407 -0.395902,0.13042 -0.838293,0.23715 -0.983089,0.23715 -0.299066,0 -1.34874,-0.30213 -1.413449,-0.40682 -0.02347,-0.0379 0.02638,-0.16296 0.110734,-0.27779 0.523324,-0.71236 4.954838,-6.061389 5.19743,-6.273532 0.09399,-0.08218 0.375205,-0.127635 1.150154,-0.185817 1.066734,-0.08014 2.371114,-0.280961 3.590121,-0.552794 0.583154,-0.130042 0.711406,-0.141737 0.711406,-0.0649 0,0.05157 -0.316458,0.709718 -0.703234,1.46259 -0.386778,0.752872 -1.149254,2.247353 -1.694389,3.321073 -1.327361,2.61446 -2.222645,4.26222 -2.478767,4.56217 -0.265644,0.31107 -0.820976,0.56364 -1.610244,0.73231 -0.769463,0.16441 -1.086209,0.19288 -2.910546,0.26159 -1.865717,0.0703 -2.21611,0.15882 -2.753323,0.69603 -0.312687,0.3127 -0.496752,0.64504 -0.406974,0.73481 0.01767,0.0177 0.311592,-0.0395 0.653177,-0.12692 1.075224,-0.27532 2.639475,-0.38264 2.639475,-0.18105 0,0.0687 -0.864891,0.38933 -1.621091,0.60092 -0.594201,0.16626 -0.981152,0.40293 -1.284026,0.78534 -0.182647,0.23061 -0.205218,0.3072 -0.205218,0.6963 0,0.24043 0.02458,0.43717 0.05464,0.43717 0.03005,0 0.124585,-0.0744 0.210069,-0.16545 0.08548,-0.091 0.185383,-0.16545 0.221999,-0.16545 0.03661,0 0.247327,-0.11617 0.468249,-0.25815 0.302603,-0.19447 0.564903,-0.29443 1.06345,-0.40529 0.903176,-0.20081 2.101202,-0.58083 2.991834,-0.94902 1.16922,-0.48337 1.177118,-0.41445 0.0525,0.45815 -0.489442,0.37976 -0.924192,0.77692 -1.065035,0.97295 -0.215905,0.30054 -0.23418,0.35962 -0.196932,0.63685 0.118904,0.88492 0.127357,0.90326 0.316267,0.68607 z m 16.960437,-22.35229 c -1.998088,-0.986816 -3.751995,-1.953366 -5.095653,-2.808129 -1.085051,-0.690271 -3.602072,-2.391092 -3.647628,-2.464805 -0.02326,-0.03762 0.132787,0.04418 0.346769,0.181822 1.061048,0.682439 2.233146,1.373716 3.844202,2.267241 1.597599,0.886063 2.607612,1.432083 5.809681,3.140815 0.926235,0.494242 2.084581,1.197875 2.084581,1.266217 0,0.04567 -1.075132,-0.463656 -3.341952,-1.583161 z m -10.323661,-0.926042 c -2.93289,-1.192397 -3.899537,-1.684496 -5.790514,-2.947775 -1.264611,-0.844842 -1.965764,-1.424464 -3.11294,-2.573338 -1.281482,-1.283388 -1.790096,-1.965484 -2.445699,-3.280013 -0.821828,-1.647772 -1.134386,-2.87364 -1.129652,-4.430501 0.0021,-0.707469 0.03409,-0.996897 0.168465,-1.526619 0.325536,-1.283309 0.978189,-2.282693 1.97185,-3.019452 0.454403,-0.33692 1.216282,-0.784569 1.335307,-0.784569 0.01857,0 -0.24288,0.275458 -0.581036,0.61214 -1.270198,1.264656 -1.833065,2.361883 -2.027517,3.952346 -0.137552,1.125088 -0.03593,2.249197 0.299259,3.310255 0.647957,2.05113 2.395231,4.33496 4.763797,6.226678 1.535469,1.226344 2.685658,1.977787 4.927338,3.219212 1.412181,0.782055 3.067986,1.74879 3.17651,1.85457 0.08474,0.08263 0.07022,0.08226 -0.09927,-0.0026 -0.109194,-0.05461 -0.76435,-0.3293 -1.455902,-0.610473 z M -82.821116,64.417451 c -0.323623,-0.08988 -0.727107,-0.454448 -0.901388,-0.814467 -0.17831,-0.368326 -0.184586,-1.086326 -0.01281,-1.464468 0.442579,-0.974196 1.86241,-1.129136 2.620526,-0.285936 0.419158,0.466223 0.527963,0.940938 0.352087,1.536198 -0.0996,0.337105 -0.653545,0.910722 -0.978358,1.013089 -0.305001,0.09615 -0.765993,0.102791 -1.080064,0.01561 z m 0.849011,-0.581898 c 0.2834,-0.128746 0.653531,-0.50419 0.727829,-0.738293 0.07094,-0.22352 -0.02246,-0.570865 -0.215067,-0.799783 -0.460301,-0.547026 -1.474647,-0.520224 -1.710901,0.04522 -0.242187,0.579623 -0.175877,1.224624 0.15245,1.482884 0.216284,0.170127 0.683337,0.174599 1.045689,0.01005 z m -7.346249,-0.628862 c -1.019133,-0.19894 -2.001864,-0.384783 -2.183852,-0.413014 l -0.330886,-0.0513 0.264708,-0.05218 c 0.449519,-0.08864 1.777868,0.05173 2.71327,0.286676 0.620107,0.15576 1.534166,0.497523 1.595319,0.59645 0.02625,0.04247 -0.0051,0.05474 -0.0815,0.03199 -0.06826,-0.02037 -0.957932,-0.199708 -1.977062,-0.398622 z"
       id="path37" />
  </g>
</svg>
