<svg xmlns="http://www.w3.org/2000/svg" width="911.466" height="132.911" viewBox="0 0 241.159 35.166"><defs><clipPath id="a" clipPathUnits="userSpaceOnUse"><path d="M-9-9h614v860H-9Z" clip-rule="evenodd"/></clipPath></defs><g style="fill:#000"><path d="M325.75 489.534a161 161 0 0 1-16.002-.892c-18.013-1.904-38.14-8.097-57.094-18.676l-.022.002-1.261-.712q-.63-.357-1.257-.724l-.098-.058-.606-.356-.547-.323a153 153 0 0 1-2.494-1.514l-.457-.286-.651-.407-.13-.082a147 147 0 0 1-2.466-1.592q-.47-.31-.938-.625a156 156 0 0 1-3.927-2.717l-.162-.116-.692-.501-.349-.25a150 150 0 0 1-2.383-1.777l-.628-.48-.513-.394-.042-.032a156 156 0 0 1-3.442-2.752l-.062-.05-.571-.477-.581-.483a154 154 0 0 1-2.284-1.959l-.35-.31-.54-.478-.24-.212.012.004a142 142 0 0 1-16.44-17.394l-.026-.006c-.116-.145-.225-.298-.34-.445-.497-.629-.981-1.27-1.468-1.91a136 136 0 0 1-1.555-2.073c-.479-.654-.947-1.319-1.416-1.984a134 134 0 0 1-1.555-2.253 133 133 0 0 1-2.8-4.344q-.591-.951-1.167-1.917c-.492-.826-.971-1.664-1.447-2.505-.378-.668-.757-1.334-1.125-2.01a132 132 0 0 1-1.42-2.707c-.322-.629-.65-1.252-.963-1.888a132 132 0 0 1-1.514-3.21c-.24-.522-.492-1.034-.726-1.561a131 131 0 0 1-2.068-4.913c2.619 6.048 7.968 13.4 15.742 19.823a68 68 0 0 0 6.28 4.606 66.8 66.8 0 0 0 24.013 9.634c10.023 1.893 18.157 2.336 25.702 2.109a137 137 0 0 0 4.665-.225c2.876-.184 5.703-.444 8.56-.737 2.92-.3 5.874-.63 8.94-.944s6.244-.61 9.62-.838 6.947-.387 10.798-.43c3.851-.041 7.98.035 12.474.28 1.537.068 3.013.17 4.449.29.057.005.12.007.176.012l.026.008c40.923 3.519 41.243 27.284 41.242 27.284 21.426 1.946 34.249 7.917 41.925 13.872l.069.012c.734.57 1.404 1.138 2.046 1.704.135.119.262.236.393.354.51.462.949.912 1.401 1.365.48.482.944.955 1.363 1.424.317.353.609.69.892 1.034a33 33 0 0 1 1.742 2.287c.295.43.556.833.8 1.231.172.281.34.551.49.814.215.38.393.719.563 1.056.111.222.229.44.322.642.158.339.276.618.387.894.06.149.114.264.163.393.274.725.383 1.156.382 1.156a84 84 0 0 0-3.06-.924c-.41-.115-.813-.213-1.22-.32a81 81 0 0 0-1.82-.47c-.438-.105-.873-.197-1.308-.294-.562-.125-1.123-.251-1.68-.363-.484-.097-.964-.183-1.446-.27a81 81 0 0 0-1.477-.26q-.5-.079-1-.152a83 83 0 0 0-4.89-.573c-.88-.079-1.753-.126-2.627-.178-21.374-1.271-41.224 5.21-68.29 5.043" clip-path="url(#a)" style="display:inline;fill:#000;fill-opacity:1;fill-rule:evenodd;stroke:none" transform="matrix(.2578 0 0 -.2578 -46.873 136.646)"/><path d="M.132 35.298S4.734 18.903 24.8 11.715c9.497-3.402 19.405-1.639 24.362-.986 5.451.717 10.701-.543 10.701-.543s-4.878-1.728-10.133-4.66c-7.454-4.158-12.666-1.222-12.666-1.222s1.4-2.378.55-3.246c-2.311-2.355-11.057 1.877-11.057 1.877S27.906.132 25.57.132c-1.83 0-9.219 2.718-14.162 8.599C.152 22.12.132 35.298.132 35.298" style="fill:#000;fill-opacity:1;stroke:none;stroke-width:.264583px;stroke-linecap:butt;stroke-linejoin:miter;stroke-opacity:1" transform="translate(-.132 -.132)"/></g><g style="fill:#000"><g aria-label="Partneriaeth Natur Ceredigion" style="font-weight:700;font-size:13.6548px;line-height:1.25;font-family:&quot;IBM Plex Sans&quot;;-inkscape-font-specification:&quot;IBM Plex Sans Bold&quot;;text-align:center;text-anchor:middle;display:inline;stroke-width:.341373"><path d="M66.052 13.933q.45-.028.642-.192.205-.163.26-.491.054-.328.054-.833v-5.68q0-.3.014-.574.013-.287.027-.492-.232.014-.505.028-.273.013-.492.027v-.751q.806-.014 1.639-.014.833-.013 1.693-.013 1.284 0 2.171.314.901.3 1.38.928.49.615.505 1.557.013.532-.192 1.106-.204.56-.696 1.051-.492.478-1.338.779-.833.3-2.103.3-.137.014-.314.014-.164 0-.341-.014v1.72q0 .37-.014.67 0 .286-.027.464.19-.014.41-.027.218-.014.423-.014l.396-.027v.764h-3.592zm2.404-3.674q.232.028.396.041h.41q.764 0 1.351-.286.587-.287.915-.833.328-.547.328-1.298 0-.655-.205-1.092-.191-.45-.546-.696-.342-.26-.792-.369-.451-.11-.956-.11-.41 0-.601.165-.191.163-.246.478t-.054.805zM77.769 14.533q-.027-.218-.041-.382t-.041-.341q-.464.464-.997.71-.532.232-1.106.232-.983 0-1.488-.478-.492-.492-.492-1.215 0-.628.369-1.093t.97-.75q.6-.301 1.31-.438.71-.15 1.393-.15v-.806q0-.436-.082-.805-.082-.383-.341-.615-.246-.245-.779-.245-.355-.014-.71.136-.355.137-.546.464.11.11.137.26.04.136.04.26 0 .19-.163.436-.164.232-.56.219-.328 0-.505-.219-.164-.232-.164-.532 0-.492.355-.874.369-.383.997-.601.628-.219 1.406-.219 1.174 0 1.748.615.587.614.587 1.939v.942q0 .45-.014.901v.956q0 .205-.013.464-.014.26-.041.547l.478-.028q.246-.013.464-.013v.723zm-.123-3.277q-.437.028-.901.123-.45.096-.82.287-.368.191-.6.491-.219.3-.219.724.028.464.3.683.287.218.67.218.478 0 .846-.177.369-.191.724-.519-.014-.15-.014-.3v-.792q.014-.342.014-.738M80.828 13.96q.41 0 .573-.191.164-.191.191-.533.041-.341.041-.792V9.14q.014-.26.055-.506l-.492.028q-.26 0-.478.013v-.723h.465q.573 0 .874-.123.3-.123.436-.26h.492q.027.192.041.533t.027.765q.26-.383.601-.683.341-.314.737-.505.41-.192.847-.192.423 0 .724.233.314.218.314.723 0 .137-.082.314-.068.178-.246.314-.164.123-.45.123-.287-.013-.506-.218-.205-.205-.19-.56-.329 0-.656.205-.328.191-.615.519-.273.327-.464.71v2.99q0 .246-.014.505 0 .246-.04.506.218-.014.45-.014l.423-.027v.723h-3.058zM89.63 14.752q-.341 0-.696-.096-.341-.082-.628-.341-.287-.273-.45-.778-.165-.506-.165-1.339l.028-3.727h-1.01v-.765q.368-.014.75-.273.383-.26.67-.697.286-.436.395-.942h.642v1.912h2.103v.71l-2.103.027-.027 3.646q0 .519.082.915.095.382.3.6.219.206.587.206.314 0 .642-.192.341-.19.642-.628l.464.41q-.328.478-.655.751-.328.273-.628.396-.3.137-.547.164-.245.04-.396.04M92.43 14.533v-.573q.41 0 .573-.191.164-.191.191-.533.041-.341.041-.792l.014-2.84V9.14q.014-.26.055-.506l-.506.028q-.246 0-.464.013v-.723q.614 0 .956-.055.355-.068.532-.15.192-.082.287-.178h.492q.013.123.013.233.014.109.014.232.014.123.027.314.3-.246.656-.437.355-.191.737-.3.396-.124.751-.124 1.215 0 1.748.738.546.737.546 2.308v2.307q0 .246-.014.505-.013.246-.04.506.218-.014.436-.014l.424-.027v.723h-3.045v-.573q.41 0 .573-.191.164-.191.191-.533.041-.341.041-.792v-1.911q-.013-1.08-.355-1.625-.327-.547-1.065-.533-.437 0-.86.219-.423.218-.71.532v3.715q0 .245-.014.504-.013.246-.04.506.218-.014.436-.014l.424-.027v.723zM104.132 14.752q-.956 0-1.72-.437-.752-.45-1.189-1.256-.437-.82-.437-1.926 0-.956.424-1.788.437-.833 1.215-1.339.778-.519 1.802-.519.574 0 1.08.178.518.178.914.56.41.369.642.97.232.586.232 1.433l-4.697.082q0 .929.204 1.652.219.724.697 1.12t1.242.396q.37 0 .779-.123.423-.137.792-.382.382-.246.642-.587l.423.368q-.41.615-.942.97-.533.341-1.093.478-.546.15-1.01.15M102.452 10h3.155q0-.519-.15-.929-.137-.423-.438-.669-.3-.245-.764-.245-.724 0-1.188.464-.465.45-.615 1.379M108.242 13.96q.41 0 .573-.191.164-.191.192-.533.04-.341.04-.792V9.14q.014-.26.055-.506l-.491.028q-.26 0-.478.013v-.723h.464q.573 0 .874-.123.3-.123.437-.26h.491q.028.192.041.533t.028.765q.26-.383.6-.683.342-.314.738-.505.41-.192.846-.192.424 0 .724.233.314.218.314.723 0 .137-.082.314-.068.178-.245.314-.164.123-.451.123-.287-.013-.505-.218-.205-.205-.191-.56-.328 0-.656.205-.328.191-.614.519-.273.327-.465.71v2.99q0 .246-.013.505 0 .246-.041.506.218-.014.45-.014l.424-.027v.723h-3.06zM114.373 13.96q.41 0 .573-.191.164-.191.192-.533.04-.341.04-.792V9.618q0-.232.014-.465.014-.245.041-.519l-.491.028q-.26 0-.478.013v-.723q.614 0 .97-.055.368-.068.559-.15.205-.082.3-.178h.52v5.271q0 .246-.014.505-.014.246-.041.506.218-.014.437-.014l.423-.027v.723h-3.045zm1.447-7.647q-.355 0-.6-.26-.246-.272-.246-.655 0-.382.26-.641.259-.274.586-.274.355 0 .587.274.246.259.246.641 0 .383-.246.656-.232.26-.587.26M122.443 14.533q-.027-.218-.041-.382t-.041-.341q-.464.464-.997.71-.532.232-1.106.232-.983 0-1.488-.478-.492-.492-.492-1.215 0-.628.369-1.093.368-.464.97-.75.6-.301 1.31-.438.71-.15 1.393-.15v-.806q0-.436-.082-.805-.082-.383-.341-.615-.246-.245-.779-.245-.355-.014-.71.136-.355.137-.546.464.11.11.137.26.04.136.04.26 0 .19-.163.436-.164.232-.56.219-.328 0-.505-.219-.164-.232-.164-.532 0-.492.355-.874.369-.383.997-.601.628-.219 1.406-.219 1.174 0 1.748.615.587.614.587 1.939v.942q0 .45-.014.901v.956q0 .205-.013.464-.014.26-.041.547l.478-.028q.245-.013.464-.013v.723zm-.123-3.277q-.437.028-.901.123-.45.096-.82.287-.368.191-.6.491-.219.3-.219.724.027.464.3.683.287.218.67.218.478 0 .846-.177.369-.191.724-.519-.014-.15-.014-.3v-.792q.014-.342.014-.738M128.779 14.752q-.956 0-1.72-.437-.752-.45-1.189-1.256-.437-.82-.437-1.926 0-.956.424-1.788.437-.833 1.215-1.339.778-.519 1.802-.519.574 0 1.079.178.519.178.915.56.41.369.642.97.232.586.232 1.433l-4.697.082q0 .929.204 1.652.219.724.697 1.12t1.242.396q.369 0 .779-.123.423-.137.792-.382.382-.246.641-.587l.424.368q-.41.615-.942.97-.533.341-1.093.478-.546.15-1.01.15M127.099 10h3.154q0-.519-.15-.929-.136-.423-.437-.669-.3-.245-.764-.245-.724 0-1.188.464-.465.45-.615 1.379M135.433 14.752q-.341 0-.696-.096-.342-.082-.628-.341-.287-.273-.451-.778-.164-.506-.164-1.339l.027-3.727h-1.01v-.765q.369-.014.751-.273.382-.26.67-.697.286-.436.395-.942h.642v1.912h2.103v.71l-2.103.027-.027 3.646q0 .519.081.915.096.382.3.6.22.206.588.206.314 0 .642-.192.341-.19.642-.628l.464.41q-.328.478-.656.751-.327.273-.628.396-.3.137-.546.164-.246.04-.396.04M142.506 13.96q.41 0 .574-.191.177-.191.205-.533.04-.341.04-.792l-.013-1.911q0-1.08-.341-1.612-.328-.546-1.066-.532-.45.013-.887.218-.423.205-.71.52v3.713q0 .246-.014.505-.014.246-.04.506.218-.014.436-.014l.423-.027v.723h-3.045v-.573q.41 0 .574-.191t.205-.533q.04-.341.04-.792V5.808q.014-.246.042-.519-.232.014-.492.027-.26 0-.478.014v-.724q.615 0 .983-.054.37-.069.56-.15.205-.082.3-.178h.506v4.124q.3-.246.669-.437t.751-.3q.396-.124.737-.124 1.216 0 1.734.738.533.737.547 2.308v2.307q0 .246-.014.505 0 .246-.04.506.218-.014.45-.014l.423-.027v.723h-3.059zM157.636 14.725l-5.08-6.746q-.15-.177-.287-.369l-.286-.396h-.014l.041 5.312q0 .341-.014.683 0 .341-.027.628.232-.027.505-.027.287-.014.492-.028v.751h-2.704v-.6q.383 0 .574-.15.205-.15.273-.397.082-.245.082-.573V6.149q0-.273.013-.478-.218.014-.491.028-.26.013-.464.027v-.751h1.802l4.806 6.322q.233.3.41.56.191.26.369.492h.013l.014-5.613q0-.3.014-.573.013-.287.027-.492l-.519.028q-.273.013-.478.027v-.751h2.704v.6q-.437.014-.642.192-.191.164-.246.492-.04.314-.04.832l-.014 7.634zM164.186 14.533q-.027-.218-.04-.382-.015-.164-.042-.341-.464.464-.997.71-.532.232-1.106.232-.983 0-1.488-.478-.492-.492-.492-1.215 0-.628.369-1.093t.97-.75q.6-.301 1.31-.438.71-.15 1.393-.15v-.806q0-.436-.082-.805-.082-.383-.341-.615-.246-.245-.778-.245-.355-.014-.71.136-.355.137-.547.464.11.11.137.26.04.136.04.26 0 .19-.163.436-.164.232-.56.219-.328 0-.505-.219-.164-.232-.164-.532 0-.492.355-.874.369-.383.997-.601.628-.219 1.406-.219 1.175 0 1.748.615.587.614.587 1.939v.942q0 .45-.013.901v.956q0 .205-.014.464-.014.26-.041.547l.478-.028q.246-.013.464-.013v.723zm-.123-3.277q-.437.028-.901.123-.45.096-.82.287-.368.191-.6.491-.219.3-.219.724.028.464.3.683.288.218.67.218.478 0 .847-.177.368-.191.723-.519-.013-.15-.013-.3v-.792q.013-.342.013-.738M169.77 14.752q-.34 0-.695-.096-.342-.082-.629-.341-.286-.273-.45-.778-.164-.506-.164-1.339l.027-3.727h-1.01v-.765q.368-.014.75-.273.383-.26.67-.697t.396-.942h.642v1.912h2.103v.71l-2.103.027-.028 3.646q0 .519.082.915.096.382.3.6.22.206.588.206.314 0 .642-.192.341-.19.641-.628l.465.41q-.328.478-.656.751t-.628.396q-.3.137-.546.164-.246.04-.396.04M175.438 14.752q-.765 0-1.27-.287-.492-.287-.738-.942-.245-.67-.245-1.762V9.14q.013-.26.054-.506l-.491.028q-.26 0-.465.013v-.723h.328q.683 0 1.024-.123.342-.123.478-.26h.519v4.165q0 1.079.3 1.611.3.533 1.01.52.465 0 .888-.274.437-.273.71-.642V9.713q0-.3.014-.56.014-.273.055-.519l-.505.028q-.26 0-.478.013v-.723h.396q.6 0 .942-.123t.491-.26h.52l-.014 5.025q0 .219-.014.601-.014.369-.041.656l.478-.028q.26-.013.478-.013v.723h-2.171q-.028-.218-.055-.41-.014-.19-.04-.368-.424.396-.984.696t-1.174.3M180.818 13.96q.41 0 .573-.191.164-.191.191-.533.041-.341.041-.792V9.14q.014-.26.055-.506l-.492.028q-.26 0-.478.013v-.723h.465q.573 0 .874-.123.3-.123.437-.26h.491q.027.192.041.533t.027.765q.26-.383.601-.683.342-.314.738-.505.41-.192.846-.192.424 0 .724.233.314.218.314.723 0 .137-.082.314-.068.178-.246.314-.164.123-.45.123-.287-.013-.506-.218-.204-.205-.19-.56-.328 0-.656.205-.328.191-.615.519-.273.327-.464.71v2.99q0 .246-.014.505 0 .246-.04.506.218-.014.45-.014l.423-.027v.723h-3.058zM198.064 8.02q-.15-1.229-.847-1.884-.696-.67-1.816-.683-.71 0-1.31.314-.602.314-1.039.888-.437.56-.682 1.338-.232.764-.232 1.68 0 1.242.436 2.211.437.956 1.202 1.489.778.532 1.762.532.873 0 1.72-.41.86-.423 1.42-1.187l.45.382q-.614.847-1.31 1.297t-1.393.601q-.683.164-1.242.164-1.025 0-1.885-.369t-1.488-1.024q-.615-.669-.956-1.543-.328-.888-.328-1.912 0-.955.3-1.87.301-.915.888-1.653.587-.75 1.475-1.188.901-.436 2.09-.436.696 0 1.35.19.67.192 1.284.588l-.068-.683h.847V8.02zM203.307 14.752q-.956 0-1.72-.437-.751-.45-1.188-1.256-.437-.82-.437-1.926 0-.956.423-1.788.437-.833 1.215-1.339.779-.519 1.803-.519.573 0 1.078.178.52.178.915.56.41.369.642.97.232.586.232 1.433l-4.697.082q0 .929.205 1.652.218.724.696 1.12t1.243.396q.368 0 .778-.123.423-.137.792-.382.382-.246.642-.587l.423.368q-.41.615-.942.97-.533.341-1.092.478-.547.15-1.01.15M201.627 10h3.155q0-.519-.15-.929-.137-.423-.437-.669-.3-.245-.765-.245-.724 0-1.188.464-.464.45-.614 1.379M207.417 13.96q.41 0 .574-.191t.19-.533q.042-.341.042-.792V9.14q.014-.26.054-.506l-.491.028q-.26 0-.478.013v-.723h.464q.574 0 .874-.123t.437-.26h.492q.027.192.04.533t.028.765q.26-.383.6-.683.342-.314.738-.505.41-.192.847-.192.423 0 .723.233.315.218.315.723 0 .137-.082.314-.069.178-.246.314-.164.123-.45.123-.288-.013-.506-.218-.205-.205-.191-.56-.328 0-.656.205-.327.191-.614.519-.273.327-.464.71v2.99q0 .246-.014.505 0 .246-.041.506.218-.014.45-.014l.424-.027v.723h-3.059zM216.725 14.752q-.956 0-1.72-.437-.751-.45-1.188-1.256-.437-.82-.437-1.926 0-.956.423-1.788.437-.833 1.215-1.339.779-.519 1.803-.519.573 0 1.079.178.518.178.914.56.41.369.642.97.232.586.232 1.433l-4.697.082q0 .929.205 1.652.218.724.696 1.12t1.243.396q.369 0 .778-.123.423-.137.792-.382.383-.246.642-.587l.423.368q-.41.615-.942.97-.532.341-1.092.478-.547.15-1.01.15M215.045 10h3.155q0-.519-.15-.929-.137-.423-.437-.669-.3-.245-.765-.245-.724 0-1.188.464-.464.45-.614 1.379M223.616 14.752q-.833 0-1.488-.41-.642-.423-1.024-1.201-.369-.779-.369-1.83 0-1.12.437-1.98t1.23-1.352 1.802-.492q.423 0 .805.11.396.095.656.232V6.272q0-.205.013-.45.014-.26.041-.533l-.505.027q-.26.014-.464.014v-.724q.614 0 .97-.054.368-.069.559-.15.205-.082.3-.178h.506v8.616q0 .205-.014.464-.014.26-.041.547l.492-.028q.245-.013.45-.013v.723h-2.171q-.027-.19-.055-.355l-.027-.327q-.41.437-.942.669-.533.232-1.16.232m.56-.86q.424 0 .82-.233.41-.232.669-.587V8.58q-.26-.191-.615-.287-.341-.11-.71-.11-.669 0-1.133.397-.45.382-.67 1.051-.218.67-.204 1.53.027.737.232 1.365t.6.997q.41.369 1.011.369M228.942 13.96q.41 0 .573-.191.164-.191.191-.533.041-.341.041-.792V9.618q0-.232.014-.465.014-.245.041-.519l-.491.028q-.26 0-.478.013v-.723q.614 0 .97-.055.368-.068.559-.15.205-.082.3-.178h.52v5.271q0 .246-.014.505-.014.246-.041.506.218-.014.436-.014l.424-.027v.723h-3.045zm1.447-7.647q-.355 0-.6-.26-.246-.272-.246-.655 0-.382.259-.641.26-.274.587-.274.355 0 .587.274.246.259.246.641 0 .383-.246.656-.232.26-.587.26M236.151 18.234q-1.201 0-1.939-.273-.723-.26-1.05-.683-.315-.41-.315-.874 0-.369.164-.683.177-.314.464-.56.287-.232.642-.368-.478-.15-.724-.423-.246-.287-.246-.697 0-.437.342-.86.355-.423 1.01-.574-.614-.273-.983-.792t-.382-1.229q-.014-.819.41-1.433.436-.615 1.105-.956.683-.342 1.42-.342.424 0 .874.123.451.11.82.355.15-.396.396-.723.246-.328.573-.52.342-.19.71-.19.396 0 .601.204.205.205.205.547 0 .109-.068.273-.055.15-.205.26-.15.108-.41.108-.218 0-.396-.136-.164-.15-.205-.355-.286.054-.478.341-.177.273-.232.56.355.314.546.751.205.423.205.915 0 .778-.423 1.38-.41.6-1.079.941-.669.342-1.447.342-.232 0-.437-.028-.205-.04-.45-.04-.438 0-.724.204-.273.205-.205.492.068.3.573.396.506.095 1.461.136 1.052.041 1.803.26.764.205 1.174.642.423.436.423 1.188 0 .56-.314.996-.3.437-.819.724-.505.3-1.133.45t-1.257.15m.123-.67q1.106 0 1.707-.409.615-.41.615-.928 0-.437-.3-.683-.301-.232-.847-.342-.533-.095-1.257-.109-.355-.027-.723-.04-.369-.014-.683-.069-.314.218-.492.533-.163.314-.177.655 0 .628.587 1.01.587.383 1.57.383m-.177-5.543q.464 0 .765-.232.314-.246.464-.642.164-.41.164-.888 0-.56-.164-1.051-.164-.492-.478-.792t-.806-.3q-.669 0-1.038.532-.368.533-.368 1.284 0 .6.164 1.078.177.465.505.738t.792.273M240.853 13.96q.41 0 .574-.191t.191-.533q.041-.341.041-.792V9.618q0-.232.014-.465.013-.245.04-.519l-.49.028q-.26 0-.479.013v-.723q.615 0 .97-.055.368-.068.56-.15.204-.082.3-.178h.519v5.271q0 .246-.014.505-.014.246-.04.506.218-.014.436-.014l.423-.027v.723h-3.045zm1.448-7.647q-.355 0-.601-.26-.246-.272-.246-.655 0-.382.26-.641.259-.274.587-.274.355 0 .587.274.246.259.246.641 0 .383-.246.656-.232.26-.587.26M248.268 14.752q-.97 0-1.748-.437t-1.243-1.215q-.45-.792-.45-1.816 0-1.107.45-1.953.465-.86 1.243-1.352t1.734-.492q.97 0 1.748.451.778.437 1.229 1.229.464.778.464 1.802 0 1.08-.45 1.94-.451.86-1.23 1.351-.764.492-1.747.492m.095-.683q.656-.014 1.025-.41.382-.396.546-1.01.164-.628.164-1.297 0-.587-.11-1.147-.095-.574-.314-1.038-.218-.464-.573-.737-.355-.287-.86-.273-.642 0-1.052.396-.396.396-.587 1.024-.178.614-.178 1.31 0 .806.205 1.53t.628 1.188q.437.464 1.106.464M252.801 14.533v-.573q.41 0 .574-.191t.19-.533q.042-.341.042-.792l.014-2.84V9.14q.013-.26.054-.506l-.505.028q-.246 0-.464.013v-.723q.614 0 .956-.055.355-.068.532-.15.191-.082.287-.178h.491q.014.123.014.233.014.109.014.232.013.123.027.314.3-.246.656-.437.355-.191.737-.3.396-.124.75-.124 1.216 0 1.749.738.546.737.546 2.308v2.307q0 .246-.014.505-.013.246-.04.506.218-.014.436-.014l.423-.027v.723h-3.045v-.573q.41 0 .574-.191t.191-.533q.041-.341.041-.792v-1.911q-.014-1.08-.355-1.625-.328-.547-1.065-.533-.437 0-.86.219-.424.218-.71.532v3.715q0 .245-.014.504-.014.246-.04.506.218-.014.436-.014l.423-.027v.723z" style="font-weight:500;font-family:Lora;-inkscape-font-specification:&quot;Lora Medium&quot;;text-align:start;text-anchor:start" transform="translate(5.79 1.394)scale(.90432)"/></g><g aria-label="Ceredigion Nature Partnership" style="font-weight:700;font-size:13.511px;line-height:1.25;font-family:&quot;IBM Plex Sans&quot;;-inkscape-font-specification:&quot;IBM Plex Sans Bold&quot;;text-align:center;letter-spacing:0;text-anchor:middle;display:inline;stroke-width:.337779"><path d="M73.617 21.057q-.149-1.216-.838-1.864-.689-.662-1.797-.676-.703 0-1.297.311-.594.31-1.027.878-.432.554-.675 1.324-.23.757-.23 1.662 0 1.23.432 2.19.433.945 1.19 1.472.77.527 1.742.527.865 0 1.703-.406.85-.418 1.405-1.175l.446.378q-.608.838-1.297 1.284-.69.446-1.379.594-.675.162-1.23.162-1.012 0-1.864-.364-.85-.365-1.472-1.014-.608-.662-.946-1.527-.324-.878-.324-1.891 0-.946.297-1.851t.878-1.635q.581-.743 1.46-1.175.891-.433 2.066-.433.69 0 1.338.19.662.189 1.27.58l-.067-.675h.837v3.134zM78.805 27.718q-.946 0-1.702-.432-.744-.446-1.176-1.243-.432-.81-.432-1.905 0-.946.419-1.77.432-.824 1.202-1.324.77-.513 1.784-.513.567 0 1.067.175.513.176.905.554.405.365.635.96.23.58.23 1.418l-4.648.081q0 .919.203 1.635.216.716.689 1.108t1.23.392q.364 0 .77-.122.418-.135.783-.378.378-.243.635-.581l.419.365q-.405.608-.932.959-.527.338-1.081.473-.54.148-1 .148m-1.662-4.701h3.121q0-.514-.149-.92-.135-.418-.432-.661t-.756-.243q-.717 0-1.176.459-.46.446-.608 1.365M82.872 26.935q.405 0 .567-.19.162-.189.19-.526.04-.338.04-.784v-3.27q.013-.256.054-.5-.23.014-.486.027-.257 0-.473.014v-.716h.459q.567 0 .865-.122.297-.121.432-.256h.486q.027.189.041.527.014.337.027.756.257-.378.595-.675.337-.311.73-.5.404-.19.837-.19.419 0 .716.23.31.216.31.716 0 .135-.08.311-.068.176-.244.31-.162.122-.446.122-.283-.013-.5-.216-.202-.202-.189-.554-.324 0-.648.203-.324.19-.608.513-.27.325-.46.703v2.959q0 .243-.013.5 0 .243-.04.5.216-.014.445-.014.23-.013.42-.027v.716h-3.027zM92.082 27.718q-.946 0-1.703-.432-.743-.446-1.175-1.243-.432-.81-.432-1.905 0-.946.418-1.77.433-.824 1.203-1.324.77-.513 1.783-.513.568 0 1.068.175.513.176.905.554.405.365.635.96.23.58.23 1.418l-4.648.081q0 .919.203 1.635.216.716.689 1.108.472.392 1.23.392.364 0 .77-.122.418-.135.783-.378.378-.243.635-.581l.419.365q-.406.608-.933.959-.527.338-1.08.473-.54.148-1 .148m-1.662-4.701h3.12q0-.514-.148-.92-.135-.418-.432-.661t-.757-.243q-.716 0-1.175.459-.46.446-.608 1.365M98.9 27.718q-.824 0-1.472-.405-.635-.419-1.014-1.189-.365-.77-.365-1.81 0-1.108.433-1.96.432-.85 1.216-1.337.783-.486 1.783-.486.42 0 .797.108.392.094.649.23v-1.541q0-.203.013-.446.014-.257.041-.527l-.5.027q-.257.014-.46.014v-.716q.609 0 .96-.054.365-.068.554-.149.203-.081.297-.176h.5v8.526q0 .202-.013.46-.014.256-.041.54l.486-.027q.244-.014.446-.014v.716h-2.148q-.027-.189-.054-.351l-.027-.324q-.405.432-.932.662t-1.149.23m.554-.85q.42 0 .81-.23.406-.23.663-.581V21.61q-.257-.189-.608-.283-.338-.108-.703-.108-.662 0-1.121.391-.446.379-.662 1.04-.216.663-.203 1.514.027.73.23 1.351.203.622.594.986.406.365 1 .365M104.17 26.935q.405 0 .567-.19.162-.189.19-.526.04-.338.04-.784v-2.797q0-.23.013-.46.014-.242.04-.513-.229.014-.486.027-.256 0-.473.014v-.716q.608 0 .96-.054.365-.068.554-.149.202-.08.297-.175h.513v5.215q0 .243-.013.5-.014.243-.04.5.215-.014.432-.014.23-.013.419-.027v.716h-3.013zm1.432-7.566q-.352 0-.595-.257-.243-.27-.243-.649 0-.378.257-.635.256-.27.58-.27.352 0 .582.27.243.257.243.635 0 .379-.243.649-.23.257-.581.257M111.303 31.164q-1.189 0-1.918-.27-.716-.257-1.04-.676-.311-.405-.311-.865 0-.365.162-.675.176-.311.46-.554.283-.23.634-.365-.473-.149-.716-.419-.243-.284-.243-.689 0-.432.338-.851.351-.419 1-.568-.608-.27-.973-.783-.365-.514-.379-1.216-.013-.81.406-1.419.432-.608 1.094-.946.676-.337 1.405-.337.42 0 .865.121.446.108.81.351.15-.391.393-.716t.567-.513q.338-.19.703-.19.391 0 .594.203t.203.54q0 .109-.068.271-.054.149-.203.257-.148.108-.405.108-.216 0-.392-.135-.162-.149-.202-.352-.284.055-.473.338-.176.27-.23.554.351.31.54.743.203.42.203.906 0 .77-.419 1.364-.405.595-1.067.932t-1.432.338q-.23 0-.433-.027-.202-.04-.445-.04-.433 0-.717.202-.27.203-.202.487.067.297.567.392.5.094 1.446.135 1.04.04 1.783.256.757.203 1.162.635.42.433.42 1.176 0 .554-.312.986-.297.432-.81.716-.5.297-1.122.446-.621.149-1.243.149m.122-.662q1.094 0 1.689-.406.608-.405.608-.918 0-.433-.297-.676-.298-.23-.838-.338-.527-.094-1.243-.108-.351-.027-.716-.04t-.676-.068q-.31.216-.486.527-.162.31-.176.649 0 .621.581 1 .581.378 1.554.378m-.176-5.486q.46 0 .757-.23.31-.243.46-.635.161-.405.161-.878 0-.554-.162-1.04t-.473-.784-.797-.297q-.662 0-1.027.527t-.364 1.27q0 .594.162 1.067.175.46.5.73.324.27.783.27M115.956 26.935q.405 0 .567-.19.162-.189.19-.526.04-.338.04-.784v-2.797q0-.23.013-.46.014-.242.04-.513-.229.014-.486.027-.256 0-.472.014v-.716q.608 0 .959-.054.365-.068.554-.149.202-.08.297-.175h.513v5.215q0 .243-.013.5-.014.243-.04.5.216-.014.432-.014.23-.013.419-.027v.716h-3.013zm1.432-7.566q-.351 0-.595-.257-.243-.27-.243-.649 0-.378.257-.635.257-.27.58-.27.352 0 .582.27.243.257.243.635 0 .379-.243.649-.23.257-.581.257M123.292 27.718q-.96 0-1.73-.432t-1.229-1.202q-.446-.784-.446-1.797 0-1.095.446-1.933.46-.85 1.23-1.337.77-.486 1.716-.486.959 0 1.73.445.77.433 1.215 1.216.46.77.46 1.784 0 1.067-.446 1.918-.446.852-1.216 1.338-.757.486-1.73.486m.095-.675q.648-.014 1.013-.406.378-.391.54-1 .163-.62.163-1.283 0-.58-.108-1.135-.095-.567-.311-1.027t-.568-.73q-.35-.283-.85-.27-.636 0-1.041.392-.392.392-.581 1.014-.176.608-.176 1.297 0 .797.203 1.513t.621 1.175q.433.46 1.095.46M127.778 27.502v-.567q.405 0 .567-.19.162-.189.19-.526.04-.338.04-.784l.013-2.81v-.46q.014-.256.054-.5l-.5.027q-.243 0-.459.014v-.716q.608 0 .946-.054.351-.068.527-.149.189-.08.284-.175h.486q.013.121.013.23.014.107.014.229.013.122.027.31.297-.242.649-.432.35-.189.73-.297.39-.121.742-.121 1.203 0 1.73.73.54.729.54 2.282v2.284q0 .243-.013.5-.014.243-.04.5.215-.014.431-.014.23-.013.42-.027v.716h-3.014v-.567q.406 0 .568-.19.162-.189.189-.526.04-.338.04-.784v-1.892q-.013-1.067-.35-1.607-.325-.54-1.055-.527-.432 0-.85.216-.42.216-.703.527v3.675q0 .243-.014.5-.013.243-.04.5.216-.014.432-.014.23-.013.419-.027v.716zM147.126 27.691l-5.027-6.674q-.148-.176-.283-.365t-.284-.392h-.013l.04 5.256q0 .338-.013.676 0 .337-.027.621.23-.027.5-.027.283-.013.486-.027v.743h-2.675v-.594q.378 0 .567-.149.203-.149.27-.392.081-.243.081-.567v-6.593q0-.27.014-.473l-.486.027q-.257.013-.46.027v-.744h1.784l4.756 6.256q.23.297.405.554.189.257.365.486h.013l.014-5.553q0-.297.013-.567.014-.284.027-.486l-.513.027q-.27.013-.473.027v-.744h2.675v.595q-.432.013-.635.19-.19.161-.243.486-.04.31-.04.824l-.014 7.552zM153.603 27.502q-.027-.216-.04-.378t-.041-.338q-.46.46-.987.703-.527.23-1.094.23-.973 0-1.473-.474-.486-.486-.486-1.202 0-.622.365-1.08.364-.46.959-.744.594-.297 1.297-.432.703-.149 1.378-.149v-.797q0-.432-.08-.797-.082-.379-.339-.608-.243-.243-.77-.243-.351-.014-.702.135-.352.135-.54.459.107.108.134.257.04.135.04.256 0 .19-.161.433-.163.23-.554.216-.325 0-.5-.216-.162-.23-.162-.527 0-.487.35-.865.366-.378.987-.594.622-.216 1.392-.216 1.162 0 1.73.608.58.608.58 1.918v.932q0 .446-.013.892v.946q0 .202-.014.46-.013.256-.04.54l.473-.027q.243-.014.459-.014v.716zm-.122-3.242q-.432.027-.892.121-.445.095-.81.284t-.595.486q-.216.298-.216.716.027.46.297.676.284.216.662.216.473 0 .838-.176.365-.189.716-.513-.013-.149-.013-.297v-.784q.013-.338.013-.73M159.129 27.718q-.338 0-.69-.094-.337-.081-.62-.338-.285-.27-.447-.77t-.162-1.324l.027-3.689h-1v-.756q.365-.014.743-.27.379-.257.662-.69t.392-.932h.635v1.892h2.081v.702l-2.08.027-.028 3.608q0 .513.081.905.095.378.298.594.216.203.58.203.311 0 .636-.19.337-.188.635-.62l.459.405q-.324.473-.649.743-.324.27-.621.392-.297.135-.54.162-.244.04-.392.04M164.736 27.718q-.757 0-1.257-.283-.486-.284-.73-.933-.243-.662-.243-1.743v-2.594q.014-.256.054-.5-.23.014-.486.027-.257 0-.46.014v-.716h.325q.675 0 1.013-.122.338-.121.473-.256h.514v4.12q0 1.068.297 1.595t1 .513q.459 0 .878-.27.432-.27.702-.635v-3.202q0-.297.014-.554.013-.27.054-.514l-.5.027q-.257 0-.473.014v-.716h.392q.594 0 .932-.122.338-.121.487-.256h.513l-.014 4.972q0 .216-.013.594-.014.365-.04.649l.472-.027q.257-.014.473-.014v.716h-2.148q-.027-.216-.054-.405-.013-.19-.04-.365-.42.392-.973.69-.554.296-1.162.296M170.06 26.935q.404 0 .567-.19.162-.189.189-.526.04-.338.04-.784v-3.27q.014-.256.054-.5-.23.014-.486.027-.257 0-.473.014v-.716h.46q.567 0 .864-.122.297-.121.432-.256h.487q.027.189.04.527.014.337.027.756.257-.378.595-.675.337-.311.73-.5.405-.19.837-.19.419 0 .716.23.31.216.31.716 0 .135-.08.311-.068.176-.243.31-.163.122-.446.122-.284-.013-.5-.216-.203-.202-.19-.554-.324 0-.648.203-.324.19-.608.513-.27.325-.46.703v2.959q0 .243-.013.5 0 .243-.04.5.216-.014.446-.014.23-.013.418-.027v.716h-3.026zM179.27 27.718q-.947 0-1.703-.432-.743-.446-1.176-1.243-.432-.81-.432-1.905 0-.946.419-1.77.432-.824 1.202-1.324.77-.513 1.784-.513.567 0 1.067.175.513.176.905.554.406.365.635.96.23.58.23 1.418l-4.648.081q0 .919.203 1.635.216.716.689 1.108t1.23.392q.364 0 .77-.122.418-.135.783-.378.378-.243.635-.581l.419.365q-.405.608-.932.959-.527.338-1.081.473-.54.148-1 .148m-1.663-4.701h3.121q0-.514-.148-.92-.135-.418-.433-.661-.297-.243-.756-.243-.716 0-1.176.459-.46.446-.608 1.365M187.024 26.908q.446-.027.635-.19.203-.162.257-.486t.054-.824v-5.62q0-.298.014-.568.013-.284.027-.486l-.5.027q-.27.013-.487.027v-.744q.797-.013 1.622-.013.824-.014 1.675-.014 1.27 0 2.148.311.892.297 1.365.919.486.608.5 1.54.013.527-.19 1.095-.202.554-.688 1.04-.487.473-1.325.77-.824.297-2.08.297-.135.014-.311.014-.162 0-.338-.014v1.703q0 .365-.013.662 0 .283-.027.46l.405-.028q.216-.013.419-.013l.392-.027v.756h-3.554zm2.378-3.635q.23.027.392.04h.405q.757 0 1.338-.283.581-.284.905-.824t.325-1.284q0-.648-.203-1.08-.19-.446-.54-.69-.338-.256-.784-.364t-.946-.108q-.405 0-.594.162-.19.162-.244.473t-.054.797zM198.611 27.502q-.027-.216-.04-.378t-.04-.338q-.46.46-.987.703-.527.23-1.094.23-.973 0-1.473-.474-.486-.486-.486-1.202 0-.622.364-1.08.365-.46.96-.744.594-.297 1.297-.432.702-.149 1.378-.149v-.797q0-.432-.081-.797-.081-.379-.338-.608-.243-.243-.77-.243-.352-.014-.703.135-.351.135-.54.459.108.108.135.257.04.135.04.256 0 .19-.162.433-.162.23-.554.216-.324 0-.5-.216-.162-.23-.162-.527 0-.487.352-.865.364-.378.986-.594.621-.216 1.391-.216 1.162 0 1.73.608.58.608.58 1.918v.932q0 .446-.013.892v.946q0 .202-.013.46-.014.256-.04.54l.472-.027q.243-.014.46-.014v.716zm-.121-3.242q-.433.027-.892.121-.446.095-.81.284t-.595.486q-.216.298-.216.716.027.46.297.676.284.216.662.216.473 0 .838-.176.364-.189.716-.513-.014-.149-.014-.297v-.784q.014-.338.014-.73M201.638 26.935q.405 0 .567-.19.162-.189.19-.526.04-.338.04-.784v-3.27q.013-.256.054-.5-.23.014-.487.027-.256 0-.472.014v-.716h.459q.567 0 .865-.122.297-.121.432-.256h.486q.027.189.04.527.014.337.028.756.257-.378.594-.675.338-.311.73-.5.405-.19.838-.19.419 0 .716.23.31.216.31.716 0 .135-.08.311-.068.176-.244.31-.162.122-.446.122-.283-.013-.5-.216-.202-.202-.189-.554-.324 0-.648.203-.324.19-.608.513-.27.325-.46.703v2.959q0 .243-.013.5 0 .243-.04.5.216-.014.445-.014.23-.013.42-.027v.716h-3.027zM210.348 27.718q-.338 0-.69-.094-.337-.081-.62-.338-.284-.27-.447-.77-.162-.5-.162-1.324l.027-3.689h-1v-.756q.365-.014.744-.27.378-.257.662-.69.283-.432.391-.932h.635v1.892h2.081v.702l-2.08.027-.028 3.608q0 .513.082.905.094.378.297.594.216.203.58.203.312 0 .636-.19.338-.188.635-.62l.46.405q-.325.473-.65.743-.324.27-.62.392-.298.135-.541.162-.243.04-.392.04M213.118 27.502v-.567q.405 0 .567-.19.162-.189.19-.526.04-.338.04-.784l.013-2.81v-.46q.014-.256.054-.5l-.5.027q-.243 0-.459.014v-.716q.608 0 .946-.054.351-.068.527-.149.189-.08.283-.175h.487q.013.121.013.23.014.107.014.229.013.122.027.31.297-.242.648-.432.352-.189.73-.297.392-.121.743-.121 1.203 0 1.73.73.54.729.54 2.282v2.284q0 .243-.014.5-.013.243-.04.5.216-.014.432-.014.23-.013.42-.027v.716h-3.014v-.567q.406 0 .568-.19.162-.189.189-.526.04-.338.04-.784v-1.892q-.013-1.067-.351-1.607-.324-.54-1.054-.527-.432 0-.851.216t-.703.527v3.675q0 .243-.013.5-.014.243-.04.5.216-.014.432-.014.23-.013.419-.027v.716zM224.697 27.718q-.946 0-1.703-.432-.743-.446-1.175-1.243-.433-.81-.433-1.905 0-.946.42-1.77.432-.824 1.202-1.324.77-.513 1.783-.513.568 0 1.067.175.514.176.906.554.405.365.635.96.23.58.23 1.418l-4.648.081q0 .919.202 1.635.216.716.69 1.108.472.392 1.229.392.365 0 .77-.122.419-.135.784-.378.378-.243.635-.581l.418.365q-.405.608-.932.959-.527.338-1.08.473-.541.148-1 .148m-1.662-4.701h3.12q0-.514-.148-.92-.135-.418-.432-.661t-.757-.243q-.716 0-1.175.459-.46.446-.608 1.365M228.763 26.935q.406 0 .568-.19.162-.189.189-.526.04-.338.04-.784v-3.27q.014-.256.055-.5-.23.014-.487.027-.257 0-.473.014v-.716h.46q.567 0 .864-.122.298-.121.433-.256h.486q.027.189.04.527.014.337.028.756.256-.378.594-.675.338-.311.73-.5.405-.19.837-.19.42 0 .716.23.311.216.311.716 0 .135-.08.311-.068.176-.244.31-.162.122-.446.122-.284-.013-.5-.216-.203-.202-.189-.554-.324 0-.649.203-.324.19-.608.513-.27.325-.459.703v2.959q0 .243-.013.5 0 .243-.04.5.215-.014.445-.014.23-.013.419-.027v.716h-3.027zM237.69 27.718q-.635 0-1.176-.175-.54-.162-.865-.392l.04.446h-.715l-.068-2.324h.568q.027.5.31.905.284.405.73.635.46.23.986.23.311 0 .608-.095.298-.108.5-.31.203-.217.203-.527 0-.338-.216-.554-.203-.23-.568-.406-.35-.175-.81-.351-.406-.162-.824-.338-.406-.175-.757-.419-.351-.243-.554-.594-.203-.365-.203-.892 0-.31.122-.662.122-.365.392-.662.27-.31.73-.5.459-.202 1.134-.202.365 0 .81.121.46.122.852.419l-.013-.473h.716v2.378h-.581q-.04-.473-.257-.878-.203-.406-.58-.662-.38-.257-.92-.257-.527 0-.864.27-.325.257-.325.649t.244.635q.256.243.662.419.405.175.878.35.567.23 1.067.5.5.271.81.676.312.406.312 1.027 0 .676-.352 1.135-.337.446-.878.662t-1.148.216M245.22 26.935q.406 0 .568-.19.176-.189.203-.526.04-.338.04-.784l-.013-1.892q0-1.067-.338-1.594-.324-.54-1.054-.527-.445.014-.878.216-.419.203-.702.514v3.675q0 .243-.014.5-.013.243-.04.5.216-.014.432-.014.23-.013.419-.027v.716h-3.013v-.567q.405 0 .567-.19.162-.189.203-.526.04-.338.04-.784v-6.567q.014-.243.041-.513-.23.014-.486.027-.257 0-.473.014v-.716q.608 0 .972-.054.365-.068.554-.149.203-.081.298-.176h.5v4.08q.297-.242.662-.432.364-.189.743-.297.392-.121.73-.121 1.202 0 1.715.73.527.729.54 2.282v2.284q0 .243-.013.5 0 .243-.04.5.216-.014.446-.014.23-.013.418-.027v.716h-3.026zM249.18 26.935q.405 0 .567-.19.162-.189.19-.526.04-.338.04-.784v-2.797q0-.23.013-.46.014-.242.04-.513-.229.014-.486.027-.256 0-.473.014v-.716q.608 0 .96-.054.365-.068.554-.149.202-.08.297-.175h.513v5.215q0 .243-.013.5-.014.243-.04.5.216-.014.432-.014.23-.013.419-.027v.716h-3.013zm1.432-7.566q-.352 0-.595-.257-.243-.27-.243-.649 0-.378.257-.635.257-.27.58-.27.352 0 .582.27.243.257.243.635 0 .379-.243.649-.23.257-.581.257M253.057 30.947v-.567q.406 0 .568-.19.162-.188.189-.526.04-.338.04-.784l.014-6.255q0-.216.013-.46.014-.256.04-.5-.229.014-.486.027-.256 0-.472.014v-.716q.608 0 .945-.054.352-.068.527-.149.19-.08.284-.175h.486q.014.135.027.324l.027.378q.433-.378.96-.58.527-.203 1.054-.203.783 0 1.432.418.662.406 1.054 1.162.405.757.405 1.797 0 1.122-.46 1.986-.459.865-1.242 1.351-.77.473-1.716.473-.433 0-.798-.108-.364-.094-.689-.27v1.932q0 .243-.013.487 0 .256-.027.513l.432-.027q.23 0 .42-.014v.716zm3.594-3.931q.649 0 1.068-.379.432-.391.635-1.04.216-.662.216-1.486 0-.69-.19-1.31-.189-.636-.607-1.027-.406-.406-1.068-.392-.419 0-.797.202-.378.203-.635.5v.379q.014.202.014.513v.77q0 .46-.014 1.162v1.675q.27.203.622.325.364.121.756.108" style="font-weight:500;font-family:Lora;-inkscape-font-specification:&quot;Lora Medium&quot;;text-align:start;text-anchor:start" transform="translate(5.79 1.394)scale(.90432)"/></g></g></svg>