<svg xmlns="http://www.w3.org/2000/svg" width="912.473" height="132.782" viewBox="0 0 241.425 35.132"><defs><clipPath id="a" clipPathUnits="userSpaceOnUse"><path d="M-9-9h614v860H-9Z" clip-rule="evenodd"/></clipPath></defs><g aria-label="Partneriaeth Natur Ceredigion" style="font-weight:700;font-size:21.5359px;line-height:1.25;font-family:&quot;IBM Plex Sans&quot;;-inkscape-font-specification:&quot;IBM Plex Sans Bold&quot;;text-align:center;text-anchor:middle;stroke-width:.538401"><path d="M66.53 59.367q-.43-.105-.872-.19-.442-.094-.442-.304 0-.221.137-.379.147-.168.43-.263.285-.105.569-.168.294-.063.736-.084.62-.042 1.503-.042h1.83q3.428 0 5.037.378 1.683.379 2.45 1.115.947.904.947 2.335 0 2.113-1.273 3.154-.883.715-1.756.957-.873.232-1.461.337-.59.094-1.378.157-1.22.085-2.976.085h-.662v4.437q0 .2.43.337.442.126.874.252.441.116.441.273 0 .347-.168.558-.168.2-.62.284-.558.094-2.125.094-1.556 0-1.892-.042-1.063-.137-1.073-.788 0-.484.873-.516.883-.031.883-.452V59.725q0-.253-.442-.358m9.948 3.039q0-3.218-4.942-3.218h-.452q-.978 0-1.241.19-.284.2-.326.315l-.095.263q-.073.231-.073.725v4.522q.378.032 1.25.032.884 0 1.589-.042.715-.053 1.398-.169.694-.115 1.2-.326.504-.21.903-.515.79-.61.79-1.777M80.748 66.034q-.39 0-.884-.305-.483-.316-.483-.81 0-.504.283-.946.284-.442.737-.715.452-.284 1.051-.473 1.094-.347 2.356-.347 2.124 0 3.08.946.968.936.968 3.102l-.01 3.102q0 1.125.284 1.41.073.073.462.189 1.073.336 1.073.515 0 1.104-2.261 1.104-.852 0-1.115-.379-.252-.378-.273-1.377-.473.852-1.44 1.377-.968.526-2.072.526t-1.872-.284-1.251-.915q-.474-.641-.474-1.377t.169-1.178q.168-.452.42-.757.253-.305.684-.547.441-.242.82-.378.379-.148.978-.263.883-.169 1.483-.232.599-.073.62-.084.063-.01.715-.073.663-.074 1.041-.284 0-1.998-.536-2.608-.473-.526-1.556-.526t-1.63.557q-.537.547-.537 1.746l.01.231q-.44.053-.84.053m5.09 1.493q-.716.263-1.62.368-.894.095-1.41.232-.515.136-.862.336-.799.463-.799 1.588 0 1.809 2.103 1.809 1.82 0 2.303-1.736.284-.988.284-2.597M93.808 72.7l-.904.011q-1.378 0-1.704-.42-.147-.19-.147-.452 0-.274.21-.38.21-.104.463-.115.263-.01.473-.157.21-.158.21-.495v-5.194q0-.936-.231-1.157-.22-.22-.379-.284-.147-.063-.473-.158-.326-.094-.536-.189-.2-.095-.2-.284 0-.841 2.261-.841.957 0 1.21.336.262.326.262 1.525.358-.904 1.178-1.42.83-.515 1.693-.515.873 0 1.43.379.568.368.568.946 0 .568-.368.915-.368.337-.905.337-.536 0-.925-.284-.378-.284-.494-.737-.274-.042-.452-.042-1.64 0-1.64 3.776v2.891q0 .61.672.652.684.032.684.537 0 .578-.631.715-.484.105-1.325.105M100.959 63.994l-.642.01q-.389 0-.568-.073-.179-.074-.179-.305 0-.242.2-.431.21-.2.473-.305.726-.295.863-.494.147-.21.43-.905.705-1.735 1.179-1.735.241 0 .273.526.042.515.042.789.01.273 0 .82-.01.536-.01.746l2.502.01q.368 0 .62.19.253.179.253.484t-.252.473q-.242.168-.61.168h-2.513l-.01 5.374q0 2.282 1.145 2.282.316 0 .936-.19.62-.2.81-.2.431 0 .431.495 0 .389-1.02.778-1.01.39-2.082.39-1.062 0-1.672-.832-.6-.83-.6-2.187zM110.906 72.7l-.904.011q-1.378 0-1.704-.42-.147-.19-.147-.452 0-.274.21-.38.21-.104.463-.115.263-.01.473-.157.21-.158.21-.495v-6.004q0-.61-.756-.736-.526-.084-.642-.179-.105-.105-.105-.357 0-.263.368-.474.62-.378 1.556-.378.947 0 1.21.273.273.263.273 1.188 1.44-1.63 3.964-1.63 2.05 0 2.903 1.126.862 1.114.862 3.386v3.785q0 .61.673.652.683.032.683.537 0 .567-.652.715-.483.105-1.335.105l-.904.01q-1.378 0-1.704-.42-.147-.19-.147-.453 0-.273.21-.378t.463-.116q.263-.01.473-.157.21-.158.21-.495v-3.06q0-1.956-.452-2.86-.504-1.02-2.03-1.02-1.84 0-2.502.978-.62.925-.62 2.955v3.007q0 .61.673.652.683.032.683.537 0 .578-.641.715-.463.105-1.315.105M122.905 71.555q-1.452-1.43-1.452-3.797t1.462-3.838q1.472-1.482 3.744-1.482 1.798 0 3.028 1.167 1.24 1.157 1.24 2.913 0 .851-1.345.851h-6.089q.021 1.704 1.105 2.871 1.083 1.167 2.734 1.167 1.093 0 2.124-.641.547-.337.694-.337.157 0 .347.158.2.147.2.368 0 .579-.747 1.073-.736.484-1.63.715-.894.242-1.567.242-2.387 0-3.848-1.43m6.088-5.29q-.021-1.209-.63-1.966-.61-.757-1.789-.757-1.167 0-2.05.841-.873.841-.925 1.924h2.46q1.64 0 2.934-.042M135.24 72.7l-.905.011q-1.378 0-1.704-.42-.147-.19-.147-.452 0-.274.21-.38.21-.104.463-.115.263-.01.473-.157.21-.158.21-.495v-5.194q0-.936-.23-1.157-.221-.22-.38-.284-.146-.063-.472-.158-.326-.094-.537-.189-.2-.095-.2-.284 0-.841 2.261-.841.957 0 1.21.336.263.326.263 1.525.357-.904 1.177-1.42.831-.515 1.693-.515.873 0 1.43.379.568.368.568.946 0 .568-.368.915-.368.337-.904.337t-.925-.284q-.38-.284-.495-.737-.273-.042-.452-.042-1.64 0-1.64 3.776v2.891q0 .61.673.652.683.032.683.537 0 .578-.63.715-.484.105-1.326.105M142.842 59.504q0-.463.442-.863.452-.41.978-.41.536 0 1.03.326.505.326.505.863t-.42.904q-.421.357-1.031.357t-1.062-.336q-.442-.337-.442-.841M145.04 72.7l-.905.01q-1.377 0-1.703-.42-.147-.19-.147-.452 0-.274.21-.38.21-.104.463-.115.263-.01.473-.157.21-.158.21-.495v-5.657q0-.957-.746-1.03-.074-.011-.19-.022-.115-.01-.168-.01-.053-.01-.137-.021-.073-.021-.115-.042-.032-.021-.074-.053-.073-.052-.073-.294 0-.253.315-.516.6-.483 1.598-.483.926 0 1.083.073.169.074.284.158.221.147.221.557v7.34q0 .61.673.652.684.032.684.537 0 .578-.631.715-.484.105-1.325.105M150.476 66.034q-.389 0-.883-.305-.484-.316-.484-.81 0-.504.284-.946t.736-.715q.453-.284 1.052-.473 1.094-.347 2.355-.347 2.125 0 3.081.946.968.936.968 3.102l-.01 3.102q0 1.125.283 1.41.074.073.463.189 1.073.336 1.073.515 0 1.104-2.261 1.104-.852 0-1.115-.379-.252-.378-.273-1.377-.474.852-1.441 1.377-.967.526-2.072.526t-1.871-.284-1.252-.915q-.473-.641-.473-1.377t.168-1.178q.169-.452.421-.757t.684-.547q.441-.242.82-.378.378-.148.978-.263.883-.169 1.482-.232.6-.073.62-.084.064-.01.716-.073.662-.074 1.04-.284 0-1.998-.535-2.608-.474-.526-1.557-.526t-1.63.557q-.536.547-.536 1.746l.01.231q-.441.053-.84.053m5.09 1.493q-.715.263-1.62.368-.893.095-1.409.232-.515.136-.862.336-.8.463-.8 1.588 0 1.809 2.104 1.809 1.82 0 2.303-1.736.284-.988.284-2.597M161.665 71.555q-1.451-1.43-1.451-3.797t1.461-3.838q1.473-1.482 3.744-1.482 1.798 0 3.028 1.167 1.241 1.157 1.241 2.913 0 .851-1.346.851h-6.088q.02 1.704 1.104 2.871 1.083 1.167 2.734 1.167 1.094 0 2.124-.641.547-.337.694-.337.158 0 .347.158.2.147.2.368 0 .579-.747 1.073-.736.484-1.63.715-.893.242-1.566.242-2.387 0-3.85-1.43m6.088-5.29q-.02-1.209-.63-1.966t-1.788-.757q-1.167 0-2.05.841-.873.841-.926 1.924h2.46q1.641 0 2.934-.042M171.791 63.994l-.641.01q-.39 0-.568-.073-.179-.074-.179-.305 0-.242.2-.431.21-.2.473-.305.726-.295.863-.494.147-.21.43-.905.705-1.735 1.179-1.735.241 0 .273.526.042.515.042.789.01.273 0 .82-.01.536-.01.746l2.502.01q.368 0 .62.19.253.179.253.484t-.252.473q-.242.168-.61.168h-2.513l-.011 5.374q0 2.282 1.146 2.282.316 0 .936-.19.62-.2.81-.2.43 0 .43.495.001.389-1.02.778-1.009.39-2.081.39-1.062 0-1.672-.832-.6-.83-.6-2.187zM189.237 72.7l-.905.011q-1.377 0-1.703-.42-.147-.19-.147-.452 0-.274.21-.38.21-.104.463-.115.263-.01.473-.157.21-.158.21-.495l.01-3.06q0-1.935-.462-2.85-.505-1.03-2.103-1.03-1.683 0-2.356 1.062-.61.989-.61 2.87v3.008q0 .61.673.652.684.032.684.537 0 .578-.641.715-.463.105-1.315.105l-.904.01q-1.378 0-1.704-.42-.147-.19-.147-.453 0-.273.21-.378t.463-.116q.263-.01.473-.157.21-.158.21-.495V59.241q0-.61-.757-.736-.525-.084-.641-.179-.105-.105-.105-.337 0-.23.22-.42.221-.19.579-.284.63-.168 1.41-.168 1.303 0 1.303.788v6.11q1.43-1.62 3.617-1.62t3.04 1.126q.862 1.114.862 3.386l-.01 3.785q0 .61.672.652.684.032.684.537 0 .578-.631.715-.484.105-1.325.105M212.213 71.775q0 1.157-.683 1.157-.526 0-1.283-.82-2.261-2.398-9.948-10.8v9.36q0 .178.442.367.441.18.883.368.442.18.442.358 0 .326-.253.589-.252.252-.641.389-1.577.526-3.565.02-1.083-.273-1.083-1.02 0-.252.452-.378.463-.126.915-.263.452-.147.452-.43V59.724q0-.2-.915-.432-.904-.241-.904-.441t.074-.358q.084-.168.263-.263.178-.105.357-.168t.484-.084q.43-.042 1.104-.042h.137q1.156 0 1.44.252v-.01l9.885 10.715v-1.377l-.01-.074v-7.498q0-.136-.905-.473-.904-.336-.904-.494 0-.41.43-.736.832-.631 2.062-.631 3.028 0 3.028 1.367 0 .137-.872.484-.873.347-.873.483zM216.23 66.034q-.389 0-.883-.305-.484-.316-.484-.81 0-.504.284-.946t.736-.715q.452-.284 1.052-.473 1.093-.347 2.355-.347 2.124 0 3.081.946.968.936.968 3.102l-.01 3.102q0 1.125.283 1.41.074.073.463.189 1.073.336 1.073.515 0 1.104-2.261 1.104-.852 0-1.115-.379-.252-.378-.273-1.377-.474.852-1.441 1.377-.967.526-2.072.526t-1.871-.284-1.252-.915q-.473-.641-.473-1.377t.168-1.178q.169-.452.421-.757t.683-.547q.442-.242.82-.378.38-.148.979-.263.883-.169 1.482-.232.6-.073.62-.084.064-.01.716-.073.662-.074 1.04-.284 0-1.998-.535-2.608-.474-.526-1.557-.526t-1.63.557q-.536.547-.536 1.746l.01.231q-.441.053-.84.053m5.09 1.493q-.715.263-1.62.368-.893.095-1.409.232-.515.136-.862.336-.8.463-.8 1.588 0 1.809 2.104 1.809 1.82 0 2.303-1.736.284-.988.284-2.597M227.082 63.994l-.641.01q-.39 0-.568-.073-.179-.074-.179-.305 0-.242.2-.431.21-.2.473-.305.726-.295.863-.494.147-.21.43-.905.705-1.735 1.178-1.735.242 0 .274.526.042.515.042.789.01.273 0 .82-.01.536-.01.746l2.502.01q.368 0 .62.19.253.179.253.484t-.252.473q-.242.168-.61.168h-2.513l-.011 5.374q0 2.282 1.146 2.282.316 0 .936-.19.62-.2.81-.2.43 0 .43.495 0 .389-1.02.778-1.009.39-2.081.39-1.062 0-1.672-.832-.6-.83-.6-2.187zM236.935 68.148q0 1.44.232 2.04.231.588.526.84.61.527 2.03.527 1.43 0 2.092-.726.662-.736.662-2.45v-3.554q0-.779-.767-.831-.61-.032-.673-.126-.064-.105-.064-.232 0-.525.61-.799.62-.273 1.462-.273.852 0 1.146.231.305.231.305 1.094l.01 6.73q0 .715.758.767.536.032.652.116.115.074.115.368 0 .284-.347.526-.62.42-1.619.42-.988 0-1.23-.294-.232-.305-.232-1.388-1.272 1.85-3.89 1.85-2.072 0-2.945-1.114-.862-1.115-.862-3.439v-3.606q0-.779-.747-.831-.62-.032-.683-.126-.063-.105-.063-.232 0-.525.61-.799.61-.273 1.45-.273.853 0 1.157.231t.305 1.094zM250.322 72.7l-.905.011q-1.377 0-1.703-.42-.147-.19-.147-.452 0-.274.21-.38.21-.104.463-.115.263-.01.473-.157.21-.158.21-.495v-5.194q0-.936-.231-1.157-.22-.22-.379-.284-.147-.063-.473-.158-.326-.094-.536-.189-.2-.095-.2-.284 0-.841 2.26-.841.958 0 1.21.336.263.326.263 1.525.358-.904 1.178-1.42.83-.515 1.693-.515.873 0 1.43.379.568.368.568.946 0 .568-.368.915-.368.337-.905.337-.536 0-.925-.284-.379-.284-.494-.737-.274-.042-.452-.042-1.64 0-1.64 3.776v2.891q0 .61.672.652.684.032.684.537 0 .578-.631.715-.484.105-1.325.105M262.71 64.972q0 1.409.514 2.608.516 1.188 1.42 2.008 1.914 1.735 4.91 1.735 2.998 0 5.28-2.282.252-.252.441-.252.2 0 .368.147.18.147.18.358 0 .21-.117.473h.01q-.788 1.388-2.639 2.313-1.84.915-3.775.915t-3.522-.494-2.818-1.41q-1.22-.914-1.946-2.334-.725-1.43-.725-3.207 0-1.787.683-3.26.684-1.482 1.882-2.45 2.461-1.998 6.278-1.998 2.03 0 3.838.631.926.326 1.504.936.589.6.589 1.378t-.484 1.156-1.135.379-.957-.105q-.116-1.64-.947-2.44-.83-.799-2.502-.799-2.85 0-4.596 1.661-1.735 1.651-1.735 4.333M278.02 71.555q-1.451-1.43-1.451-3.797t1.461-3.838q1.472-1.482 3.744-1.482 1.798 0 3.028 1.167 1.241 1.157 1.241 2.913 0 .851-1.346.851h-6.088q.02 1.704 1.104 2.871 1.083 1.167 2.734 1.167 1.093 0 2.124-.641.547-.337.694-.337.158 0 .347.158.2.147.2.368 0 .579-.747 1.073-.736.484-1.63.715-.894.242-1.566.242-2.388 0-3.85-1.43m6.088-5.29q-.02-1.209-.63-1.966t-1.788-.757q-1.168 0-2.05.841-.874.841-.926 1.924h2.46q1.64 0 2.934-.042M290.355 72.7l-.905.011q-1.377 0-1.703-.42-.148-.19-.148-.452 0-.274.21-.38.211-.104.463-.115.263-.01.474-.157.21-.158.21-.495v-5.194q0-.936-.231-1.157-.221-.22-.379-.284-.147-.063-.473-.158-.326-.094-.536-.189-.2-.095-.2-.284 0-.841 2.26-.841.958 0 1.21.336.263.326.263 1.525.357-.904 1.178-1.42.83-.515 1.693-.515.872 0 1.43.379.568.368.568.946 0 .568-.368.915-.369.337-.905.337t-.925-.284q-.379-.284-.494-.737-.274-.042-.453-.042-1.64 0-1.64 3.776v2.891q0 .61.673.652.683.032.683.537 0 .578-.63.715-.484.105-1.325.105M297.842 71.555q-1.451-1.43-1.451-3.797t1.461-3.838q1.472-1.482 3.744-1.482 1.798 0 3.028 1.167 1.241 1.157 1.241 2.913 0 .851-1.346.851h-6.088q.02 1.704 1.104 2.871 1.083 1.167 2.734 1.167 1.093 0 2.124-.641.547-.337.694-.337.158 0 .347.158.2.147.2.368 0 .579-.747 1.073-.736.484-1.63.715-.894.242-1.567.242-2.387 0-3.848-1.43m6.088-5.29q-.02-1.209-.63-1.966t-1.788-.757q-1.168 0-2.05.841-.874.841-.926 1.924h2.46q1.64 0 2.934-.042M315.056 64.804q-.442-.579-1.273-.915-.82-.347-1.84-.347t-1.735.589q-1.388 1.146-1.388 3.386 0 1.735.936 2.944.946 1.199 2.45 1.199 1.514 0 2.177-.62.673-.632.673-2.083zm-2.903-2.398q.694 0 1.546.231.862.221 1.357.474v-3.523q0-.957-.757-1.03-.074-.011-.19-.022-.115-.01-.168-.01-.053-.01-.137-.021-.073-.021-.115-.042-.032-.021-.063-.053-.074-.063-.074-.305t.326-.505q.589-.483 1.588-.483 1.062 0 1.24.126.358.252.358.662V69.41q0 1.168.252 1.515.263.336.463.41l.358.126q.157.053.22.084.064.021.158.084.169.095.169.295 0 .441-.474.652-.462.2-1.24.2-.768 0-1.115-.295-.347-.294-.61-1.083-.862 1.525-3.596 1.525-2.188 0-3.565-1.452-1.367-1.45-1.367-3.764t1.525-3.807 3.911-1.493M321.197 59.504q0-.463.441-.863.453-.41.978-.41.537 0 1.03.326.506.326.506.863t-.421.904q-.42.357-1.03.357t-1.063-.336q-.441-.337-.441-.841m2.198 13.197-.905.01q-1.377 0-1.703-.42-.148-.19-.148-.452 0-.274.21-.38.211-.104.463-.115.263-.01.474-.157.21-.158.21-.495v-5.657q0-.957-.747-1.03-.073-.011-.189-.022t-.168-.01q-.053-.01-.137-.021-.074-.021-.116-.042-.031-.021-.073-.053-.074-.052-.074-.294 0-.253.316-.516.6-.483 1.598-.483.925 0 1.083.073.168.074.284.158.22.147.22.557v7.34q0 .61.674.652.683.032.683.537 0 .578-.63.715-.484.105-1.325.105M336.665 66.16q0 .957-.725 1.683-1.42 1.42-4.049 1.42-.515 0-1.094-.095-.578-.106-.725-.127v-.01q-.8.673-.8 1.178 0 .462.453.62.641.231 1.788.252 1.146.021 1.787.042.642.011 1.388.064.747.052 1.315.21.568.147 1.062.4 1.01.525 1.01 1.787 0 .946-.495 1.672-.494.726-1.325 1.146-1.65.852-3.933.852-1.977 0-3.48-.547-.81-.294-1.283-.873-.474-.567-.474-1.367 0-1.493 1.504-2.303-.4-.389-.547-.736-.136-.347-.136-.81 0-.462.084-.714.084-.253.263-.463.231-.273.862-.747-.988-.494-1.514-1.104-.516-.62-.516-1.556 0-.947.432-1.64.441-.695 1.156-1.105 1.451-.83 3.24-.83.504 0 1.881.262 1.388.253 1.557.253.936 0 1.093-.936 1.346 0 1.346 1.073 0 .515-.315.82-.305.294-.715.294-.4 0-.862-.042.304.263.536.82.231.558.231 1.157m-4.71-2.797q-1.136 0-1.936.662-.788.663-.788 1.746t.81 1.777q.82.694 1.997.694t1.904-.641q.736-.652.736-1.693t-.8-1.788q-.788-.757-1.924-.757m.178 12.66q1.62 0 2.46-.346.842-.337 1.168-.789.326-.442.326-1.062 0-1.293-5.027-1.293-1.42 0-1.42-.032-.798.81-.798 1.546 0 1.977 3.291 1.977M340.24 59.504q0-.463.442-.863.452-.41.978-.41.536 0 1.03.326.505.326.505.863t-.42.904q-.42.357-1.03.357t-1.063-.336q-.442-.337-.442-.841m2.198 13.197-.904.01q-1.378 0-1.704-.42-.147-.19-.147-.452 0-.274.21-.38.21-.104.463-.115.263-.01.473-.157.21-.158.21-.495v-5.657q0-.957-.746-1.03-.074-.011-.19-.022-.115-.01-.167-.01-.053-.01-.137-.021-.074-.021-.116-.042-.031-.021-.073-.053-.074-.052-.074-.294 0-.253.315-.516.6-.483 1.599-.483.925 0 1.083.073.168.074.284.158.22.147.22.557v7.34q0 .61.674.652.683.032.683.537 0 .578-.63.715-.485.105-1.326.105M350.998 72.964q-2.377 0-3.828-1.494-1.45-1.503-1.45-3.806 0-1.535.767-2.734t2.071-1.83q1.315-.641 2.924-.641 2.313 0 3.817 1.44 1.503 1.44 1.503 3.723 0 1.577-.778 2.807-.767 1.22-2.082 1.883-1.314.652-2.944.652m.431-1.168q1.567 0 2.44-1.062.883-1.062.883-2.828 0-1.767-1.01-3.05-1.009-1.283-2.597-1.283-1.577 0-2.429 1.083t-.852 2.84 1 3.028 2.565 1.272M360.798 72.7l-.904.011q-1.377 0-1.703-.42-.148-.19-.148-.452 0-.274.21-.38.211-.104.463-.115.263-.01.474-.157.21-.158.21-.495v-6.004q0-.61-.757-.736-.526-.084-.642-.179-.105-.105-.105-.357 0-.263.368-.474.62-.378 1.556-.378.947 0 1.21.273.273.263.273 1.188 1.44-1.63 3.965-1.63 2.05 0 2.902 1.126.862 1.114.862 3.386v3.785q0 .61.673.652.684.032.684.537 0 .567-.652.715-.484.105-1.336.105l-.904.01q-1.378 0-1.704-.42-.147-.19-.147-.453 0-.273.21-.378t.463-.116q.263-.01.473-.157.21-.158.21-.495v-3.06q0-1.956-.452-2.86-.504-1.02-2.03-1.02-1.84 0-2.502.978-.62.925-.62 2.955v3.007q0 .61.673.652.683.032.683.537 0 .578-.641.715-.463.105-1.315.105" style="font-weight:400;font-family:Corben;-inkscape-font-specification:Corben;text-align:start;text-anchor:start" transform="translate(29.1 -27.377)scale(.57286)"/></g><g aria-label="Ceredigion Nature Partnership" style="font-weight:700;font-size:21.309px;line-height:1.25;font-family:&quot;IBM Plex Sans&quot;;-inkscape-font-specification:&quot;IBM Plex Sans Bold&quot;;text-align:center;letter-spacing:0;text-anchor:middle;stroke-width:.532733"><path d="M67.083 86.343q0 1.394.51 2.58.51 1.176 1.405 1.987 1.893 1.717 4.859 1.717 2.965 0 5.223-2.258.25-.25.437-.25.198 0 .364.146.177.146.177.354t-.114.468h.01q-.78 1.374-2.612 2.29-1.82.905-3.735.905t-3.486-.49q-1.57-.488-2.788-1.394-1.207-.905-1.925-2.31-.718-1.415-.718-3.173 0-1.769.677-3.226.676-1.467 1.862-2.424 2.435-1.977 6.212-1.977 2.008 0 3.797.625.916.322 1.488.926.583.593.583 1.363t-.479 1.144-1.123.375-.947-.104q-.115-1.623-.937-2.414t-2.476-.791q-2.82 0-4.547 1.644-1.717 1.633-1.717 4.287M82.238 92.856q-1.436-1.415-1.436-3.756t1.446-3.798q1.457-1.467 3.704-1.467 1.78 0 2.997 1.155 1.227 1.145 1.227 2.882 0 .843-1.331.843H82.82q.021 1.686 1.093 2.84 1.071 1.155 2.705 1.155 1.082 0 2.102-.634.54-.333.686-.333.157 0 .344.156.198.146.198.364 0 .572-.74 1.061-.728.479-1.612.708-.884.24-1.55.24-2.362 0-3.808-1.416m6.024-5.234q-.02-1.196-.624-1.945t-1.77-.75q-1.154 0-2.028.833-.864.832-.916 1.904h2.435q1.623 0 2.903-.042M94.442 93.99l-.894.01q-1.363 0-1.686-.416-.146-.187-.146-.447 0-.27.208-.375.209-.104.458-.114.26-.01.468-.156.209-.156.209-.49v-5.14q0-.925-.23-1.144-.218-.218-.374-.28-.146-.063-.468-.157-.323-.093-.53-.187-.198-.094-.198-.28 0-.833 2.237-.833.946 0 1.196.333.26.322.26 1.508.354-.894 1.166-1.404.822-.51 1.675-.51.863 0 1.415.375.562.364.562.936 0 .562-.365.905-.364.333-.894.333-.531 0-.916-.28-.375-.282-.489-.73-.27-.04-.447-.04-1.624 0-1.624 3.735v2.86q0 .604.666.646.677.031.677.53 0 .573-.625.708-.478.104-1.31.104M101.85 92.856q-1.435-1.415-1.435-3.756t1.446-3.798q1.457-1.467 3.704-1.467 1.78 0 2.997 1.155 1.227 1.145 1.227 2.882 0 .843-1.331.843h-6.025q.021 1.686 1.093 2.84 1.071 1.155 2.705 1.155 1.082 0 2.102-.634.54-.333.687-.333.156 0 .343.156.198.146.198.364 0 .572-.74 1.061-.728.479-1.612.708-.884.24-1.55.24-2.362 0-3.808-1.416m6.025-5.234q-.02-1.196-.624-1.945t-1.77-.75q-1.154 0-2.028.833-.864.832-.916 1.904h2.435q1.623 0 2.903-.042M118.883 86.176q-.437-.572-1.259-.905-.811-.343-1.82-.343-1.01 0-1.717.582-1.374 1.134-1.374 3.35 0 1.717.926 2.914.937 1.186 2.425 1.186 1.498 0 2.153-.614.666-.624.666-2.06zm-2.871-2.372q.686 0 1.529.229.853.218 1.342.468v-3.486q0-.946-.749-1.02-.073-.01-.187-.02-.115-.01-.167-.01-.052-.01-.135-.021-.073-.021-.114-.042-.032-.02-.063-.052-.073-.062-.073-.302 0-.239.323-.499.583-.479 1.571-.479 1.051 0 1.228.125.354.25.354.656v11.383q0 1.154.25 1.498.26.333.457.406l.354.124q.156.052.218.084.063.02.156.083.167.094.167.291 0 .437-.468.645-.458.198-1.228.198-.76 0-1.103-.291-.343-.292-.603-1.072-.854 1.509-3.559 1.509-2.164 0-3.527-1.436-1.353-1.436-1.353-3.725t1.509-3.767 3.87-1.477M124.96 80.932q0-.458.437-.853.447-.406.967-.406.53 0 1.02.323.5.322.5.853t-.417.895q-.416.354-1.02.354-.603 0-1.05-.333-.437-.333-.437-.833m2.174 13.058-.895.01q-1.363 0-1.685-.416-.146-.187-.146-.447 0-.27.208-.375t.458-.114q.26-.01.468-.156.208-.156.208-.49v-5.597q0-.947-.738-1.02-.073-.01-.188-.02-.114-.01-.166-.01-.052-.011-.135-.022-.073-.02-.115-.041l-.073-.052q-.072-.052-.072-.292 0-.25.312-.51.593-.478 1.581-.478.916 0 1.072.073.166.073.28.156.22.146.22.551v7.263q0 .603.665.645.677.031.677.53 0 .573-.625.708-.478.104-1.31.104M140.265 87.518q0 .947-.718 1.665-1.404 1.405-4.006 1.405-.51 0-1.082-.094-.572-.104-.718-.125v-.01q-.79.666-.79 1.165 0 .458.447.614.635.23 1.769.25t1.769.042q.634.01 1.373.062t1.3.208q.562.146 1.051.395 1 .52 1 1.77 0 .936-.49 1.654-.489.718-1.31 1.134-1.634.843-3.892.843-1.956 0-3.444-.542-.801-.29-1.27-.863-.468-.562-.468-1.353 0-1.477 1.488-2.278-.395-.385-.54-.729-.136-.343-.136-.8 0-.459.083-.708.083-.25.26-.458.23-.27.853-.739-.978-.489-1.498-1.092-.51-.614-.51-1.54 0-.937.427-1.624.437-.686 1.144-1.092 1.436-.822 3.205-.822.5 0 1.863.26 1.373.25 1.54.25.925 0 1.082-.926 1.331 0 1.331 1.061 0 .51-.312.812-.302.291-.707.291-.396 0-.854-.042.302.26.531.812.229.551.229 1.144m-4.661-2.767q-1.124 0-1.915.655-.78.656-.78 1.727t.801 1.759q.812.687 1.977.687t1.883-.635q.729-.645.729-1.675t-.791-1.77q-.78-.748-1.904-.748m.177 12.527q1.602 0 2.434-.343.833-.333 1.155-.78.323-.438.323-1.051 0-1.28-4.974-1.28-1.404 0-1.404-.031-.791.8-.791 1.529 0 1.956 3.257 1.956M143.803 80.932q0-.458.437-.853.447-.406.967-.406.531 0 1.02.323.5.322.5.853t-.417.895q-.416.354-1.02.354-.603 0-1.05-.333-.437-.333-.437-.833m2.174 13.058-.895.01q-1.363 0-1.685-.416-.146-.187-.146-.447 0-.27.208-.375t.458-.114q.26-.01.468-.156.208-.156.208-.49v-5.597q0-.947-.738-1.02-.073-.01-.188-.02-.114-.01-.166-.01-.052-.011-.135-.022-.073-.02-.115-.041l-.073-.052q-.072-.052-.072-.292 0-.25.312-.51.593-.478 1.581-.478.916 0 1.072.073.166.073.28.156.22.146.22.551v7.263q0 .603.665.645.677.031.677.53 0 .573-.625.708-.478.104-1.31.104M154.447 94.25q-2.352 0-3.788-1.477-1.435-1.488-1.435-3.767 0-1.519.76-2.705.759-1.186 2.049-1.81 1.3-.635 2.892-.635 2.29 0 3.777 1.425t1.488 3.684q0 1.56-.77 2.778-.76 1.207-2.06 1.862-1.3.645-2.913.645m.426-1.155q1.55 0 2.414-1.05.874-1.051.874-2.8 0-1.747-.999-3.017-.998-1.27-2.57-1.27-1.56 0-2.403 1.073-.843 1.071-.843 2.809 0 1.737.989 2.996.988 1.26 2.538 1.26M164.144 93.99l-.895.01q-1.363 0-1.685-.416-.146-.187-.146-.447 0-.27.208-.375t.458-.114q.26-.01.468-.156.208-.156.208-.49v-5.94q0-.604-.749-.729-.52-.083-.635-.176-.104-.104-.104-.354 0-.26.365-.468.613-.375 1.54-.375.936 0 1.196.27.27.26.27 1.176 1.426-1.612 3.923-1.612 2.029 0 2.872 1.113.853 1.103.853 3.35v3.746q0 .603.666.645.676.031.676.53 0 .563-.645.708-.478.104-1.321.104l-.895.01q-1.363 0-1.686-.416-.145-.187-.145-.447 0-.27.208-.375t.458-.114q.26-.01.468-.156.208-.156.208-.49v-3.027q0-1.935-.448-2.83-.499-1.01-2.008-1.01-1.82 0-2.476.968-.614.916-.614 2.924v2.976q0 .603.666.645.676.031.676.53 0 .573-.634.708-.458.104-1.3.104M194.505 93.075q0 1.144-.676 1.144-.52 0-1.27-.811-2.237-2.373-9.842-10.686v9.26q0 .177.437.364.437.177.874.364.437.177.437.354 0 .323-.25.583-.25.25-.635.385-1.56.52-3.527.02-1.072-.27-1.072-1.009 0-.25.448-.374.458-.125.905-.26.447-.146.447-.427V81.151q0-.198-.905-.427-.895-.24-.895-.437 0-.198.073-.354.083-.166.26-.26.177-.104.354-.166t.479-.083q.426-.042 1.092-.042h.135q1.145 0 1.426.25v-.01l9.78 10.602V88.86l-.01-.073v-7.419q0-.135-.895-.468t-.895-.489q0-.406.427-.728.822-.625 2.04-.625 2.996 0 2.996 1.353 0 .135-.864.479-.863.343-.863.478zM198.473 87.394q-.385 0-.874-.302-.478-.312-.478-.801 0-.5.28-.937.282-.437.729-.707.447-.281 1.04-.468 1.083-.344 2.331-.344 2.102 0 3.049.937.957.926.957 3.069l-.01 3.07q0 1.113.28 1.394.073.072.458.187 1.062.333 1.062.51 0 1.092-2.237 1.092-.843 0-1.103-.374-.25-.375-.27-1.363-.47.842-1.426 1.363-.958.52-2.05.52-1.093 0-1.852-.281-.76-.28-1.238-.905-.469-.635-.469-1.363 0-.729.167-1.166.166-.447.416-.749.25-.301.676-.54.437-.24.812-.375.375-.146.968-.26.874-.167 1.467-.23.593-.072.614-.083.062-.01.707-.072.656-.073 1.03-.281 0-1.977-.53-2.58-.469-.521-1.54-.521t-1.613.551q-.53.542-.53 1.728l.01.229q-.437.052-.833.052m5.036 1.477q-.707.26-1.602.364-.885.094-1.394.23-.51.134-.854.332-.79.458-.79 1.571 0 1.79 2.08 1.79 1.8 0 2.28-1.717.28-.978.28-2.57M209.211 85.375l-.635.01q-.385 0-.562-.072-.176-.073-.176-.302 0-.24.197-.427.208-.197.468-.301.718-.292.854-.49.145-.208.426-.894.697-1.717 1.166-1.717.239 0 .27.52.042.51.042.78.01.271 0 .812-.01.53-.01.739l2.476.01q.364 0 .614.188.25.176.25.478t-.25.468q-.24.167-.604.167h-2.487l-.01 5.317q0 2.258 1.134 2.258.312 0 .926-.188.614-.197.801-.197.427 0 .427.489 0 .385-1.01.77-.998.385-2.06.385-1.05 0-1.654-.822-.593-.822-.593-2.165zM218.96 89.485q0 1.425.23 2.018.228.583.52.833.603.52 2.008.52 1.415 0 2.07-.718.656-.728.656-2.424v-3.517q0-.77-.76-.822-.603-.031-.666-.125-.062-.104-.062-.229 0-.52.603-.79.614-.271 1.446-.271.843 0 1.135.229.301.229.301 1.082l.01 6.66q0 .707.75.759.53.03.645.114.114.073.114.364 0 .281-.343.52-.614.417-1.602.417-.978 0-1.218-.292-.228-.301-.228-1.373-1.26 1.831-3.85 1.831-2.05 0-2.914-1.103-.853-1.103-.853-3.402v-3.569q0-.77-.739-.822-.613-.031-.676-.125-.062-.104-.062-.229 0-.52.603-.79.604-.271 1.436-.271.843 0 1.145.229.301.229.301 1.082zM232.206 93.99l-.895.01q-1.363 0-1.686-.416-.145-.187-.145-.447 0-.27.208-.375t.457-.114q.26-.01.469-.156.208-.156.208-.49v-5.14q0-.925-.23-1.144-.218-.218-.374-.28-.145-.063-.468-.157-.322-.093-.53-.187-.198-.094-.198-.28 0-.833 2.237-.833.947 0 1.196.333.26.322.26 1.508.354-.894 1.166-1.404.822-.51 1.675-.51.864 0 1.415.375.562.364.562.936 0 .562-.364.905-.365.333-.895.333t-.916-.28q-.374-.282-.489-.73-.27-.04-.447-.04-1.623 0-1.623 3.735v2.86q0 .604.666.646.676.031.676.53 0 .573-.624.708-.479.104-1.311.104M239.614 92.856q-1.436-1.415-1.436-3.756t1.446-3.798q1.457-1.467 3.704-1.467 1.78 0 2.997 1.155 1.228 1.145 1.228 2.882 0 .843-1.332.843h-6.025q.021 1.686 1.093 2.84 1.072 1.155 2.705 1.155 1.082 0 2.102-.634.541-.333.687-.333.156 0 .343.156.198.146.198.364 0 .572-.739 1.061-.728.479-1.613.708-.884.24-1.55.24-2.362 0-3.808-1.416m6.024-5.234q-.02-1.196-.624-1.945t-1.769-.75q-1.155 0-2.029.833-.863.832-.915 1.904h2.434q1.623 0 2.903-.042M254.243 80.797q-.427-.104-.864-.187-.437-.094-.437-.302 0-.219.136-.375.145-.166.426-.26.281-.104.562-.166.291-.063.728-.083.614-.042 1.488-.042h1.81q3.393 0 4.985.374 1.664.375 2.424 1.103.936.895.936 2.31 0 2.092-1.259 3.122-.874.707-1.737.947-.864.228-1.447.332-.582.094-1.363.157-1.207.083-2.944.083h-.656v4.39q0 .198.427.334.437.124.864.25.437.114.437.27 0 .343-.167.551-.166.198-.614.281-.551.094-2.102.094-1.54 0-1.872-.042-1.051-.135-1.062-.78 0-.479.864-.51.874-.031.874-.447V81.15q0-.25-.437-.354m9.843 3.007q0-3.184-4.89-3.184h-.448q-.967 0-1.228.187-.28.198-.322.313l-.094.26q-.073.229-.073.718v4.474q.375.03 1.239.03.874 0 1.57-.04.708-.053 1.385-.167.686-.115 1.186-.323t.894-.51q.78-.603.78-1.758M268.3 87.394q-.385 0-.874-.302-.478-.312-.478-.801 0-.5.28-.937.282-.437.729-.707.447-.281 1.04-.468 1.083-.344 2.331-.344 2.102 0 3.049.937.957.926.957 3.069l-.01 3.07q0 1.113.28 1.394.073.072.458.187 1.062.333 1.062.51 0 1.092-2.237 1.092-.843 0-1.103-.374-.25-.375-.27-1.363-.47.842-1.426 1.363-.958.52-2.05.52-1.093 0-1.852-.281-.76-.28-1.238-.905-.468-.635-.468-1.363 0-.729.166-1.166.166-.447.416-.749.25-.301.676-.54.437-.24.812-.375.375-.146.968-.26.874-.167 1.467-.23.593-.072.614-.083.062-.01.707-.072.656-.073 1.03-.281 0-1.977-.53-2.58-.469-.521-1.54-.521t-1.613.551q-.53.542-.53 1.728l.01.229q-.437.052-.833.052m5.036 1.477q-.707.26-1.602.364-.885.094-1.394.23-.51.134-.854.332-.79.458-.79 1.571 0 1.79 2.08 1.79 1.8 0 2.28-1.717.28-.978.28-2.57M281.223 93.99l-.895.01q-1.363 0-1.685-.416-.146-.187-.146-.447 0-.27.208-.375t.458-.114q.26-.01.468-.156.208-.156.208-.49v-5.14q0-.925-.229-1.144-.218-.218-.374-.28-.146-.063-.468-.157-.323-.093-.531-.187-.198-.094-.198-.28 0-.833 2.237-.833.947 0 1.197.333.26.322.26 1.508.354-.894 1.165-1.404.822-.51 1.675-.51.864 0 1.415.375.562.364.562.936 0 .562-.364.905-.364.333-.895.333-.53 0-.915-.28-.375-.282-.49-.73-.27-.04-.447-.04-1.623 0-1.623 3.735v2.86q0 .604.666.646.676.031.676.53 0 .573-.624.708-.479.104-1.31.104M288.298 85.375l-.634.01q-.385 0-.562-.072-.177-.073-.177-.302 0-.24.198-.427.208-.197.468-.301.718-.292.853-.49.146-.208.427-.894.697-1.717 1.165-1.717.24 0 .27.52.042.51.042.78.01.271 0 .812-.01.53-.01.739l2.476.01q.364 0 .614.188.25.176.25.478t-.25.468q-.24.167-.604.167h-2.486l-.01 5.317q0 2.258 1.133 2.258.313 0 .926-.188.614-.197.802-.197.426 0 .426.489 0 .385-1.01.77-.998.385-2.06.385-1.05 0-1.654-.822-.593-.822-.593-2.165zM298.141 93.99l-.895.01q-1.363 0-1.685-.416-.146-.187-.146-.447 0-.27.208-.375t.458-.114q.26-.01.468-.156.208-.156.208-.49v-5.94q0-.604-.749-.729-.52-.083-.634-.176-.104-.104-.104-.354 0-.26.364-.468.614-.375 1.54-.375.936 0 1.196.27.27.26.27 1.176 1.426-1.612 3.923-1.612 2.03 0 2.872 1.113.853 1.103.853 3.35v3.746q0 .603.666.645.676.031.676.53 0 .563-.645.708-.478.104-1.321.104l-.895.01q-1.363 0-1.685-.416-.146-.187-.146-.447 0-.27.208-.375t.458-.114q.26-.01.468-.156.208-.156.208-.49v-3.027q0-1.935-.447-2.83-.5-1.01-2.008-1.01-1.821 0-2.477.968-.614.916-.614 2.924v2.976q0 .603.666.645.677.031.677.53 0 .573-.635.708-.458.104-1.3.104M310.013 92.856q-1.436-1.415-1.436-3.756t1.447-3.798q1.456-1.467 3.704-1.467 1.779 0 2.996 1.155 1.228 1.145 1.228 2.882 0 .843-1.332.843h-6.024q.02 1.686 1.092 2.84 1.072 1.155 2.706 1.155 1.082 0 2.101-.634.541-.333.687-.333.156 0 .343.156.198.146.198.364 0 .572-.739 1.061-.728.479-1.612.708-.885.24-1.55.24-2.363 0-3.809-1.416m6.024-5.234q-.02-1.196-.624-1.945-.603-.75-1.769-.75-1.155 0-2.029.833-.863.832-.915 1.904h2.435q1.623 0 2.902-.042M322.218 93.99l-.895.01q-1.363 0-1.685-.416-.146-.187-.146-.447 0-.27.208-.375t.458-.114q.26-.01.468-.156.208-.156.208-.49v-5.14q0-.925-.229-1.144-.218-.218-.374-.28-.146-.063-.469-.157-.322-.093-.53-.187-.198-.094-.198-.28 0-.833 2.237-.833.947 0 1.197.333.26.322.26 1.508.354-.894 1.165-1.404.822-.51 1.675-.51.864 0 1.415.375.562.364.562.936 0 .562-.364.905-.364.333-.895.333-.53 0-.915-.28-.375-.282-.49-.73-.27-.04-.447-.04-1.623 0-1.623 3.735v2.86q0 .604.666.646.676.031.676.53 0 .573-.624.708-.479.104-1.311.104M333.122 93.043q2.341 0 2.341-1.435 0-1.083-2.112-1.696-.395-.115-.957-.271-1.051-.28-1.415-.427-.916-.353-1.55-1.03-.635-.676-.635-1.602 0-1.197 1.134-1.987 1.144-.791 2.757-.791 1.571 0 2.945.572.676.281 1.092.78.427.5.427 1.041t-.437.864q-.427.322-.895.322-.458 0-.614-.083-.146-.094-.146-.416 0-2.008-2.133-2.008-.884 0-1.54.395-.655.385-.655 1.01 0 .977 2.04 1.55.322.083.78.208.458.114.843.239.384.114.8.28.427.157.895.417t.76.562q.676.687.676 1.665 0 .967-.655 1.675-1.3 1.384-3.746 1.384-1.592 0-2.934-.52-.687-.271-1.103-.75-.416-.478-.416-1.02 0-.54.343-.832.344-.301.78-.301.438 0 .74.27.311.27.311.676 0 .396-.072.854 1.103.405 2.351.405M349.294 93.99l-.895.01q-1.363 0-1.686-.416-.145-.187-.145-.447 0-.27.208-.375t.457-.114q.26-.01.469-.156.208-.156.208-.49l.01-3.027q0-1.914-.458-2.82-.5-1.02-2.08-1.02-1.665 0-2.331 1.052-.604.978-.604 2.84v2.976q0 .603.666.645.676.031.676.53 0 .573-.634.708-.458.104-1.3.104l-.896.01q-1.363 0-1.685-.416-.146-.187-.146-.447 0-.27.208-.375t.458-.114q.26-.01.468-.156.208-.156.208-.49v-11.33q0-.603-.749-.728-.52-.083-.635-.177-.104-.104-.104-.333t.219-.416.572-.281q.624-.167 1.394-.167 1.29 0 1.29.78v6.046q1.416-1.602 3.58-1.602t3.007 1.113q.853 1.103.853 3.35l-.01 3.746q0 .603.666.645.676.031.676.53 0 .573-.624.708-.479.104-1.311.104M353.653 80.932q0-.458.437-.853.448-.406.968-.406.53 0 1.02.323.499.322.499.853t-.416.895q-.416.354-1.02.354-.603 0-1.05-.333-.438-.333-.438-.833m2.175 13.058-.895.01q-1.363 0-1.686-.416-.145-.187-.145-.447 0-.27.208-.375t.458-.114q.26-.01.468-.156.208-.156.208-.49v-5.597q0-.947-.739-1.02-.073-.01-.187-.02-.115-.01-.167-.01-.052-.011-.135-.022-.073-.02-.114-.041l-.073-.052q-.073-.052-.073-.292 0-.25.312-.51.593-.478 1.582-.478.915 0 1.071.073.167.073.281.156.219.146.219.551v7.263q0 .603.666.645.676.031.676.53 0 .573-.624.708-.479.104-1.311.104M368.605 89.194q0-2.404-1.394-3.496-.729-.562-1.738-.562-2.986 0-2.986 3.36v3.424q.843 1.092 2.903 1.092 1.498 0 2.351-1.072.864-1.082.864-2.746m-6.711 9.062-.895.01q-1.363 0-1.686-.416-.145-.187-.145-.457 0-.26.208-.365t.458-.114q.26-.01.468-.167.208-.145.208-.478v-9.385q0-.75-.115-1.03-.104-.292-.489-.437-.041-.021-.416-.104-.78-.188-.78-.52 0-.812 2.091-.812.885 0 1.238.208.354.208.354.895 0 .208-.01.312.801-.78 1.613-1.186t2.07-.406q1.26 0 2.352.707 1.102.708 1.664 1.873.562 1.155.562 2.58 0 2.259-1.477 3.726t-3.756 1.467q-1.28 0-2.924-.843v2.955q0 .603.666.635.676.041.676.54 0 .573-.635.708-.457.104-1.3.104" style="font-weight:400;font-family:Corben;-inkscape-font-specification:Corben;text-align:start;text-anchor:start" transform="translate(29.1 -27.377)scale(.57286)"/></g><g style="fill:#000"><path d="M325.75 489.534a161 161 0 0 1-16.002-.892c-18.013-1.904-38.14-8.097-57.094-18.676l-.022.002-1.261-.712q-.63-.357-1.257-.724l-.098-.058-.606-.356-.547-.323a153 153 0 0 1-2.494-1.514l-.457-.286q-.326-.203-.651-.407l-.13-.082a147 147 0 0 1-2.466-1.592q-.47-.31-.938-.625a156 156 0 0 1-3.927-2.717l-.162-.116q-.347-.25-.692-.501l-.349-.25a150 150 0 0 1-2.383-1.777q-.315-.24-.628-.48-.256-.197-.513-.394-.021-.015-.042-.032a156 156 0 0 1-3.442-2.752l-.062-.05q-.285-.238-.571-.477-.292-.242-.581-.483a154 154 0 0 1-2.284-1.959l-.35-.31-.54-.478-.24-.212.012.004a142 142 0 0 1-16.44-17.394l-.026-.006c-.116-.145-.225-.298-.34-.445-.497-.629-.981-1.27-1.468-1.91a136 136 0 0 1-1.555-2.073c-.479-.654-.947-1.319-1.416-1.984a134 134 0 0 1-1.555-2.253 133 133 0 0 1-2.8-4.344q-.591-.951-1.167-1.917c-.492-.826-.971-1.664-1.447-2.505-.378-.668-.757-1.334-1.125-2.01a132 132 0 0 1-1.42-2.707c-.322-.629-.65-1.252-.963-1.888a132 132 0 0 1-1.514-3.21c-.24-.522-.492-1.034-.726-1.561a131 131 0 0 1-2.068-4.913c2.619 6.048 7.968 13.4 15.742 19.823a68 68 0 0 0 6.28 4.606 66.8 66.8 0 0 0 24.013 9.634c10.023 1.893 18.157 2.336 25.702 2.109a137 137 0 0 0 4.665-.225c2.876-.184 5.703-.444 8.56-.737 2.92-.3 5.874-.63 8.94-.944s6.244-.61 9.62-.838 6.947-.387 10.798-.43c3.851-.041 7.98.035 12.474.28 1.537.068 3.013.17 4.449.29.057.005.12.007.176.012l.026.008c40.923 3.519 41.243 27.284 41.242 27.284 21.426 1.946 34.249 7.917 41.925 13.872l.069.012c.734.57 1.404 1.138 2.046 1.704.135.119.262.236.393.354.51.462.949.912 1.401 1.365.48.482.944.955 1.363 1.424.317.353.609.69.892 1.034a33 33 0 0 1 1.742 2.287c.295.43.556.833.8 1.231.172.281.34.551.49.814.215.38.393.719.563 1.056.111.222.229.44.322.642.158.339.276.618.387.894.06.149.114.264.163.393.274.725.383 1.156.382 1.156a84 84 0 0 0-3.06-.924c-.41-.115-.813-.213-1.22-.32-.607-.162-1.217-.324-1.82-.47-.438-.105-.873-.197-1.308-.294-.562-.125-1.123-.251-1.68-.363-.484-.097-.964-.183-1.446-.27a81 81 0 0 0-1.477-.26q-.5-.079-1-.152a83 83 0 0 0-4.89-.573c-.88-.079-1.753-.126-2.627-.178-21.374-1.271-41.224 5.21-68.29 5.043" clip-path="url(#a)" style="display:inline;fill:#000;fill-opacity:1;fill-rule:evenodd;stroke:none" transform="matrix(.2578 0 0 -.2578 -46.873 136.646)"/><path d="M.132 35.298S4.734 18.903 24.8 11.715c9.497-3.402 19.405-1.639 24.362-.986 5.451.717 10.701-.543 10.701-.543s-4.878-1.728-10.133-4.66c-7.454-4.158-12.666-1.222-12.666-1.222s1.4-2.378.55-3.246c-2.311-2.355-11.057 1.877-11.057 1.877S27.906.132 25.57.132c-1.83 0-9.219 2.718-14.162 8.599C.152 22.12.132 35.298.132 35.298" style="fill:#000;fill-opacity:1;stroke:none;stroke-width:.264583px;stroke-linecap:butt;stroke-linejoin:miter;stroke-opacity:1" transform="translate(-.132 -.132)"/></g></svg>