<?xml version="1.0" encoding="UTF-8" standalone="no"?>
<svg
   width="911.46613"
   height="132.91051"
   viewBox="0 0 241.15859 35.166002"
   version="1.1"
   id="svg706"
   sodipodi:docname="cnp-logotype-hoz-white.svg"
   inkscape:version="1.2.2 (b0a8486541, 2022-12-01)"
   inkscape:export-filename="PNGs/cnp-logotype-hoz-white.png"
   inkscape:export-xdpi="168.5197"
   inkscape:export-ydpi="168.5197"
   xmlns:inkscape="http://www.inkscape.org/namespaces/inkscape"
   xmlns:sodipodi="http://sodipodi.sourceforge.net/DTD/sodipodi-0.dtd"
   xmlns="http://www.w3.org/2000/svg"
   xmlns:svg="http://www.w3.org/2000/svg">
  <sodipodi:namedview
     id="namedview708"
     pagecolor="#ffffff"
     bordercolor="#000000"
     borderopacity="0.25"
     inkscape:showpageshadow="2"
     inkscape:pageopacity="0.0"
     inkscape:pagecheckerboard="0"
     inkscape:deskcolor="#d1d1d1"
     showgrid="false"
     inkscape:zoom="1.3808627"
     inkscape:cx="456.23653"
     inkscape:cy="66.987109"
     inkscape:window-width="1920"
     inkscape:window-height="1024"
     inkscape:window-x="0"
     inkscape:window-y="0"
     inkscape:window-maximized="1"
     inkscape:current-layer="svg706" />
  <defs
     id="defs690">
    <clipPath
       id="a"
       clipPathUnits="userSpaceOnUse">
      <path
         d="M -9,-9 H 605 V 851 H -9 Z"
         clip-rule="evenodd"
         id="path687" />
    </clipPath>
  </defs>
  <g
     style="fill:#ffffff"
     id="g704"
     transform="translate(-4.0831982e-4)">
    <path
       d="m 325.75,489.534 a 161,161 0 0 1 -16.002,-0.892 c -18.013,-1.904 -38.14,-8.097 -57.094,-18.676 l -0.022,0.002 -1.261,-0.712 q -0.63,-0.357 -1.257,-0.724 l -0.098,-0.058 -0.606,-0.356 -0.547,-0.323 a 153,153 0 0 1 -2.494,-1.514 l -0.457,-0.286 q -0.326,-0.203 -0.651,-0.407 l -0.13,-0.082 a 147,147 0 0 1 -2.466,-1.592 q -0.47,-0.31 -0.938,-0.625 a 156,156 0 0 1 -3.927,-2.717 l -0.162,-0.116 q -0.347,-0.25 -0.692,-0.501 l -0.349,-0.25 a 150,150 0 0 1 -2.383,-1.777 q -0.315,-0.24 -0.628,-0.48 -0.256,-0.197 -0.513,-0.394 -0.021,-0.015 -0.042,-0.032 a 156,156 0 0 1 -3.442,-2.752 l -0.062,-0.05 q -0.285,-0.238 -0.571,-0.477 -0.292,-0.242 -0.581,-0.483 a 154,154 0 0 1 -2.284,-1.959 l -0.35,-0.31 -0.54,-0.478 -0.24,-0.212 0.012,0.004 a 142,142 0 0 1 -16.44,-17.394 l -0.026,-0.006 c -0.116,-0.145 -0.225,-0.298 -0.34,-0.445 -0.497,-0.629 -0.981,-1.27 -1.468,-1.91 a 136,136 0 0 1 -1.555,-2.073 c -0.479,-0.654 -0.947,-1.319 -1.416,-1.984 a 134,134 0 0 1 -1.555,-2.253 133,133 0 0 1 -2.8,-4.344 q -0.591,-0.951 -1.167,-1.917 c -0.492,-0.826 -0.971,-1.664 -1.447,-2.505 -0.378,-0.668 -0.757,-1.334 -1.125,-2.01 a 132,132 0 0 1 -1.42,-2.707 c -0.322,-0.629 -0.65,-1.252 -0.963,-1.888 a 132,132 0 0 1 -1.514,-3.21 c -0.24,-0.522 -0.492,-1.034 -0.726,-1.561 a 131,131 0 0 1 -2.068,-4.913 c 2.619,6.048 7.968,13.4 15.742,19.823 a 68,68 0 0 0 6.28,4.606 66.8,66.8 0 0 0 24.013,9.634 c 10.023,1.893 18.157,2.336 25.702,2.109 a 137,137 0 0 0 4.665,-0.225 c 2.876,-0.184 5.703,-0.444 8.56,-0.737 2.92,-0.3 5.874,-0.63 8.94,-0.944 3.066,-0.314 6.244,-0.61 9.62,-0.838 3.376,-0.228 6.947,-0.387 10.798,-0.43 3.851,-0.041 7.98,0.035 12.474,0.28 1.537,0.068 3.013,0.17 4.449,0.29 0.057,0.005 0.12,0.007 0.176,0.012 l 0.026,0.008 c 40.923,3.519 41.243,27.284 41.242,27.284 21.426,1.946 34.249,7.917 41.925,13.872 l 0.069,0.012 c 0.734,0.57 1.404,1.138 2.046,1.704 0.135,0.119 0.262,0.236 0.393,0.354 0.51,0.462 0.949,0.912 1.401,1.365 0.48,0.482 0.944,0.955 1.363,1.424 0.317,0.353 0.609,0.69 0.892,1.034 a 33,33 0 0 1 1.742,2.287 c 0.295,0.43 0.556,0.833 0.8,1.231 0.172,0.281 0.34,0.551 0.49,0.814 0.215,0.38 0.393,0.719 0.563,1.056 0.111,0.222 0.229,0.44 0.322,0.642 0.158,0.339 0.276,0.618 0.387,0.894 0.06,0.149 0.114,0.264 0.163,0.393 0.274,0.725 0.383,1.156 0.382,1.156 a 84,84 0 0 0 -3.06,-0.924 c -0.41,-0.115 -0.813,-0.213 -1.22,-0.32 -0.607,-0.162 -1.217,-0.324 -1.82,-0.47 -0.438,-0.105 -0.873,-0.197 -1.308,-0.294 -0.562,-0.125 -1.123,-0.251 -1.68,-0.363 -0.484,-0.097 -0.964,-0.183 -1.446,-0.27 a 81,81 0 0 0 -1.477,-0.26 q -0.5,-0.079 -1,-0.152 a 83,83 0 0 0 -4.89,-0.573 c -0.88,-0.079 -1.753,-0.126 -2.627,-0.178 -21.374,-1.271 -41.224,5.21 -68.29,5.043"
       clip-path="url(#a)"
       style="display:inline;fill:#ffffff;fill-opacity:1;fill-rule:evenodd;stroke:none"
       transform="matrix(0.2578,0,0,-0.2578,-46.873,136.646)"
       id="path700" />
    <path
       d="m 0.132,35.298 c 0,0 4.602,-16.395 24.668,-23.583 9.497,-3.402 19.405,-1.639 24.362,-0.986 5.451,0.717 10.701,-0.543 10.701,-0.543 0,0 -4.878,-1.728 -10.133,-4.66 C 42.276,1.368 37.064,4.304 37.064,4.304 c 0,0 1.4,-2.378 0.55,-3.246 -2.311,-2.355 -11.057,1.877 -11.057,1.877 0,0 1.349,-2.803 -0.987,-2.803 -1.83,0 -9.219,2.718 -14.162,8.599 C 0.152,22.12 0.132,35.298 0.132,35.298"
       style="fill:#ffffff;fill-opacity:1;stroke:none;stroke-width:0.264583px;stroke-linecap:butt;stroke-linejoin:miter;stroke-opacity:1"
       transform="translate(-0.132,-0.132)"
       id="path702" />
  </g>
  <g
     id="g739"
     transform="matrix(0.90432494,0,0,0.90432494,5.7899806,1.3940859)"
     style="fill:#ffffff">
    <g
       aria-label="Partneriaeth Natur Ceredigion"
       id="text345"
       style="font-weight:700;font-size:13.6548px;line-height:1.25;font-family:'IBM Plex Sans';-inkscape-font-specification:'IBM Plex Sans Bold';text-align:center;text-anchor:middle;display:inline;stroke-width:0.341373">
      <path
         d="m 66.052287,13.93255 q 0.450609,-0.02731 0.641776,-0.191167 0.204822,-0.163858 0.259441,-0.491573 0.05462,-0.327715 0.05462,-0.832943 V 6.7364704 q 0,-0.3004056 0.01365,-0.5735016 0.01365,-0.2867508 0.02731,-0.4915728 -0.232132,0.013655 -0.505228,0.02731 -0.273096,0.013655 -0.491573,0.02731 V 4.9750011 q 0.805633,-0.013655 1.638576,-0.013655 0.832943,-0.013655 1.693195,-0.013655 1.283552,0 2.171114,0.3140605 0.901217,0.3004056 1.379135,0.9285264 0.491572,0.614466 0.505227,1.5566472 0.01365,0.5325372 -0.191167,1.1060389 -0.204822,0.5598468 -0.696395,1.0514196 -0.491573,0.4779179 -1.33817,0.7783239 -0.832943,0.300405 -2.10284,0.300405 -0.136548,0.01365 -0.31406,0.01365 -0.163858,0 -0.34137,-0.01365 v 1.720505 q 0,0.36868 -0.01365,0.669085 0,0.286751 -0.02731,0.464264 0.191167,-0.01365 0.409644,-0.02731 0.218476,-0.01365 0.423298,-0.01365 0.218477,-0.01365 0.39599,-0.02731 v 0.764668 h -3.591213 z m 2.403245,-3.673141 q 0.232132,0.02731 0.395989,0.04096 0.177513,0 0.409644,0 0.764669,0 1.351826,-0.286751 0.587156,-0.2867503 0.914871,-0.8329423 0.327715,-0.546192 0.327715,-1.2972061 0,-0.6554304 -0.204822,-1.092384 Q 71.459588,6.3404812 71.104563,6.0946948 70.763193,5.8352536 70.312585,5.7260152 69.861977,5.6167768 69.356749,5.6167768 q -0.409644,0 -0.600811,0.1638576 -0.191168,0.1638576 -0.245787,0.477918 -0.05462,0.3140604 -0.05462,0.8056332 z"
         style="font-weight:500;font-family:Lora;-inkscape-font-specification:'Lora Medium';text-align:start;text-anchor:start"
         id="path173" />
      <path
         d="m 77.768926,14.533361 q -0.02731,-0.218476 -0.04096,-0.382334 -0.01365,-0.163858 -0.04096,-0.34137 -0.464263,0.464263 -0.996801,0.71005 -0.532537,0.232131 -1.106038,0.232131 -0.983146,0 -1.488374,-0.477918 -0.491573,-0.491573 -0.491573,-1.215277 0,-0.628121 0.36868,-1.092384 0.36868,-0.464263 0.969491,-0.751014 0.600811,-0.300406 1.310861,-0.436954 0.710049,-0.150202 1.392789,-0.150202 V 9.8224553 q 0,-0.4369536 -0.08193,-0.8056332 -0.08193,-0.3823344 -0.34137,-0.6144661 -0.245787,-0.2457864 -0.778324,-0.2457864 -0.355025,-0.013655 -0.71005,0.136548 -0.355024,0.136548 -0.546192,0.4642633 0.109239,0.1092384 0.136548,0.2594412 0.04096,0.136548 0.04096,0.2594412 0,0.1911672 -0.163858,0.4369536 -0.163857,0.2321316 -0.559847,0.2184768 -0.327715,0 -0.505227,-0.2184768 -0.163858,-0.2321316 -0.163858,-0.5325372 0,-0.4915728 0.355025,-0.8739073 0.36868,-0.3823344 0.9968,-0.6008112 0.628121,-0.2184768 1.406445,-0.2184768 1.174313,0 1.747814,0.614466 0.587157,0.6144661 0.587157,1.9389816 0,0.491573 0,0.942181 0,0.450609 -0.01365,0.901217 0,0.450609 0,0.955836 0,0.204822 -0.01365,0.464263 -0.01365,0.259442 -0.04096,0.546192 0.232131,-0.01365 0.477918,-0.02731 0.245786,-0.01365 0.464263,-0.01365 v 0.723704 z m -0.122894,-3.277152 q -0.436953,0.02731 -0.901216,0.122894 -0.450609,0.09558 -0.819288,0.28675 -0.36868,0.191168 -0.600812,0.491573 -0.218476,0.300406 -0.218476,0.723705 0.02731,0.464263 0.300405,0.68274 0.286751,0.218476 0.669085,0.218476 0.477918,0 0.846598,-0.177512 0.36868,-0.191167 0.723704,-0.518882 -0.01365,-0.150203 -0.01365,-0.300406 0,-0.163858 0,-0.34137 0,-0.122893 0,-0.450608 0.01365,-0.34137 0.01365,-0.73736 z"
         style="font-weight:500;font-family:Lora;-inkscape-font-specification:'Lora Medium';text-align:start;text-anchor:start"
         id="path175" />
      <path
         d="m 80.827588,13.95986 q 0.409644,0 0.573502,-0.191167 0.163857,-0.191168 0.191167,-0.532538 0.04096,-0.34137 0.04096,-0.791978 V 9.6039785 q 0,-0.2184768 0,-0.4642632 0.01365,-0.2594412 0.05462,-0.5052276 -0.232132,0.013655 -0.491573,0.02731 -0.259441,0 -0.477918,0.013655 V 7.9517476 h 0.464263 q 0.573502,0 0.873907,-0.1228932 0.300406,-0.1228932 0.436954,-0.2594412 h 0.491573 q 0.02731,0.1911672 0.04096,0.5325372 0.01365,0.34137 0.02731,0.7646689 0.259441,-0.3823344 0.600811,-0.6827401 0.34137,-0.3140604 0.737359,-0.5052276 0.409644,-0.1911672 0.846598,-0.1911672 0.423299,0 0.723704,0.2321316 0.314061,0.2184768 0.314061,0.7237044 0,0.1365481 -0.08193,0.3140605 -0.06827,0.1775124 -0.245787,0.3140604 -0.163857,0.1228932 -0.450608,0.1228932 -0.286751,-0.013655 -0.505228,-0.2184768 -0.204822,-0.204822 -0.191167,-0.5598469 -0.327715,0 -0.65543,0.2048221 -0.327716,0.1911672 -0.614466,0.5188824 -0.273096,0.3277152 -0.464264,0.7100496 v 2.9904011 q 0,0.245787 -0.01365,0.505228 0,0.245786 -0.04096,0.505227 0.218477,-0.01365 0.450609,-0.01365 0.232131,-0.01365 0.423298,-0.02731 v 0.723704 h -3.058675 z"
         style="font-weight:500;font-family:Lora;-inkscape-font-specification:'Lora Medium';text-align:start;text-anchor:start"
         id="path177" />
      <path
         d="m 89.630383,14.751838 q -0.34137,0 -0.696395,-0.09558 -0.34137,-0.08193 -0.628121,-0.34137 -0.28675,-0.273096 -0.450608,-0.778324 -0.163858,-0.505228 -0.163858,-1.33817 l 0.02731,-3.7277609 H 86.708256 V 7.7059612 q 0.368679,-0.013655 0.751014,-0.273096 0.382334,-0.2594412 0.669085,-0.6963948 0.286751,-0.4369536 0.395989,-0.9421812 h 0.641776 v 1.911672 h 2.102839 v 0.7100496 l -2.102839,0.02731 -0.02731,3.6458316 q 0,0.518883 0.08193,0.914872 0.09558,0.382334 0.300406,0.600811 0.218476,0.204822 0.587156,0.204822 0.31406,0 0.641776,-0.191167 0.34137,-0.191167 0.641775,-0.628121 l 0.464263,0.409644 q -0.327715,0.477918 -0.65543,0.751014 -0.327715,0.273096 -0.628121,0.395989 -0.300405,0.136548 -0.546192,0.163858 -0.245786,0.04096 -0.395989,0.04096 z"
         style="font-weight:500;font-family:Lora;-inkscape-font-specification:'Lora Medium';text-align:start;text-anchor:start"
         id="path179" />
      <path
         d="M 92.429615,14.533361 V 13.95986 q 0.409644,0 0.573502,-0.191167 0.163857,-0.191168 0.191167,-0.532538 0.04096,-0.34137 0.04096,-0.791978 l 0.01365,-2.8401985 q 0,-0.2184768 0,-0.4642632 0.01365,-0.2594412 0.05462,-0.5052276 -0.245786,0.013655 -0.505227,0.02731 -0.245787,0 -0.464263,0.013655 V 7.9517476 q 0.614466,0 0.955836,-0.054619 0.355024,-0.068274 0.532537,-0.1502028 0.191167,-0.081929 0.286751,-0.1775124 h 0.491572 q 0.01365,0.1228932 0.01365,0.2321316 0.01365,0.1092384 0.01365,0.2321316 0.01365,0.1228932 0.02731,0.3140604 0.300405,-0.2457864 0.65543,-0.4369536 0.355025,-0.1911672 0.737359,-0.3004056 0.395989,-0.1228932 0.751014,-0.1228932 1.215278,0 1.747815,0.7373592 0.546192,0.7373593 0.546192,2.3076614 v 2.307661 q 0,0.245787 -0.01365,0.505228 -0.01365,0.245786 -0.04096,0.505227 0.218476,-0.01365 0.436953,-0.01365 0.232132,-0.01365 0.423299,-0.02731 v 0.723704 H 96.85377 V 13.95986 q 0.409644,0 0.573502,-0.191167 0.163858,-0.191168 0.191167,-0.532538 0.04096,-0.34137 0.04096,-0.791978 V 10.532505 Q 97.645749,9.4537757 97.304379,8.9075837 96.976664,8.3613916 96.239304,8.3750464 q -0.436953,0 -0.860252,0.2184769 -0.423299,0.2184768 -0.71005,0.5325372 0,0.136548 0,0.3004056 0,0.1502028 0,0.3140604 v 3.0996395 q 0,0.245787 -0.01365,0.505228 -0.01365,0.245786 -0.04096,0.505227 0.218477,-0.01365 0.436954,-0.01365 0.232131,-0.01365 0.423299,-0.02731 v 0.723704 z"
         style="font-weight:500;font-family:Lora;-inkscape-font-specification:'Lora Medium';text-align:start;text-anchor:start"
         id="path181" />
      <path
         d="m 104.13179,14.751838 q -0.95584,0 -1.72051,-0.436953 -0.75101,-0.450609 -1.18797,-1.256242 -0.43695,-0.819288 -0.43695,-1.925327 0,-0.955836 0.4233,-1.7887787 0.43695,-0.8329428 1.21528,-1.3381705 0.77832,-0.5188824 1.80243,-0.5188824 0.5735,0 1.07873,0.1775124 0.51888,0.1775124 0.91487,0.5598468 0.40965,0.3686797 0.64178,0.9694909 0.23213,0.5871564 0.23213,1.4337545 l -4.69725,0.08193 q 0,0.928527 0.20482,1.652231 0.21848,0.723705 0.69639,1.119694 0.47792,0.395989 1.24259,0.395989 0.36868,0 0.77833,-0.122893 0.42329,-0.136548 0.79197,-0.382335 0.38234,-0.245786 0.64178,-0.587156 l 0.4233,0.36868 q -0.40965,0.614466 -0.94218,0.96949 -0.53254,0.34137 -1.09239,0.477918 -0.54619,0.150203 -1.01045,0.150203 z m -1.67954,-4.7518703 h 3.15426 q 0,-0.5188824 -0.15021,-0.9285264 -0.13654,-0.4232988 -0.43695,-0.6690853 -0.30041,-0.2457864 -0.76467,-0.2457864 -0.7237,0 -1.18797,0.4642633 -0.46426,0.4506084 -0.61446,1.3791348 z"
         style="font-weight:500;font-family:Lora;-inkscape-font-specification:'Lora Medium';text-align:start;text-anchor:start"
         id="path183" />
      <path
         d="m 108.24189,13.95986 q 0.40964,0 0.5735,-0.191167 0.16386,-0.191168 0.19117,-0.532538 0.041,-0.34137 0.041,-0.791978 V 9.6039785 q 0,-0.2184768 0,-0.4642632 0.0137,-0.2594412 0.0546,-0.5052276 -0.23213,0.013655 -0.49157,0.02731 -0.25944,0 -0.47792,0.013655 V 7.9517476 h 0.46426 q 0.5735,0 0.87391,-0.1228932 0.30041,-0.1228932 0.43695,-0.2594412 h 0.49158 q 0.0273,0.1911672 0.041,0.5325372 0.0137,0.34137 0.0273,0.7646689 0.25944,-0.3823344 0.60081,-0.6827401 0.34137,-0.3140604 0.73736,-0.5052276 0.40965,-0.1911672 0.8466,-0.1911672 0.4233,0 0.7237,0.2321316 0.31406,0.2184768 0.31406,0.7237044 0,0.1365481 -0.0819,0.3140605 -0.0683,0.1775124 -0.24578,0.3140604 -0.16386,0.1228932 -0.45061,0.1228932 -0.28675,-0.013655 -0.50523,-0.2184768 -0.20482,-0.204822 -0.19116,-0.5598469 -0.32772,0 -0.65544,0.2048221 -0.32771,0.1911672 -0.61446,0.5188824 -0.2731,0.3277152 -0.46426,0.7100496 v 2.9904011 q 0,0.245787 -0.0137,0.505228 0,0.245786 -0.041,0.505227 0.21847,-0.01365 0.4506,-0.01365 0.23214,-0.01365 0.4233,-0.02731 v 0.723704 h -3.05867 z"
         style="font-weight:500;font-family:Lora;-inkscape-font-specification:'Lora Medium';text-align:start;text-anchor:start"
         id="path185" />
      <path
         d="m 114.37288,13.95986 q 0.40965,0 0.57351,-0.191167 0.16385,-0.191168 0.19116,-0.532538 0.041,-0.34137 0.041,-0.791978 V 9.6176333 q 0,-0.2321316 0.0136,-0.4642632 0.0137,-0.2457864 0.041,-0.5188824 -0.23213,0.013655 -0.49158,0.02731 -0.25944,0 -0.47791,0.013655 V 7.9517476 q 0.61446,0 0.96949,-0.054619 0.36868,-0.068274 0.55984,-0.1502028 0.20483,-0.081929 0.30041,-0.1775124 h 0.51888 v 5.2707528 q 0,0.245787 -0.0136,0.505228 -0.0137,0.245786 -0.041,0.505227 0.21848,-0.01365 0.43696,-0.01365 0.23213,-0.01365 0.4233,-0.02731 v 0.723704 h -3.04503 z m 1.44741,-7.6466884 q -0.35502,0 -0.60081,-0.2594412 -0.24578,-0.273096 -0.24578,-0.6554304 0,-0.3823345 0.25944,-0.6417757 0.25944,-0.273096 0.58715,-0.273096 0.35503,0 0.58716,0.273096 0.24579,0.2594412 0.24579,0.6417757 0,0.3823344 -0.24579,0.6554304 -0.23213,0.2594412 -0.58716,0.2594412 z"
         style="font-weight:500;font-family:Lora;-inkscape-font-specification:'Lora Medium';text-align:start;text-anchor:start"
         id="path187" />
      <path
         d="m 122.44286,14.533361 q -0.0273,-0.218476 -0.041,-0.382334 -0.0137,-0.163858 -0.041,-0.34137 -0.46427,0.464263 -0.99681,0.71005 -0.53253,0.232131 -1.10603,0.232131 -0.98315,0 -1.48838,-0.477918 -0.49157,-0.491573 -0.49157,-1.215277 0,-0.628121 0.36868,-1.092384 0.36868,-0.464263 0.96949,-0.751014 0.60081,-0.300406 1.31086,-0.436954 0.71005,-0.150202 1.39279,-0.150202 V 9.8224553 q 0,-0.4369536 -0.0819,-0.8056332 -0.0819,-0.3823344 -0.34137,-0.6144661 -0.24578,-0.2457864 -0.77832,-0.2457864 -0.35503,-0.013655 -0.71005,0.136548 -0.35503,0.136548 -0.54619,0.4642633 0.10924,0.1092384 0.13654,0.2594412 0.041,0.136548 0.041,0.2594412 0,0.1911672 -0.16386,0.4369536 -0.16386,0.2321316 -0.55985,0.2184768 -0.32771,0 -0.50522,-0.2184768 -0.16386,-0.2321316 -0.16386,-0.5325372 0,-0.4915728 0.35502,-0.8739073 0.36868,-0.3823344 0.9968,-0.6008112 0.62813,-0.2184768 1.40645,-0.2184768 1.17431,0 1.74781,0.614466 0.58716,0.6144661 0.58716,1.9389816 0,0.491573 0,0.942181 0,0.450609 -0.0136,0.901217 0,0.450609 0,0.955836 0,0.204822 -0.0137,0.464263 -0.0136,0.259442 -0.041,0.546192 0.23213,-0.01365 0.47791,-0.02731 0.24579,-0.01365 0.46427,-0.01365 v 0.723704 z m -0.12289,-3.277152 q -0.43695,0.02731 -0.90122,0.122894 -0.4506,0.09558 -0.81928,0.28675 -0.36868,0.191168 -0.60082,0.491573 -0.21847,0.300406 -0.21847,0.723705 0.0273,0.464263 0.3004,0.68274 0.28675,0.218476 0.66909,0.218476 0.47792,0 0.8466,-0.177512 0.36868,-0.191167 0.7237,-0.518882 -0.0136,-0.150203 -0.0136,-0.300406 0,-0.163858 0,-0.34137 0,-0.122893 0,-0.450608 0.0136,-0.34137 0.0136,-0.73736 z"
         style="font-weight:500;font-family:Lora;-inkscape-font-specification:'Lora Medium';text-align:start;text-anchor:start"
         id="path189" />
      <path
         d="m 128.77868,14.751838 q -0.95584,0 -1.7205,-0.436953 -0.75102,-0.450609 -1.18797,-1.256242 -0.43696,-0.819288 -0.43696,-1.925327 0,-0.955836 0.4233,-1.7887787 0.43696,-0.8329428 1.21528,-1.3381705 0.77832,-0.5188824 1.80243,-0.5188824 0.57351,0 1.07873,0.1775124 0.51889,0.1775124 0.91487,0.5598468 0.40965,0.3686797 0.64178,0.9694909 0.23213,0.5871564 0.23213,1.4337545 l -4.69725,0.08193 q 0,0.928527 0.20482,1.652231 0.21848,0.723705 0.6964,1.119694 0.47792,0.395989 1.24258,0.395989 0.36868,0 0.77833,-0.122893 0.4233,-0.136548 0.79198,-0.382335 0.38233,-0.245786 0.64177,-0.587156 l 0.4233,0.36868 q -0.40964,0.614466 -0.94218,0.96949 -0.53254,0.34137 -1.09238,0.477918 -0.5462,0.150203 -1.01046,0.150203 z m -1.67954,-4.7518703 h 3.15426 q 0,-0.5188824 -0.1502,-0.9285264 -0.13655,-0.4232988 -0.43696,-0.6690853 -0.3004,-0.2457864 -0.76467,-0.2457864 -0.7237,0 -1.18796,0.4642633 -0.46427,0.4506084 -0.61447,1.3791348 z"
         style="font-weight:500;font-family:Lora;-inkscape-font-specification:'Lora Medium';text-align:start;text-anchor:start"
         id="path191" />
      <path
         d="m 135.43312,14.751838 q -0.34137,0 -0.6964,-0.09558 -0.34137,-0.08193 -0.62812,-0.34137 -0.28675,-0.273096 -0.45061,-0.778324 -0.16386,-0.505228 -0.16386,-1.33817 l 0.0273,-3.7277609 h -1.01045 V 7.7059612 q 0.36868,-0.013655 0.75101,-0.273096 0.38234,-0.2594412 0.66909,-0.6963948 0.28675,-0.4369536 0.39599,-0.9421812 h 0.64177 v 1.911672 h 2.10284 v 0.7100496 l -2.10284,0.02731 -0.0273,3.6458316 q 0,0.518883 0.0819,0.914872 0.0956,0.382334 0.30041,0.600811 0.21847,0.204822 0.58715,0.204822 0.31406,0 0.64178,-0.191167 0.34137,-0.191167 0.64177,-0.628121 l 0.46427,0.409644 q -0.32772,0.477918 -0.65543,0.751014 -0.32772,0.273096 -0.62812,0.395989 -0.30041,0.136548 -0.5462,0.163858 -0.24578,0.04096 -0.39598,0.04096 z"
         style="font-weight:500;font-family:Lora;-inkscape-font-specification:'Lora Medium';text-align:start;text-anchor:start"
         id="path193" />
      <path
         d="m 142.5063,13.95986 q 0.40965,0 0.57351,-0.191167 0.17751,-0.191168 0.20482,-0.532538 0.041,-0.34137 0.041,-0.791978 l -0.0137,-1.911672 q 0,-1.0787293 -0.34137,-1.6112665 -0.32772,-0.5461921 -1.06508,-0.5325373 -0.45061,0.013655 -0.88756,0.2184769 -0.4233,0.204822 -0.71005,0.5188824 v 3.7141055 q 0,0.245787 -0.0137,0.505228 -0.0137,0.245786 -0.041,0.505227 0.21848,-0.01365 0.43696,-0.01365 0.23213,-0.01365 0.42329,-0.02731 v 0.723704 h -3.04502 V 13.95986 q 0.40965,0 0.57351,-0.191167 0.16385,-0.191168 0.20482,-0.532538 0.041,-0.34137 0.041,-0.791978 V 6.2722072 q 0,-0.2321316 0,-0.4642632 0.0137,-0.2457864 0.041,-0.5188824 -0.23214,0.013655 -0.49158,0.02731 -0.25944,0 -0.47791,0.013655 V 4.6063215 q 0.61446,0 0.98314,-0.054619 0.36868,-0.068274 0.55985,-0.1502028 0.20482,-0.081929 0.3004,-0.1775124 h 0.50523 v 4.1237497 q 0.30041,-0.2457864 0.66909,-0.4369536 0.36868,-0.1911672 0.75101,-0.3004056 0.39599,-0.1228932 0.73736,-0.1228932 1.21528,0 1.73416,0.7373592 0.53254,0.7373593 0.54619,2.3076614 v 2.307661 q 0,0.245787 -0.0136,0.505228 0,0.245786 -0.041,0.505227 0.21848,-0.01365 0.45061,-0.01365 0.23213,-0.01365 0.4233,-0.02731 v 0.723704 h -3.05868 z"
         style="font-weight:500;font-family:Lora;-inkscape-font-specification:'Lora Medium';text-align:start;text-anchor:start"
         id="path195" />
      <path
         d="m 157.63584,14.724529 -5.07959,-6.7454718 q -0.1502,-0.1775124 -0.28675,-0.3686796 -0.13655,-0.1911672 -0.28675,-0.3959892 h -0.0137 l 0.041,5.3117176 q 0,0.34137 -0.0137,0.68274 0,0.34137 -0.0273,0.628121 0.23214,-0.02731 0.50523,-0.02731 0.28675,-0.01365 0.49157,-0.02731 v 0.751014 h -2.70365 V 13.93255 q 0.38234,0 0.57351,-0.150203 0.20482,-0.150202 0.27309,-0.395989 0.0819,-0.245786 0.0819,-0.573501 V 6.695506 q 0,-0.273096 0,-0.546192 0,-0.273096 0.0137,-0.477918 -0.21848,0.013655 -0.49158,0.02731 -0.25944,0.013655 -0.46426,0.02731 V 4.9750011 h 1.80243 l 4.80649,6.3221729 q 0.23213,0.300405 0.40965,0.559847 0.19116,0.259441 0.36868,0.491572 h 0.0136 l 0.0137,-5.6121226 q 0,-0.3004056 0.0136,-0.5735016 0.0137,-0.2867508 0.0273,-0.4915728 -0.24579,0.013655 -0.51888,0.02731 -0.2731,0.013655 -0.47792,0.02731 V 4.9750011 h 2.70365 v 0.6008113 q -0.43695,0.013655 -0.64177,0.1911672 -0.19117,0.1638576 -0.24579,0.4915728 -0.041,0.3140604 -0.041,0.8329428 l -0.0136,7.6330338 z"
         style="font-weight:500;font-family:Lora;-inkscape-font-specification:'Lora Medium';text-align:start;text-anchor:start"
         id="path197" />
      <path
         d="m 164.18615,14.533361 q -0.0273,-0.218476 -0.041,-0.382334 -0.0137,-0.163858 -0.041,-0.34137 -0.46427,0.464263 -0.9968,0.71005 -0.53254,0.232131 -1.10604,0.232131 -0.98315,0 -1.48838,-0.477918 -0.49157,-0.491573 -0.49157,-1.215277 0,-0.628121 0.36868,-1.092384 0.36868,-0.464263 0.96949,-0.751014 0.60081,-0.300406 1.31086,-0.436954 0.71005,-0.150202 1.39279,-0.150202 V 9.8224553 q 0,-0.4369536 -0.0819,-0.8056332 -0.0819,-0.3823344 -0.34137,-0.6144661 -0.24578,-0.2457864 -0.77832,-0.2457864 -0.35502,-0.013655 -0.71005,0.136548 -0.35502,0.136548 -0.54619,0.4642633 0.10924,0.1092384 0.13655,0.2594412 0.041,0.136548 0.041,0.2594412 0,0.1911672 -0.16386,0.4369536 -0.16385,0.2321316 -0.55984,0.2184768 -0.32772,0 -0.50523,-0.2184768 -0.16386,-0.2321316 -0.16386,-0.5325372 0,-0.4915728 0.35503,-0.8739073 0.36868,-0.3823344 0.9968,-0.6008112 0.62812,-0.2184768 1.40644,-0.2184768 1.17431,0 1.74782,0.614466 0.58715,0.6144661 0.58715,1.9389816 0,0.491573 0,0.942181 0,0.450609 -0.0137,0.901217 0,0.450609 0,0.955836 0,0.204822 -0.0137,0.464263 -0.0137,0.259442 -0.041,0.546192 0.23213,-0.01365 0.47792,-0.02731 0.24578,-0.01365 0.46426,-0.01365 v 0.723704 z m -0.1229,-3.277152 q -0.43695,0.02731 -0.90121,0.122894 -0.45061,0.09558 -0.81929,0.28675 -0.36868,0.191168 -0.60081,0.491573 -0.21848,0.300406 -0.21848,0.723705 0.0273,0.464263 0.30041,0.68274 0.28675,0.218476 0.66908,0.218476 0.47792,0 0.8466,-0.177512 0.36868,-0.191167 0.7237,-0.518882 -0.0137,-0.150203 -0.0137,-0.300406 0,-0.163858 0,-0.34137 0,-0.122893 0,-0.450608 0.0137,-0.34137 0.0137,-0.73736 z"
         style="font-weight:500;font-family:Lora;-inkscape-font-specification:'Lora Medium';text-align:start;text-anchor:start"
         id="path199" />
      <path
         d="m 169.77094,14.751838 q -0.34137,0 -0.6964,-0.09558 -0.34137,-0.08193 -0.62812,-0.34137 -0.28675,-0.273096 -0.45061,-0.778324 -0.16385,-0.505228 -0.16385,-1.33817 l 0.0273,-3.7277609 h -1.01046 V 7.7059612 q 0.36868,-0.013655 0.75101,-0.273096 0.38234,-0.2594412 0.66909,-0.6963948 0.28675,-0.4369536 0.39599,-0.9421812 h 0.64177 v 1.911672 h 2.10284 v 0.7100496 l -2.10284,0.02731 -0.0273,3.6458316 q 0,0.518883 0.0819,0.914872 0.0956,0.382334 0.30041,0.600811 0.21848,0.204822 0.58716,0.204822 0.31406,0 0.64177,-0.191167 0.34137,-0.191167 0.64178,-0.628121 l 0.46426,0.409644 q -0.32772,0.477918 -0.65543,0.751014 -0.32772,0.273096 -0.62812,0.395989 -0.30041,0.136548 -0.54619,0.163858 -0.24579,0.04096 -0.39599,0.04096 z"
         style="font-weight:500;font-family:Lora;-inkscape-font-specification:'Lora Medium';text-align:start;text-anchor:start"
         id="path201" />
      <path
         d="m 175.43768,14.751838 q -0.76467,0 -1.26989,-0.286751 -0.49158,-0.28675 -0.73736,-0.942181 -0.24579,-0.669085 -0.24579,-1.761469 V 9.6176333 q 0,-0.2321316 0,-0.477918 0.0136,-0.2594412 0.0546,-0.5052276 -0.23213,0.013655 -0.49157,0.02731 -0.25945,0 -0.46427,0.013655 V 7.9517476 h 0.32772 q 0.68274,0 1.02411,-0.1228932 0.34137,-0.1228932 0.47792,-0.2594412 h 0.51888 v 4.1647138 q 0,1.07873 0.3004,1.611267 0.30041,0.532537 1.01046,0.518882 0.46426,0 0.88756,-0.273096 0.43695,-0.273096 0.71005,-0.641775 V 9.7132169 q 0,-0.3004056 0.0137,-0.5598468 0.0136,-0.273096 0.0546,-0.5188824 -0.24578,0.013655 -0.50522,0.02731 -0.25944,0 -0.47792,0.013655 V 7.9517476 h 0.39599 q 0.60081,0 0.94218,-0.1228932 0.34137,-0.1228932 0.49157,-0.2594412 h 0.51888 l -0.0136,5.0249668 q 0,0.218477 -0.0137,0.600811 -0.0137,0.36868 -0.041,0.65543 0.23213,-0.01365 0.47792,-0.02731 0.25944,-0.01365 0.47792,-0.01365 v 0.723704 h -2.17112 q -0.0273,-0.218476 -0.0546,-0.409644 -0.0137,-0.191167 -0.041,-0.368679 -0.4233,0.395989 -0.98315,0.696395 -0.55984,0.300405 -1.17431,0.300405 z"
         style="font-weight:500;font-family:Lora;-inkscape-font-specification:'Lora Medium';text-align:start;text-anchor:start"
         id="path203" />
      <path
         d="m 180.81767,13.95986 q 0.40964,0 0.5735,-0.191167 0.16386,-0.191168 0.19117,-0.532538 0.041,-0.34137 0.041,-0.791978 V 9.6039785 q 0,-0.2184768 0,-0.4642632 0.0137,-0.2594412 0.0546,-0.5052276 -0.23213,0.013655 -0.49157,0.02731 -0.25944,0 -0.47792,0.013655 V 7.9517476 h 0.46427 q 0.5735,0 0.8739,-0.1228932 0.30041,-0.1228932 0.43696,-0.2594412 h 0.49157 q 0.0273,0.1911672 0.041,0.5325372 0.0137,0.34137 0.0273,0.7646689 0.25944,-0.3823344 0.60081,-0.6827401 0.34137,-0.3140604 0.73736,-0.5052276 0.40965,-0.1911672 0.8466,-0.1911672 0.4233,0 0.72371,0.2321316 0.31406,0.2184768 0.31406,0.7237044 0,0.1365481 -0.0819,0.3140605 -0.0683,0.1775124 -0.24579,0.3140604 -0.16386,0.1228932 -0.45061,0.1228932 -0.28675,-0.013655 -0.50522,-0.2184768 -0.20483,-0.204822 -0.19117,-0.5598469 -0.32772,0 -0.65543,0.2048221 -0.32772,0.1911672 -0.61447,0.5188824 -0.27309,0.3277152 -0.46426,0.7100496 v 2.9904011 q 0,0.245787 -0.0137,0.505228 0,0.245786 -0.041,0.505227 0.21848,-0.01365 0.45061,-0.01365 0.23213,-0.01365 0.4233,-0.02731 v 0.723704 h -3.05868 z"
         style="font-weight:500;font-family:Lora;-inkscape-font-specification:'Lora Medium';text-align:start;text-anchor:start"
         id="path205" />
      <path
         d="m 198.06368,8.0200216 q -0.1502,-1.228932 -0.8466,-1.8843624 -0.69639,-0.6690852 -1.81609,-0.68274 -0.71005,0 -1.31086,0.3140604 -0.60081,0.3140604 -1.03776,0.887562 -0.43696,0.5598468 -0.68274,1.3381704 -0.23213,0.7646689 -0.23213,1.6795405 0,1.2425865 0.43695,2.2120775 0.43695,0.955836 1.20162,1.488373 0.77833,0.532538 1.76147,0.532538 0.87391,0 1.72051,-0.409644 0.86025,-0.423299 1.4201,-1.187968 l 0.4506,0.382334 q -0.61446,0.846598 -1.31086,1.297206 -0.69639,0.450609 -1.39279,0.600812 -0.68274,0.163857 -1.24258,0.163857 -1.02411,0 -1.88437,-0.368679 -0.86025,-0.36868 -1.48837,-1.02411 -0.61446,-0.669086 -0.95583,-1.542993 -0.32772,-0.887562 -0.32772,-1.9116719 0,-0.955836 0.30041,-1.8707077 0.3004,-0.9148716 0.88756,-1.6522308 0.58715,-0.751014 1.47472,-1.1879676 0.90121,-0.4369537 2.08918,-0.4369537 0.6964,0 1.35183,0.1911672 0.66908,0.1911672 1.28355,0.5871565 l -0.0683,-0.6827401 h 0.8466 v 3.1679137 z"
         style="font-weight:500;font-family:Lora;-inkscape-font-specification:'Lora Medium';text-align:start;text-anchor:start"
         id="path207" />
      <path
         d="m 203.30712,14.751838 q -0.95584,0 -1.72051,-0.436953 -0.75101,-0.450609 -1.18796,-1.256242 -0.43696,-0.819288 -0.43696,-1.925327 0,-0.955836 0.4233,-1.7887787 0.43695,-0.8329428 1.21528,-1.3381705 0.77832,-0.5188824 1.80243,-0.5188824 0.5735,0 1.07873,0.1775124 0.51888,0.1775124 0.91487,0.5598468 0.40965,0.3686797 0.64178,0.9694909 0.23213,0.5871564 0.23213,1.4337545 l -4.69725,0.08193 q 0,0.928527 0.20482,1.652231 0.21848,0.723705 0.6964,1.119694 0.47791,0.395989 1.24258,0.395989 0.36868,0 0.77833,-0.122893 0.4233,-0.136548 0.79197,-0.382335 0.38234,-0.245786 0.64178,-0.587156 l 0.4233,0.36868 q -0.40964,0.614466 -0.94218,0.96949 -0.53254,0.34137 -1.09239,0.477918 -0.54619,0.150203 -1.01045,0.150203 z m -1.67954,-4.7518703 h 3.15426 q 0,-0.5188824 -0.15021,-0.9285264 -0.13654,-0.4232988 -0.43695,-0.6690853 -0.30041,-0.2457864 -0.76467,-0.2457864 -0.7237,0 -1.18797,0.4642633 -0.46426,0.4506084 -0.61446,1.3791348 z"
         style="font-weight:500;font-family:Lora;-inkscape-font-specification:'Lora Medium';text-align:start;text-anchor:start"
         id="path209" />
      <path
         d="m 207.41722,13.95986 q 0.40964,0 0.5735,-0.191167 0.16386,-0.191168 0.19117,-0.532538 0.041,-0.34137 0.041,-0.791978 V 9.6039785 q 0,-0.2184768 0,-0.4642632 0.0137,-0.2594412 0.0546,-0.5052276 -0.23213,0.013655 -0.49157,0.02731 -0.25944,0 -0.47792,0.013655 V 7.9517476 h 0.46426 q 0.57351,0 0.87391,-0.1228932 0.30041,-0.1228932 0.43695,-0.2594412 h 0.49158 q 0.0273,0.1911672 0.041,0.5325372 0.0137,0.34137 0.0273,0.7646689 0.25944,-0.3823344 0.60081,-0.6827401 0.34137,-0.3140604 0.73736,-0.5052276 0.40965,-0.1911672 0.8466,-0.1911672 0.4233,0 0.7237,0.2321316 0.31406,0.2184768 0.31406,0.7237044 0,0.1365481 -0.0819,0.3140605 -0.0683,0.1775124 -0.24579,0.3140604 -0.16386,0.1228932 -0.45061,0.1228932 -0.28675,-0.013655 -0.50523,-0.2184768 -0.20482,-0.204822 -0.19116,-0.5598469 -0.32772,0 -0.65543,0.2048221 -0.32772,0.1911672 -0.61447,0.5188824 -0.2731,0.3277152 -0.46426,0.7100496 v 2.9904011 q 0,0.245787 -0.0137,0.505228 0,0.245786 -0.041,0.505227 0.21847,-0.01365 0.45061,-0.01365 0.23213,-0.01365 0.42329,-0.02731 v 0.723704 h -3.05867 z"
         style="font-weight:500;font-family:Lora;-inkscape-font-specification:'Lora Medium';text-align:start;text-anchor:start"
         id="path211" />
      <path
         d="m 216.72522,14.751838 q -0.95583,0 -1.7205,-0.436953 -0.75101,-0.450609 -1.18797,-1.256242 -0.43695,-0.819288 -0.43695,-1.925327 0,-0.955836 0.4233,-1.7887787 0.43695,-0.8329428 1.21527,-1.3381705 0.77833,-0.5188824 1.80244,-0.5188824 0.5735,0 1.07873,0.1775124 0.51888,0.1775124 0.91487,0.5598468 0.40964,0.3686797 0.64177,0.9694909 0.23214,0.5871564 0.23214,1.4337545 l -4.69725,0.08193 q 0,0.928527 0.20482,1.652231 0.21847,0.723705 0.69639,1.119694 0.47792,0.395989 1.24259,0.395989 0.36868,0 0.77832,-0.122893 0.4233,-0.136548 0.79198,-0.382335 0.38234,-0.245786 0.64178,-0.587156 l 0.4233,0.36868 q -0.40965,0.614466 -0.94219,0.96949 -0.53253,0.34137 -1.09238,0.477918 -0.54619,0.150203 -1.01046,0.150203 z m -1.67954,-4.7518703 h 3.15426 q 0,-0.5188824 -0.1502,-0.9285264 -0.13655,-0.4232988 -0.43695,-0.6690853 -0.30041,-0.2457864 -0.76467,-0.2457864 -0.72371,0 -1.18797,0.4642633 -0.46426,0.4506084 -0.61447,1.3791348 z"
         style="font-weight:500;font-family:Lora;-inkscape-font-specification:'Lora Medium';text-align:start;text-anchor:start"
         id="path213" />
      <path
         d="m 223.61637,14.751838 q -0.83295,0 -1.48838,-0.409644 -0.64177,-0.423299 -1.02411,-1.201622 -0.36868,-0.778324 -0.36868,-1.829743 0,-1.119694 0.43696,-1.9799465 0.43695,-0.8602524 1.22893,-1.3518253 0.79198,-0.4915728 1.80243,-0.4915728 0.4233,0 0.80564,0.1092384 0.39599,0.095584 0.65543,0.2321316 V 6.2722072 q 0,-0.204822 0.0136,-0.4506084 0.0137,-0.2594412 0.041,-0.5325372 -0.24579,0.013655 -0.50523,0.02731 -0.25944,0.013655 -0.46426,0.013655 V 4.6063215 q 0.61446,0 0.96949,-0.054619 0.36868,-0.068274 0.55984,-0.1502028 0.20483,-0.081929 0.30041,-0.1775124 h 0.50523 v 8.6161789 q 0,0.204822 -0.0137,0.464263 -0.0137,0.259442 -0.041,0.546192 0.24578,-0.01365 0.49157,-0.02731 0.24579,-0.01365 0.45061,-0.01365 v 0.723704 h -2.17111 q -0.0273,-0.191167 -0.0546,-0.355024 -0.0137,-0.163858 -0.0273,-0.327716 -0.40965,0.436954 -0.94218,0.669086 -0.53254,0.232131 -1.16066,0.232131 z m 0.55984,-0.860252 q 0.4233,0 0.81929,-0.232132 0.40965,-0.232131 0.66909,-0.587156 0,-0.177513 0,-0.36868 0,-0.191167 0,-0.409644 V 8.5798685 q -0.25944,-0.1911673 -0.61447,-0.2867509 -0.34137,-0.1092384 -0.71005,-0.1092384 -0.66908,0 -1.13335,0.3959893 -0.45061,0.3823344 -0.66908,1.0514196 -0.21848,0.6690849 -0.20482,1.5293379 0.0273,0.737359 0.23213,1.36548 0.20482,0.628121 0.60081,0.9968 0.40964,0.36868 1.01045,0.36868 z"
         style="font-weight:500;font-family:Lora;-inkscape-font-specification:'Lora Medium';text-align:start;text-anchor:start"
         id="path215" />
      <path
         d="m 228.94174,13.95986 q 0.40964,0 0.5735,-0.191167 0.16386,-0.191168 0.19117,-0.532538 0.041,-0.34137 0.041,-0.791978 V 9.6176333 q 0,-0.2321316 0.0137,-0.4642632 0.0136,-0.2457864 0.041,-0.5188824 -0.23213,0.013655 -0.49157,0.02731 -0.25944,0 -0.47792,0.013655 V 7.9517476 q 0.61447,0 0.96949,-0.054619 0.36868,-0.068274 0.55985,-0.1502028 0.20482,-0.081929 0.30041,-0.1775124 h 0.51888 v 5.2707528 q 0,0.245787 -0.0137,0.505228 -0.0137,0.245786 -0.041,0.505227 0.21848,-0.01365 0.43695,-0.01365 0.23213,-0.01365 0.4233,-0.02731 v 0.723704 h -3.04502 z m 1.44741,-7.6466884 q -0.35503,0 -0.60081,-0.2594412 -0.24579,-0.273096 -0.24579,-0.6554304 0,-0.3823345 0.25944,-0.6417757 0.25944,-0.273096 0.58716,-0.273096 0.35502,0 0.58716,0.273096 0.24578,0.2594412 0.24578,0.6417757 0,0.3823344 -0.24578,0.6554304 -0.23214,0.2594412 -0.58716,0.2594412 z"
         style="font-weight:500;font-family:Lora;-inkscape-font-specification:'Lora Medium';text-align:start;text-anchor:start"
         id="path217" />
      <path
         d="m 236.15148,18.233812 q -1.20162,0 -1.93898,-0.273096 -0.72371,-0.259441 -1.05142,-0.68274 -0.31406,-0.409644 -0.31406,-0.873907 0,-0.36868 0.16385,-0.68274 0.17752,-0.31406 0.46427,-0.559847 0.28675,-0.232131 0.64177,-0.368679 -0.47792,-0.150203 -0.7237,-0.423299 -0.24579,-0.286751 -0.24579,-0.696395 0,-0.436954 0.34137,-0.860252 0.35503,-0.423299 1.01046,-0.573502 -0.61447,-0.273096 -0.98315,-0.791978 -0.36868,-0.518883 -0.38233,-1.228932 -0.0137,-0.8192885 0.40964,-1.4337545 0.43695,-0.6144661 1.10604,-0.9558361 0.68274,-0.34137 1.4201,-0.34137 0.4233,0 0.87391,0.1228932 0.45061,0.1092384 0.81928,0.3550248 0.15021,-0.3959892 0.39599,-0.7237044 0.24579,-0.3277152 0.57351,-0.5188824 0.34137,-0.1911672 0.71005,-0.1911672 0.39598,0 0.60081,0.204822 0.20482,0.204822 0.20482,0.546192 0,0.1092384 -0.0683,0.273096 -0.0546,0.1502028 -0.20482,0.2594412 -0.1502,0.1092384 -0.40964,0.1092384 -0.21848,0 -0.39599,-0.136548 -0.16386,-0.1502028 -0.20482,-0.3550248 -0.28675,0.054619 -0.47792,0.34137 -0.17751,0.273096 -0.23213,0.5598468 0.35502,0.3140605 0.54619,0.7510141 0.20482,0.4232988 0.20482,0.9148716 0,0.7783233 -0.4233,1.3791353 -0.40964,0.600811 -1.07873,0.942181 -0.66908,0.34137 -1.44741,0.34137 -0.23213,0 -0.43695,-0.02731 -0.20482,-0.04096 -0.45061,-0.04096 -0.43695,0 -0.7237,0.204822 -0.2731,0.204822 -0.20482,0.491573 0.0683,0.300405 0.5735,0.395989 0.50523,0.09558 1.46106,0.136548 1.05142,0.04096 1.80244,0.259441 0.76466,0.204822 1.17431,0.641776 0.4233,0.436953 0.4233,1.187967 0,0.559847 -0.31406,0.996801 -0.30041,0.436953 -0.81929,0.723704 -0.50523,0.300406 -1.13335,0.450609 -0.62812,0.150202 -1.25624,0.150202 z m 0.12289,-0.669085 q 1.10604,0 1.70685,-0.409644 0.61447,-0.409644 0.61447,-0.928526 0,-0.436954 -0.30041,-0.68274 -0.3004,-0.232132 -0.8466,-0.34137 -0.53253,-0.09558 -1.25624,-0.109239 -0.35502,-0.02731 -0.7237,-0.04096 -0.36868,-0.01365 -0.68274,-0.06827 -0.31406,0.218477 -0.49157,0.532537 -0.16386,0.31406 -0.17752,0.65543 0,0.628121 0.58716,1.010456 0.58716,0.382334 1.5703,0.382334 z m -0.17751,-5.543849 q 0.46426,0 0.76467,-0.232131 0.31406,-0.245787 0.46426,-0.641776 0.16386,-0.409644 0.16386,-0.887562 0,-0.5598469 -0.16386,-1.0514197 -0.16386,-0.4915728 -0.47792,-0.7919785 -0.31406,-0.3004056 -0.80563,-0.3004056 -0.66909,0 -1.03777,0.5325373 -0.36867,0.5325372 -0.36867,1.2835512 0,0.6008113 0.16385,1.0787293 0.17752,0.464263 0.50523,0.737359 0.32772,0.273096 0.79198,0.273096 z"
         style="font-weight:500;font-family:Lora;-inkscape-font-specification:'Lora Medium';text-align:start;text-anchor:start"
         id="path219" />
      <path
         d="m 240.85328,13.95986 q 0.40965,0 0.57351,-0.191167 0.16385,-0.191168 0.19116,-0.532538 0.041,-0.34137 0.041,-0.791978 V 9.6176333 q 0,-0.2321316 0.0137,-0.4642632 0.0137,-0.2457864 0.041,-0.5188824 -0.23213,0.013655 -0.49158,0.02731 -0.25944,0 -0.47791,0.013655 V 7.9517476 q 0.61446,0 0.96949,-0.054619 0.36868,-0.068274 0.55984,-0.1502028 0.20483,-0.081929 0.30041,-0.1775124 h 0.51888 v 5.2707528 q 0,0.245787 -0.0136,0.505228 -0.0137,0.245786 -0.041,0.505227 0.21848,-0.01365 0.43696,-0.01365 0.23213,-0.01365 0.4233,-0.02731 v 0.723704 h -3.04503 z m 1.44741,-7.6466884 q -0.35502,0 -0.60081,-0.2594412 -0.24578,-0.273096 -0.24578,-0.6554304 0,-0.3823345 0.25944,-0.6417757 0.25944,-0.273096 0.58715,-0.273096 0.35503,0 0.58716,0.273096 0.24579,0.2594412 0.24579,0.6417757 0,0.3823344 -0.24579,0.6554304 -0.23213,0.2594412 -0.58716,0.2594412 z"
         style="font-weight:500;font-family:Lora;-inkscape-font-specification:'Lora Medium';text-align:start;text-anchor:start"
         id="path221" />
      <path
         d="m 248.26783,14.751838 q -0.96949,0 -1.74781,-0.436953 -0.77833,-0.436954 -1.24259,-1.215278 -0.45061,-0.791978 -0.45061,-1.816088 0,-1.106039 0.45061,-1.9526365 0.46426,-0.8602524 1.24259,-1.3518253 0.77832,-0.4915728 1.73415,-0.4915728 0.9695,0 1.74782,0.4506084 0.77832,0.4369536 1.22893,1.2289321 0.46426,0.7783236 0.46426,1.8024341 0,1.078729 -0.4506,1.938981 -0.45061,0.860253 -1.22894,1.351825 -0.76466,0.491573 -1.74781,0.491573 z m 0.0956,-0.68274 q 0.65543,-0.01365 1.02411,-0.409644 0.38234,-0.395989 0.5462,-1.010455 0.16385,-0.628121 0.16385,-1.297206 0,-0.587156 -0.10924,-1.147003 -0.0956,-0.5735019 -0.31406,-1.0377651 -0.21847,-0.4642632 -0.5735,-0.7373593 -0.35502,-0.2867508 -0.86025,-0.273096 -0.64178,0 -1.05142,0.3959893 -0.39599,0.3959892 -0.58716,1.02411 -0.17751,0.6144661 -0.17751,1.3108611 0,0.805633 0.20482,1.529337 0.20483,0.723705 0.62812,1.187968 0.43696,0.464263 1.10604,0.464263 z"
         style="font-weight:500;font-family:Lora;-inkscape-font-specification:'Lora Medium';text-align:start;text-anchor:start"
         id="path223" />
      <path
         d="M 252.80124,14.533361 V 13.95986 q 0.40964,0 0.5735,-0.191167 0.16386,-0.191168 0.19117,-0.532538 0.041,-0.34137 0.041,-0.791978 l 0.0137,-2.8401985 q 0,-0.2184768 0,-0.4642632 0.0136,-0.2594412 0.0546,-0.5052276 -0.24578,0.013655 -0.50522,0.02731 -0.24579,0 -0.46427,0.013655 V 7.9517476 q 0.61447,0 0.95584,-0.054619 0.35502,-0.068274 0.53254,-0.1502028 0.19116,-0.081929 0.28675,-0.1775124 h 0.49157 q 0.0137,0.1228932 0.0137,0.2321316 0.0137,0.1092384 0.0137,0.2321316 0.0136,0.1228932 0.0273,0.3140604 0.30041,-0.2457864 0.65543,-0.4369536 0.35502,-0.1911672 0.73736,-0.3004056 0.39599,-0.1228932 0.75101,-0.1228932 1.21528,0 1.74782,0.7373592 0.54619,0.7373593 0.54619,2.3076614 v 2.307661 q 0,0.245787 -0.0137,0.505228 -0.0137,0.245786 -0.041,0.505227 0.21848,-0.01365 0.43695,-0.01365 0.23214,-0.01365 0.4233,-0.02731 v 0.723704 h -3.04502 V 13.95986 q 0.40965,0 0.5735,-0.191167 0.16386,-0.191168 0.19117,-0.532538 0.041,-0.34137 0.041,-0.791978 v -1.911672 q -0.0137,-1.0787293 -0.35503,-1.6249213 -0.32771,-0.5461921 -1.06507,-0.5325373 -0.43696,0 -0.86026,0.2184769 -0.42329,0.2184768 -0.71005,0.5325372 0,0.136548 0,0.3004056 0,0.1502028 0,0.3140604 v 3.0996395 q 0,0.245787 -0.0136,0.505228 -0.0137,0.245786 -0.041,0.505227 0.21847,-0.01365 0.43695,-0.01365 0.23213,-0.01365 0.4233,-0.02731 v 0.723704 z"
         style="font-weight:500;font-family:Lora;-inkscape-font-specification:'Lora Medium';text-align:start;text-anchor:start"
         id="path225" />
    </g>
    <g
       aria-label="Ceredigion Nature Partnership"
       id="text349"
       style="font-weight:700;font-size:13.511px;line-height:1.25;font-family:'IBM Plex Sans';-inkscape-font-specification:'IBM Plex Sans Bold';text-align:center;letter-spacing:0;text-anchor:middle;display:inline;stroke-width:0.337779">
      <path
         d="m 73.616713,21.057441 q -0.148621,-1.21599 -0.837682,-1.864518 -0.689061,-0.662039 -1.796963,-0.67555 -0.702572,0 -1.297056,0.310753 -0.594484,0.310753 -1.026836,0.878215 -0.432352,0.553951 -0.67555,1.324078 -0.229687,0.756616 -0.229687,1.661853 0,1.229501 0.432352,2.188782 0.432352,0.94577 1.188968,1.472699 0.770127,0.526929 1.742919,0.526929 0.864704,0 1.702386,-0.40533 0.851193,-0.418841 1.405144,-1.175457 l 0.445863,0.378308 q -0.607995,0.837682 -1.297056,1.283545 -0.689061,0.445863 -1.378122,0.594484 -0.67555,0.162132 -1.229501,0.162132 -1.013325,0 -1.864518,-0.364797 -0.851193,-0.364797 -1.472699,-1.013325 -0.607995,-0.662039 -0.94577,-1.526743 -0.324264,-0.878215 -0.324264,-1.89154 0,-0.94577 0.297242,-1.851007 0.297242,-0.905237 0.878215,-1.634831 0.580973,-0.743105 1.459188,-1.175457 0.891726,-0.432352 2.067183,-0.432352 0.689061,0 1.337589,0.189154 0.662039,0.189154 1.270034,0.580973 l -0.06755,-0.67555 h 0.837682 v 3.134552 z"
         style="font-weight:500;font-family:Lora;-inkscape-font-specification:'Lora Medium';text-align:start;text-anchor:start"
         id="path228" />
      <path
         d="m 78.804932,27.718364 q -0.94577,0 -1.702386,-0.432352 -0.743105,-0.445863 -1.175457,-1.243012 -0.432352,-0.81066 -0.432352,-1.905051 0,-0.94577 0.418841,-1.769941 0.432352,-0.824171 1.202479,-1.324078 0.770127,-0.513418 1.783452,-0.513418 0.567462,0 1.067369,0.175643 0.513418,0.175643 0.905237,0.553951 0.40533,0.364797 0.635017,0.959281 0.229687,0.580973 0.229687,1.418655 l -4.647784,0.08107 q 0,0.918748 0.202665,1.634831 0.216176,0.716083 0.689061,1.107902 0.472885,0.391819 1.229501,0.391819 0.364797,0 0.770127,-0.121599 0.418841,-0.13511 0.783638,-0.378308 0.378308,-0.243198 0.635017,-0.580973 l 0.418841,0.364797 q -0.40533,0.607995 -0.932259,0.959281 -0.526929,0.337775 -1.08088,0.472885 -0.54044,0.148621 -0.999814,0.148621 z m -1.661853,-4.701828 h 3.121041 q 0,-0.513418 -0.148621,-0.918748 -0.13511,-0.418841 -0.432352,-0.662039 -0.297242,-0.243198 -0.756616,-0.243198 -0.716083,0 -1.175457,0.459374 -0.459374,0.445863 -0.607995,1.364611 z"
         style="font-weight:500;font-family:Lora;-inkscape-font-specification:'Lora Medium';text-align:start;text-anchor:start"
         id="path230" />
      <path
         d="m 82.871748,26.934726 q 0.40533,0 0.567462,-0.189154 0.162132,-0.189154 0.189154,-0.526929 0.04053,-0.337775 0.04053,-0.783638 v -2.810288 q 0,-0.216176 0,-0.459374 0.01351,-0.256709 0.05404,-0.499907 -0.229687,0.01351 -0.486396,0.02702 -0.256709,0 -0.472885,0.01351 v -0.716083 h 0.459374 q 0.567462,0 0.864704,-0.121599 0.297242,-0.121599 0.432352,-0.256709 h 0.486396 q 0.02702,0.189154 0.04053,0.526929 0.01351,0.337775 0.02702,0.756616 0.256709,-0.378308 0.594484,-0.67555 0.337775,-0.310753 0.729594,-0.499907 0.40533,-0.189154 0.837682,-0.189154 0.418841,0 0.716083,0.229687 0.310753,0.216176 0.310753,0.716083 0,0.13511 -0.08107,0.310753 -0.06755,0.175643 -0.243198,0.310753 -0.162132,0.121599 -0.445863,0.121599 -0.283731,-0.01351 -0.499907,-0.216176 -0.202665,-0.202665 -0.189154,-0.553951 -0.324264,0 -0.648528,0.202665 -0.324264,0.189154 -0.607995,0.513418 -0.27022,0.324264 -0.459374,0.702572 v 2.958909 q 0,0.243198 -0.01351,0.499907 0,0.243198 -0.04053,0.499907 0.216176,-0.01351 0.445863,-0.01351 0.229687,-0.01351 0.418841,-0.02702 v 0.716083 h -3.026464 z"
         style="font-weight:500;font-family:Lora;-inkscape-font-specification:'Lora Medium';text-align:start;text-anchor:start"
         id="path232" />
      <path
         d="m 92.081732,27.718364 q -0.945769,0 -1.702385,-0.432352 -0.743105,-0.445863 -1.175457,-1.243012 -0.432352,-0.81066 -0.432352,-1.905051 0,-0.94577 0.418841,-1.769941 0.432352,-0.824171 1.202479,-1.324078 0.770127,-0.513418 1.783451,-0.513418 0.567462,0 1.067369,0.175643 0.513418,0.175643 0.905237,0.553951 0.40533,0.364797 0.635017,0.959281 0.229687,0.580973 0.229687,1.418655 l -4.647783,0.08107 q 0,0.918748 0.202665,1.634831 0.216176,0.716083 0.689061,1.107902 0.472885,0.391819 1.2295,0.391819 0.364797,0 0.770127,-0.121599 0.418841,-0.13511 0.783638,-0.378308 0.378308,-0.243198 0.635017,-0.580973 l 0.418841,0.364797 q -0.40533,0.607995 -0.932259,0.959281 -0.526929,0.337775 -1.08088,0.472885 -0.54044,0.148621 -0.999814,0.148621 z M 90.41988,23.016536 h 3.12104 q 0,-0.513418 -0.148621,-0.918748 -0.13511,-0.418841 -0.432352,-0.662039 -0.297242,-0.243198 -0.756616,-0.243198 -0.716082,0 -1.175456,0.459374 -0.459374,0.445863 -0.607995,1.364611 z"
         style="font-weight:500;font-family:Lora;-inkscape-font-specification:'Lora Medium';text-align:start;text-anchor:start"
         id="path234" />
      <path
         d="m 98.900304,27.718364 q -0.824171,0 -1.472699,-0.40533 -0.635017,-0.418841 -1.013325,-1.188968 -0.364797,-0.770127 -0.364797,-1.810474 0,-1.107902 0.432352,-1.959095 0.432352,-0.851193 1.21599,-1.337589 0.783638,-0.486396 1.783452,-0.486396 0.418841,0 0.797153,0.108088 0.39182,0.09458 0.64852,0.229687 v -1.540254 q 0,-0.202665 0.0135,-0.445863 0.0135,-0.256709 0.0405,-0.526929 -0.2432,0.01351 -0.49991,0.02702 -0.25671,0.01351 -0.45937,0.01351 v -0.716083 q 0.60799,0 0.95928,-0.05404 0.3648,-0.06756 0.55395,-0.148621 0.20266,-0.08107 0.29724,-0.175643 h 0.49991 v 8.525441 q 0,0.202665 -0.0135,0.459374 -0.0135,0.256709 -0.0405,0.54044 0.2432,-0.01351 0.4864,-0.02702 0.2432,-0.01351 0.44586,-0.01351 v 0.716083 h -2.14825 q -0.027,-0.189154 -0.054,-0.351286 -0.0135,-0.162132 -0.027,-0.324264 -0.40533,0.432352 -0.93226,0.662039 -0.52693,0.229687 -1.148436,0.229687 z m 0.553951,-0.851193 q 0.418841,0 0.810665,-0.229687 0.40533,-0.229687 0.66203,-0.580973 0,-0.175643 0,-0.364797 0,-0.189154 0,-0.40533 v -3.674992 q -0.2567,-0.189154 -0.60799,-0.283731 -0.337776,-0.108088 -0.702573,-0.108088 -0.662039,0 -1.121413,0.391819 -0.445863,0.378308 -0.662039,1.040347 -0.216176,0.662039 -0.202665,1.513232 0.02702,0.729594 0.229687,1.3511 0.202665,0.621506 0.594484,0.986303 0.40533,0.364797 0.999814,0.364797 z"
         style="font-weight:500;font-family:Lora;-inkscape-font-specification:'Lora Medium';text-align:start;text-anchor:start"
         id="path236" />
      <path
         d="m 104.1696,26.934726 q 0.40533,0 0.56746,-0.189154 0.16213,-0.189154 0.18915,-0.526929 0.0405,-0.337775 0.0405,-0.783638 v -2.796777 q 0,-0.229687 0.0135,-0.459374 0.0135,-0.243198 0.0405,-0.513418 -0.22969,0.01351 -0.4864,0.02702 -0.25671,0 -0.47288,0.01351 v -0.716083 q 0.60799,0 0.95928,-0.05404 0.3648,-0.06756 0.55395,-0.148621 0.20266,-0.08107 0.29724,-0.175643 h 0.51342 v 5.215246 q 0,0.243198 -0.0135,0.499907 -0.0135,0.243198 -0.0405,0.499907 0.21617,-0.01351 0.43235,-0.01351 0.22968,-0.01351 0.41884,-0.02702 v 0.716083 h -3.01295 z m 1.43216,-7.56616 q -0.35128,0 -0.59448,-0.256709 -0.2432,-0.27022 -0.2432,-0.648528 0,-0.378308 0.25671,-0.635017 0.25671,-0.27022 0.58097,-0.27022 0.35129,0 0.58097,0.27022 0.2432,0.256709 0.2432,0.635017 0,0.378308 -0.2432,0.648528 -0.22968,0.256709 -0.58097,0.256709 z"
         style="font-weight:500;font-family:Lora;-inkscape-font-specification:'Lora Medium';text-align:start;text-anchor:start"
         id="path238" />
      <path
         d="m 111.3034,31.163669 q -1.18897,0 -1.91857,-0.27022 -0.71608,-0.256709 -1.04034,-0.67555 -0.31076,-0.40533 -0.31076,-0.864704 0,-0.364797 0.16214,-0.67555 0.17564,-0.310753 0.45937,-0.553951 0.28373,-0.229687 0.63502,-0.364797 -0.47289,-0.148621 -0.71609,-0.418841 -0.24319,-0.283731 -0.24319,-0.689061 0,-0.432352 0.33777,-0.851193 0.35129,-0.418841 0.99982,-0.567462 -0.608,-0.27022 -0.9728,-0.783638 -0.36479,-0.513418 -0.3783,-1.21599 -0.0135,-0.81066 0.40533,-1.418655 0.43235,-0.607995 1.09439,-0.94577 0.67555,-0.337775 1.40514,-0.337775 0.41884,0 0.8647,0.121599 0.44587,0.108088 0.81066,0.351286 0.14863,-0.391819 0.39182,-0.716083 0.2432,-0.324264 0.56747,-0.513418 0.33777,-0.189154 0.70257,-0.189154 0.39182,0 0.59448,0.202665 0.20267,0.202665 0.20267,0.54044 0,0.108088 -0.0676,0.27022 -0.054,0.148621 -0.20266,0.256709 -0.14862,0.108088 -0.40533,0.108088 -0.21618,0 -0.39182,-0.13511 -0.16213,-0.148621 -0.20267,-0.351286 -0.28373,0.05404 -0.47288,0.337775 -0.17565,0.27022 -0.22969,0.553951 0.35129,0.310753 0.54044,0.743105 0.20267,0.418841 0.20267,0.905237 0,0.770127 -0.41885,1.364611 -0.40533,0.594484 -1.06736,0.932259 -0.66204,0.337775 -1.43217,0.337775 -0.22969,0 -0.43235,-0.02702 -0.20267,-0.04053 -0.44587,-0.04053 -0.43235,0 -0.71608,0.202665 -0.27022,0.202665 -0.20266,0.486396 0.0675,0.297242 0.56746,0.391819 0.49991,0.09458 1.44568,0.13511 1.04034,0.04053 1.78345,0.256709 0.75661,0.202665 1.16194,0.635017 0.41884,0.432352 0.41884,1.175457 0,0.553951 -0.31075,0.986303 -0.29724,0.432352 -0.81066,0.716083 -0.49991,0.297242 -1.12141,0.445863 -0.62151,0.148621 -1.24301,0.148621 z m 0.1216,-0.662039 q 1.09439,0 1.68887,-0.40533 0.608,-0.40533 0.608,-0.918748 0,-0.432352 -0.29725,-0.67555 -0.29724,-0.229687 -0.83768,-0.337775 -0.52693,-0.09458 -1.24301,-0.108088 -0.35129,-0.02702 -0.71608,-0.04053 -0.3648,-0.01351 -0.67555,-0.06755 -0.31076,0.216176 -0.4864,0.526929 -0.16213,0.310753 -0.17564,0.648528 0,0.621506 0.58097,0.999814 0.58097,0.378308 1.55377,0.378308 z m -0.17565,-5.485466 q 0.45938,0 0.75662,-0.229687 0.31075,-0.243198 0.45937,-0.635017 0.16213,-0.40533 0.16213,-0.878215 0,-0.553951 -0.16213,-1.040347 -0.16213,-0.486396 -0.47288,-0.783638 -0.31076,-0.297242 -0.79715,-0.297242 -0.66204,0 -1.02684,0.526929 -0.36479,0.526929 -0.36479,1.270034 0,0.594484 0.16213,1.067369 0.17564,0.459374 0.4999,0.729594 0.32427,0.27022 0.78364,0.27022 z"
         style="font-weight:500;font-family:Lora;-inkscape-font-specification:'Lora Medium';text-align:start;text-anchor:start"
         id="path240" />
      <path
         d="m 115.95569,26.934726 q 0.40533,0 0.56747,-0.189154 0.16213,-0.189154 0.18915,-0.526929 0.0405,-0.337775 0.0405,-0.783638 v -2.796777 q 0,-0.229687 0.0135,-0.459374 0.0135,-0.243198 0.0405,-0.513418 -0.22969,0.01351 -0.4864,0.02702 -0.25671,0 -0.47288,0.01351 v -0.716083 q 0.60799,0 0.95928,-0.05404 0.36479,-0.06756 0.55395,-0.148621 0.20266,-0.08107 0.29724,-0.175643 h 0.51342 v 5.215246 q 0,0.243198 -0.0135,0.499907 -0.0135,0.243198 -0.0405,0.499907 0.21618,-0.01351 0.43236,-0.01351 0.22968,-0.01351 0.41884,-0.02702 v 0.716083 h -3.01296 z m 1.43217,-7.56616 q -0.35129,0 -0.59448,-0.256709 -0.2432,-0.27022 -0.2432,-0.648528 0,-0.378308 0.25671,-0.635017 0.25671,-0.27022 0.58097,-0.27022 0.35129,0 0.58097,0.27022 0.2432,0.256709 0.2432,0.635017 0,0.378308 -0.2432,0.648528 -0.22968,0.256709 -0.58097,0.256709 z"
         style="font-weight:500;font-family:Lora;-inkscape-font-specification:'Lora Medium';text-align:start;text-anchor:start"
         id="path242" />
      <path
         d="m 123.29216,27.718364 q -0.95928,0 -1.72941,-0.432352 -0.77013,-0.432352 -1.2295,-1.202479 -0.44586,-0.783638 -0.44586,-1.796963 0,-1.094391 0.44586,-1.932073 0.45937,-0.851193 1.2295,-1.337589 0.77013,-0.486396 1.7159,-0.486396 0.95928,0 1.72941,0.445863 0.77012,0.432352 1.21599,1.21599 0.45937,0.770127 0.45937,1.783452 0,1.067369 -0.44586,1.918562 -0.44587,0.851193 -1.21599,1.337589 -0.75662,0.486396 -1.72941,0.486396 z m 0.0946,-0.67555 q 0.64852,-0.01351 1.01332,-0.40533 0.37831,-0.391819 0.54044,-0.999814 0.16213,-0.621506 0.16213,-1.283545 0,-0.580973 -0.10808,-1.134924 -0.0946,-0.567462 -0.31076,-1.026836 -0.21617,-0.459374 -0.56746,-0.729594 -0.35129,-0.283731 -0.85119,-0.27022 -0.63502,0 -1.04035,0.391819 -0.39182,0.391819 -0.58097,1.013325 -0.17565,0.607995 -0.17565,1.297056 0,0.797149 0.20267,1.513232 0.20266,0.716083 0.62151,1.175457 0.43235,0.459374 1.09439,0.459374 z"
         style="font-weight:500;font-family:Lora;-inkscape-font-specification:'Lora Medium';text-align:start;text-anchor:start"
         id="path244" />
      <path
         d="m 127.77782,27.502188 v -0.567462 q 0.40533,0 0.56746,-0.189154 0.16213,-0.189154 0.18915,-0.526929 0.0405,-0.337775 0.0405,-0.783638 l 0.0135,-2.810288 q 0,-0.216176 0,-0.459374 0.0135,-0.256709 0.054,-0.499907 -0.2432,0.01351 -0.4999,0.02702 -0.2432,0 -0.45938,0.01351 v -0.716083 q 0.608,0 0.94577,-0.05404 0.35129,-0.06756 0.52693,-0.148621 0.18915,-0.08107 0.28373,-0.175643 h 0.4864 q 0.0135,0.121599 0.0135,0.229687 0.0135,0.108088 0.0135,0.229687 0.0135,0.121599 0.027,0.310753 0.29724,-0.243198 0.64853,-0.432352 0.35129,-0.189154 0.72959,-0.297242 0.39182,-0.121599 0.74311,-0.121599 1.20248,0 1.72941,0.729594 0.54044,0.729594 0.54044,2.283359 v 2.283359 q 0,0.243198 -0.0135,0.499907 -0.0135,0.243198 -0.0405,0.499907 0.21618,-0.01351 0.43235,-0.01351 0.22969,-0.01351 0.41885,-0.02702 v 0.716083 h -3.01296 v -0.567462 q 0.40533,0 0.56746,-0.189154 0.16214,-0.189154 0.18916,-0.526929 0.0405,-0.337775 0.0405,-0.783638 v -1.89154 q -0.0135,-1.067369 -0.35128,-1.607809 -0.32427,-0.54044 -1.05386,-0.526929 -0.43235,0 -0.8512,0.216176 -0.41884,0.216176 -0.70257,0.526929 0,0.13511 0,0.297242 0,0.148621 0,0.310753 v 3.066997 q 0,0.243198 -0.0135,0.499907 -0.0135,0.243198 -0.0405,0.499907 0.21617,-0.01351 0.43235,-0.01351 0.22969,-0.01351 0.41884,-0.02702 v 0.716083 z"
         style="font-weight:500;font-family:Lora;-inkscape-font-specification:'Lora Medium';text-align:start;text-anchor:start"
         id="path246" />
      <path
         d="m 147.12559,27.691342 -5.0261,-6.674434 q -0.14862,-0.175643 -0.28373,-0.364797 -0.13511,-0.189154 -0.28373,-0.391819 h -0.0135 l 0.0405,5.255779 q 0,0.337775 -0.0135,0.67555 0,0.337775 -0.027,0.621506 0.22969,-0.02702 0.49991,-0.02702 0.28373,-0.01351 0.48639,-0.02702 v 0.743105 h -2.67517 v -0.594484 q 0.3783,0 0.56746,-0.148621 0.20266,-0.148621 0.27022,-0.391819 0.0811,-0.243198 0.0811,-0.567462 v -6.052928 q 0,-0.27022 0,-0.54044 0,-0.27022 0.0135,-0.472885 -0.21617,0.01351 -0.48639,0.02702 -0.25671,0.01351 -0.45938,0.02702 v -0.743105 h 1.78346 l 4.75587,6.255593 q 0.22969,0.297242 0.40533,0.553951 0.18915,0.256709 0.3648,0.486396 h 0.0135 l 0.0135,-5.553021 q 0,-0.297242 0.0135,-0.567462 0.0135,-0.283731 0.027,-0.486396 -0.2432,0.01351 -0.51342,0.02702 -0.27022,0.01351 -0.47288,0.02702 v -0.743105 h 2.67517 v 0.594484 q -0.43235,0.01351 -0.63501,0.189154 -0.18916,0.162132 -0.2432,0.486396 -0.0405,0.310753 -0.0405,0.824171 l -0.0135,7.552649 z"
         style="font-weight:500;font-family:Lora;-inkscape-font-specification:'Lora Medium';text-align:start;text-anchor:start"
         id="path248" />
      <path
         d="m 153.60269,27.502188 q -0.027,-0.216176 -0.0405,-0.378308 -0.0135,-0.162132 -0.0405,-0.337775 -0.45937,0.459374 -0.9863,0.702572 -0.52693,0.229687 -1.09439,0.229687 -0.97279,0 -1.4727,-0.472885 -0.48639,-0.486396 -0.48639,-1.202479 0,-0.621506 0.36479,-1.08088 0.3648,-0.459374 0.95928,-0.743105 0.59449,-0.297242 1.29706,-0.432352 0.70257,-0.148621 1.37812,-0.148621 v -0.797149 q 0,-0.432352 -0.0811,-0.797149 -0.0811,-0.378308 -0.33778,-0.607995 -0.2432,-0.243198 -0.77013,-0.243198 -0.35128,-0.01351 -0.70257,0.13511 -0.35128,0.13511 -0.54044,0.459374 0.10809,0.108088 0.13511,0.256709 0.0405,0.13511 0.0405,0.256709 0,0.189154 -0.16213,0.432352 -0.16213,0.229687 -0.55395,0.216176 -0.32426,0 -0.49991,-0.216176 -0.16213,-0.229687 -0.16213,-0.526929 0,-0.486396 0.35129,-0.864704 0.3648,-0.378308 0.9863,-0.594484 0.62151,-0.216176 1.39163,-0.216176 1.16195,0 1.72941,0.607995 0.58098,0.607995 0.58098,1.918562 0,0.486396 0,0.932259 0,0.445863 -0.0135,0.891726 0,0.445863 0,0.94577 0,0.202665 -0.0135,0.459374 -0.0135,0.256709 -0.0405,0.54044 0.22969,-0.01351 0.47289,-0.02702 0.24319,-0.01351 0.45937,-0.01351 v 0.716083 z m -0.1216,-3.24264 q -0.43235,0.02702 -0.89172,0.121599 -0.44587,0.09458 -0.81066,0.283731 -0.3648,0.189154 -0.59449,0.486396 -0.21617,0.297242 -0.21617,0.716083 0.027,0.459374 0.29724,0.67555 0.28373,0.216176 0.66204,0.216176 0.47288,0 0.83768,-0.175643 0.3648,-0.189154 0.71608,-0.513418 -0.0135,-0.148621 -0.0135,-0.297242 0,-0.162132 0,-0.337775 0,-0.121599 0,-0.445863 0.0135,-0.337775 0.0135,-0.729594 z"
         style="font-weight:500;font-family:Lora;-inkscape-font-specification:'Lora Medium';text-align:start;text-anchor:start"
         id="path250" />
      <path
         d="m 159.12868,27.718364 q -0.33778,0 -0.68907,-0.09458 -0.33777,-0.08107 -0.6215,-0.337775 -0.28373,-0.27022 -0.44586,-0.770127 -0.16214,-0.499907 -0.16214,-1.324078 l 0.027,-3.688503 h -0.99982 v -0.756616 q 0.3648,-0.01351 0.74311,-0.27022 0.37831,-0.256709 0.66204,-0.689061 0.28373,-0.432352 0.39182,-0.932259 h 0.63501 v 1.89154 h 2.0807 v 0.702572 l -2.0807,0.02702 -0.027,3.607437 q 0,0.513418 0.0811,0.905237 0.0946,0.378308 0.29724,0.594484 0.21617,0.202665 0.58097,0.202665 0.31075,0 0.63502,-0.189154 0.33777,-0.189154 0.63501,-0.621506 l 0.45938,0.40533 q -0.32427,0.472885 -0.64853,0.743105 -0.32426,0.27022 -0.62151,0.391819 -0.29724,0.13511 -0.54044,0.162132 -0.24319,0.04053 -0.39181,0.04053 z"
         style="font-weight:500;font-family:Lora;-inkscape-font-specification:'Lora Medium';text-align:start;text-anchor:start"
         id="path252" />
      <path
         d="m 164.73573,27.718364 q -0.75661,0 -1.25652,-0.283731 -0.48639,-0.283731 -0.72959,-0.932259 -0.2432,-0.662039 -0.2432,-1.742919 v -2.121227 q 0,-0.229687 0,-0.472885 0.0135,-0.256709 0.054,-0.499907 -0.22968,0.01351 -0.48639,0.02702 -0.25671,0 -0.45938,0.01351 v -0.716083 h 0.32427 q 0.67555,0 1.01332,-0.121599 0.33778,-0.121599 0.47289,-0.256709 h 0.51342 v 4.120855 q 0,1.067369 0.29724,1.594298 0.29724,0.526929 0.99981,0.513418 0.45938,0 0.87822,-0.27022 0.43235,-0.27022 0.70257,-0.635017 v -3.202107 q 0,-0.297242 0.0135,-0.553951 0.0135,-0.27022 0.054,-0.513418 -0.24319,0.01351 -0.4999,0.02702 -0.25671,0 -0.47289,0.01351 v -0.716083 h 0.39182 q 0.59448,0 0.93226,-0.121599 0.33777,-0.121599 0.4864,-0.256709 h 0.51341 l -0.0135,4.972048 q 0,0.216176 -0.0135,0.594484 -0.0135,0.364797 -0.0405,0.648528 0.22969,-0.01351 0.47288,-0.02702 0.25671,-0.01351 0.47289,-0.01351 v 0.716083 h -2.14825 q -0.027,-0.216176 -0.054,-0.40533 -0.0135,-0.189154 -0.0405,-0.364797 -0.41884,0.391819 -0.97279,0.689061 -0.55395,0.297242 -1.16195,0.297242 z"
         style="font-weight:500;font-family:Lora;-inkscape-font-specification:'Lora Medium';text-align:start;text-anchor:start"
         id="path254" />
      <path
         d="m 170.05907,26.934726 q 0.40533,0 0.56746,-0.189154 0.16213,-0.189154 0.18915,-0.526929 0.0405,-0.337775 0.0405,-0.783638 v -2.810288 q 0,-0.216176 0,-0.459374 0.0135,-0.256709 0.054,-0.499907 -0.22969,0.01351 -0.48639,0.02702 -0.25671,0 -0.47289,0.01351 v -0.716083 h 0.45937 q 0.56747,0 0.86471,-0.121599 0.29724,-0.121599 0.43235,-0.256709 h 0.4864 q 0.027,0.189154 0.0405,0.526929 0.0135,0.337775 0.027,0.756616 0.25671,-0.378308 0.59449,-0.67555 0.33777,-0.310753 0.72959,-0.499907 0.40533,-0.189154 0.83768,-0.189154 0.41884,0 0.71608,0.229687 0.31076,0.216176 0.31076,0.716083 0,0.13511 -0.0811,0.310753 -0.0675,0.175643 -0.2432,0.310753 -0.16213,0.121599 -0.44586,0.121599 -0.28373,-0.01351 -0.49991,-0.216176 -0.20266,-0.202665 -0.18915,-0.553951 -0.32426,0 -0.64853,0.202665 -0.32426,0.189154 -0.60799,0.513418 -0.27022,0.324264 -0.45938,0.702572 v 2.958909 q 0,0.243198 -0.0135,0.499907 0,0.243198 -0.0405,0.499907 0.21617,-0.01351 0.44586,-0.01351 0.22969,-0.01351 0.41884,-0.02702 v 0.716083 h -3.02646 z"
         style="font-weight:500;font-family:Lora;-inkscape-font-specification:'Lora Medium';text-align:start;text-anchor:start"
         id="path256" />
      <path
         d="m 179.26906,27.718364 q -0.94577,0 -1.70239,-0.432352 -0.74311,-0.445863 -1.17546,-1.243012 -0.43235,-0.81066 -0.43235,-1.905051 0,-0.94577 0.41884,-1.769941 0.43235,-0.824171 1.20248,-1.324078 0.77013,-0.513418 1.78345,-0.513418 0.56746,0 1.06737,0.175643 0.51342,0.175643 0.90524,0.553951 0.40533,0.364797 0.63502,0.959281 0.22968,0.580973 0.22968,1.418655 l -4.64778,0.08107 q 0,0.918748 0.20266,1.634831 0.21618,0.716083 0.68906,1.107902 0.47289,0.391819 1.22951,0.391819 0.36479,0 0.77012,-0.121599 0.41884,-0.13511 0.78364,-0.378308 0.37831,-0.243198 0.63502,-0.580973 l 0.41884,0.364797 q -0.40533,0.607995 -0.93226,0.959281 -0.52693,0.337775 -1.08088,0.472885 -0.54044,0.148621 -0.99981,0.148621 z m -1.66186,-4.701828 h 3.12104 q 0,-0.513418 -0.14862,-0.918748 -0.13511,-0.418841 -0.43235,-0.662039 -0.29724,-0.243198 -0.75662,-0.243198 -0.71608,0 -1.17545,0.459374 -0.45938,0.445863 -0.608,1.364611 z"
         style="font-weight:500;font-family:Lora;-inkscape-font-specification:'Lora Medium';text-align:start;text-anchor:start"
         id="path258" />
      <path
         d="m 187.02438,26.907704 q 0.44586,-0.02702 0.63502,-0.189154 0.20266,-0.162132 0.25671,-0.486396 0.054,-0.324264 0.054,-0.824171 v -5.620576 q 0,-0.297242 0.0135,-0.567462 0.0135,-0.283731 0.027,-0.486396 -0.22968,0.01351 -0.4999,0.02702 -0.27022,0.01351 -0.4864,0.02702 v -0.743105 q 0.79715,-0.01351 1.62132,-0.01351 0.82417,-0.01351 1.67536,-0.01351 1.27004,0 2.14825,0.310753 0.89173,0.297242 1.36461,0.918748 0.4864,0.607995 0.49991,1.540254 0.0135,0.526929 -0.18915,1.094391 -0.20267,0.553951 -0.68906,1.040347 -0.4864,0.472885 -1.32408,0.770127 -0.82417,0.297242 -2.0807,0.297242 -0.13511,0.01351 -0.31075,0.01351 -0.16213,0 -0.33777,-0.01351 v 1.702386 q 0,0.364797 -0.0135,0.662039 0,0.283731 -0.027,0.459374 0.18916,-0.01351 0.40533,-0.02702 0.21618,-0.01351 0.41884,-0.01351 0.21618,-0.01351 0.39182,-0.02702 v 0.756616 h -3.55339 z m 2.37794,-3.634459 q 0.22968,0.02702 0.39181,0.04053 0.17565,0 0.40533,0 0.75662,0 1.33759,-0.283731 0.58098,-0.283731 0.90524,-0.824171 0.32426,-0.54044 0.32426,-1.283545 0,-0.648528 -0.20266,-1.08088 -0.18915,-0.445863 -0.54044,-0.689061 -0.33778,-0.256709 -0.78364,-0.364797 -0.44586,-0.108088 -0.94577,-0.108088 -0.40533,0 -0.59448,0.162132 -0.18916,0.162132 -0.2432,0.472885 -0.054,0.310753 -0.054,0.797149 z"
         style="font-weight:500;font-family:Lora;-inkscape-font-specification:'Lora Medium';text-align:start;text-anchor:start"
         id="path260" />
      <path
         d="m 198.61131,27.502188 q -0.027,-0.216176 -0.0405,-0.378308 -0.0135,-0.162132 -0.0405,-0.337775 -0.45938,0.459374 -0.98631,0.702572 -0.52693,0.229687 -1.09439,0.229687 -0.97279,0 -1.4727,-0.472885 -0.48639,-0.486396 -0.48639,-1.202479 0,-0.621506 0.36479,-1.08088 0.3648,-0.459374 0.95928,-0.743105 0.59449,-0.297242 1.29706,-0.432352 0.70257,-0.148621 1.37812,-0.148621 v -0.797149 q 0,-0.432352 -0.0811,-0.797149 -0.0811,-0.378308 -0.33778,-0.607995 -0.2432,-0.243198 -0.77013,-0.243198 -0.35128,-0.01351 -0.70257,0.13511 -0.35128,0.13511 -0.54044,0.459374 0.10809,0.108088 0.13511,0.256709 0.0405,0.13511 0.0405,0.256709 0,0.189154 -0.16214,0.432352 -0.16213,0.229687 -0.55395,0.216176 -0.32426,0 -0.4999,-0.216176 -0.16214,-0.229687 -0.16214,-0.526929 0,-0.486396 0.35129,-0.864704 0.3648,-0.378308 0.9863,-0.594484 0.62151,-0.216176 1.39164,-0.216176 1.16194,0 1.7294,0.607995 0.58098,0.607995 0.58098,1.918562 0,0.486396 0,0.932259 0,0.445863 -0.0135,0.891726 0,0.445863 0,0.94577 0,0.202665 -0.0135,0.459374 -0.0135,0.256709 -0.0405,0.54044 0.22969,-0.01351 0.47289,-0.02702 0.24319,-0.01351 0.45937,-0.01351 v 0.716083 z m -0.1216,-3.24264 q -0.43235,0.02702 -0.89172,0.121599 -0.44587,0.09458 -0.81066,0.283731 -0.3648,0.189154 -0.59449,0.486396 -0.21617,0.297242 -0.21617,0.716083 0.027,0.459374 0.29724,0.67555 0.28373,0.216176 0.66204,0.216176 0.47288,0 0.83768,-0.175643 0.3648,-0.189154 0.71608,-0.513418 -0.0135,-0.148621 -0.0135,-0.297242 0,-0.162132 0,-0.337775 0,-0.121599 0,-0.445863 0.0135,-0.337775 0.0135,-0.729594 z"
         style="font-weight:500;font-family:Lora;-inkscape-font-specification:'Lora Medium';text-align:start;text-anchor:start"
         id="path262" />
      <path
         d="m 201.63776,26.934726 q 0.40533,0 0.56746,-0.189154 0.16213,-0.189154 0.18915,-0.526929 0.0405,-0.337775 0.0405,-0.783638 v -2.810288 q 0,-0.216176 0,-0.459374 0.0135,-0.256709 0.054,-0.499907 -0.22969,0.01351 -0.48639,0.02702 -0.25671,0 -0.47289,0.01351 v -0.716083 h 0.45937 q 0.56747,0 0.86471,-0.121599 0.29724,-0.121599 0.43235,-0.256709 h 0.4864 q 0.027,0.189154 0.0405,0.526929 0.0135,0.337775 0.027,0.756616 0.25671,-0.378308 0.59449,-0.67555 0.33777,-0.310753 0.72959,-0.499907 0.40533,-0.189154 0.83768,-0.189154 0.41884,0 0.71608,0.229687 0.31076,0.216176 0.31076,0.716083 0,0.13511 -0.0811,0.310753 -0.0675,0.175643 -0.2432,0.310753 -0.16213,0.121599 -0.44586,0.121599 -0.28373,-0.01351 -0.49991,-0.216176 -0.20266,-0.202665 -0.18915,-0.553951 -0.32426,0 -0.64853,0.202665 -0.32426,0.189154 -0.60799,0.513418 -0.27022,0.324264 -0.45938,0.702572 v 2.958909 q 0,0.243198 -0.0135,0.499907 0,0.243198 -0.0405,0.499907 0.21617,-0.01351 0.44586,-0.01351 0.22969,-0.01351 0.41884,-0.02702 v 0.716083 h -3.02646 z"
         style="font-weight:500;font-family:Lora;-inkscape-font-specification:'Lora Medium';text-align:start;text-anchor:start"
         id="path264" />
      <path
         d="m 210.34786,27.718364 q -0.33777,0 -0.68906,-0.09458 -0.33778,-0.08107 -0.62151,-0.337775 -0.28373,-0.27022 -0.44586,-0.770127 -0.16213,-0.499907 -0.16213,-1.324078 l 0.027,-3.688503 h -0.99981 v -0.756616 q 0.36479,-0.01351 0.7431,-0.27022 0.37831,-0.256709 0.66204,-0.689061 0.28373,-0.432352 0.39182,-0.932259 h 0.63502 v 1.89154 h 2.08069 v 0.702572 l -2.08069,0.02702 -0.027,3.607437 q 0,0.513418 0.0811,0.905237 0.0946,0.378308 0.29724,0.594484 0.21618,0.202665 0.58098,0.202665 0.31075,0 0.63501,-0.189154 0.33778,-0.189154 0.63502,-0.621506 l 0.45937,0.40533 q -0.32426,0.472885 -0.64852,0.743105 -0.32427,0.27022 -0.62151,0.391819 -0.29724,0.13511 -0.54044,0.162132 -0.2432,0.04053 -0.39182,0.04053 z"
         style="font-weight:500;font-family:Lora;-inkscape-font-specification:'Lora Medium';text-align:start;text-anchor:start"
         id="path266" />
      <path
         d="m 213.1176,27.502188 v -0.567462 q 0.40533,0 0.56746,-0.189154 0.16214,-0.189154 0.18916,-0.526929 0.0405,-0.337775 0.0405,-0.783638 l 0.0135,-2.810288 q 0,-0.216176 0,-0.459374 0.0135,-0.256709 0.0541,-0.499907 -0.2432,0.01351 -0.49991,0.02702 -0.2432,0 -0.45938,0.01351 v -0.716083 q 0.608,0 0.94577,-0.05404 0.35129,-0.06756 0.52693,-0.148621 0.18916,-0.08107 0.28373,-0.175643 h 0.4864 q 0.0135,0.121599 0.0135,0.229687 0.0135,0.108088 0.0135,0.229687 0.0135,0.121599 0.027,0.310753 0.29725,-0.243198 0.64853,-0.432352 0.35129,-0.189154 0.7296,-0.297242 0.39182,-0.121599 0.7431,-0.121599 1.20248,0 1.72941,0.729594 0.54044,0.729594 0.54044,2.283359 v 2.283359 q 0,0.243198 -0.0135,0.499907 -0.0135,0.243198 -0.0405,0.499907 0.21617,-0.01351 0.43235,-0.01351 0.22968,-0.01351 0.41884,-0.02702 v 0.716083 h -3.01295 v -0.567462 q 0.40533,0 0.56746,-0.189154 0.16213,-0.189154 0.18915,-0.526929 0.0405,-0.337775 0.0405,-0.783638 v -1.89154 q -0.0135,-1.067369 -0.35128,-1.607809 -0.32427,-0.54044 -1.05386,-0.526929 -0.43235,0 -0.85119,0.216176 -0.41884,0.216176 -0.70257,0.526929 0,0.13511 0,0.297242 0,0.148621 0,0.310753 v 3.066997 q 0,0.243198 -0.0135,0.499907 -0.0135,0.243198 -0.0405,0.499907 0.21618,-0.01351 0.43235,-0.01351 0.22969,-0.01351 0.41884,-0.02702 v 0.716083 z"
         style="font-weight:500;font-family:Lora;-inkscape-font-specification:'Lora Medium';text-align:start;text-anchor:start"
         id="path268" />
      <path
         d="m 224.69655,27.718364 q -0.94577,0 -1.70239,-0.432352 -0.74311,-0.445863 -1.17546,-1.243012 -0.43235,-0.81066 -0.43235,-1.905051 0,-0.94577 0.41884,-1.769941 0.43235,-0.824171 1.20248,-1.324078 0.77013,-0.513418 1.78345,-0.513418 0.56746,0 1.06737,0.175643 0.51342,0.175643 0.90524,0.553951 0.40533,0.364797 0.63502,0.959281 0.22968,0.580973 0.22968,1.418655 l -4.64778,0.08107 q 0,0.918748 0.20266,1.634831 0.21618,0.716083 0.68906,1.107902 0.47289,0.391819 1.22951,0.391819 0.36479,0 0.77012,-0.121599 0.41884,-0.13511 0.78364,-0.378308 0.37831,-0.243198 0.63502,-0.580973 l 0.41884,0.364797 q -0.40533,0.607995 -0.93226,0.959281 -0.52693,0.337775 -1.08088,0.472885 -0.54044,0.148621 -0.99981,0.148621 z m -1.66186,-4.701828 h 3.12104 q 0,-0.513418 -0.14862,-0.918748 -0.13511,-0.418841 -0.43235,-0.662039 -0.29724,-0.243198 -0.75662,-0.243198 -0.71608,0 -1.17545,0.459374 -0.45938,0.445863 -0.608,1.364611 z"
         style="font-weight:500;font-family:Lora;-inkscape-font-specification:'Lora Medium';text-align:start;text-anchor:start"
         id="path270" />
      <path
         d="m 228.76335,26.934726 q 0.40533,0 0.56747,-0.189154 0.16213,-0.189154 0.18915,-0.526929 0.0405,-0.337775 0.0405,-0.783638 v -2.810288 q 0,-0.216176 0,-0.459374 0.0135,-0.256709 0.0541,-0.499907 -0.22969,0.01351 -0.4864,0.02702 -0.25671,0 -0.47288,0.01351 v -0.716083 h 0.45937 q 0.56746,0 0.8647,-0.121599 0.29725,-0.121599 0.43236,-0.256709 h 0.48639 q 0.027,0.189154 0.0405,0.526929 0.0135,0.337775 0.027,0.756616 0.25671,-0.378308 0.59448,-0.67555 0.33778,-0.310753 0.72959,-0.499907 0.40533,-0.189154 0.83769,-0.189154 0.41884,0 0.71608,0.229687 0.31075,0.216176 0.31075,0.716083 0,0.13511 -0.0811,0.310753 -0.0676,0.175643 -0.2432,0.310753 -0.16213,0.121599 -0.44586,0.121599 -0.28374,-0.01351 -0.49991,-0.216176 -0.20267,-0.202665 -0.18916,-0.553951 -0.32426,0 -0.64852,0.202665 -0.32427,0.189154 -0.608,0.513418 -0.27022,0.324264 -0.45937,0.702572 v 2.958909 q 0,0.243198 -0.0135,0.499907 0,0.243198 -0.0405,0.499907 0.21618,-0.01351 0.44587,-0.01351 0.22968,-0.01351 0.41884,-0.02702 v 0.716083 h -3.02647 z"
         style="font-weight:500;font-family:Lora;-inkscape-font-specification:'Lora Medium';text-align:start;text-anchor:start"
         id="path272" />
      <path
         d="m 237.68961,27.718364 q -0.63501,0 -1.17545,-0.175643 -0.54044,-0.162132 -0.86471,-0.391819 l 0.0405,0.445863 h -0.71608 l -0.0675,-2.323892 h 0.56746 q 0.027,0.499907 0.31075,0.905237 0.28373,0.40533 0.7296,0.635017 0.45937,0.229687 0.9863,0.229687 0.31075,0 0.60799,-0.09458 0.29725,-0.108088 0.49991,-0.310753 0.20267,-0.216176 0.20267,-0.526929 0,-0.337775 -0.21618,-0.553951 -0.20267,-0.229687 -0.56746,-0.40533 -0.35129,-0.175643 -0.81066,-0.351286 -0.40533,-0.162132 -0.82417,-0.337775 -0.40533,-0.175643 -0.75662,-0.418841 -0.35129,-0.243198 -0.55395,-0.594484 -0.20267,-0.364797 -0.20267,-0.891726 0,-0.310753 0.1216,-0.662039 0.1216,-0.364797 0.39182,-0.662039 0.27022,-0.310753 0.7296,-0.499907 0.45937,-0.202665 1.13492,-0.202665 0.3648,0 0.81066,0.121599 0.45937,0.121599 0.85119,0.418841 l -0.0135,-0.472885 h 0.71609 v 2.377936 h -0.58098 q -0.0405,-0.472885 -0.25671,-0.878215 -0.20266,-0.40533 -0.58097,-0.662039 -0.37831,-0.256709 -0.91875,-0.256709 -0.52693,0 -0.8647,0.27022 -0.32427,0.256709 -0.32427,0.648528 0,0.391819 0.2432,0.635017 0.25671,0.243198 0.66204,0.418841 0.40533,0.175643 0.87822,0.351286 0.56746,0.229687 1.06737,0.499907 0.4999,0.27022 0.81066,0.67555 0.31075,0.40533 0.31075,1.026836 0,0.67555 -0.35129,1.134924 -0.33777,0.445863 -0.87821,0.662039 -0.54044,0.216176 -1.14844,0.216176 z"
         style="font-weight:500;font-family:Lora;-inkscape-font-specification:'Lora Medium';text-align:start;text-anchor:start"
         id="path274" />
      <path
         d="m 245.22087,26.934726 q 0.40533,0 0.56747,-0.189154 0.17564,-0.189154 0.20266,-0.526929 0.0405,-0.337775 0.0405,-0.783638 l -0.0135,-1.89154 q 0,-1.067369 -0.33777,-1.594298 -0.32427,-0.54044 -1.05386,-0.526929 -0.44586,0.01351 -0.87822,0.216176 -0.41884,0.202665 -0.70257,0.513418 v 3.674992 q 0,0.243198 -0.0135,0.499907 -0.0135,0.243198 -0.0405,0.499907 0.21617,-0.01351 0.43235,-0.01351 0.22969,-0.01351 0.41884,-0.02702 v 0.716083 h -3.01295 v -0.567462 q 0.40533,0 0.56746,-0.189154 0.16213,-0.189154 0.20267,-0.526929 0.0405,-0.337775 0.0405,-0.783638 v -6.106972 q 0,-0.229687 0,-0.459374 0.0135,-0.243198 0.0405,-0.513418 -0.22969,0.01351 -0.48639,0.02702 -0.25671,0 -0.47289,0.01351 v -0.716083 q 0.608,0 0.97279,-0.05404 0.3648,-0.06756 0.55395,-0.148621 0.20267,-0.08107 0.29725,-0.175643 h 0.4999 v 4.080322 q 0.29724,-0.243198 0.66204,-0.432352 0.3648,-0.189154 0.74311,-0.297242 0.39182,-0.121599 0.72959,-0.121599 1.20248,0 1.7159,0.729594 0.52693,0.729594 0.54044,2.283359 v 2.283359 q 0,0.243198 -0.0135,0.499907 0,0.243198 -0.0405,0.499907 0.21618,-0.01351 0.44587,-0.01351 0.22968,-0.01351 0.41884,-0.02702 v 0.716083 h -3.02647 z"
         style="font-weight:500;font-family:Lora;-inkscape-font-specification:'Lora Medium';text-align:start;text-anchor:start"
         id="path276" />
      <path
         d="m 249.17961,26.934726 q 0.40533,0 0.56747,-0.189154 0.16213,-0.189154 0.18915,-0.526929 0.0405,-0.337775 0.0405,-0.783638 v -2.796777 q 0,-0.229687 0.0135,-0.459374 0.0135,-0.243198 0.0405,-0.513418 -0.22969,0.01351 -0.4864,0.02702 -0.25671,0 -0.47288,0.01351 v -0.716083 q 0.60799,0 0.95928,-0.05404 0.36479,-0.06756 0.55395,-0.148621 0.20266,-0.08107 0.29724,-0.175643 h 0.51342 v 5.215246 q 0,0.243198 -0.0135,0.499907 -0.0135,0.243198 -0.0405,0.499907 0.21618,-0.01351 0.43236,-0.01351 0.22968,-0.01351 0.41884,-0.02702 v 0.716083 h -3.01296 z m 1.43217,-7.56616 q -0.35129,0 -0.59448,-0.256709 -0.2432,-0.27022 -0.2432,-0.648528 0,-0.378308 0.25671,-0.635017 0.25671,-0.27022 0.58097,-0.27022 0.35129,0 0.58097,0.27022 0.2432,0.256709 0.2432,0.635017 0,0.378308 -0.2432,0.648528 -0.22968,0.256709 -0.58097,0.256709 z"
         style="font-weight:500;font-family:Lora;-inkscape-font-specification:'Lora Medium';text-align:start;text-anchor:start"
         id="path278" />
      <path
         d="m 253.05727,30.947493 v -0.567462 q 0.40533,0 0.56746,-0.189154 0.16213,-0.189154 0.18915,-0.526929 0.0405,-0.337775 0.0405,-0.783638 l 0.0135,-6.255593 q 0,-0.216176 0.0135,-0.459374 0.0135,-0.256709 0.0405,-0.499907 -0.22969,0.01351 -0.4864,0.02702 -0.2567,0 -0.47288,0.01351 v -0.716083 q 0.60799,0 0.94577,-0.05404 0.35129,-0.06756 0.52693,-0.148621 0.18915,-0.08107 0.28373,-0.175643 h 0.4864 q 0.0135,0.13511 0.027,0.324264 0.0135,0.189154 0.027,0.378308 0.43235,-0.378308 0.95928,-0.580973 0.52693,-0.202665 1.05386,-0.202665 0.78364,0 1.43216,0.418841 0.66204,0.40533 1.05386,1.161946 0.40533,0.756616 0.40533,1.796963 0,1.121413 -0.45937,1.986117 -0.45938,0.864704 -1.24301,1.3511 -0.77013,0.472885 -1.7159,0.472885 -0.43235,0 -0.79715,-0.108088 -0.3648,-0.09458 -0.68906,-0.27022 v 1.932073 q 0,0.243198 -0.0135,0.486396 0,0.256709 -0.027,0.513418 0.21617,-0.01351 0.43235,-0.02702 0.22969,0 0.41884,-0.01351 v 0.716083 z m 3.59392,-3.931701 q 0.64853,0 1.06737,-0.378308 0.43235,-0.391819 0.63502,-1.040347 0.21617,-0.662039 0.21617,-1.48621 0,-0.689061 -0.18915,-1.310567 -0.18915,-0.635017 -0.60799,-1.026836 -0.40533,-0.40533 -1.06737,-0.391819 -0.41884,0 -0.79715,0.202665 -0.37831,0.202665 -0.63502,0.499907 0,0.175643 0,0.378308 0.0135,0.202665 0.0135,0.513418 0,0.297242 0,0.770127 0,0.459374 -0.0135,1.161946 0,0.689061 0,1.675364 0.27022,0.202665 0.62151,0.324264 0.36479,0.121599 0.75661,0.108088 z"
         style="font-weight:500;font-family:Lora;-inkscape-font-specification:'Lora Medium';text-align:start;text-anchor:start"
         id="path280" />
    </g>
  </g>
</svg>
