<svg xmlns="http://www.w3.org/2000/svg" width="911.459" height="132.786" viewBox="0 0 241.157 35.133"><g style="display:inline"><path d="M188.943 399.185c22.054 55.655 77.54 84.885 120.804 89.458 45.004 4.757 70.164-11.545 104.822-.348 0 0-5.618-23.94-52.939-28.239.001 0-.328-25.546-45.892-27.593-35.949-1.954-48.686 6.844-80.76.786-24.643-4.655-40.797-21.967-46.035-34.064" clip-path="url(#clipPath6-9)" style="fill:#4470a2;fill-opacity:1;fill-rule:evenodd;stroke:none" transform="matrix(.2578 0 0 -.2578 -46.875 136.616)"/><path d="M188.943 399.185c4.987 12.585 11.685 23.818 19.564 33.72 31.121 8.76 73.439 15.003 103.437 16.927 13.357.856 24.28.858 30.687-.153 6.762-1.067 8.713-3.225 3.652-6.648-3.863-2.613-12.128-6.007-25.92-10.265-1.49-.128-3.026-.232-4.625-.304-35.949-1.953-48.686 6.845-80.76.787-24.643-4.655-40.797-21.967-46.035-34.064m36.018 51.116a165 165 0 0 0 2.268 1.987 154 154 0 0 0 3.458 2.879 148 148 0 0 0 2.345 1.854 144 144 0 0 0 3.566 2.683 182 182 0 0 0 2.41 1.723 162 162 0 0 0 3.657 2.486 158 158 0 0 0 6.197 3.882 163 163 0 0 0 2.51 1.462l1.26.711.119-.011a5384 5384 0 0 1 13.955 3.303c16.22 3.853 30.762 7.309 39.605 8.847 10.954 1.906 20.922 3.336 26.048 3.323 1.373-.003 2.413-.111 3.04-.342.774-.283 1.017-.733.64-1.372-.289-.489-1.027-1.097-2.274-1.84-7.067-4.205-11.118-7.366-12.605-9.555-.78-1.147-.82-1.996-.198-2.556.678-.61 2.098-.94 4.173-1.004 6.444-.194 18.993 2.237 35.321 6.917l1.822.522c11.832 3.393 21.046 6.035 29.776 8.154 7.244.273 14.633 1.394 22.515 3.94 0 .001-1.681-7.16-10.946-14.353q-1.96-.315-3.916-.639c-18.674-3.088-37.188-6.732-58.876-11.57-42.136-9.4-43.643-4.84-45.014-.686-1.398 4.232-2.65 8.021-53.352-6.014a1751 1751 0 0 0-17.504-4.731" clip-path="url(#clipPath8-2)" style="fill:#4d7eb8;fill-opacity:1;fill-rule:evenodd;stroke:none" transform="matrix(.2578 0 0 -.2578 -46.875 136.616)"/></g><g style="display:inline"><path d="m237.865 477.11-.305.004a1.8 1.8 0 0 1-.578.544l.971-.01a1.8 1.8 0 0 1-.089-.54zm2.873-.218-.258.023c.064.227.064.436.016.622l.138-.013.01-.001.195-.019h.013l.191-.018.016-.002.06-.006c-.129-.185-.25-.393-.381-.587z" style="display:inline;fill:#1a1a18;fill-opacity:1;fill-rule:evenodd;stroke:none" transform="matrix(.2578 0 0 -.2578 -46.875 136.616)"/><path d="m359.916 490.562-6.509 1.102-5.055 1.162-8.78.528-.048.003-.196.013-.026.002-.24.018h-.002l-.26.02-.03.003-.249.021-.063.005-.232.02-.101.01-.211.019-.143.014-.185.017-.188.018-.39.038-.122.012-.287.029-.084.009-.34.035-.044.004-.396.042-.408.043-.046.005-.372.04-.095.01-.334.037-.145.017-.293.032-.197.022-.25.028-.252.028-.203.023-.307.035-.155.018-.365.041-.104.012-.422.049-.053.006-.48.056-.484.057-.054.007-.435.051-.109.013-.382.046-.165.02-.329.039-.22.027-.275.032-.277.035-.22.026-.331.04-.166.02-.386.048-.11.014-.44.054-.055.007-.494.061-.49.062-.055.007-.434.054-.107.014-.376.048-.16.02-.319.04-.211.027-.263.034-.26.033-.207.026-.309.04-.153.02-.353.046-.1.013-.396.051-.05.007-.435.058-.428.056-.046.006-.37.05-.091.011-.314.042-.133.02-.26.034-.172.023-.21.029-.208.028-.161.022-.238.033-.117.016-.265.037-.074.011-.29.04-.036.005-.308.045-.293.042-.031.005-.243.036-.06.008-.198.03-.081.012-.157.024-.1.015-.119.019-.112.017-.087.014-.12.02-.057.01-.123.02-.033.006-.12.021-.014.002-.111.022-.042.008c-.328.021-.66.061-.997.131-3.3.309-10.666.225-13.485 1.39-.448.186-2.457.417-4.74.71-.759-.293-1.985.126-2.314.314-.5.073-.991.148-1.464.226-2.69.093-8.366-.194-9.451-.415-2.28-.465-2.958-.398-5.19-.642-2.573-.28-.469-.742-6.86-.416-2.342.12-2.684-.63-3.233-.52-3.242.66-4.029-1.34-6.094.09.299-.205-.765-.212-.767-.193-.306 2.066-5.207.817-5.994 1.283-.602.356-.957.747-1.14 1.132-1.003-.066-1.775-.094-1.902-.041-.267.11-5.584-.673-5.953-.937-.25-.177-5.496-1.035-5.664-.935-.674.4-3.144-1.112-3.918-.96-.26-.17-.45-.173-.567-.327-.382-.497-2.702-.997-3.3-1.457l-.005.01-.007.013-.007.013-.007.013-.101.194-.008.015-.023.044.007.004.007.004.007.005.007.004.007.005.007.004.007.005.007.005.007.005.007.005.007.004.007.005.007.005.006.004v.001l.008.005.004.002.004.002.007.005.006.004.008.005.007.005.003.002.005.003.007.005.006.004h.002l.007.006.003.002.004.003.007.005.006.004.001.001.007.005.007.005.007.005.006.004h.001l.007.006.007.005.007.005h.001l.006.004.009.006.007.005h.003l.005.004.007.004.005.005h.002l.007.006.007.005h.002l.006.004.007.005.004.003.003.002.003.002.005.003.007.005.007.005.009.005.003.003.004.003.008.005.006.006.009.005.008.005.007.005.007.005.008.005.007.005.002.002.005.004.001.001.006.004.009.006.008.006.007.005h.002l.006.005c.011.008 3.353 1.311 3.837 1.598.168.1.338.094.598.265.774-.152 3.416 1.188 4.09.789.168-.1 5.413.757 5.663.935.37.264 5.686 1.046 5.953.936.128-.052.9-.025 1.902.042.183-.385.538-.777 1.14-1.133.788-.466 5.688.784 5.994-1.283.003-.018 1.066-.012.768.195l.096-.065.094-.06.092-.055.091-.05.09-.046.087-.041.087-.038.085-.033.078-.027.006-.002.008-.002.075-.023.082-.022.08-.019.08-.015.077-.011h.003l.04-.006.039-.004h.002l.076-.006.077-.003h.078l.076.002.077.004.076.007.076.009.077.01.076.013.077.014.077.016.038.008.039.009.038.009.039.01.04.01.038.01.079.02.04.011.04.01.04.012.04.011.08.023.042.011.04.011.042.012.042.012.042.011.042.012.043.012.042.012.044.011.043.012.044.012.044.011.045.012.045.011.045.011.046.011.046.011.046.01.047.01.048.011.048.01.048.01.049.01.049.008.05.01.05.008.102.016.105.014.106.013.109.01.11.01.114.007.088.004h.029l.029.001.09.002h.121l.125-.003.127-.006.13-.01.134-.01.137-.016.14-.018.143-.021.146-.026.15-.029.013-.003.013-.002.013-.002h.013l.01-.002h.068l.01.001c.428.035.851.59 2.408.57.193-.012.416-.027.685-.042l.114-.006.114-.007.11-.006.11-.006.108-.005h.035l.037-.003.035-.002h.006l.045-.002.153-.007h.004l.378-.017h.019l.053-.002.042-.002c1.61-.065 2.56-.053 3.128-.001.266.052.507.116.775.183a.26.26 0 0 1 .084.097l.005.01.004.01.001.002v.002l.002.002v.003l.002.002v.002l.002.003v.002l.001.002.001.002v.002l.002.002v.002l.001.002.001.003.001.002v.002l.002.003v.003l.002.002v.002l.001.002.001.002.002.007.001.002v.002l.002.002v.002l.001.002.001.002.001.002.001.002.001.002v.002h.001l.001.003.001.002.001.002.003.004v.002l.002.002.002.003v.002l.002.002v.002l.003.002.005.006.002.002.002.002.002.002.002.002.002.002.002.002.002.002v.001l.002.001.002.002v.001h.001l.002.003.003.002.002.002.003.002.002.002.002.002.003.002.002.002.002.001.004.003.003.002.003.002h.001l.002.002.003.002.003.002.003.002.004.001.003.002.003.002.003.002.004.001.003.002.004.001.003.001h.001l.004.001.004.002.004.001.002.001.002.001.004.002.005.001.005.001.005.001.005.002.005.001.005.001.004.001h.003l.013.004.022.005h.006l.017.004.024.004h.001l.053.006h.002l.03.003.028.002h.005l.034.003.037.002h.04l.027.001h.153l.05-.001.054-.002h.024l.033-.002.06-.002.063-.003.065-.003.069-.004.071-.005.075-.005.079-.006h.007l.16-.013c1.2.148 1.883.093 2.615.085.225.039.451.086.69.139l.036.008.036.008.037.008.011.003.025.006.037.008.013.003.024.006.037.008.015.003.023.004.037.01.016.003.022.004.039.01.017.003.021.005.04.01.018.004.02.005.04.009.02.005.02.005.04.009.023.005.018.004.04.009.025.006.016.004.042.009.042.01.042.01.028.006.015.003.043.01.044.01.043.01.033.007.012.003.045.01.034.007.01.002.046.01.037.008.009.002.047.01.038.01.008.002.048.01.048.01.048.01.044.01h.005l.05.011.05.01.05.011.05.01.002.001.051.01.052.011c1.086.221 6.762.508 9.452.416.472-.08.964-.154 1.464-.227.329-.188 1.555-.607 2.314-.313 2.283-.294 4.292-.525 4.74-.71l.005-.002.005-.002.005-.002.005-.002.005-.002.005-.002.005-.002.058-.022.005-.002.005-.002.006-.002.005-.002.005-.002.005-.002.005-.002.005-.002.006-.002.005-.002.005-.002.006-.002.005-.002.01-.004.006-.002.005-.002.006-.002.005-.002.005-.002.005-.002.006-.002.006-.002.005-.002.006-.002.005-.002.005-.002.005-.002.006-.002.005-.002.005-.002.006-.002.006-.002.006-.002.005-.002.006-.002.006-.002.006-.002.005-.002.006-.002.005-.002.006-.002.006-.002.006-.002.006-.002.006-.002.035-.012.106-.035.036-.01.037-.012.036-.011.038-.012.037-.01.004-.001.004-.001.004-.001.004-.001.004-.001.004-.001.004-.002.009-.002.004-.001.004-.001.004-.001.004-.001.004-.001.004-.001.004-.001.004-.001.004-.001h.004l.004-.003h.004l.004-.002h.004l.004-.002h.004l.004-.002h.004l.002-.001h.003l.004-.002h.004l.004-.002h.004l.005-.002h.004l.004-.002h.004l.003-.001h.002l.004-.002h.004l.004-.002h.004l.004-.002h.004l.004-.002h.005l.003-.002h.001l.004-.001.004-.001.004-.001h.005l.004-.003h.004l.004-.002.004-.002h.003l.006-.002.005-.002h.004l.005-.001.004-.002.004-.001.005-.001.004-.001h.005l.04-.011.04-.01.008-.002.007-.002.008-.002.008-.002.007-.002.003-.001.005-.001.008-.002.007-.002.008-.002.008-.002.005-.001h.003l.008-.002.007-.002.008-.002.008-.002.008-.002.008-.002.008-.002.008-.002.008-.002.008-.002h.002l.005-.002.008-.002.008-.002.008-.002.008-.002h.005l.002-.001.008-.002.008-.002.008-.002.008-.002.008-.002.008-.003.008-.002.008-.002.008-.002.008-.002h.007l.008-.003.008-.002.008-.002.008-.002h.005l.003-.001.008-.002.008-.001.008-.002.008-.002.008-.002.008-.002.008-.001.008-.002.008-.002.008-.002.002-.001.005-.001.008-.002.008-.001.008-.002.008-.002.006-.001h.003l.008-.003.008-.002.008-.002h.008l.008-.003.043-.009.045-.009.044-.009.044-.009.045-.009h.005l.005-.001.005-.001.005-.001h.005l.005-.002h.005l.005-.002h.005l.005-.001.005-.001.005-.001.005-.001.005-.001h.005l.005-.002h.005l.005-.002h.005l.005-.001.005-.001.005-.001h.005l.005-.002h.005l.005-.002h.007l.003-.001.005-.001.005-.001.005-.001h.005l.005-.002h.005l.005-.002h.008l.002-.001.005-.001.005-.001.005-.001h.005l.01-.003h.005l.005-.002h.006l.005-.001.01-.002.005-.001.005-.001.005-.001h.005l.005-.002h.004l.005-.002h.005l.005-.001.005-.001.005-.001h.005l.005-.002h.005l.005-.002.047-.008.047-.008.016-.003.017-.003.014-.002h.002l.016-.003.017-.003.012-.002h.005l.017-.003.017-.003.01-.001.007-.001.016-.003.017-.002.007-.002.01-.001.016-.002.017-.003.034-.005.016-.003h.002l.015-.003.017-.003.017-.003.034-.005.014-.002h.002l.017-.003.017-.003.086-.012.018-.003.104-.015h.003l.032-.005.017-.003.018-.002.017-.003.015-.002h.002l.018-.003.018-.002.012-.002h.005l.018-.003.018-.002h.01l.007-.002.018-.002.025-.003h.01l.018-.004.018-.002h.005l.013-.002.017-.003.018-.002h.003l.016-.002.017-.002.019-.002.017-.002.018-.002.018-.002.018-.003.014-.001.011-.001.01-.001.011-.002.011-.001.01-.001.012-.001.01-.001.011-.001.011-.001.01-.001.012-.002.01-.001.011-.001.011-.001.01-.001.012-.002.01-.001.011-.001.011-.001h.002l.01-.002h.01l.011-.002h.011l.011-.002h.01l.012-.002h.01l.012-.002h.01l.011-.002h.012l.01-.002h.011l.011-.002h.011l.011-.002h.011l.011-.002h.011l.011-.001.012-.001.01-.001.011-.001.011-.001.011-.001.012-.001.01-.001.012-.001.01-.001.012-.001.01-.001.012-.001.01-.001.012-.001.011-.001.011-.001.011-.001.011-.001.023-.002h.003l.02-.003h.01l.012-.002.143-.015.045-.005h.008l.008-.001.009-.001h.008l.009-.001.008-.001.008-.001.009-.001h.008l.009-.002h.008l.008-.001.009-.001.008-.001h.008l.008-.002h.008l.009-.001.008-.001.009-.001h.008l.008-.001.009-.001.008-.001h.008l.008-.001.008-.001.009-.001.009-.001h.008l.008-.002h.008l.009-.001.009-.001h.008l.009-.002h.008l.008-.001.009-.001h.008l.009-.001.008-.001.008-.001h.009l.008-.001.008-.001.009-.001.008-.001h.009l.008-.001.008-.001.009-.001h.008l.008-.002h.009l.008-.001h.008l.009-.002h.008l.009-.001.008-.001h.009l.008-.002h.009l.147-.014.297-.025.15-.012.45-.034.08-.006.072-.005.151-.01.02-.001.132-.01.112-.007.04-.002.152-.01.052-.003.253-.016.153-.009.084-.005.069-.004.152-.009h.023l.245-.014.037-.002.152-.008.054-.003h.015l.016-.001.015-.001.015-.001h.015l.016-.002h.016l.015-.001h.015l.016-.002h.015l.575-.029h.015l.045-.002.015-.001.015-.001h.02l.01-.001.015-.001.015-.001h.015l.015-.001.016-.001h.015l.014-.001.336-.016.08-.004.08-.004.08-.003.08-.003.078-.004.079-.004.078-.003.08-.004.077-.003.078-.003.232-.01.077-.003.076-.003.076-.003.077-.004.075-.003.075-.003.04-.002.035-.002.015-.001h.015l.016-.001.015-.001h.014v-.001h.016l.014-.002h.031l.012-.001h.002l.016-.001.015-.001h.015l.026-.002h.019l.03-.002h.014l.03-.002h.015l.03-.001h.009l.006-.001.03-.001h.014l.015-.002h.029l.015-.002h.015l.015-.001h.007l.008-.001h.015l.014-.001h.015l.014-.002h.03l.014-.002h.015l.014-.001h.014l.015-.001.014-.001h.015l.014-.001h.003l.011-.001h.015l.014-.002h.014l.015-.001h.014l.015-.001.013-.001h.015l.014-.001h.001l.013-.001.015-.001h.013l.015-.001.014-.001.07-.004.024-.001.044-.002.068-.004.069-.003.2-.011.067-.004.065-.004.065-.004.065-.004.064-.004.126-.008.062-.004.062-.004.061-.004.06-.004.06-.004.06-.004.06-.004.057-.004h.006l.052-.005.057-.005.056-.004.057-.005.055-.005.054-.005.054-.005.053-.005.053-.005q.505-.102.997-.13l.041-.008.111-.022.014-.003.12-.021.033-.005.124-.021.056-.01.121-.02.086-.014.113-.018.119-.019.1-.015.156-.024.082-.012.198-.03.06-.008.242-.036.032-.005.292-.042.309-.044.035-.005.29-.04.074-.01.266-.038.117-.016.238-.033.16-.022.208-.028.21-.029.172-.023.26-.035.133-.019.314-.042.091-.011.37-.05.047-.006.427-.056.436-.057.05-.007.396-.052.1-.013.353-.046.152-.02.31-.04.206-.026.26-.033.263-.034.212-.027.135-.017.183-.023.16-.02.333-.042.043-.005.108-.014.433-.055.055-.007.49-.06v-.001l.494-.061.055-.007.046-.006.348-.044.047-.006.051-.006.058-.007.193-.024.194-.023.155-.02h.01l.332-.04.007-.002.213-.025.276-.034.209-.025.066-.008.22-.027.33-.04.079-.01.085-.01.26-.03.122-.015.11-.013.113-.014.32-.037.023-.003.032-.004.484-.057.165-.02.315-.036.053-.006.302-.035.12-.014.105-.012.364-.042.071-.008.084-.009.307-.034.203-.023.252-.029.25-.027.197-.023.293-.032.136-.015.01-.001.159-.018.175-.018.094-.01.372-.04.047-.006.143-.015.264-.028.396-.042.384-.04.084-.007.287-.03.121-.01.391-.039.188-.018.034-.003.15-.014.144-.014.16-.014.05-.005.102-.01.063-.005.169-.015.038-.003.025-.002.25-.021.01-.001.02-.002.26-.02h.003l.172-.013.065-.005.027-.002.07-.005.153-.01.021-.001.121-.007.132-.007.083-.004-.588.052-.004-.003.592-.049c.373-.016.595-.009.628.025 3.69-.358 6.19-.562 6.702-.526.97.071 2.683-.74 5.382-1.218l.013-.002.012-.002.012-.002.012-.002.013-.002h.008l.004-.001.012-.002.012-.002.013-.002.012-.002.013-.002.003-.001.009-.001.012-.002.013-.002.013-.002.012-.002.012-.002.013-.002.013-.002.013-.002.013-.002.012-.002h.008l.005-.001.013-.002.013-.002.013-.002.013-.002.013-.001.003-.001.01-.001.013-.001.013-.002.013-.002.013-.001.011-.002h.001l.014-.002.013-.001.013-.001.013-.001.013-.001.007-.001h.006l.013-.003h.014l.013-.002h.013l.013-.002h.014l.014-.002h.013l.013-.002h.014l.011-.002h.016l.013-.002h.014l.013-.002h.014l.007-.001.007-.001.014-.001h.013l.014-.002h.014l.013-.002h.014l.014-.002h.003l.049-.004.015-.001.063-.004h.001l.065-.004.066-.004.027-.002.039-.002.042-.002.024-.001.056-.003h.01l.067-.004h.004l.063-.003.02-.001.048-.002.034-.001.034-.001.048-.002h.02l.063-.003h.005l.069-.002h.01l.059-.002h.025l.044-.001.04-.001.085-.002h.014l.07-.003.07-.002h.015l.055-.001h.03l.04-.002h.046l.024-.001.062-.001h.009l.07-.002h.006l.065-.002.021-.001.05-.001h.036l.034-.002h.052l.019-.001.067-.002h.003l.071-.002.012-.001.06-.002.026-.001.044-.001.043-.002.028-.001.057-.002h.014l.07-.004h.002l.069-.003h.017l.054-.003.032-.001.038-.002.048-.003.022-.001.063-.004h.007l.07-.005h.008l.062-.004.023-.002.047-.003.038-.003.032-.002.052-.004.017-.001.067-.005h.002l.07-.007h.012l.056-.006.028-.002.04-.004.043-.004.025-.003.057-.006h.011l.068-.009h.004l.063-.008.018-.002.049-.007.032-.005.034-.005.007-.001.06-.009.06-.009h.006l.065-.011.01-.002.055-.01.023-.004.042-.008.037-.007.027-.005.05-.01.014-.003.063-.013.153-.032.02-.004.133-.029.038-.008.116-.025.056-.012.097-.02.075-.017.079-.017.094-.02.06-.013.112-.024.04-.01.132-.028.022-.005.15-.033h.003l.153-.034.016-.003.138-.03.034-.009.119-.026.053-.012.1-.022.071-.016.081-.018.09-.02.064-.015.108-.024.044-.01.127-.03.025-.005.146-.033.007-.001.152-.035.012-.002.14-.032.03-.007.12-.028.05-.011.1-.024.068-.015.083-.02.086-.02.065-.015.103-.024.047-.011.121-.029.028-.007.14-.033.008-.002.15-.035.008-.002.14-.033.026-.007.12-.029.046-.01.102-.025.062-.015.084-.02.08-.02.066-.016.098-.023.048-.012.114-.028.03-.007.132-.033.012-.003.144-.035.006-.001.137-.034.022-.006.12-.03.04-.01.101-.025.057-.014.084-.021.074-.02.065-.015.09-.023.05-.013.106-.027.032-.008.122-.032.015-.004.136-.035h.002l.134-.035.019-.005.116-.03.035-.009.099-.026.05-.013.082-.022.067-.017.065-.017.083-.022.049-.013.097-.026.032-.008.113-.03.016-.004.128-.035.127-.034.015-.004.11-.03.03-.008.095-.026.045-.013.08-.021.058-.017.064-.017.073-.02.048-.014.087-.025.032-.009.102-.028.017-.005.115-.033h.003l.015-.005.029-.009.014-.004.014-.004.014-.004.014-.004.014-.004q.394-.114.759-.223-1.574.178-3.154.37l-.778.094c-1.311.247-2.951.52-5.027.818z" style="display:inline;fill:#9bc7a1;fill-opacity:1;fill-rule:evenodd;stroke:none" transform="matrix(.2578 0 0 -.2578 -46.875 136.616)"/><path d="M223.634 474.676c-3.539 2.315-4.018-1.368-4.307-1.277l-.232.072-.087.025-.17.049-.047.013-.176.046-.047.013-.013.003-.196.047-.062.013-.149.032-.055.011-.159.03-.03.006-.185.029-.035.005-.13.017-.062.007-.12.011-.038.003-.149.01h-.046l-.105.003h-.145l-.046-.002-.104-.006h-.024l-.027-.004-.095-.01-.04-.005-.081-.012-.035-.006-.102-.02-.008-.001-.005-.001-.1-.026-.032-.009-.069-.021-.036-.013-.055-.02-.039-.015-.074-.032-.014-.006-.016-.008-.063-.032-.024-.012-.058-.033-.024-.015-.005-.003-.062-.04-.006-.004-.01-.007-.057-.04-.027-.021-.036-.028-.03-.024-.005-.005-.053-.046-.002-.001-.01-.011-.051-.048-.012-.011-.043-.044-.012-.012-.016-.018-.044-.048-.002-.002-.044-.05-.011-.014-.031-.038-.024-.03-.017-.021-.036-.046-.005-.006-.04-.052-.008-.01-.031-.043-.02-.026-.019-.026-.03-.042-.008-.01-.037-.052-.005-.007-.033-.045-.017-.022-.021-.028-.028-.038-.01-.013-.039-.049-.002-.003-.036-.046-.015-.017-.008-.009-.033-.039-.01-.012-.014-.015-.04-.044-.002-.001-.042-.044-.032-.03-.028-.026-.017-.015-.039-.033-.015-.013-.005-.003-.048-.036-.003-.002-.025-.017-.035-.023-.032-.02-.03-.016-.028-.017-.004-.002-.057-.027q-.407-.05-.815-.108l-.013.001-.04.004-.013.001-.013.002-.014.002-.013.002-.014.002-.069.011-.014.002-.014.002-.005.001-.009.002-.117.023-.013.003h-.001l-.015.003-.12.03h-.004l-.007.001-.009.003-.016.004-.114.032-.016.005h-.001l-.154.048-.008.003-.01.003-.163.055-.136.047-.134.042-.132.038-.13.033-.128.03-.126.025-.124.021-.123.018-.12.014-.119.01-.117.008-.115.004h-.113l-.111-.001-.11-.005-.108-.008-.106-.011-.104-.014-.103-.015-.1-.018-.1-.02-.097-.023-.096-.024-.094-.027-.093-.027-.091-.03-.09-.03v-.001l-.087-.032-.086-.034-.085-.034-.083-.036-.082-.037-.08-.037-.078-.038-.077-.039-.076-.039-.074-.039-.073-.04-.07-.039h-.001l-.07-.04-.068-.038-.067-.04-.066-.038-.064-.038-.063-.037-.062-.036-.06-.036-.059-.035-.058-.033-.056-.032-.056-.031-.053-.03-.053-.027-.052-.026-.05-.024-.049-.022-.048-.02-.047-.018-.046-.015-.044-.013-.043-.01-.043-.008-.041-.005-.04-.002a220 220 0 0 0 4.743 7.743l.076-.001.076-.002.075-.001.075-.001.074-.002.074-.002.074-.002.073-.002.072-.002.072-.001.071-.002.07-.002h.001l.07-.002.07-.002.069-.002.068-.002.068-.002.068-.002.067-.002.066-.002.065-.002.066-.002.064-.002.064-.002.063-.002.063-.002.062-.002.06-.002h.001l.06-.003.06-.002.06-.003.059-.002.058-.003.058-.003.056-.003.056-.003.055-.003.055-.003.054-.003.053-.003.053-.003.051-.003.052-.003.05-.003.05-.003.048-.003.048-.003.048-.003.046-.003.046-.003.045-.003.044-.004.043-.003.043-.004.042-.004.04-.004.04-.003.04-.004.039-.004.037-.004.037-.004.036-.004.035-.004.034-.004c4.458-.549 7.843-.746 12.231-1.283.453-.056 1.365-.091 2.483-.115-.904-.57-1.44-1.5-1.242-1.958-3.793 2.329-3.692.353-5.227-.558m13.927 2.436h.008l.058-.001h.01l.048-.001.028-.001h.028l.045-.001h.01l.055-.001h.013q-.008-.3.07-.673a3.6 3.6 0 0 1-.374.678zm-3.347-.728c-.188.26-.393.447-.61.574a4 4 0 0 1-.263.19h.02l.084-.001h.117l.062-.001h.054l.034-.001h.088l.088-.001h.022l.065-.001h.087l.079-.001h.009l.086-.001h.174l.074-.001h.011l.086-.001h.086l.043-.001h.041l.071-.001h.085a4.6 4.6 0 0 1-.692-.753zm6.267.528.136-.012h.007l.115-.011c-.165-.244-.344-.467-.569-.593q.232.326.311.616m-28.671 1.98-.008-.013zm.009.013-.01-.013zm.009.014-.01-.014zm.061.095-.005-.009-.01-.015-.01-.015-.01-.014-.01-.014-.008-.015-.01-.014z" style="display:inline;fill:#fbf5cd;fill-opacity:1;fill-rule:evenodd;stroke:none" transform="matrix(.2578 0 0 -.2578 -46.875 136.616)"/><path d="M246.683 475.375c2.11.45 4.517.832 7.27.714a29 29 0 0 1 2.291.01l-1.06-.55-.049-.024-.065-.034-.108-.057-1.034-.546-.068-.036-.196-.106-.558-.301-.502-.27-.039-.022-1.093-.601-.009-.005-.003-.002-1.075-.603-.116-.066-.079-.044-1.047-.6-.06-.033-.142-.083-.718-.418-.319-.187-.04-.024-.05-.03-1.02-.605-.063-.038-.024-.014-.98-.593-.163-.099-.19-.118-.707-.435-.108-.067-.155-.096-.08-.05-.01-.006-.702-.44-.242-.153-.117-.074-.003-.002-.339-.216-.349-.223-.323-.208-.025-.016-.262-.17-.08-.051-.344-.224-.703-.46-.793-.526-.013-.01-.23-.152-.174-.118-.168-.113-.343-.232-.215-.145-.187-.126-.106-.074-.518-.355-.32-.22-.02-.014-.01-.007-.273-.19-.692-.483-.01-.007-.371-.262-.24-.17-.098-.069-.336-.24-.04-.028-.605-.434-.025-.019-.336-.243-.096-.07-.051-.037q-.377-.274-.752-.55l-.1-.074c-.437.092-1.193-.35-2.366.083-.974.36 1.166 3.21-2.25 2.181-2.182-.658-.393.647-4.016.647-1.082 0-2.92-1.346-4.157 0-3.062 3.322-2.988.574-4.456 1.18-2.903 1.199-6.128-.67-6.748.447-.524.946-2.196.68-2.772.917 3.02.454 9.272 1.778 11.55 2.406.55.11 1.332.286 1.449.36l.004.003.037.01c.378.11 2.403 1.156 2.82 1.26.418.102.85.203 1.279.299.43.096.858.188 1.272.276s.814.172 1.184.252.713.156 1.012.227q.237.056.436.11h.004l.007.002.005.001c.113.03.064.015.154.043.125.038.84.113.919.149.461.145.694.345 1.781.532.12.02 1.5.267 1.5.3 3.296.264 5.947-.016 9.154.126.258.012.482.02.685.035.015-.002.397 0 .604.006.555.016 1.083.002 1.473.15.473.176.396.047.621.44.085.147 1.515.162 1.682.492l.002.007.003.007.003.007c.06.141.218.221.106.287zm-39.965-7.414.112.008.125.011.138.014.148.017.16.02-.11-.015-.05-.006-.083-.01-.065-.007-.058-.006-.08-.008-.035-.003-.09-.008h-.016zm.854.091.18.026.19.027.2.03.209.033.217.035.225.037-.178-.03-.047-.007-.142-.023-.075-.012-.108-.017-.1-.016-.076-.011-.124-.02-.046-.006-.145-.02-.173-.025zm1.693.27.246.042.253.045.258.047.263.049-.197-.037-.066-.012-.158-.029-.1-.018-.12-.021-.133-.024-.083-.015zm1.288.233.273.051.277.053.28.054-.123-.024-.157-.03-.083-.016-.194-.037-.044-.008zm1.113.213.285.056.288.057-.243-.048-.045-.009-.203-.04zm.863.171.29.059-.075-.016zm.875.178.291.06.292.061-.236-.05-.056-.01-.195-.041zm.873.182.29.061-.064-.013zm.862.184.282.061-.179-.039zm1.374.302.261.06-.119-.028zm.517.118.25.057-.182-.042zm.495.114.237.056.092.021-.092-.021-.034-.008zm2.798.755.006.003zm.006.003.005.003zm.005.003.005.002z" clip-path="url(#clipPath14-0)" style="display:inline;fill:#d4d38b;fill-opacity:1;fill-rule:evenodd;stroke:none" transform="matrix(.2578 0 0 -.2578 -46.875 136.616)"/><path d="M261.094 478.484c-.195.244-.632.49-1.364.722-.016.003-.896 2.66-3.223.813.122-2.03-4.321-3.38-3.461-1.31 1.03 2.484-1.56 2.627-1.915 2.295-1.367-1.276-2.962-.356-3.514-.968-3.232-3.592-5.582.975-7.123-.233-1.615-1.27-4.274-.776-3.75.497 1.337 3.255-4.002 2.425-3.91 1.2.197-2.704-.902-1.762-.888-1.598.226 2.633-2.838 1.218-2.84 1.2-.488-2.81-1.462-1.643-1.21-.777.773 2.668-3.857 1.227-3.91.877-.208-1.427-2.256-.746-1.68.1.83 1.226-1.364 2.524-4.176-.406-.706-.737-3.788.093-4.734.402q.676 1.008 1.298 1.894 1.275 1.824 2.582 3.562c1.959.303 4.096.693 6.276 1.09 1.728.314 3.483.633 5.194.918 1.652.055 3.469.167 4.676.4 1.086.21 5.252.374 9.951.523 5.512.036 11.409.343 17.326.652l1.451.076c3.375.02 8.215-.068 11.61.501h.003c1.256-.128 2.592.036 2.715.05.048.007 11.874-.902 12.21-.97l.016-.003.007-.002.01-.002.015-.004h.004l.022-.007h.004l.018-.005.014-.004.01-.002.025-.007.027-.008.012-.003.016-.005.025-.007.006-.002.03-.01.008-.002.025-.007.021-.007.013-.005.035-.01.001-.001.036-.012.015-.005.022-.007.032-.01.007-.002.04-.013.01-.003.032-.01.027-.01.016-.005.043-.013.002-.001.043-.014.02-.006.026-.01c.803-.27 1.367-.452 2.007-.622-10.457-2.478-20.634-6.094-30.335-10.664zm31.695 11.039.123-.032-.013-.003-.057.017-.008.003zm-80.54-9.954h-.001l.015.022z" clip-path="url(#clipPath16-3)" style="display:inline;fill:#e7e567;fill-opacity:1;fill-rule:evenodd;stroke:none" transform="matrix(.2578 0 0 -.2578 -46.875 136.616)"/><path d="M227.059 498.315a133 133 0 0 0 4.843 4.845l-.004-.005c2.02.19 3.63.353 4.4.427 6.203.6 19.021-.678 24.882-.65-.27-.112-.492-.274-.634-.501-.767-1.228-2.806 1.629-2.734-1.433a14 14 0 0 0-1.124.149l-.007.045c-.125 1.018-.986.843-1.43.19-.307-.178-.72-.436-1.273-.798a2 2 0 0 0-.501-.242l.034.012-1.083-.063c-1.101.192-2.123.957-3.033.215-.23-.187-.69-.482-1.222-.75q.142.071.274.144a6 6 0 0 1-.348-.074 32 32 0 0 0-2.49-.527 1 1 0 0 1 .117-.068c-.202.093-.346.264-.403.539-2.28.79-.928-1.4-4.86-.597-1.085.221.118-.594-2.287-.104-.385.078-.792-.038-1.204-.22-1.767.023-3.467.023-5.23-.218-1.056-.145-2.673-.249-4.684-.316" clip-path="url(#clipPath18-0)" style="display:inline;fill:#b6bdce;fill-opacity:1;fill-rule:evenodd;stroke:none" transform="matrix(.2578 0 0 -.2578 -46.875 136.616)"/><path d="m227.567 457.38-.038-.03-.037-.032-.338-.275-.038-.03-.037-.032-.037-.03-.038-.031-.485-.4-.038-.031-.037-.03-.037-.032-.038-.03-.037-.031-.037-.032-.075-.061-.037-.031-.037-.031-.037-.031-.037-.031-.038-.031-.036-.03-.038-.032-.482-.404-.037-.031-.037-.031-.037-.031-.037-.032-.036-.03-.038-.032-.036-.031-.037-.031c-1.462.412-2.875.662-5.053.922-1.448.171-2.132-2.71-6.147-.89-.183.082-.436.083-.686.026-.11.109-.133.075-.133-.036-.382-.119-.732-.367-.799-.666-1.747-.61-2.106 1.248-2.116 1.254-1.49 1.094-1.797-.539-4.483 1.38-.988.705-2.167-.78-2.799-.78-3.123 0-2.866.391-3.32.712 1 2.036 2.003 3.999 2.998 5.88 4.86-1.875 10.622-3.36 14.99-4.457l.088-.022h.003l.087-.022.006-.001.087-.022.01-.002.087-.021.012-.003.088-.021.016-.004.087-.022.02-.004.086-.02.024-.006.085-.02.028-.008.083-.02.033-.007.082-.02.037-.008.08-.02.042-.008.079-.019.045-.01.076-.018.051-.012.074-.017.056-.012.071-.017.061-.014.068-.015.066-.015.065-.015.072-.016.062-.014.076-.018.06-.013.082-.018.055-.013.088-.02.05-.01.094-.022.048-.01.098-.023.044-.009.105-.023.039-.008.11-.025.035-.007.116-.026.031-.007.122-.027.026-.006.128-.027.022-.005.133-.03.017-.003.139-.03.012-.002.145-.032h.008l.15-.034h.002l.31-.066.005-.002.149-.03.011-.004.144-.03.017-.004.14-.03.021-.004.605-.126.042-.009.115-.024.047-.01.11-.022.051-.011.727-.148.076-.016.385-.076.089-.018.063-.012.093-.02.058-.01.097-.02.053-.01.1-.02.048-.01.406-.078.032-.006.116-.022.028-.005.118-.023.024-.004.263-.05.014-.003.266-.049h.005l.266-.049q.37.293.74.582l.04-.008h.006z" clip-path="url(#clipPath20-2)" style="display:inline;fill:#6b9966;fill-opacity:.992157;fill-rule:evenodd;stroke:none" transform="matrix(.2578 0 0 -.2578 -46.875 136.616)"/><path d="M383.937 504.215c6.98-3.583 14.63-7.425 23.55-10.92-1.964.68-6.18-1.039-8.401.058-1.311.065-2.51.139-3.481.217-2.466.198-3.91.638-6.55.304-1.277-.162-.116 1.278-1.5 1.56-2.821.578-8.404.705-10.914 1.535-4.98 1.646-19.8 2.542-19.861 2.512-4.096-2.042-12.492-.393-20.442-.377.008 1.282-.875 1.233-.964 1.089-.583-.986-.62-.41-.38-1.1-1.113-.02-2.1-.076-2.915-.18-.51.044-1.03-.134-1.457-.3-.331.155-.641.25-.934.3.06.893-1.047.322-.882.587.642 1.026-.034 1.342-.083 1.442-.6 1.21-1.457.297-1.46.29-.32-.937-.361.247-1.426-.684-.178-.156-.877-.009-.501-.879.141-.326-1.647-.24-1.767.015-.445.948-.738-.174-1.453.12-1.848.762-1.462.017-2.098.045-1.017.043-1.331-.374-1.493-.715-.307.238-.569.38-.797.458.182.35.594.65.602.671.576 1.36.042.926.07 1.818.072 2.245-1.424.292-1.378 1.363.042.99-2.63.54-3.296.54-.596 0-.274-.842-1.018-.905-2.827-.236-1.924-2.759-3.29-2.256-1.84.676-1.22-.726-1.588-.793-.224.127-.108.665-.726.479-.954-.424-2.18-.746-3.183-.4-.274 1.175-1.27 1.261-2.41 1.138.137.265.035.552-.474.854-.58.344-1.549-.388-2.942-.897q-.184.098-.331.253c-.795.854-4.64.471-6.018.08-.63-.178-1.1-.338-1.443-.48a4 4 0 0 1-.425-.204 1.4 1.4 0 0 1-.257-.18c-.08-.077-.09-.12-.104-.133a5 5 0 0 0-.273-.011h.003c-.848-.025-1.445.066-1.48.455-.046.546-3.45.839-2.487-.832-.69-1.197-1.806-.176-2.011.815-1.094.226-3.703 1.492-2.251-1.023-.795-1.376-3.018.657-3.838-.035-.643-.541-.095 1.827-1.655 0-.916-1.072-.872 1.58-2.946 1.491-1.224-.052-3.913.182-4.601 1.135-.868 1.2-3.11-2.008-3.395.226-.01.074-.473.224-1.09.314l.09.016c6.667 1.357 16.674.87 24.26 1.804.3.037.575.074.833.11l-.079.038c4.148.641 14.05-.085 17.837-.013 1.024.02 9.12 1.065 9.716 1.22 2.008.52 5.79-2.489 5.882-2.456 1.513.548 5.267.072 7.034 1.262.226.152 4.826-.813 5.272 1.171.376.114 13.11-.302 15.805.974.612.29 2.96-1.345 6.097-.114.065.025 9.112-1.255 9.192-1.618.266-1.207 1.81-.216 4.632-.794 2.769-.566 4.725.726 8.266.001.816-.167 2.985-.33 5.607-.462" clip-path="url(#clipPath22-1)" style="display:inline;fill:#b6bdce;fill-opacity:1;fill-rule:evenodd;stroke:none" transform="matrix(.2578 0 0 -.2578 -46.875 136.616)"/><path d="M399.086 493.353c2.232-1.102 6.478.639 8.43-.067 1.675-.606 3.266-1.258 6.005-2.225-1.193-.281-2.891-.616-4.578-.926-1.686-.31-3.362-.597-4.51-.783a99 99 0 0 0-6.782-.857 105 105 0 0 0-6.585-.394l-.053-.002-.049-.001h-.004l-.052-.001-.045-.001h-.008l-.053-.002h-.041l-.011-.001-.053-.001-.037-.001h-.016l-.052-.001-.034-.001h-.02l-.052-.002h-.03l-.022-.001-.053-.001h-.026l-.027-.001-.052-.001h-.022l-.031-.001-.052-.001h-.018l-.035-.002h-.067l-.038-.002h-.063l-.042-.001-.053-.001h-.007l-.046-.001-.052-.001h-.053l-.052-.002h-.053l-.047-.001h-.005l-.053-.001h-.043l-.01-.001h-.052l-.04-.001h-.012l-.052-.001h-.053l-.052-.002h-.133l-.024-.001h-.077l-.028-.001h-.053l-.02-.001h-.101l-.036-.001h-.065l-.04-.001h-.104l-.052-.001h-.106l-.051-.001h-.574.007c-.102.314-.556.687-1.464 1.1-.016.005-.897 2.784-3.224 1.258.122-2.046-4.32-2.784-3.461-.832 1.03 2.342-1.559 2.842-1.915 2.56-1.367-1.088-2.961.053-3.513-.483-3.232-3.146-5.582 1.746-7.124.75-1.615-1.045-5.25-1.347-4.727-.147 1.338 3.07-4.001 2.978-3.91 1.741.198-2.732-.901-1.639-.888-1.476l.008.119.004.114v.11l-.006.104-.009.099a1 1 0 0 1-.031.184l-.022.086-.025.08a2 2 0 0 1-.06.15l-.036.068-.038.064-.041.061c-.228.312-.575.462-.94.521l-.068.01h-.002l-.067.008h-.001l-.068.006h-.002l-.068.004h-.001l-.068.003h-.002l-.067.001h-.07l-.067-.002h-.002l-.065-.003h-.002l-.065-.004h-.002l-.063-.005h-.002l-.062-.006h-.002l-.062-.008h-.002l-.06-.008h-.002l-.058-.01h-.002a4 4 0 0 1-.59-.133l-.019-.006-.015-.005-.01-.004-.007-.003-.002-.002c-.487-2.743-1.461-1.442-1.21-.61.773 2.56-3.857 1.76-3.91 1.416-.208-1.398-2.256-.434-1.68.332.554.74-.237 1.699-1.656 1.504l-3.75.947c-.85.604-4.612.26-4.853.573-.672.874-1.342-.082-1.28.43q.028.216.027.394c7.95-.015 16.346-1.665 20.442.377.06.03 14.88-.866 19.86-2.512 2.511-.83 8.094-.957 10.915-1.534 1.384-.283.223-1.723 1.5-1.561 2.64.334 4.084-.106 6.55-.304.971-.078 2.17-.152 3.48-.217zm-67.007 5.56c.814.104 1.802.16 2.915.18.047-.133.104-.315.17-.565a3.47 3.47 0 0 1-1.881-.21l-.102.012c-.333.39-.714.55-1.102.583" clip-path="url(#clipPath24-7)" style="display:inline;fill:#6b9966;fill-opacity:.992157;fill-rule:evenodd;stroke:none" transform="matrix(.2578 0 0 -.2578 -46.875 136.616)"/><path d="M228.748 488.762a356 356 0 0 1-5.196-.919c-2.18-.397-4.317-.786-6.276-1.089.665.873 1.77 2.306 2.502 3.222 2.03-.507 4.097-.917 5.06-1.272-.035.013 1.804-.011 3.91.058" clip-path="url(#clipPath28-20)" style="display:inline;fill:#e7e567;fill-opacity:1;fill-rule:evenodd;stroke:none" transform="matrix(.2578 0 0 -.2578 -46.875 136.616)"/><path d="m283.488 491.263.006.008.125-.009h.001zm-4.826 2.003v.002l.002.002v.002l.002.002v.001l.001.002.001.002.001.002.001.002.001.002.001.003.001.002.001.002.001.003.001.002.002.003v.002l.002.002.002.004.001.003.001.002.001.002.001.002.001.002.001.003.001.002.001.002.001.002.001.002.001.002.001.003.001.002.001.002.001.002.001.002.001.002.001.002.001.002.001.002.001.002.001.002.001.003.001.002.001.002.001.003.001.002.001.002.001.002v.002l.002.003v.002l.002.002v.002l.002.002v.002l.001.002.001.003.001.002.001.002.001.002.001.003.001.002.001.002.001.002c1.102 2.676-3.217.967-3.893.682-3.01-1.271-1.648 2.152-3.196 1.158-3.41-2.187-3.165.855-4.39-.422-2.726-2.842-.972 1.4-4.93-.623-4.248-2.174-1.822-.05-3.266-.074-1.9-.03-.612-1.745-1.693-1.063-4.467 2.827-4.085-1.522-4.528-.653-1.662 3.265-3.359-1.45-5.092-.237-1.265.885-4.768-.897-4.44-.141.493 1.13-.721 1.228-1.196 2.079-.514.92-2.377-1.66-2.946-.544-1.089 2.134-3.18-.716-3.63.633-.524 1.564-1.55.297-2.576.17-.015-.002-.166.279-.33.595l.008.004.007.004.007.005.007.004.007.005.007.004.007.005.014.01.007.004.007.004.007.005.007.005-.005-.003c1.004.4 2.822 1.128 3.169 1.334.167.099.338.094.598.264.773-.152 3.415 1.189 4.089.79.169-.1 5.414.757 5.664.935.369.263 5.686 1.046 5.953.936.127-.053.9-.025 1.902.041.183-.385.538-.776 1.14-1.132.787-.466 5.688.783 5.994-1.283.003-.019 1.066-.012.768.194 2.064-1.43 2.851.57 6.093-.09.549-.111.89.639 3.232.519 6.392-.326 4.288.136 6.862.417 2.232.243 2.908.176 5.189.641 1.085.221 6.761.508 9.451.416.473-.08.965-.154 1.464-.227.33-.188 1.555-.607 2.314-.313 2.284-.294 4.292-.524 4.74-.71 2.82-1.166 10.185-1.082 13.485-1.39.337-.07.67-.11.997-.131l.042-.008.11-.022.015-.002.12-.022.033-.005.123-.02.057-.01.12-.02.087-.014.112-.018.12-.02.1-.014.156-.024.081-.012.199-.03.059-.008.243-.036.031-.005.293-.042.308-.044.036-.005.29-.04.074-.011.265-.038.117-.016.238-.032.162-.023.207-.028.21-.029.171-.023.261-.035.133-.018.314-.042.091-.012.37-.05.047-.006.427-.056.436-.057.05-.007.395-.052.1-.013.354-.046.152-.02.309-.04.207-.026.26-.033.263-.034.211-.027.319-.04.16-.02.376-.048.108-.013.433-.055.055-.007.49-.061.494-.062.055-.007.44-.054.11-.013.386-.048.166-.02.332-.04.22-.027.276-.034.275-.033.22-.027.33-.039.164-.02.382-.045.11-.013.434-.052.054-.007.484-.056.48-.057.053-.006.423-.049.103-.011.365-.042.155-.018.307-.035.203-.023.252-.028.25-.028.197-.022.293-.032.145-.017.334-.036.095-.01.372-.04.046-.005.408-.043v-.001l.397-.041.043-.004.34-.036.084-.009.287-.029.121-.011.391-.039.188-.018.185-.017.143-.014.211-.019.1-.009.233-.02.063-.006.25-.02.03-.004.26-.02.24-.018.027-.002.196-.013.048-.003 8.78-.528 5.056-1.162 6.508-1.102a118 118 0 0 0 5.03-.818c-1.842.225-3.691.461-5.552.698-16.629 2.12-34.177 4.359-56.394.962q-2.643-.405-5.267-.906l-2.321-.463-.016-.002h-.008l-.008-.002-.016-.002h-.001l-.018-.002h-.008l-.01-.001h-.017l-.02-.002h-.103l-.021.002h-.023l-.02.002h-.003l-.022.002h-.01l-.015.001-.02.001h-.003l-.024.003h-.009l-.016.002-.02.002-.004.001-.025.002-.008.001-.018.002-.02.003h-.005l-.026.004h-.008l-.02.002-.02.003h-.005l-.027.005h-.008l-.02.004-.02.003h-.006l-.028.005h-.007l-.02.004-.021.003h-.007l-.028.006h-.006l-.022.004-.02.003h-.009l-.028.006h-.006l-.023.005-.02.003h-.01l-.028.006h-.005l-.024.004-.02.003-.009.002-.03.005-.004.001-.025.004-.02.003-.01.002-.029.005-.004.001-.026.005-.018.003-.011.002-.03.005h-.002l-.027.006-.018.003-.012.002-.03.005h-.002l-.027.005-.017.003-.013.002-.029.005h-.002l-.028.005-.016.003-.013.002-.03.005h-.001l-.028.006-.015.003-.014.002-.029.005-.029.005-.015.002-.014.002-.028.005c-.393.316.018 1.359-1.614.848-1.602-.5-4.972 2.882-8.233 2.067-.763-.19-.69-.795-1.447-.501-1.42.55-2.753.826-3.801.613zm-45.89 1.8.007.005-.005-.003zm.015.01.007.005h-.002l-.006-.005zm.014.01.007.004-.004-.003zm.095.063.007.005-.005-.003h-.003zm.052.036.007.005-.003-.002zm.007.005.003.002.005.003zm.098.068.008.005-.005-.004-.002-.002zm.039.028.008.005-.006-.004zm36.098 2.25h.002zm.002 0h.002zm.002 0h.002zm.002 0h.003zm.003 0h.002zm.002 0h.002zm.002 0h.003zm.003 0 .002-.001zm.002-.001h.002zm.01 0h.002zm.002 0h.002zm.002 0h.004zm.032 0h-.004.002m-.005 0h-.008.006m-.009 0h-.009zm-.018 0h-.002m2.473.57h.07l.01-.001h.02l.01-.001h.03l.01-.001h.01l.01-.001h.02l.01-.001h.011l.01-.001h.01l.011-.001h.01l.011-.001h.011l.01-.001h.01l.01-.001.01-.001.022-.001.01-.001h.011l.011-.001h.004l.007-.001h.011l.011-.001.065-.005h.011l.045-.005h.011l.011-.002h.012l.011-.001.01-.001h.002l.011-.001.012-.001.011-.001.012-.001.011-.001.012-.001.012-.001.011-.001.012-.001c-.267.015-.49.03-.682.041zm34.089-.555.01-.002zm.01-.002.012-.001zm.012-.001.01-.001zm.01-.001.011-.001zm.011-.001.01-.001zm.01-.001.012-.002zm.012-.002.011-.001zm.011-.001.01-.001zm.01-.001.011-.001zm.011-.001.011-.001h-.009zm.011-.001.011-.001zm.011-.001.011-.001zm.011-.001.01-.001zm.01-.001.012-.001zm.012-.001.01-.001zm.397-.045h.011l.01-.002-.018.002zm.022-.002h.011zm.011 0 .011-.002zm4.782-.33.332-.015h.004zm19.067-2.172.282-.034-.144.017zm6.123-.703.22-.024m.094-.01.107-.011-.054.006m1.97-.2.217-.02m.949-.083.1-.008-.085.007zm1.042-.072.08-.003m.587.007.004.001zm.04.015.001.001zm0 0zm-.001 0zm-.006-.003h-.002zm-.003 0v-.002m-.01-.002-.003-.001m-.003 0-.002-.001m0 0-.004-.001m-115.55 3.315q.529.572 1.06 1.13c2.01.067 3.627.17 4.683.316 1.763.241 3.463.24 5.23.218l-.046-.02-.019-.01-.027-.012-.038-.017-.008-.004-.046-.022-.012-.006-.034-.016-.03-.015-.016-.007-.045-.023-.046-.023-.025-.012-.021-.011-.046-.024-.046-.023-.017-.01-.029-.014-.046-.024-.046-.023-.091-.047-.046-.024-.045-.023-.046-.023-.091-.046-.045-.022-.046-.022-.045-.022-.045-.02-.045-.022-.045-.02-.045-.02-.045-.02-.044-.018-.045-.018h-.003l-.004-.002-.003-.002h-.003l-.003-.002h-.004l-.003-.002h-.003l-.003-.002h-.003l-.004-.002h-.003l-.003-.002-.004-.001-.004-.001-.003-.001-.003-.001-.01-.004-.004-.001-.003-.001-.003-.001-.003-.001-.006-.002-.004-.001-.003-.001-.007-.002-.003-.001-.004-.001-.007-.002-.003-.001-.003-.001-.003-.001-.006-.002-.005-.001-.003-.001-.003-.001-.003-.001-.013-.005-.004-.001-.003-.001-.003-.001h-.003l-.002-.002h-.001l-.003-.001-.003-.001-.003-.001-.003-.001-.003-.001-.003-.001-.003-.001-.003-.001-.003-.001h-.003l-.003-.002h-.003l-.002-.001-.003-.001-.003-.001h-.003l-.008-.003h-.003l-.003-.001-.002-.001-.003-.001h-.003l-.002-.001-.003-.001-.002-.001-.003-.001h-.003l-.003-.001-.002-.001-.003-.001-.003-.001h-.002l-.016-.006h-.002l-.003-.001h-.002l-.003-.002h-.002l-.003-.001h-.002l-.005-.002h-.003l-.005-.002h-.003l-.005-.001-.003-.001-.01-.003h-.005v-.001l-.003-.001h-.003l-.003-.001h-.003l-.003-.001-.003-.001-.01-.002h-.003l-.002-.001-.003-.001h-.003l-.002-.001h-.003l-.044-.01-.085-.015-.043-.006-.042-.004h-.002l-.038-.003h-.005l-.003-.001h-.018l-.004-.001h-.044l-.003-.001h-.061l-.03.003-.042.003-.04.005-.008.002-.03.005h-.003l-.04.008-.04.01-.007.002-.03.009h-.003l-.04.014-.047.018-.012.005-.044.02-.006.001-.009.004-.038.02-.006.003-.002.001-.043.026-.019.012-.044.03c-.669.476-3.534-.664-3.802-.72a9 9 0 0 1-.199-1.53c-.683-.195-1.26-.34-1.24.216.097 2.443-1.953 1.453-2.95 1.017zm19.61 2.114a32 32 0 0 1 2.49.527q.151.038.348.074l-.008-.004-.023-.013-.013-.007-.011-.006-.024-.013-.01-.006-.014-.007-.024-.013-.009-.004-.09-.046-.002-.001-.022-.012-.025-.012-.048-.024-.047-.024-.096-.046-.049-.023-.048-.022-.05-.023-.049-.022-.049-.021-.05-.022-.05-.021-.002-.001-.003-.001-.003-.001-.003-.001-.003-.001-.003-.001-.003-.001-.003-.001-.003-.001-.003-.001-.003-.001-.003-.001-.003-.001-.003-.001-.003-.002-.003-.001-.003-.001-.003-.001h-.003l-.003-.002h-.003l-.003-.002-.003-.002h-.003l-.003-.002h-.003l-.003-.002h-.003l-.003-.002h-.003l-.003-.003h-.003l-.003-.002h-.003l-.003-.002h-.003l-.003-.002-.003-.002h-.003l-.003-.002h-.003l-.003-.002h-.003l-.003-.002h-.003l-.003-.002h-.003l-.003-.002-.003-.002h-.003l-.003-.002h-.003l-.003-.002h-.003l-.003-.002-.003-.002h-.003l-.003-.001-.003-.001-.003-.001-.003-.001-.003-.001-.003-.001-.003-.001-.05-.02-.05-.018-.05-.018-.05-.017-.05-.017-.05-.017-.049-.016-.049-.015-.05-.014-.048-.014-.049-.014-.048-.012-.048-.012-.11-.025-.052-.01-.027-.005-.046-.008-.047-.007-.045-.007-.045-.005-.044-.005-.044-.004-.043-.002h-.001l-.042-.002-.042-.001h-.083l-.034.003h-.006l-.04.003-.038.004h-.006l-.027.005h-.006l-.013.003-.059.012h-.003l-.033.009-.035.01-.034.011-.033.013-.03.013h-.002v.001l-.01.005-.019.009-.002.001-.03.016-.004.002-.024.016h-.001l-.008.006-.017.012h-.002zm6.819.992 1.084.063-.004-.001-.008-.003-.006-.002-.002-.001-.008-.002-.008-.003-.018-.006-.017-.005-.034-.01-.017-.005-.017-.004-.018-.005-.017-.004-.017-.004-.017-.004-.018-.004-.034-.007-.017-.003-.017-.003-.017-.003-.034-.005-.017-.002-.017-.002-.035-.004-.017-.002-.017-.001-.017-.002-.017-.001-.016-.001-.018-.001-.017-.001h-.016l-.017-.001-.017-.001h-.122l-.03.001-.017.001h-.017l-.012.001h-.005l-.017.002h-.016l-.017.002h-.017l-.004.001-.012.001-.017.002-.016.002-.017.002-.014.002h-.004" clip-path="url(#clipPath30-3)" style="display:inline;fill:#9bc7a1;fill-opacity:1;fill-rule:evenodd;stroke:none" transform="matrix(.2578 0 0 -.2578 -46.875 136.616)"/><path d="m295.71 511.891.39.052c-6.157 1.443-12.397 2.599-18.858 2.972-7.514.433-15.339-.191-23.704-2.654 6.223-.853 10.44-.485 16.976-2.225 1.45-.386 7.52-.668 11.547-1.249 2.8.168 7.956 3.353 10.025 3.156a22 22 0 0 1 3.625-.052" clip-path="url(#clipPath34-5)" style="display:inline;fill:#e8e8e8;fill-opacity:1;fill-rule:evenodd;stroke:none" transform="matrix(.2578 0 0 -.2578 -46.875 136.616)"/><path d="m363.537 513.92-.037.014q-.477.182-.953.356l-.285.104q-.518.186-1.033.365l-.228.077-.882.295-.264.085q-.516.165-1.033.322l-.24.072q-.443.131-.888.255l-.27.076q-.519.143-1.039.277l-.239.06q-.448.11-.895.216l-.232.054a51 51 0 0 1-1.1.238l-.174.035q-.477.096-.957.183l-.226.041q-.544.096-1.092.18l-.23.033q-.484.072-.972.135l-.18.022q-.559.07-1.122.125l-.247.023q-.456.042-.916.075l-.27.02q-.544.037-1.09.06l-.3.01q-.457.018-.918.025l-.26.005q-.561.006-1.128-.004l-.263-.006a41 41 0 0 1-1.046-.033l-.16-.006a47 47 0 0 1-1.182-.072l-.274-.02q-.508-.041-1.021-.092l-.234-.023a47 47 0 0 1-1.186-.14l-.29-.04q-.526-.072-1.058-.155l-.213-.033a55 55 0 0 1-1.213-.213l-.313-.06q-.562-.108-1.128-.23l-.17-.036a56 56 0 0 1-1.247-.29l-.349-.085q-.594-.149-1.193-.31l-.09-.024-.052-.014q-.636-.176-1.277-.369l-.347-.104a70 70 0 0 1-1.224-.384l-.113-.036-.027-.009a77 77 0 0 1-1.358-.464l-.325-.115a77 77 0 0 1-1.402-.515c5.555 9.276 3.419 13.337-1.463 14.71-4.884 1.373-12.527.05-17.989-1.438-11.45-3.122-21.306-7.958-21.306-7.958 8.24 20.563-21.28 5.606-24.965 3.784-3.163-1.563-7.441-4.017-12.32-7.424l-.228-.16-.002-.002-.117-.082-.112-.078-.004-.003-.116-.082-.11-.078-.007-.005-.117-.083-.107-.077-.01-.007-.117-.084-.106-.075-.012-.01-.117-.084-.104-.074-.014-.01-.119-.086-.1-.073-.018-.012-.118-.086-.1-.073-.019-.013-.12-.087-.097-.07-.021-.017-.12-.087-.095-.07-.025-.018-.12-.087-.093-.07-.026-.019-.12-.089-.091-.067-.03-.021-.12-.09-.09-.066-.031-.024-.12-.09-.088-.065-.034-.026-.122-.09-.084-.064-.037-.027-.121-.092-.003-.002c4.245-.176 8.351-.36 10.07-.6l.112-.015c8.365 2.463 16.19 3.087 23.704 2.654 6.46-.373 12.7-1.528 18.858-2.971l-.389-.052c4.09.27 6.45 1.433 11.852-1.128.966-.458 5.531 2.664 10.434.103 1.287-.672 10.374.776 11.356 1.242 1.497.713 12.37 1.71 14.139 1.349 6.224-1.273 7.6.045 11.559-.47 3.42-.444 6.187.612 8.485.933m-120.26-1.104-.04-.03-.122-.093-.08-.06.15.113zm52.434-.925h-.007z" clip-path="url(#clipPath26-28)" style="display:inline;fill:#b1cce1;fill-opacity:1;fill-rule:evenodd;stroke:none" transform="matrix(.2578 0 0 -.2578 -46.875 136.616)"/><path d="M243.356 512.875c4.246-.176 8.352-.36 10.07-.599 6.285-.872 10.513-.49 17.088-2.24 1.45-.386 7.52-.668 11.548-1.249 2.8.168 7.955 3.353 10.024 3.156 6.694-.638 8.671 2.047 15.477-1.18.966-.458 5.531 2.664 10.434.104 1.288-.672 10.375.775 11.356 1.242 1.498.712 12.37 1.71 14.14 1.348 6.224-1.273 7.6.046 11.558-.469 3.421-.444 6.188.612 8.486.932 6.522-2.487 13.094-5.955 20.4-9.705-2.622.13-4.791.294-5.608.461-3.54.725-5.496-.567-8.265 0-2.822.577-4.367-.413-4.633.794-.08.362-9.127 1.643-9.192 1.618-3.136-1.232-5.484.402-6.096.113-2.695-1.276-15.429-.86-15.805-.973-.447-1.985-5.047-1.02-5.273-1.172-1.767-1.19-5.52-.714-7.033-1.262-.091-.033-3.874 2.977-5.882 2.456-.597-.155-8.692-1.2-9.717-1.22-3.785-.071-13.688.654-17.836.013l.079-.037a49 49 0 0 0-.833-.11c-7.586-.934-17.594-.448-24.26-1.805-3.46-.704-19.971 1.198-27.284.492-.77-.074-2.382-.238-4.401-.427l.005.005.179.17.08.076.104.098.157.148.027.026.184.172.049.045.503.47.016.014.168.155.091.084.259.237.017.016.183.168.06.053.124.114.133.12.05.046.466.42.083.073.364.326.069.06.114.102.143.126.039.035.474.416.071.062.182.158.004.003.177.155.078.067.103.089.153.132.028.024.18.155.047.039.134.115.12.102.06.052.18.153.014.011.166.14.089.075.09.077.162.136.018.015.18.15.055.046.124.103.129.107.05.042.178.148.024.019.154.128.098.08.08.066.17.139.007.007.179.145.065.053.112.091.138.112.215.174.034.027.143.115.106.085.07.057.176.14.002.001.174.139.074.058.101.081.147.115.029.023.174.138.043.034.131.102.115.09.06.047.174.136.011.009.162.125.083.065.488.375.12.092.123.094.05.038.17.13.022.016.15.114.092.07.079.06z" clip-path="url(#clipPath32-7)" style="display:inline;fill:#d7d5e2;fill-opacity:1;fill-rule:evenodd;stroke:none" transform="matrix(.2578 0 0 -.2578 -46.875 136.616)"/><path d="m256.212 476.089-.069-.035v-.001zm-4.11 1.192h.01l-.01-.003z" style="display:inline;fill:#2c7943;fill-opacity:1;fill-rule:evenodd;stroke:none" transform="matrix(.2578 0 0 -.2578 -46.875 136.616)"/><path d="M221.264 482.674c-.792-.023-1.905-.496-3.135-1.778-.705-.736-3.787.093-4.733.403l-.02-.03-.02-.03-.02-.03-.02-.029-.02-.03-.02-.028v-.001l-.02-.03-.02-.03-.021-.03-.02-.03-.02-.031-.02-.03-.02-.03-.021-.031-.02-.03-.021-.03-.02-.031-.02-.031-.02-.03-.02-.03-.021-.03-.02-.032-.021-.032-.02-.03-.021-.032-.02-.03-.021-.031-.02-.03-.021-.032-.022-.032-.014-.019-.006-.012-.022-.03-.02-.033-.02-.03-.021-.033-.02-.03-.023-.033-.02-.03-.02-.033-.021-.03-.022-.033-.02-.032-.021-.03-.022-.033-.02-.032-.021-.032-.022-.032-.02-.031-.023-.032-.02-.033-.02-.032-.043-.066-.022-.032-.02-.032-.008-.01-.014-.022-.001-.003-.022-.033-.02-.032-.023-.034-.022-.032-.02-.032-.022-.034-.02-.032-.023-.032h.001c.13.198-.333-.513-.347-.535 1.632-.03 2.947-.08 3.668-.17 4.458-.548 7.844-.746 12.232-1.283.452-.056 1.364-.09 2.482-.114.057.036.118.065.178.098-1.011-.554-1.634-1.571-1.423-2.06-3.793 2.33-3.692.353-5.226-.558-3.54 2.315-4.02-1.367-4.308-1.275-5.773 1.83-3.234-2.67-7.018-1.32-2.92 1.04-4.485-1.056-5.331-1.064l-.06-.102a223 223 0 0 1-3.798-6.815l-.06-.113-.001-.004-.412-.771c4.86-1.876 10.622-3.363 14.991-4.46l.087-.021h.004l.086-.022.006-.001.088-.021.009-.003.088-.02.011-.003.088-.022.016-.004.087-.021.02-.004.087-.02.023-.006.085-.021.028-.007.083-.019.034-.009.082-.019.037-.009.08-.019.041-.009.08-.019.045-.01.076-.018.051-.012.074-.016.055-.013.072-.016.06-.015.069-.014.066-.016.064-.015.072-.016.062-.013.077-.018.059-.013.082-.02.056-.01.087-.021.052-.01.092-.023.048-.01.098-.022.044-.009.106-.025.038-.007.11-.025.036-.007.116-.025.03-.007.123-.026.026-.007.127-.026.022-.006.134-.03.017-.003.138-.03.013-.002.144-.032h.009l.15-.033h.002l.309-.066.006-.001.15-.031.01-.003.144-.031.017-.004.139-.03.022-.003.605-.126.04-.01.116-.023.047-.01.11-.022.051-.012.728-.148.075-.016.385-.076.09-.018.063-.011.092-.02.059-.01.096-.02.053-.01.101-.02.047-.01.406-.079.034-.006.114-.022.028-.006.12-.022.022-.004.265-.05.013-.003.267-.048h.004l.265-.05q.369.292.737.58l.042-.007h.006a164 164 0 0 0 6.136 4.751l-.02.004h-.004l-.016.003-.01.001-.027.003h-.006l-.022.001-.024.001h-.047l-.015-.002h-.034l-.025-.004h-.001l-.025-.003h-.027l-.014-.004h-.012l-.022-.003h-.006l-.027-.005-.03-.004h-.006l-.023-.003-.013-.003-.016-.003-.02-.003h-.011l-.028-.005h-.001l-.03-.006h-.005l-.028-.006h-.011l-.02-.002-.02-.003-.013-.003-.028-.004h-.004l-.035-.005h-.001l-.032-.006h-.01l-.025-.003-.02-.003-.015-.003-.027-.004h-.01l-.035-.004-.037-.004h-.009l-.03-.004h-.015l-.022-.003h-.027l-.011-.002h-.039l-.039-.004h-.006l-.035-.003h-.252l-.022.001-.022.001-.034.001-.012.001-.044.003-.045.004-.011.001-.036.004-.022.001-.024.003-.033.004-.016.003-.044.007h-.004l-.048.01h-.007l-.04.007-.02.004-.03.007-.032.007-.02.004-.043.01-.009.004-.05.013h-.005l-.047.014-.016.006-.036.01-.03.01-.025.008-.042.013-.012.006-.054.019c-.975.36 1.166 3.21-2.25 2.181-2.182-.658-.394.647-4.017.647-1.082 0-2.92-1.346-4.157 0-3.061 3.323-2.988.574-4.456 1.18-2.904 1.199-6.127-.668-6.747.448-.519.938-2.154.692-2.744.92 3.03.458 9.247 1.774 11.517 2.4.55.111 1.333.287 1.45.36l.004.003.037.01c.378.11 2.404 1.157 2.821 1.26s.848.203 1.277.299c.43.095.86.188 1.273.276.414.088.813.172 1.184.252.37.08.713.156 1.012.227q.237.057.437.109h.004l.006.002H228c.113.03.063.016.153.043.125.039.84.114.919.15.461.145.694.344 1.781.531.12.02 1.5.267 1.499.3 3.296.264 5.948-.015 9.155.127.258.011.482.02.686.035v.003c.015-.002.396 0 .603.006.555.016 1.083.002 1.473.15.473.176.396.046.621.439.086.148 1.515.164 1.682.493.05.156.232.24.114.31h.003c-.007.005-.013.015-.02.021l.017-.016c2.11.45 4.516.832 7.267.714a29 29 0 0 1 2.293.01l.417.212h.003l.016.007.017.01.016.006.016.01.016.006.016.01.016.006.016.01.016.008.034.016.016.007.016.01.016.006.016.01.016.006.017.01.016.006.016.01.016.006.016.01.016.006.018.007.016.01.016.006.016.01.016.006.016.01.016.006.016.01.553.278a161 161 0 0 0 3.392 1.646l-.007.007-.003.003-.01.012v.001l-.01.01-.003.003-.007.01-.004.004-.007.007-.006.007-.004.004-.01.01-.012.014h-.001l-.01.01-.005.006-.009.006-.009.007-.004.004-.011.01h-.003l-.014.012v.001l-.014.01-.004.004-.01.007-.01.006-.005.006-.012.01-.003.002-.016.01v.001l-.016.01-.003.005-.013.007-.01.006-.006.006-.013.009h-.003l-.018.012-.018.01-.006.004-.013.01-.009.006-.01.004-.013.009-.004.003-.02.012-.02.011-.004.003-.016.01-.009.003-.011.006-.015.01-.006.002-.02.012h-.002l-.022.012h-.004l-.017.01-.01.006-.012.006-.016.007-.007.003-.022.01v.001l-.024.012h-.004l-.02.01-.01.006-.015.006-.016.006-.007.004-.051.023-.003.001-.024.01-.01.003-.016.007-.016.007-.01.004-.024.01-.004.001-.028.01-.003.002-.025.01-.009.003-.019.007-.017.006-.012.006-.025.01h-.004l-.03.012h-.002l-.028.01-.01.003-.02.01-.018.005-.014.004-.024.01-.007.001-.033.012-.031.01-.01.003-.023.01-.017.005-.017.004-.026.01-.007.002-.034.01c-.016.003-.897 2.66-3.224.813.122-2.029-4.321-3.38-3.461-1.31 1.03 2.485-1.559 2.627-1.915 2.295-1.367-1.276-2.96-.355-3.512-.967-3.233-3.592-5.583.975-7.124-.233-1.615-1.27-4.275-.777-3.751.497 1.337 3.255-4.001 2.425-3.91 1.2.198-2.704-.901-1.763-.888-1.599.226 2.634-2.837 1.218-2.84 1.201-.488-2.81-1.46-1.644-1.209-.777.773 2.668-3.858 1.226-3.91.876-.209-1.427-2.257-.746-1.681.1.467.69-.023 1.403-1.041 1.373zm94.376 21.411c-.747.01-1.581-.102-1.914-.102-.595 0-.274-.84-1.018-.903-2.826-.237-1.923-2.76-3.29-2.258-1.838.677-1.22-.724-1.588-.79-.223.126-.108.663-.726.477-.953-.424-2.179-.746-3.183-.4-.274 1.175-1.27 1.26-2.408 1.138.136.265.034.553-.475.854-.58.345-1.55-.389-2.943-.898a1.3 1.3 0 0 0-.331.255c-.795.854-4.64.47-6.018.08-1.517-.431-2.112-.751-2.23-.997-.985-.055-1.714.02-1.75.444-.045.546-3.448.838-2.485-.832-.69-1.197-1.806-.176-2.012.814-1.094.227-3.703 1.493-2.251-1.022-.795-1.377-3.018.656-3.838-.035-.644-.542-.094 1.827-1.654 0-.916-1.073-.872 1.58-2.947 1.491-1.224-.052-3.914.181-4.601 1.134-.868 1.2-3.109-2.007-3.394.227-.026.198-3.254.923-4.037-.331-.767-1.228-2.807 1.63-2.735-1.431-.32.027-.69.074-1.124.148l-.007.045c-.125 1.018-.985.843-1.43.189a28 28 0 0 1-1.272-.797 2 2 0 0 0-.501-.242l-.018-.006-.018-.006-.033-.009-.018-.006-.069-.017-.017-.003-.016-.004-.036-.007-.016-.003-.017-.003-.018-.003-.034-.004-.017-.003-.016-.001-.035-.004-.017-.001-.017-.001-.018-.001-.016-.001-.017-.001h-.017l-.017-.001-.016-.001h-.034l-.032-.001h-.09l-.064.004h-.018l-.05.004h-.02l-.03.005h-.015l-.018.002-.013.003h-.004l-.048.007h-.018l-.004.002-.076.011h-.003c-1.1.192-2.122.958-3.032.216-.23-.187-.69-.484-1.222-.752l-.047-.023-.013-.006-.035-.018-.097-.045-.03-.015-.018-.009-.049-.023-.013-.007-.035-.015-.05-.022-.05-.022-.03-.015-.018-.007-.05-.022-.199-.08-.051-.018-.048-.019-.052-.019-.05-.016-.033-.012-.016-.006-.049-.016-.019-.006-.03-.01-.05-.015h-.001l-.047-.014-.035-.01-.015-.004-.048-.013-.02-.004-.029-.01-.048-.011-.108-.025-.053-.01-.028-.004-.045-.01h-.004l-.043-.005-.034-.006h-.011l-.044-.006-.02-.001-.026-.001-.044-.004-.004-.001-.038-.001-.042-.001-.042-.001h-.083l-.034.002h-.006l-.032.003h-.007l-.038.004h-.006l-.027.004-.019.003-.06.011-.003.001-.032.01-.036.008-.034.012-.032.013-.031.014h-.003c-.202.093-.347.264-.404.538-2.28.79-.927-1.398-4.86-.596-1.084.221.118-.594-2.287-.104-.385.078-.792-.038-1.205-.22l-.045-.02-.019-.01-.026-.011-.038-.018-.01-.004c-.586-.284-.671-.349-1.094-.54l-.045-.02-.043-.019-.039-.016-.007-.003-.043-.017a3 3 0 0 0-.22-.078h-.004a2 2 0 0 0-.172-.046l-.042-.01-.086-.015-.043-.006h-.003l-.04-.004-.039-.003h-.006q-.057-.004-.114-.003h-.019l-.03.003-.04.003h-.01l-.031.004-.007.003-.031.004h-.001l-.041.009h-.001l-.038.009h-.007l-.03.01h-.003l-.035.013h-.004l-.048.018-.01.004-.044.02-.007.002-.047.025-.006.003h-.001l-.043.026-.019.012-.045.029c-.668.476-3.533-.663-3.801-.718a9 9 0 0 1-.2-1.53c-.682-.196-1.26-.341-1.239.215.097 2.442-1.954 1.453-2.951 1.016l-.09-.095-.012-.013-.077-.085-.09-.097-.089-.096-.006-.006-.085-.093a129 129 0 0 1-5.773-6.724c2.03-.507 4.098-.918 5.06-1.273-.06.023 5.838-.073 8.585.458 2.558.496 22.239.73 25.665 1.136 2.53.298 9.981-.17 14.674.616 1.256-.128 2.594.035 2.717.05.048.006 11.874-.901 12.21-.97l.016-.004h.006l.01-.002.016-.004h.004l.02-.006h.005l.017-.005.015-.004.01-.003.025-.006.026-.009.012-.003.018-.004.023-.007h.007l.03-.01.006-.004.027-.006.02-.007.013-.006.036-.01.036-.012.015-.004.022-.007.032-.01.007-.001.04-.013.01-.003.032-.01.026-.01.017-.005.042-.013h.003l.043-.016.02-.006.025-.009a31 31 0 0 1 2.008-.622v-.001q.733.174 1.469.34s-.02-.025 0 0l2.513.549c-.33-.054-1.046.099-1.656.203-.392.316.02 1.36-1.612.85-1.602-.501-4.973 2.88-8.234 2.065-.763-.19-.691-.794-1.448-.5-1.42.55-2.75.827-3.8.613v.001q.043.072.075.148c1.103 2.676-3.217.967-3.893.683-3.011-1.272-1.648 2.15-3.197 1.157-3.41-2.186-3.163.856-4.388-.42-2.726-2.843-.974 1.4-4.932-.625-4.247-2.173-1.821-.05-3.265-.073-1.9-.03-.611-1.745-1.692-1.063-4.468 2.827-4.087-1.522-4.53-.654-1.661 3.265-3.358-1.448-5.091-.236-1.265.885-4.768-.897-4.44-.142.493 1.13-.72 1.229-1.196 2.079-.513.92-2.377-1.659-2.946-.543-1.089 2.134-3.18-.716-3.63.632-.524 1.564-1.55.297-2.576.17-.015-.002-.167.28-.33.596q.222.14.47.315c.01.008 3.353 1.312 3.837 1.599.168.099.34.094.6.265.772-.152 3.414 1.187 4.087.788.17-.1 5.415.758 5.665.936.369.264 5.685 1.046 5.952.936.127-.053.9-.025 1.903.04.182-.384.538-.775 1.14-1.131.787-.466 5.687.783 5.993-1.284.003-.018 1.066-.011.768.195 2.065-1.43 2.852.57 6.094-.09l.025-.005c.534-.08.911.762 3.206.525 2.463-.133 3.78-.132 4.493-.068.265.053.505.118.773.185.281.204-.254.45 1.595.299 1.2.147 1.885.094 2.617.085.72.125 1.452.328 2.573.556 1.086.221 6.761.51 9.452.416.472-.078.964-.154 1.463-.227.329-.188 1.555-.607 2.314-.313 2.284-.294 4.292-.524 4.74-.71q.164-.066.346-.128h.001c.739-.25 1.707-.437 2.797-.579l.123-.016h.013q.344-.044.702-.081l.143-.016.044-.004.538-.052.148-.013.295-.025.15-.012.451-.035.08-.006.071-.004.152-.01.02-.001.131-.009.113-.009.04-.001.152-.01.053-.003.1-.006.153-.01.152-.008.084-.006.069-.004.152-.01h.023l.13-.006.115-.006.037-.003.152-.007.054-.003.098-.006.755-.037.114-.006.332-.015h.004c1.709-.078 3.285-.138 4.398-.241.337-.07.668-.11.996-.13l.042-.01.11-.022.015-.003.12-.022.032-.004.125-.02.056-.01.121-.021.086-.013.113-.018.119-.019.1-.014.156-.025.08-.012.2-.03.059-.008.243-.037.032-.004.292-.042.309-.044.035-.004.29-.041.074-.01.266-.037.117-.016.237-.034.161-.022.208-.028.21-.03.171-.022.26-.034.134-.02.314-.042.092-.011.37-.049.046-.006.426-.057.437-.057.05-.007.395-.051.1-.013.354-.046.153-.02.309-.04.206-.026.26-.034.263-.034h.012l.199-.026.135-.016.184-.023.16-.021.333-.042.043-.004.107-.015.192-.024.242-.03.056-.007.489-.06v-.001l.247-.031.246-.03.056-.007.045-.006.349-.043.047-.006.051-.006.057-.007.193-.024.194-.023.155-.02h.01l.333-.041h.006l.214-.025.241-.031.034-.004.21-.025.065-.007.084-.01.281-.035.185-.022.079-.01.086-.01.26-.032.121-.013.11-.013.114-.013.32-.039.023-.003.032-.004.484-.057.164-.019.316-.036.02-.003.033-.003.302-.035.12-.015.104-.01.364-.043.07-.009.086-.009.307-.035.202-.022.252-.03.25-.026.197-.023.293-.032.416-.046.462-.05.068-.007.047-.004.408-.043 4.174-.37c.373-.016.594-.009.627.025 3.69-.358 6.19-.56 6.702-.524.97.07 2.684-.741 5.383-1.219 1.467-.26 3.578-.053 5.214-.398 3.664-.774 7.444-1.697 9.99-2.466q1.564-.177 3.127-.337c2.093-.212 4.187-.397 6.287-.543 2.101-.145 4.21-.25 6.337-.305q1.535-.04 3.08-.04h.008c-.101.314-.555.688-1.463 1.1-.017.006-.898 2.784-3.225 1.26.123-2.047-4.32-2.785-3.46-.833 1.03 2.342-1.56 2.842-1.916 2.56-1.367-1.088-2.96.053-3.512-.483-3.232-3.146-5.582 1.745-7.124.75-1.615-1.046-5.25-1.348-4.727-.148 1.338 3.07-4.002 2.98-3.911 1.742.198-2.732-.901-1.639-.888-1.477.226 2.603-2.837 1.61-2.839 1.593-.487-2.743-1.461-1.441-1.21-.61.773 2.561-3.857 1.76-3.91 1.417-.207-1.398-2.256-.436-1.68.33.553.741-.236 1.7-1.656 1.505l-3.75.947a1.4 1.4 0 0 1-.442.186 5 5 0 0 1-.64.114c-.238.028-.498.05-.764.064-.266.015-.54.024-.808.031l-.781.02c-.247.005-.479.01-.678.021-.2.01-.37.025-.497.047-.128.022-.213.052-.243.09-.672.874-1.342-.083-1.279.43.207 1.684-.844 1.643-.939 1.482-.696-1.176-.614-.124-.21-1.664a3.47 3.47 0 0 1-1.88-.21l-.103.013c-.77.902-1.807.577-2.559.282-.331.156-.64.25-.933.3.06.893-1.047.322-.882.587.642 1.026-.034 1.342-.083 1.442-.6 1.21-1.456.297-1.46.29-.32-.937-.362.247-1.426-.684-.179-.156-.877-.009-.501-.879.141-.326-1.646-.24-1.767.015-.445.948-.739-.175-1.454.12-1.848.762-1.462.018-2.098.046-1.017.043-1.33-.375-1.493-.717-.307.238-.568.383-.796.46.182.35.593.648.602.67.575 1.36.042.925.07 1.818.072 2.244-1.424.292-1.378 1.363.02.495-.637.63-1.383.64zm-102.476-48.66c0 .11.023.144.133.036.25.057.503.055.686-.027 4.015-1.818 4.699 1.062 6.147.89 2.178-.259 3.591-.509 5.053-.921l-.465-.393c-19.904-16.954-35.213-38.313-42.892-61.36-.005.385.01.956.039 1.732 1.095 20.293 7.768 40.243 15.186 56.468l.01.023a216 216 0 0 0 2.585 5.453c.455-.322.197-.713 3.321-.713.632 0 1.811 1.485 2.799.78 2.686-1.919 2.993-.286 4.483-1.38.01-.007.369-1.863 2.116-1.254.067.3.417.547.799.666" style="display:inline;fill:#2c7943;fill-opacity:1;fill-rule:evenodd;stroke:none" transform="matrix(.2578 0 0 -.2578 -46.875 136.616)"/></g><g aria-label="Partneriaeth Natur Ceredigion" style="font-weight:700;font-size:12.3484px;line-height:1.25;font-family:&quot;IBM Plex Sans&quot;;-inkscape-font-specification:&quot;IBM Plex Sans Bold&quot;;text-align:center;text-anchor:middle;display:inline;fill:#4470a2;stroke-width:.308712"><path d="M65.52 13.997q.408-.025.58-.173.186-.148.235-.445.05-.296.05-.753V7.489q0-.272.012-.519.012-.259.025-.444l-.457.025q-.247.012-.445.024v-.679q.729-.012 1.482-.012.753-.013 1.531-.013 1.161 0 1.964.284.815.272 1.247.84.445.556.457 1.408.012.481-.173 1-.185.506-.63.95-.444.433-1.21.705-.753.271-1.902.271-.123.013-.284.013-.148 0-.308-.013v1.556q0 .334-.013.605 0 .26-.024.42l.37-.025q.198-.012.383-.012.197-.012.358-.025v.692H65.52zm2.174-3.322q.21.025.358.037h.37q.692 0 1.223-.26.53-.259.827-.753t.296-1.173q0-.592-.185-.988-.173-.407-.494-.63-.308-.234-.716-.333-.407-.099-.864-.099-.37 0-.544.149-.173.148-.222.432t-.05.728zM76.116 14.54q-.025-.198-.037-.346t-.037-.309q-.42.42-.901.643-.482.21-1 .21-.89 0-1.347-.433-.444-.444-.444-1.099 0-.568.333-.988.334-.42.877-.679.543-.271 1.185-.395.643-.136 1.26-.136v-.728q0-.395-.074-.729-.074-.346-.309-.555-.222-.223-.704-.223-.32-.012-.642.124-.32.123-.494.42.099.098.124.234.037.124.037.235 0 .173-.148.395-.149.21-.507.198-.296 0-.457-.198-.148-.21-.148-.482 0-.444.321-.79.334-.346.902-.543t1.272-.198q1.062 0 1.58.556.531.556.531 1.753v.852q0 .408-.012.815v.865q0 .185-.013.42t-.037.494l.433-.025q.222-.013.42-.013v.655zm-.111-2.964q-.395.025-.815.111-.408.087-.741.26t-.543.444q-.198.272-.198.655.025.42.272.617.26.198.605.198.432 0 .765-.16.334-.174.655-.47-.012-.136-.012-.272v-.716q.012-.309.012-.667M78.882 14.021q.37 0 .519-.173.148-.172.173-.481.037-.309.037-.716V9.662q.012-.234.049-.457-.21.013-.445.025-.234 0-.432.012v-.654h.42q.519 0 .79-.111.272-.111.396-.235h.444q.025.173.037.482.013.309.025.691.235-.345.543-.617.309-.284.667-.457.37-.173.766-.173.382 0 .654.21.284.198.284.655 0 .123-.074.284-.062.16-.222.284-.148.11-.408.11-.26-.012-.457-.197-.185-.185-.173-.506-.296 0-.592.185-.297.173-.556.47-.247.296-.42.641v2.705q0 .222-.012.457 0 .222-.037.457.197-.013.407-.013.21-.012.383-.025v.655h-2.766zM86.843 14.738q-.309 0-.63-.087-.309-.074-.568-.309-.26-.247-.408-.703-.148-.457-.148-1.21l.025-3.372H84.2v-.691q.334-.013.68-.247.345-.235.604-.63.26-.395.358-.852h.58v1.729h1.903v.642l-1.902.025-.025 3.297q0 .469.074.827.087.346.272.543.197.185.53.185.285 0 .581-.172.309-.173.58-.568l.42.37q-.296.432-.592.68-.297.246-.568.357-.272.124-.494.148-.222.038-.358.038M89.374 14.54v-.519q.37 0 .519-.173.148-.172.173-.481.037-.309.037-.716l.012-2.569v-.42q.012-.234.05-.457l-.457.025q-.223 0-.42.012v-.654q.555 0 .864-.05.321-.061.482-.135.173-.074.259-.16h.445q.012.11.012.21.012.098.012.21.013.11.025.283.272-.222.593-.395t.666-.272q.359-.11.68-.11 1.099 0 1.58.666.494.667.494 2.087v2.087q0 .222-.012.457-.013.222-.037.457.197-.013.395-.013.21-.012.383-.025v.655h-2.754v-.519q.37 0 .519-.173.148-.172.173-.481.037-.309.037-.716v-1.73q-.013-.975-.321-1.469-.297-.494-.964-.481-.395 0-.778.197-.382.198-.642.482v3.359q0 .222-.012.457-.012.222-.037.457.197-.013.395-.013.21-.012.383-.025v.655zM99.957 14.738q-.865 0-1.556-.396-.68-.407-1.075-1.136-.395-.74-.395-1.74 0-.865.383-1.618.395-.754 1.1-1.21.703-.47 1.63-.47.518 0 .975.16.469.161.827.507.37.333.58.877.21.53.21 1.296l-4.248.074q0 .84.186 1.495.197.654.63 1.012.432.358 1.123.358.334 0 .704-.11.383-.124.716-.347.346-.222.58-.53l.383.333q-.37.555-.852.877-.481.308-.988.432-.493.136-.913.136m-1.52-4.298h2.853q0-.469-.136-.84-.123-.382-.395-.604-.271-.223-.691-.223-.655 0-1.074.42-.42.408-.556 1.247M103.674 14.021q.37 0 .518-.173.148-.172.173-.481.037-.309.037-.716V9.662q.012-.234.05-.457-.21.013-.445.025-.235 0-.432.012v-.654h.42q.518 0 .79-.111t.395-.235h.445q.024.173.037.482t.024.691q.235-.345.544-.617.308-.284.667-.457.37-.173.765-.173.383 0 .655.21.284.198.284.655 0 .123-.074.284-.062.16-.223.284-.148.11-.407.11-.26-.012-.457-.197-.185-.185-.173-.506-.296 0-.593.185-.296.173-.555.47-.247.296-.42.641v2.705q0 .222-.013.457 0 .222-.037.457.198-.013.408-.013.21-.012.383-.025v.655h-2.766zM109.218 14.021q.37 0 .519-.173.148-.172.173-.481.037-.309.037-.716v-2.556q0-.21.012-.42.012-.223.037-.47-.21.013-.445.025-.234 0-.432.012v-.654q.556 0 .877-.05.333-.061.506-.135.185-.074.272-.16h.47v4.766q0 .222-.013.457-.012.222-.037.457.197-.013.395-.013.21-.012.383-.025v.655h-2.754Zm1.309-6.915q-.321 0-.543-.234-.223-.247-.223-.593t.235-.58q.235-.247.53-.247.322 0 .532.247.222.234.222.58t-.222.593q-.21.234-.531.234M116.516 14.54q-.025-.198-.037-.346t-.037-.309q-.42.42-.902.643-.481.21-1 .21-.889 0-1.346-.433-.444-.444-.444-1.099 0-.568.333-.988t.877-.679q.543-.271 1.185-.395.642-.136 1.26-.136v-.728q0-.395-.074-.729-.074-.346-.31-.555-.221-.223-.703-.223-.321-.012-.642.124-.321.123-.494.42.099.098.124.234.037.124.037.235 0 .173-.149.395-.148.21-.506.198-.296 0-.457-.198-.148-.21-.148-.482 0-.444.321-.79.333-.346.901-.543t1.272-.198q1.062 0 1.581.556.53.556.53 1.753v.852q0 .408-.011.815v.865q0 .185-.013.42t-.037.494l.433-.025q.222-.013.42-.013v.655zm-.111-2.964q-.395.025-.815.111-.408.087-.741.26-.334.173-.543.444-.198.272-.198.655.025.42.272.617.259.198.605.198.432 0 .765-.16.334-.174.655-.47-.013-.136-.013-.272v-.716q.013-.309.013-.667M122.246 14.738q-.865 0-1.556-.396-.68-.407-1.075-1.136-.395-.74-.395-1.74 0-.865.383-1.618.395-.754 1.099-1.21.704-.47 1.63-.47.519 0 .976.16.469.161.827.507.37.333.58.877.21.53.21 1.296l-4.248.074q0 .84.186 1.495.197.654.63 1.012.431.358 1.123.358.333 0 .704-.11.383-.124.716-.347.346-.222.58-.53l.383.333q-.37.555-.852.877-.481.308-.988.432-.494.136-.913.136m-1.52-4.298h2.853q0-.469-.136-.84-.123-.382-.395-.604-.271-.223-.691-.223-.655 0-1.075.42-.42.408-.555 1.247M128.263 14.738q-.308 0-.63-.087-.308-.074-.567-.309-.26-.247-.408-.703-.148-.457-.148-1.21l.025-3.372h-.914v-.691q.333-.013.679-.247.346-.235.605-.63.26-.395.358-.852h.58v1.729h1.902v.642l-1.902.025-.024 3.297q0 .469.074.827.086.346.272.543.197.185.53.185.285 0 .58-.172.31-.173.581-.568l.42.37q-.296.432-.593.68-.296.246-.568.357-.271.124-.494.148-.222.038-.358.038M134.66 14.021q.37 0 .518-.173.161-.172.186-.481.037-.309.037-.716l-.013-1.73q0-.975-.308-1.456-.297-.494-.964-.482-.407.013-.802.198-.383.185-.642.469v3.359q0 .222-.013.457-.012.222-.037.457.198-.013.396-.013.21-.012.382-.025v.655h-2.753v-.519q.37 0 .518-.173.148-.172.186-.481.037-.309.037-.716V6.649q.012-.222.037-.469l-.445.025q-.235 0-.432.012v-.654q.556 0 .889-.05.333-.061.506-.136.185-.074.272-.16h.457v3.73q.271-.223.605-.396t.679-.272q.358-.11.667-.11 1.099 0 1.568.666.482.667.494 2.087v2.087q0 .222-.012.457 0 .222-.037.457.197-.013.407-.013.21-.012.383-.025v.655h-2.766zM148.342 14.713l-4.594-6.1q-.136-.16-.26-.334-.123-.173-.258-.358h-.013l.037 4.804q0 .308-.012.617 0 .309-.025.568.21-.025.457-.025.26-.012.445-.024v.679h-2.445v-.543q.346 0 .518-.136.186-.136.247-.358.074-.223.074-.519V6.958q0-.247.013-.432l-.445.025q-.234.012-.42.024v-.679h1.63l4.347 5.717q.21.272.37.507.173.234.334.444h.012l.012-5.075q0-.272.013-.519.012-.259.025-.444l-.47.025q-.247.012-.432.024v-.679h2.445v.543q-.395.013-.58.173-.173.148-.223.445-.037.284-.037.753l-.012 6.903zM154.265 14.54q-.024-.198-.037-.346t-.037-.309q-.42.42-.901.643-.482.21-1 .21-.89 0-1.346-.433-.445-.444-.445-1.099 0-.568.334-.988.333-.42.876-.679.544-.271 1.186-.395.642-.136 1.26-.136v-.728q0-.395-.075-.729-.074-.346-.308-.555-.223-.223-.704-.223-.321-.012-.642.124-.321.123-.494.42.098.098.123.234.037.124.037.235 0 .173-.148.395-.148.21-.506.198-.297 0-.457-.198-.148-.21-.148-.482 0-.444.32-.79.334-.346.902-.543t1.272-.198q1.062 0 1.58.556.532.556.532 1.753v.852q0 .408-.013.815v.865q0 .185-.012.42t-.037.494l.432-.025q.222-.013.42-.013v.655zm-.11-2.964q-.396.025-.816.111-.407.087-.74.26-.334.173-.544.444-.197.272-.197.655.024.42.271.617.26.198.605.198.432 0 .766-.16.333-.174.654-.47-.012-.136-.012-.272v-.716q.012-.309.012-.667M159.316 14.738q-.309 0-.63-.087-.309-.074-.568-.309-.26-.247-.407-.703-.149-.457-.149-1.21l.025-3.372h-.914v-.691q.334-.013.68-.247.345-.235.605-.63.259-.395.358-.852h.58v1.729h1.902v.642l-1.902.025-.025 3.297q0 .469.074.827.087.346.272.543.198.185.531.185.284 0 .58-.172.31-.173.58-.568l.42.37q-.296.432-.592.68-.296.246-.568.357-.272.124-.494.148-.222.038-.358.038M164.44 14.738q-.691 0-1.148-.26-.444-.26-.667-.852-.222-.605-.222-1.593V9.662q.012-.234.05-.457-.21.013-.445.025-.235 0-.42.012v-.654h.296q.618 0 .927-.111.308-.111.432-.235h.469v3.767q0 .975.272 1.457.271.481.913.469.42 0 .803-.247.395-.247.642-.58V10.18q0-.272.012-.506.013-.247.05-.47l-.457.025q-.235 0-.432.012v-.654h.358q.543 0 .852-.111t.444-.235h.47l-.013 4.544q0 .198-.012.544-.012.333-.037.593l.432-.025q.235-.013.433-.013v.655h-1.964q-.025-.198-.05-.37-.012-.173-.036-.334-.383.358-.89.63-.506.272-1.061.272zM169.306 14.021q.37 0 .518-.173.149-.172.173-.481.037-.309.037-.716V9.662q.013-.234.05-.457-.21.013-.445.025-.234 0-.432.012v-.654h.42q.518 0 .79-.111t.395-.235h.445q.024.173.037.482t.024.691q.235-.345.544-.617.309-.284.667-.457.37-.173.765-.173.383 0 .655.21.284.198.284.655 0 .123-.074.284-.062.16-.223.284-.148.11-.407.11-.26-.012-.457-.197-.185-.185-.173-.506-.296 0-.593.185-.296.173-.555.47-.247.296-.42.641v2.705q0 .222-.012.457 0 .222-.037.457.197-.013.407-.013.21-.012.383-.025v.655h-2.766zM184.902 8.65q-.136-1.112-.766-1.704-.63-.605-1.642-.618-.642 0-1.186.284t-.938.803q-.395.506-.617 1.21-.21.692-.21 1.519 0 1.124.395 2 .395.865 1.086 1.346.704.482 1.593.482.79 0 1.556-.37.778-.383 1.284-1.075l.408.346q-.556.766-1.185 1.173-.63.408-1.26.543-.617.149-1.124.149-.926 0-1.704-.334-.778-.333-1.346-.926-.555-.605-.864-1.395-.297-.803-.297-1.73 0-.864.272-1.69.272-.828.803-1.495.53-.68 1.333-1.074.815-.395 1.89-.395.63 0 1.222.172.605.173 1.161.531l-.062-.617h.766V8.65zM189.644 14.738q-.865 0-1.556-.396-.68-.407-1.075-1.136-.395-.74-.395-1.74 0-.865.383-1.618.395-.754 1.099-1.21.704-.47 1.63-.47.519 0 .976.16.469.161.827.507.37.333.58.877.21.53.21 1.296l-4.248.074q0 .84.186 1.495.197.654.63 1.012.432.358 1.123.358.333 0 .704-.11.383-.124.716-.347.346-.222.58-.53l.383.333q-.37.555-.852.877-.481.308-.988.432-.494.136-.913.136m-1.52-4.298h2.853q0-.469-.136-.84-.123-.382-.395-.604-.271-.223-.691-.223-.655 0-1.075.42-.42.408-.555 1.247M193.36 14.021q.37 0 .52-.173.147-.172.172-.481.037-.309.037-.716V9.662q.012-.234.05-.457-.21.013-.445.025-.235 0-.432.012v-.654h.42q.518 0 .79-.111t.395-.235h.445q.024.173.037.482t.024.691q.235-.345.544-.617.308-.284.666-.457.37-.173.766-.173.383 0 .655.21.284.198.284.655 0 .123-.075.284-.061.16-.222.284-.148.11-.407.11-.26-.012-.457-.197-.185-.185-.173-.506-.296 0-.593.185-.296.173-.556.47-.246.296-.42.641v2.705q0 .222-.012.457 0 .222-.037.457.198-.013.408-.013.21-.012.383-.025v.655h-2.766zM201.778 14.738q-.864 0-1.556-.396-.68-.407-1.074-1.136-.395-.74-.395-1.74 0-.865.382-1.618.396-.754 1.1-1.21.703-.47 1.63-.47.518 0 .975.16.47.161.827.507.37.333.58.877.21.53.21 1.296l-4.247.074q0 .84.185 1.495.198.654.63 1.012t1.123.358q.334 0 .704-.11.383-.124.716-.347.346-.222.58-.53l.384.333q-.37.555-.852.877-.482.308-.988.432-.494.136-.914.136m-1.519-4.298h2.853q0-.469-.136-.84-.124-.382-.395-.604-.272-.223-.692-.223-.654 0-1.074.42-.42.408-.556 1.247M208.01 14.738q-.753 0-1.346-.37-.58-.384-.926-1.088-.334-.703-.334-1.654 0-1.013.395-1.79.396-.779 1.112-1.223t1.63-.445q.383 0 .728.099.358.086.593.21V7.069q0-.185.012-.407.013-.235.037-.482l-.457.025q-.234.012-.42.012v-.654q.556 0 .877-.05.334-.061.507-.136.185-.074.271-.16h.457v7.792q0 .185-.012.42t-.037.494l.444-.025q.223-.013.408-.013v.655h-1.963q-.025-.173-.05-.321l-.025-.296q-.37.395-.852.605-.481.21-1.05.21m.506-.778q.383 0 .741-.21.37-.21.605-.531V9.156q-.235-.173-.556-.26-.308-.098-.642-.098-.605 0-1.025.358-.407.346-.605.95-.197.606-.185 1.384.025.667.21 1.235t.543.901q.37.334.914.334M212.826 14.021q.37 0 .518-.173.149-.172.173-.481.037-.309.037-.716v-2.556q0-.21.012-.42.013-.223.037-.47-.21.013-.444.025-.235 0-.432.012v-.654q.555 0 .876-.05.334-.061.507-.135.185-.074.271-.16h.47v4.766q0 .222-.013.457-.012.222-.037.457.198-.013.396-.013.21-.012.382-.025v.655h-2.753zm1.309-6.915q-.321 0-.544-.234-.222-.247-.222-.593t.235-.58q.234-.247.53-.247.322 0 .532.247.222.234.222.58t-.222.593q-.21.234-.531.234M219.346 17.886q-1.087 0-1.754-.247-.654-.234-.95-.617-.285-.37-.285-.79 0-.334.149-.618.16-.284.42-.506.259-.21.58-.333-.432-.136-.655-.383-.222-.26-.222-.63 0-.395.309-.778.32-.383.913-.519-.555-.247-.889-.716t-.345-1.111q-.013-.741.37-1.297.395-.555 1-.864.618-.309 1.285-.309.382 0 .79.111.407.1.74.321.137-.358.359-.654t.518-.47q.31-.172.643-.172.358 0 .543.185t.185.494q0 .099-.062.247-.049.136-.185.235t-.37.098q-.198 0-.358-.123-.149-.136-.186-.321-.259.05-.432.308-.16.247-.21.507.321.284.494.679.185.383.185.827 0 .704-.382 1.247-.37.544-.976.853-.605.308-1.309.308-.21 0-.395-.024-.185-.038-.407-.038-.396 0-.655.186-.247.185-.185.444.062.272.519.358.456.087 1.32.124.952.037 1.63.234.692.186 1.063.58.383.396.383 1.075 0 .506-.284.902-.272.395-.741.654-.457.272-1.025.408t-1.136.135m.11-.605q1.001 0 1.544-.37.556-.37.556-.84 0-.395-.272-.617-.271-.21-.765-.309-.482-.086-1.136-.099-.321-.024-.655-.037-.333-.012-.617-.062-.284.198-.445.482-.148.284-.16.593 0 .568.53.914.532.345 1.42.345m-.16-5.013q.42 0 .692-.21.284-.222.42-.58.148-.37.148-.803 0-.506-.148-.95-.149-.445-.433-.717t-.728-.272q-.605 0-.939.482-.333.481-.333 1.16 0 .544.148.976.16.42.457.667.296.247.716.247M223.598 14.021q.37 0 .518-.173.148-.172.173-.481.037-.309.037-.716v-2.556q0-.21.013-.42.012-.223.037-.47-.21.013-.445.025-.235 0-.432.012v-.654q.555 0 .877-.05.333-.061.506-.135.185-.074.271-.16h.47v4.766q0 .222-.013.457-.012.222-.037.457.198-.013.396-.013.21-.012.382-.025v.655h-2.753zm1.309-6.915q-.322 0-.544-.234-.222-.247-.222-.593t.235-.58q.234-.247.53-.247.322 0 .532.247.222.234.222.58t-.222.593q-.21.234-.531.234M230.303 14.738q-.877 0-1.58-.396-.705-.395-1.125-1.099-.407-.716-.407-1.642 0-1 .407-1.766.42-.778 1.124-1.222.704-.445 1.568-.445.877 0 1.581.408.704.395 1.111 1.111.42.704.42 1.63 0 .976-.407 1.753-.408.778-1.112 1.223-.691.445-1.58.445m.086-.618q.593-.012.926-.37.346-.358.494-.914.148-.568.148-1.173 0-.531-.098-1.037-.087-.52-.284-.939-.198-.42-.519-.667-.321-.26-.778-.247-.58 0-.95.358-.359.358-.532.926-.16.556-.16 1.186 0 .728.185 1.383.185.654.568 1.074.395.42 1 .42M234.402 14.54v-.519q.37 0 .52-.173.147-.172.172-.481.037-.309.037-.716l.012-2.569v-.42q.013-.234.05-.457l-.457.025q-.223 0-.42.012v-.654q.556 0 .864-.05.321-.061.482-.135.173-.074.26-.16h.444q.012.11.012.21.012.098.012.21.013.11.025.283.272-.222.593-.395t.667-.272q.358-.11.679-.11 1.099 0 1.58.666.494.667.494 2.087v2.087q0 .222-.012.457-.012.222-.037.457.198-.013.395-.013.21-.012.383-.025v.655h-2.754v-.519q.37 0 .519-.173.148-.172.173-.481.037-.309.037-.716v-1.73q-.013-.975-.321-1.469-.297-.494-.963-.481-.396 0-.778.197-.383.198-.643.482v3.359q0 .222-.012.457-.012.222-.037.457.198-.013.395-.013.21-.012.383-.025v.655z" style="font-weight:500;font-family:Lora;-inkscape-font-specification:&quot;Lora Medium&quot;;text-align:start;text-anchor:start"/></g><g aria-label="Ceredigion Nature Partnership" style="font-weight:700;font-size:12.2183px;line-height:1.25;font-family:&quot;IBM Plex Sans&quot;;-inkscape-font-specification:&quot;IBM Plex Sans Bold&quot;;text-align:center;letter-spacing:0;text-anchor:middle;display:inline;fill:#6e9a68;stroke-width:.305462"><path d="M72.361 20.44q-.134-1.1-.757-1.686-.624-.599-1.625-.611-.636 0-1.173.28-.538.282-.929.795-.391.501-.611 1.197-.208.685-.208 1.503 0 1.112.391 1.98.391.855 1.076 1.331.696.477 1.576.477.782 0 1.54-.367.769-.378 1.27-1.063l.403.343q-.55.757-1.173 1.16t-1.246.538q-.611.146-1.112.146-.916 0-1.686-.33t-1.332-.916q-.55-.598-.855-1.38-.293-.795-.293-1.711 0-.855.268-1.674.27-.819.795-1.478.525-.672 1.32-1.063.806-.391 1.869-.391.623 0 1.21.17.598.172 1.148.526l-.061-.61h.757v2.834zM77.053 26.463q-.855 0-1.54-.39-.672-.404-1.063-1.125-.39-.733-.39-1.722 0-.856.378-1.601.391-.745 1.088-1.197.696-.465 1.612-.465.514 0 .966.16.464.158.818.5.367.33.575.868.207.525.207 1.283l-4.203.073q0 .83.183 1.478.196.648.624 1.002.427.355 1.111.355.33 0 .697-.11.379-.123.709-.343.342-.22.574-.525l.379.33q-.367.55-.843.867-.477.306-.978.428-.489.134-.904.134m-1.503-4.251h2.822q0-.465-.134-.831-.122-.38-.39-.599-.27-.22-.685-.22-.648 0-1.063.415-.416.404-.55 1.235M80.73 25.755q.367 0 .514-.171.146-.171.17-.477.037-.305.037-.708v-2.957q.013-.232.05-.452l-.44.024q-.233 0-.428.012v-.647h.415q.513 0 .782-.11t.391-.232h.44q.025.17.037.476t.024.684q.232-.342.538-.61.305-.282.66-.453.366-.17.757-.17.379 0 .648.207.28.196.28.648 0 .122-.073.28-.06.16-.22.282-.146.11-.403.11-.256-.013-.452-.196-.183-.183-.17-.5-.294 0-.587.182-.294.172-.55.465-.245.293-.416.635v2.676q0 .22-.012.452 0 .22-.036.452.195-.012.403-.012.207-.012.379-.025v.648H80.73zM89.06 26.463q-.856 0-1.54-.39-.672-.404-1.063-1.125-.391-.733-.391-1.722 0-.856.379-1.601.39-.745 1.087-1.197.697-.465 1.613-.465.513 0 .965.16.464.158.819.5.366.33.574.868.208.525.208 1.283l-4.203.073q0 .83.183 1.478.195.648.623 1.002.428.355 1.112.355.33 0 .696-.11.38-.123.71-.343.341-.22.573-.525l.38.33q-.367.55-.844.867-.476.306-.977.428-.49.134-.905.134m-1.503-4.251h2.822q0-.465-.134-.831-.123-.38-.391-.599-.27-.22-.685-.22-.647 0-1.063.415-.415.404-.55 1.235M95.226 26.463q-.746 0-1.332-.366-.574-.379-.917-1.075-.33-.697-.33-1.638 0-1.001.392-1.771.39-.77 1.1-1.21.708-.44 1.612-.44.379 0 .72.098.355.086.587.208v-1.393q0-.183.013-.403.012-.232.036-.477l-.452.025q-.232.012-.415.012v-.648q.55 0 .867-.049.33-.06.501-.134.183-.073.269-.159h.452v7.71q0 .183-.012.415-.012.233-.037.49l.44-.025q.22-.013.403-.013v.648h-1.942q-.025-.171-.05-.318l-.024-.293q-.366.391-.843.599-.476.207-1.038.207m.5-.77q.38 0 .734-.207.366-.208.598-.525v-4.02q-.232-.171-.55-.257-.305-.098-.635-.098-.599 0-1.014.355-.403.342-.599.94-.195.6-.183 1.37.025.659.208 1.22.183.563.537.893.367.33.905.33M99.99 25.755q.367 0 .514-.171t.17-.477q.038-.305.038-.708v-2.53q0-.207.012-.415.012-.22.037-.464l-.44.024q-.232 0-.428.012v-.647q.55 0 .868-.05.33-.06.5-.134.184-.073.27-.158h.464v4.716q0 .22-.013.452-.012.22-.036.452.195-.012.39-.012.208-.012.38-.025v.648H99.99zm1.296-6.842q-.318 0-.538-.233-.22-.244-.22-.586t.232-.574q.233-.245.526-.245.318 0 .525.245.22.232.22.574t-.22.586q-.207.233-.525.233M106.442 29.58q-1.075 0-1.735-.245-.648-.232-.94-.611-.282-.367-.282-.782 0-.33.147-.611.159-.281.415-.501.257-.208.574-.33-.427-.134-.647-.379-.22-.256-.22-.623 0-.39.305-.77.318-.378.905-.513-.55-.244-.88-.708-.33-.465-.342-1.1-.012-.733.366-1.283.391-.55.99-.855.61-.306 1.27-.306.38 0 .783.11.403.098.733.318.134-.354.354-.648.22-.293.513-.464.306-.17.636-.17.354 0 .537.182.183.184.183.49 0 .097-.06.243-.05.135-.184.233-.134.097-.366.097-.196 0-.355-.122-.146-.134-.183-.318-.257.05-.428.306-.159.244-.207.5.317.282.488.673.184.379.184.819 0 .696-.38 1.234-.366.537-.964.843-.6.305-1.296.305-.207 0-.39-.024-.184-.037-.404-.037-.39 0-.647.183-.245.184-.184.44.062.269.514.354.452.086 1.307.123.94.036 1.613.232.684.183 1.05.574.38.391.38 1.063 0 .501-.282.892-.269.391-.733.648-.452.268-1.014.403-.562.134-1.124.134m.11-.6q.99 0 1.527-.366.55-.367.55-.83 0-.392-.269-.612-.269-.208-.757-.305-.477-.086-1.124-.098-.318-.025-.648-.037t-.61-.06q-.282.195-.44.476-.147.28-.16.586 0 .562.526.904.525.342 1.405.342m-.159-4.96q.416 0 .684-.208.281-.22.416-.574.146-.367.146-.794 0-.501-.146-.941-.147-.44-.428-.709-.28-.269-.72-.269-.6 0-.93.477-.33.476-.33 1.148 0 .538.147.966.16.415.452.66.294.244.71.244M110.65 25.755q.366 0 .512-.171t.171-.477q.037-.305.037-.708v-2.53q0-.207.012-.415.012-.22.037-.464l-.44.024q-.232 0-.428.012v-.647q.55 0 .868-.05.33-.06.5-.134.184-.073.27-.158h.464v4.716q0 .22-.012.452-.012.22-.037.452.196-.012.391-.012.208-.012.379-.025v.648h-2.725zm1.294-6.842q-.317 0-.537-.233-.22-.244-.22-.586t.232-.574q.232-.245.525-.245.318 0 .526.245.22.232.22.574t-.22.586q-.208.233-.526.233M117.284 26.463q-.868 0-1.564-.39-.697-.391-1.112-1.088-.403-.709-.403-1.625 0-.99.403-1.747.415-.77 1.112-1.21.696-.44 1.551-.44.868 0 1.564.404.697.39 1.1 1.1.415.696.415 1.612 0 .965-.403 1.735t-1.1 1.21q-.684.44-1.563.44m.085-.61q.587-.013.917-.367.342-.354.488-.904.147-.562.147-1.16 0-.526-.098-1.027-.085-.513-.28-.929-.196-.415-.514-.66-.318-.256-.77-.244-.574 0-.94.354-.355.355-.526.917-.159.55-.159 1.173 0 .72.183 1.368.184.648.562 1.063.391.416.99.416M121.34 26.268v-.513q.367 0 .513-.171t.171-.477q.037-.305.037-.708l.012-2.542v-.415q.012-.232.05-.452l-.453.024q-.22 0-.415.012v-.647q.55 0 .855-.05.318-.06.476-.134.171-.073.257-.158h.44q.012.11.012.207.012.098.012.208.012.11.025.281.268-.22.586-.39.318-.172.66-.27.354-.11.672-.11 1.087 0 1.564.66.489.66.489 2.065v2.065q0 .22-.013.452-.012.22-.036.452.195-.012.39-.012.208-.012.38-.025v.648h-2.725v-.513q.366 0 .513-.171t.171-.477q.037-.305.037-.708v-1.711q-.013-.965-.318-1.454-.293-.489-.953-.476-.391 0-.77.195-.379.196-.635.477v3.323q0 .22-.012.452-.013.22-.037.452.195-.012.391-.012.208-.012.379-.025v.648zM138.837 26.439l-4.545-6.036q-.135-.159-.257-.33-.122-.17-.257-.354h-.012l.037 4.753q0 .305-.012.61 0 .306-.025.563.208-.025.452-.025.257-.012.44-.024v.672h-2.419v-.538q.342 0 .513-.134.183-.134.245-.354.073-.22.073-.514v-5.963q0-.243.012-.427-.195.013-.44.025-.232.012-.415.024v-.672h1.613l4.3 5.657q.208.27.367.501.171.232.33.44h.012l.012-5.022q0-.268.012-.513.013-.256.025-.44-.22.013-.464.025t-.428.024v-.672h2.42v.538q-.392.012-.575.17-.171.147-.22.44-.037.282-.037.746l-.012 6.83zM144.694 26.268q-.024-.196-.037-.342t-.036-.306q-.416.416-.892.636-.477.207-.99.207-.88 0-1.332-.427-.44-.44-.44-1.088 0-.562.33-.977t.868-.672q.538-.269 1.173-.391.635-.134 1.246-.134v-.721q0-.391-.073-.721-.073-.342-.306-.55-.22-.22-.696-.22-.318-.012-.635.122-.318.122-.49.416.099.097.123.232.037.122.037.232 0 .171-.147.39-.147.209-.5.196-.294 0-.453-.195-.147-.208-.147-.477 0-.44.318-.782.33-.342.892-.537.562-.196 1.258-.196 1.051 0 1.564.55.526.55.526 1.735v.843q0 .403-.012.807v.855q0 .183-.013.415t-.036.49l.427-.025q.22-.013.416-.013v.648zm-.11-2.932q-.39.024-.806.11-.403.085-.733.256t-.538.44q-.195.269-.195.648.024.415.268.61.257.196.6.196.427 0 .757-.159.33-.17.647-.464-.012-.135-.012-.269v-.709q.012-.305.012-.66M149.691 26.463q-.305 0-.623-.085-.305-.073-.562-.306-.256-.244-.403-.696t-.147-1.197l.025-3.336h-.904v-.684q.33-.012.672-.245t.598-.623.355-.843h.574v1.71h1.882v.636l-1.882.025-.024 3.262q0 .464.073.819.085.342.269.537.195.183.525.183.281 0 .574-.17.306-.172.575-.563l.415.367q-.293.428-.586.672-.294.244-.562.354-.27.122-.49.147-.22.036-.354.036M154.762 26.463q-.684 0-1.136-.256-.44-.257-.66-.843-.22-.599-.22-1.576v-2.346q.012-.232.049-.452l-.44.024q-.232 0-.415.012v-.647h.293q.61 0 .916-.11t.428-.232h.464v3.726q0 .965.269 1.442t.904.464q.416 0 .794-.244.391-.244.636-.574v-2.896q0-.269.012-.501.012-.244.049-.464l-.452.024q-.232 0-.428.012v-.647h.354q.538 0 .843-.11.306-.11.44-.232h.465l-.013 4.496q0 .195-.012.538-.012.33-.036.586l.427-.024q.232-.013.428-.013v.648h-1.943q-.024-.196-.049-.367-.012-.17-.036-.33-.38.355-.88.624-.501.268-1.05.268M159.576 25.755q.367 0 .513-.171t.171-.477q.037-.305.037-.708v-2.957q.012-.232.049-.452l-.44.024q-.232 0-.428.012v-.647h.416q.513 0 .782-.11t.39-.232h.44q.025.17.037.476.013.306.025.684.232-.342.537-.61.306-.282.66-.453.367-.17.758-.17.378 0 .647.207.281.196.281.648 0 .122-.073.28-.061.16-.22.282-.147.11-.403.11-.257-.013-.452-.196-.184-.183-.171-.5-.294 0-.587.182-.293.172-.55.465-.244.293-.415.635v2.676q0 .22-.012.452 0 .22-.037.452.196-.012.403-.012.208-.012.379-.025v.648h-2.737zM167.905 26.463q-.855 0-1.54-.39-.672-.404-1.063-1.125-.39-.733-.39-1.722 0-.856.378-1.601.391-.745 1.088-1.197.696-.465 1.612-.465.514 0 .966.16.464.158.818.5.367.33.575.868.207.525.207 1.283l-4.203.073q0 .83.183 1.478.196.648.624 1.002.427.355 1.111.355.33 0 .697-.11.379-.123.709-.343.342-.22.574-.525l.379.33q-.367.55-.844.867-.476.306-.977.428-.489.134-.904.134m-1.503-4.251h2.822q0-.465-.134-.831-.122-.38-.391-.599-.269-.22-.684-.22-.648 0-1.063.415-.416.404-.55 1.235M174.918 25.73q.403-.024.574-.17.184-.147.233-.44.048-.294.048-.746v-5.083q0-.268.013-.513.012-.256.024-.44-.208.013-.452.025t-.44.024v-.672q.721-.012 1.466-.012.746-.012 1.515-.012 1.149 0 1.943.28.807.27 1.234.832.44.55.452 1.392.012.477-.17.99-.184.501-.624.941-.44.428-1.197.696-.746.27-1.882.27-.122.011-.281.011-.147 0-.305-.012v1.54q0 .33-.013.598 0 .257-.024.416l.366-.025q.196-.012.38-.012.195-.012.354-.024v.684h-3.214zm2.15-3.286q.208.024.355.036h.366q.685 0 1.21-.256.525-.257.819-.746.293-.488.293-1.16 0-.587-.183-.978-.171-.403-.49-.623-.305-.232-.708-.33t-.855-.098q-.367 0-.538.147-.17.147-.22.428-.048.28-.048.72zM185.396 26.268q-.024-.196-.036-.342t-.037-.306q-.415.416-.892.636-.476.207-.99.207-.88 0-1.331-.427-.44-.44-.44-1.088 0-.562.33-.977t.867-.672q.538-.269 1.173-.391.636-.134 1.247-.134v-.721q0-.391-.074-.721-.073-.342-.305-.55-.22-.22-.697-.22-.317-.012-.635.122-.318.122-.489.416.098.097.122.232.037.122.037.232 0 .171-.146.39-.147.209-.501.196-.294 0-.453-.195-.146-.208-.146-.477 0-.44.318-.782.33-.342.891-.537.563-.196 1.259-.196 1.05 0 1.564.55.525.55.525 1.735v.843q0 .403-.012.807v.855q0 .183-.012.415t-.037.49l.428-.025q.22-.013.415-.013v.648zm-.11-2.932q-.39.024-.806.11-.403.085-.733.256t-.538.44q-.195.269-.195.648.024.415.269.61.256.196.598.196.428 0 .758-.159.33-.17.648-.464-.013-.135-.013-.269v-.709q.013-.305.013-.66M188.133 25.755q.367 0 .514-.171.146-.171.17-.477.037-.305.037-.708v-2.957q.013-.232.05-.452l-.44.024q-.233 0-.428.012v-.647h.415q.513 0 .782-.11t.391-.232h.44q.024.17.037.476t.024.684q.232-.342.538-.61.305-.282.66-.453.366-.17.757-.17.379 0 .648.207.28.196.28.648 0 .122-.073.28-.06.16-.22.282-.146.11-.403.11-.256-.013-.452-.196-.183-.183-.171-.5-.293 0-.587.182-.293.172-.55.465-.244.293-.415.635v2.676q0 .22-.012.452 0 .22-.037.452.196-.012.404-.012.207-.012.378-.025v.648h-2.737zM196.01 26.463q-.305 0-.623-.085-.305-.073-.562-.306-.257-.244-.403-.696t-.147-1.197l.025-3.336h-.905v-.684q.33-.012.672-.245t.6-.623.353-.843h.575v1.71h1.881v.636l-1.881.025-.025 3.262q0 .464.074.819.085.342.268.537.196.183.526.183.28 0 .574-.17.305-.172.574-.563l.416.367q-.294.428-.587.672t-.562.354q-.269.122-.489.147-.22.036-.354.036M198.515 26.268v-.513q.366 0 .513-.171t.171-.477q.037-.305.037-.708l.012-2.542v-.415q.012-.232.049-.452l-.452.024q-.22 0-.416.012v-.647q.55 0 .856-.05.317-.06.476-.134.171-.073.257-.158h.44q.012.11.012.207.012.098.012.208.012.11.024.281.27-.22.587-.39.317-.172.66-.27.354-.11.672-.11 1.087 0 1.564.66.488.66.488 2.065v2.065q0 .22-.012.452-.012.22-.037.452.196-.012.391-.012.208-.012.38-.025v.648h-2.726v-.513q.367 0 .514-.171.146-.171.17-.477.037-.305.037-.708v-1.711q-.012-.965-.317-1.454-.294-.489-.953-.476-.391 0-.77.195-.379.196-.635.477v3.323q0 .22-.013.452-.012.22-.036.452.195-.012.39-.012.208-.012.38-.025v.648zM208.986 26.463q-.855 0-1.54-.39-.672-.404-1.063-1.125-.39-.733-.39-1.722 0-.856.378-1.601.391-.745 1.088-1.197.696-.465 1.612-.465.514 0 .966.16.464.158.818.5.367.33.575.868.207.525.207 1.283l-4.203.073q0 .83.183 1.478.196.648.624 1.002.427.355 1.111.355.33 0 .697-.11.379-.123.709-.343.342-.22.574-.525l.379.33q-.367.55-.843.867-.477.306-.978.428-.489.134-.904.134m-1.503-4.251h2.823q0-.465-.135-.831-.122-.38-.39-.599-.27-.22-.685-.22-.648 0-1.063.415-.416.404-.55 1.235M212.664 25.755q.366 0 .513-.171.146-.171.17-.477.038-.305.038-.708v-2.957q.012-.232.048-.452l-.44.024q-.232 0-.427.012v-.647h.415q.514 0 .782-.11.27-.11.391-.232h.44q.025.17.037.476t.024.684q.232-.342.538-.61.305-.282.66-.453.366-.17.757-.17.379 0 .648.207.28.196.28.648 0 .122-.073.28-.06.16-.22.282-.146.11-.403.11-.256-.013-.452-.196-.183-.183-.17-.5-.294 0-.587.182-.294.172-.55.465-.244.293-.416.635v2.676q0 .22-.012.452 0 .22-.036.452.195-.012.403-.012.207-.012.379-.025v.648h-2.737zM220.736 26.463q-.574 0-1.063-.158-.489-.147-.782-.355l.037.404h-.648l-.061-2.102h.513q.024.452.281.819t.66.574q.415.208.892.208.28 0 .55-.086.268-.098.452-.281.183-.195.183-.476 0-.306-.196-.501-.183-.208-.513-.367-.317-.159-.733-.318-.366-.146-.745-.305-.367-.159-.684-.379t-.501-.538q-.184-.33-.184-.806 0-.28.11-.599.11-.33.355-.598.244-.281.66-.452.415-.184 1.026-.184.33 0 .733.11.415.11.77.38l-.012-.429h.647v2.15h-.525q-.037-.427-.232-.793-.184-.367-.526-.599t-.83-.232q-.477 0-.783.244-.293.232-.293.587 0 .354.22.574.232.22.599.379.366.159.794.317.513.208.965.452t.733.611.281.929q0 .61-.317 1.026-.306.403-.795.599-.488.195-1.038.195M227.547 25.755q.366 0 .513-.171.159-.171.183-.477.037-.305.037-.708l-.013-1.711q0-.965-.305-1.442-.293-.488-.953-.476-.403.012-.794.195-.379.184-.636.465v3.323q0 .22-.012.452-.012.22-.036.452.195-.012.39-.012.208-.012.38-.025v.648h-2.725v-.513q.366 0 .513-.171.146-.171.183-.477t.037-.708V18.46q.012-.22.036-.464l-.44.025q-.232 0-.427.012v-.648q.55 0 .88-.049.33-.06.5-.134.184-.073.27-.159h.451v3.69q.27-.22.6-.39.329-.172.671-.27.354-.11.66-.11 1.087 0 1.552.66.476.66.488 2.065v2.065q0 .22-.012.452 0 .22-.037.452.196-.012.404-.012.207-.012.378-.025v.648h-2.736zM231.127 25.755q.366 0 .513-.171.146-.171.17-.477.037-.305.037-.708v-2.53q0-.207.013-.415.012-.22.036-.464l-.44.024q-.232 0-.427.012v-.647q.55 0 .867-.05.33-.06.501-.134.183-.073.269-.158h.464v4.716q0 .22-.012.452-.012.22-.037.452.196-.012.391-.012.208-.012.38-.025v.648h-2.726zm1.295-6.842q-.318 0-.538-.233-.22-.244-.22-.586t.232-.574q.232-.245.526-.245.317 0 .525.245.22.232.22.574t-.22.586q-.208.233-.525.233M234.633 29.384v-.514q.367 0 .513-.17.147-.172.171-.477.037-.306.037-.709l.012-5.657q0-.195.013-.415.012-.232.036-.452l-.44.024q-.232 0-.427.012v-.647q.55 0 .855-.05.318-.06.477-.134.17-.073.256-.158h.44q.012.122.024.293l.025.342q.39-.342.867-.525.477-.184.953-.184.709 0 1.295.38.6.366.953 1.05.367.684.367 1.625 0 1.014-.415 1.796-.416.782-1.125 1.222-.696.427-1.551.427-.391 0-.721-.097-.33-.086-.623-.245v1.748q0 .22-.012.44 0 .232-.025.464l.391-.025q.208 0 .379-.012v.648zm3.25-3.556q.587 0 .965-.342.391-.354.575-.94.195-.6.195-1.345 0-.623-.17-1.185-.172-.574-.55-.929-.367-.366-.966-.354-.379 0-.72.183-.343.184-.575.452v.343q.012.183.012.464v.696q0 .416-.012 1.051v1.515q.244.183.562.293.33.11.684.098" style="font-weight:500;font-family:Lora;-inkscape-font-specification:&quot;Lora Medium&quot;;text-align:start;text-anchor:start"/></g></svg>