<?xml version="1.0" encoding="UTF-8" standalone="no"?>
<svg
   width="911.4646"
   height="132.91051"
   viewBox="0 0 241.15819 35.166002"
   version="1.1"
   id="svg927"
   sodipodi:docname="cnp-logotype-grayscale.svg"
   inkscape:version="1.2.2 (b0a8486541, 2022-12-01)"
   xmlns:inkscape="http://www.inkscape.org/namespaces/inkscape"
   xmlns:sodipodi="http://sodipodi.sourceforge.net/DTD/sodipodi-0.dtd"
   xmlns="http://www.w3.org/2000/svg"
   xmlns:svg="http://www.w3.org/2000/svg">
  <sodipodi:namedview
     id="namedview929"
     pagecolor="#ffffff"
     bordercolor="#000000"
     borderopacity="0.25"
     inkscape:showpageshadow="2"
     inkscape:pageopacity="0.0"
     inkscape:pagecheckerboard="0"
     inkscape:deskcolor="#d1d1d1"
     showgrid="false"
     inkscape:zoom="1.3808627"
     inkscape:cx="456.23651"
     inkscape:cy="66.987107"
     inkscape:window-width="1920"
     inkscape:window-height="1024"
     inkscape:window-x="0"
     inkscape:window-y="0"
     inkscape:window-maximized="1"
     inkscape:current-layer="g739" />
  <defs
     id="defs913">
    <clipPath
       id="a"
       clipPathUnits="userSpaceOnUse">
      <path
         d="M -9,-9 H 605 V 851 H -9 Z"
         clip-rule="evenodd"
         id="path910" />
    </clipPath>
  </defs>
  <path
     d="m 325.75,489.534 a 161,161 0 0 1 -16.002,-0.892 c -18.013,-1.904 -38.14,-8.097 -57.094,-18.676 l -0.022,0.002 -1.261,-0.712 q -0.63,-0.357 -1.257,-0.724 l -0.098,-0.058 -0.606,-0.356 -0.547,-0.323 a 153,153 0 0 1 -2.494,-1.514 l -0.457,-0.286 q -0.326,-0.203 -0.651,-0.407 l -0.13,-0.082 a 147,147 0 0 1 -2.466,-1.592 q -0.47,-0.31 -0.938,-0.625 a 156,156 0 0 1 -3.927,-2.717 l -0.162,-0.116 q -0.347,-0.25 -0.692,-0.501 l -0.349,-0.25 a 150,150 0 0 1 -2.383,-1.777 q -0.315,-0.24 -0.628,-0.48 -0.256,-0.197 -0.513,-0.394 -0.021,-0.015 -0.042,-0.032 a 156,156 0 0 1 -3.442,-2.752 l -0.062,-0.05 q -0.285,-0.238 -0.571,-0.477 -0.292,-0.242 -0.581,-0.483 a 154,154 0 0 1 -2.284,-1.959 l -0.35,-0.31 -0.54,-0.478 -0.24,-0.212 0.012,0.004 a 142,142 0 0 1 -16.44,-17.394 l -0.026,-0.006 c -0.116,-0.145 -0.225,-0.298 -0.34,-0.445 -0.497,-0.629 -0.981,-1.27 -1.468,-1.91 a 136,136 0 0 1 -1.555,-2.073 c -0.479,-0.654 -0.947,-1.319 -1.416,-1.984 a 134,134 0 0 1 -1.555,-2.253 133,133 0 0 1 -2.8,-4.344 q -0.591,-0.951 -1.167,-1.917 c -0.492,-0.826 -0.971,-1.664 -1.447,-2.505 -0.378,-0.668 -0.757,-1.334 -1.125,-2.01 a 132,132 0 0 1 -1.42,-2.707 c -0.322,-0.629 -0.65,-1.252 -0.963,-1.888 a 132,132 0 0 1 -1.514,-3.21 c -0.24,-0.522 -0.492,-1.034 -0.726,-1.561 a 131,131 0 0 1 -2.068,-4.913 c 2.619,6.048 7.968,13.4 15.742,19.823 a 68,68 0 0 0 6.28,4.606 66.8,66.8 0 0 0 24.013,9.634 c 10.023,1.893 18.157,2.336 25.702,2.109 a 137,137 0 0 0 4.665,-0.225 c 2.876,-0.184 5.703,-0.444 8.56,-0.737 2.92,-0.3 5.874,-0.63 8.94,-0.944 3.066,-0.314 6.244,-0.61 9.62,-0.838 3.376,-0.228 6.947,-0.387 10.798,-0.43 3.851,-0.041 7.98,0.035 12.474,0.28 1.537,0.068 3.013,0.17 4.449,0.29 0.057,0.005 0.12,0.007 0.176,0.012 l 0.026,0.008 c 40.923,3.519 41.243,27.284 41.242,27.284 21.426,1.946 34.249,7.917 41.925,13.872 l 0.069,0.012 c 0.734,0.57 1.404,1.138 2.046,1.704 0.135,0.119 0.262,0.236 0.393,0.354 0.51,0.462 0.949,0.912 1.401,1.365 0.48,0.482 0.944,0.955 1.363,1.424 0.317,0.353 0.609,0.69 0.892,1.034 a 33,33 0 0 1 1.742,2.287 c 0.295,0.43 0.556,0.833 0.8,1.231 0.172,0.281 0.34,0.551 0.49,0.814 0.215,0.38 0.393,0.719 0.563,1.056 0.111,0.222 0.229,0.44 0.322,0.642 0.158,0.339 0.276,0.618 0.387,0.894 0.06,0.149 0.114,0.264 0.163,0.393 0.274,0.725 0.383,1.156 0.382,1.156 a 84,84 0 0 0 -3.06,-0.924 c -0.41,-0.115 -0.813,-0.213 -1.22,-0.32 -0.607,-0.162 -1.217,-0.324 -1.82,-0.47 -0.438,-0.105 -0.873,-0.197 -1.308,-0.294 -0.562,-0.125 -1.123,-0.251 -1.68,-0.363 -0.484,-0.097 -0.964,-0.183 -1.446,-0.27 a 81,81 0 0 0 -1.477,-0.26 q -0.5,-0.079 -1,-0.152 a 83,83 0 0 0 -4.89,-0.573 c -0.88,-0.079 -1.753,-0.126 -2.627,-0.178 -21.374,-1.271 -41.224,5.21 -68.29,5.043"
     clip-path="url(#a)"
     style="display:inline;fill:#565656;fill-opacity:1;fill-rule:evenodd;stroke:none"
     transform="matrix(0.2578,0,0,-0.2578,-46.873408,136.646)"
     id="path923" />
  <path
     d="m -4.0831982e-4,35.166 c 0,0 4.60200001982,-16.395 24.66800031982,-23.583 9.497,-3.402 19.405,-1.639 24.362,-0.986 5.451,0.717 10.701,-0.543 10.701,-0.543 0,0 -4.878,-1.728 -10.133,-4.66 -7.454,-4.158 -12.666,-1.222 -12.666,-1.222 0,0 1.4,-2.378 0.55,-3.246 -2.311,-2.355 -11.057,1.877 -11.057,1.877 0,0 1.349,-2.803 -0.987,-2.803 -1.83,0 -9.219,2.718 -14.162,8.599 C 0.01959168,21.988 -4.0831982e-4,35.166 -4.0831982e-4,35.166"
     style="fill:#818181;fill-opacity:1;stroke:none;stroke-width:0.264583px;stroke-linecap:butt;stroke-linejoin:miter;stroke-opacity:1"
     id="path925" />
  <g
     id="g739"
     transform="matrix(0.90432494,0,0,0.90432494,5.7895723,1.3940859)"
     style="fill:#818181;fill-opacity:1">
    <text
       xml:space="preserve"
       x="65.328583"
       y="14.533361"
       style="font-weight:700;font-size:13.6548px;line-height:1.25;font-family:'IBM Plex Sans';-inkscape-font-specification:'IBM Plex Sans Bold';text-align:center;text-anchor:middle;display:inline;fill:#565656;fill-opacity:1;stroke-width:0.341373"
       id="text345"><tspan
         x="65.328583"
         y="14.533361"
         dx="0 -0.60000002 0 0 0 0 0 0 0 0 0 0 0 0 -0.40000001 0 0 0 0 0 0"
         style="font-style:normal;font-variant:normal;font-weight:500;font-stretch:normal;font-family:Lora;-inkscape-font-specification:'Lora Medium';text-align:start;text-anchor:start;fill:#565656;fill-opacity:1;stroke-width:0.341373"
         id="tspan343">Partneriaeth Natur Ceredigion</tspan></text>
    <text
       xml:space="preserve"
       x="65.591179"
       y="27.502188"
       style="font-weight:700;font-size:13.511px;line-height:1.25;font-family:'IBM Plex Sans';-inkscape-font-specification:'IBM Plex Sans Bold';text-align:center;letter-spacing:0;text-anchor:middle;display:inline;fill:#818181;fill-opacity:1;stroke-width:0.337779"
       id="text349"><tspan
         x="65.591179"
         y="27.502188"
         dx="0 0 0 0 0 0 0 0 0 0 0 0 -0.40000001 0 0 0 0 0 0 -0.60000002 0 0 0 0 0 0 -0.17"
         style="font-style:normal;font-variant:normal;font-weight:500;font-stretch:normal;font-family:Lora;-inkscape-font-specification:'Lora Medium';text-align:start;letter-spacing:0;text-anchor:start;fill:#818181;fill-opacity:1;stroke-width:0.337779"
         id="tspan347">Ceredigion Nature Partnership</tspan></text>
  </g>
</svg>
