<svg xmlns="http://www.w3.org/2000/svg" width="912.473" height="132.782" viewBox="0 0 241.425 35.132"><defs><clipPath id="a" clipPathUnits="userSpaceOnUse"><path d="M-9-9h614v860H-9Z" clip-rule="evenodd"/></clipPath></defs><g style="fill:#fff;fill-opacity:1"><text xml:space="preserve" x="64.312" y="72.701" style="font-weight:700;font-size:21.5359px;line-height:1.25;font-family:&quot;IBM Plex Sans&quot;;-inkscape-font-specification:&quot;IBM Plex Sans Bold&quot;;text-align:center;text-anchor:middle;fill:#fff;fill-opacity:1;stroke-width:.538401" transform="translate(29.1 -27.377)scale(.57286)"><tspan x="64.312" y="72.701" dx="0 -0.94629896 0 0 0 0 0 0 0 0 0 0 0 0 -0.63086593 0 0 0 0 0 0.47314948" style="font-style:normal;font-variant:normal;font-weight:400;font-stretch:normal;font-family:Corben;-inkscape-font-specification:Corben;text-align:start;text-anchor:start;fill:#fff;fill-opacity:1;stroke-width:.538401">Partneriaeth Natur Ceredigion</tspan></text><text xml:space="preserve" x="64.316" y="93.99" style="font-weight:700;font-size:21.309px;line-height:1.25;font-family:&quot;IBM Plex Sans&quot;;-inkscape-font-specification:&quot;IBM Plex Sans Bold&quot;;text-align:center;letter-spacing:0;text-anchor:middle;fill:#fff;fill-opacity:1;stroke-width:.532733" transform="translate(29.1 -27.377)scale(.57286)"><tspan x="64.316" y="93.99" dx="0 0.47314948 0 0 0 0 0 0 0 0 0 0 -0.63086593 0 0 0 0 0 0 -0.94629896 0 0 0 0 0 0 -0.26811802" style="font-style:normal;font-variant:normal;font-weight:400;font-stretch:normal;font-family:Corben;-inkscape-font-specification:Corben;text-align:start;letter-spacing:0;text-anchor:start;fill:#fff;fill-opacity:1;stroke-width:.532733">Ceredigion Nature Partnership</tspan></text></g><g style="fill:#f9f9f9"><path d="M325.75 489.534a161 161 0 0 1-16.002-.892c-18.013-1.904-38.14-8.097-57.094-18.676l-.022.002-1.261-.712q-.63-.357-1.257-.724l-.098-.058-.606-.356-.547-.323a153 153 0 0 1-2.494-1.514l-.457-.286q-.326-.203-.651-.407l-.13-.082a147 147 0 0 1-2.466-1.592q-.47-.31-.938-.625a156 156 0 0 1-3.927-2.717l-.162-.116q-.347-.25-.692-.501l-.349-.25a150 150 0 0 1-2.383-1.777q-.315-.24-.628-.48-.256-.197-.513-.394-.021-.015-.042-.032a156 156 0 0 1-3.442-2.752l-.062-.05q-.285-.238-.571-.477-.292-.242-.581-.483a154 154 0 0 1-2.284-1.959l-.35-.31-.54-.478-.24-.212.012.004a142 142 0 0 1-16.44-17.394l-.026-.006c-.116-.145-.225-.298-.34-.445-.497-.629-.981-1.27-1.468-1.91a136 136 0 0 1-1.555-2.073c-.479-.654-.947-1.319-1.416-1.984a134 134 0 0 1-1.555-2.253 133 133 0 0 1-2.8-4.344q-.591-.951-1.167-1.917c-.492-.826-.971-1.664-1.447-2.505-.378-.668-.757-1.334-1.125-2.01a132 132 0 0 1-1.42-2.707c-.322-.629-.65-1.252-.963-1.888a132 132 0 0 1-1.514-3.21c-.24-.522-.492-1.034-.726-1.561a131 131 0 0 1-2.068-4.913c2.619 6.048 7.968 13.4 15.742 19.823a68 68 0 0 0 6.28 4.606 66.8 66.8 0 0 0 24.013 9.634c10.023 1.893 18.157 2.336 25.702 2.109a137 137 0 0 0 4.665-.225c2.876-.184 5.703-.444 8.56-.737 2.92-.3 5.874-.63 8.94-.944s6.244-.61 9.62-.838 6.947-.387 10.798-.43c3.851-.041 7.98.035 12.474.28 1.537.068 3.013.17 4.449.29.057.005.12.007.176.012l.026.008c40.923 3.519 41.243 27.284 41.242 27.284 21.426 1.946 34.249 7.917 41.925 13.872l.069.012c.734.57 1.404 1.138 2.046 1.704.135.119.262.236.393.354.51.462.949.912 1.401 1.365.48.482.944.955 1.363 1.424.317.353.609.69.892 1.034a33 33 0 0 1 1.742 2.287c.295.43.556.833.8 1.231.172.281.34.551.49.814.215.38.393.719.563 1.056.111.222.229.44.322.642.158.339.276.618.387.894.06.149.114.264.163.393.274.725.383 1.156.382 1.156a84 84 0 0 0-3.06-.924c-.41-.115-.813-.213-1.22-.32-.607-.162-1.217-.324-1.82-.47-.438-.105-.873-.197-1.308-.294-.562-.125-1.123-.251-1.68-.363-.484-.097-.964-.183-1.446-.27a81 81 0 0 0-1.477-.26q-.5-.079-1-.152a83 83 0 0 0-4.89-.573c-.88-.079-1.753-.126-2.627-.178-21.374-1.271-41.224 5.21-68.29 5.043" clip-path="url(#a)" style="display:inline;fill:#fff;fill-opacity:1;fill-rule:evenodd;stroke:none" transform="matrix(.2578 0 0 -.2578 -46.873 136.646)"/><path d="M.132 35.298S4.734 18.903 24.8 11.715c9.497-3.402 19.405-1.639 24.362-.986 5.451.717 10.701-.543 10.701-.543s-4.878-1.728-10.133-4.66c-7.454-4.158-12.666-1.222-12.666-1.222s1.4-2.378.55-3.246c-2.311-2.355-11.057 1.877-11.057 1.877S27.906.132 25.57.132c-1.83 0-9.219 2.718-14.162 8.599C.152 22.12.132 35.298.132 35.298" style="fill:#fff;fill-opacity:1;stroke:none;stroke-width:.264583px;stroke-linecap:butt;stroke-linejoin:miter;stroke-opacity:1" transform="translate(-.132 -.132)"/></g></svg>