<?xml version="1.0" encoding="UTF-8" standalone="no"?>
<!-- Created with Inkscape (http://www.inkscape.org/) -->

<svg
   width="59.227154mm"
   height="56.21796mm"
   viewBox="0 0 59.227154 56.21796"
   version="1.1"
   id="svg1981"
   inkscape:version="1.2.2 (b0a8486541, 2022-12-01)"
   sodipodi:docname="welsh-government-white-logo.svg"
   xmlns:inkscape="http://www.inkscape.org/namespaces/inkscape"
   xmlns:sodipodi="http://sodipodi.sourceforge.net/DTD/sodipodi-0.dtd"
   xmlns="http://www.w3.org/2000/svg"
   xmlns:svg="http://www.w3.org/2000/svg">
  <sodipodi:namedview
     id="namedview1983"
     pagecolor="#ffffff"
     bordercolor="#000000"
     borderopacity="0.25"
     inkscape:showpageshadow="2"
     inkscape:pageopacity="0.0"
     inkscape:pagecheckerboard="0"
     inkscape:deskcolor="#d1d1d1"
     inkscape:document-units="mm"
     showgrid="false"
     inkscape:zoom="0.75722503"
     inkscape:cx="-426.55748"
     inkscape:cy="48.862621"
     inkscape:window-width="1920"
     inkscape:window-height="1051"
     inkscape:window-x="1920"
     inkscape:window-y="0"
     inkscape:window-maximized="1"
     inkscape:current-layer="layer1" />
  <defs
     id="defs1978">
    <clipPath
       clipPathUnits="userSpaceOnUse"
       id="clipPath598">
      <path
         d="M 710.852,73.702 H 878.74 V 233.06 H 710.852 Z"
         id="path596" />
    </clipPath>
  </defs>
  <g
     inkscape:label="Layer 1"
     inkscape:groupmode="layer"
     id="layer1"
     transform="translate(-218.11936,-135.41572)">
    <g
       id="g592"
       transform="matrix(0.35277777,0,0,-0.35277777,-32.653419,217.63411)"
       style="fill:#ffffff">
      <g
         id="g594"
         clip-path="url(#clipPath598)"
         style="fill:#ffffff">
        <g
           id="g600"
           transform="translate(732.3224,195.4385)"
           style="fill:#ffffff">
          <path
             d="m 0,0 c 0,0 0.584,1.454 1.745,2.046 1.169,0.597 2.798,0.698 4.705,0.483 1.628,-0.177 5.001,-1.669 9.873,-5.715 6.781,-5.632 9.204,-9.114 9.255,-8.947 0.427,1.367 2.056,4.01 2.056,4.01 C 24.43,-5.317 13.237,2.001 9.753,3.388 5.832,4.968 0.444,5.388 0,0"
             style="fill:#ffffff;fill-opacity:1;fill-rule:nonzero;stroke:none"
             id="path602" />
        </g>
        <g
           id="g604"
           transform="translate(736.3904,202.2129)"
           style="fill:#ffffff">
          <path
             d="M 0,0 C 4.733,1.185 5.259,-1.938 6.258,-2.688 L 9.882,-4.904 C 4.986,5.94 0,0 0,0"
             style="fill:#ffffff;fill-opacity:1;fill-rule:nonzero;stroke:none"
             id="path606" />
        </g>
        <g
           id="g608"
           transform="translate(738.4731,196.7001)"
           style="fill:#ffffff">
          <path
             d="m 0,0 c 11.234,-8.233 1.818,-12.043 1.818,-12.043 2.207,-0.939 3.966,-0.306 4.925,1.125 0.349,0.539 0.679,1.201 0.866,1.726 0.316,0.888 0.352,1.612 0.352,1.612 3.982,-3.904 8.32,-10.575 11.155,-14.117 -0.861,3.435 -0.197,4.978 -0.465,5.3 -3.383,4.066 -4.513,5.52 -6.723,7.978 C 5.238,-1.024 0,0 0,0"
             style="fill:#ffffff;fill-opacity:1;fill-rule:nonzero;stroke:none"
             id="path610" />
        </g>
        <g
           id="g612"
           transform="translate(785.0442,197.4945)"
           style="fill:#ffffff">
          <path
             d="M 0,0 C -0.529,1.357 -0.358,5.254 -0.208,5.959 0.35,7.454 0.854,8.924 1.16,10.315 L 1.407,10.186 3.169,9.083 C 2.438,9.999 1.74,12.413 1.37,13.871 1.344,14.059 1.306,14.255 1.256,14.44 c -0.773,3.128 -2.351,4.955 -2.351,4.955 0,0 1.154,-2.982 0.764,-5.4 -0.384,-5.047 -7.545,-10.834 -5.928,-19.679 0.894,-4.885 5.786,-8.778 5.786,-8.778 0,0 -1.559,3.219 -2.661,9.291 -0.438,2.387 0.34,4.262 1.4,7.127 l 0.392,-0.367 z"
             style="fill:#ffffff;fill-opacity:1;fill-rule:nonzero;stroke:none"
             id="path614" />
        </g>
        <g
           id="g616"
           transform="translate(834.4823,232.0336)"
           style="fill:#ffffff">
          <path
             d="m 0,0 c 0,0 -12.702,-2.052 -18.989,-4.066 -6.289,-2.016 -15.464,-5.98 -19.623,-11.179 -4.155,-5.203 -0.657,-13.446 -1.719,-18.937 -1.061,-5.489 -9.207,-11.062 -9.207,-11.062 0,0 9.48,2.426 12.971,10.065 2.57,5.615 -0.691,9.519 3.249,18.187 C -29.378,-8.334 0,0 0,0"
             style="fill:#ffffff;fill-opacity:1;fill-rule:nonzero;stroke:none"
             id="path618" />
        </g>
        <g
           id="g620"
           transform="translate(834.8125,231.4226)"
           style="fill:#ffffff">
          <path
             d="m 0,0 c 0,0 -10.486,-3.245 -13.79,-13.49 l 4.696,1.038 c 0,0 0.066,6.388 9.094,12.452"
             style="fill:#ffffff;fill-opacity:1;fill-rule:nonzero;stroke:none"
             id="path622" />
        </g>
        <g
           id="g624"
           transform="translate(851.4175,217.2475)"
           style="fill:#ffffff">
          <path
             d="m 0,0 c 0,0 -16.511,3.299 -32.737,-1.467 -16.232,-4.761 -13.948,-13.239 -14.125,-17.964 -0.165,-4.729 -4.17,-15.216 -18.453,-13.832 0,0 8.466,-4.626 17.898,2.975 9.424,7.606 2.846,16.819 10.435,21.21 C -29.405,-4.693 -23.526,-1.043 0,0"
             style="fill:#ffffff;fill-opacity:1;fill-rule:nonzero;stroke:none"
             id="path626" />
        </g>
        <g
           id="g628"
           transform="translate(810.2833,193.7947)"
           style="fill:#ffffff">
          <path
             d="m 0,0 c 0,0 6.45,-0.899 10.249,-5.336 0,0 -5.199,4.03 -11.104,2.995 0,0 0.565,1.162 0.855,2.341"
             style="fill:#ffffff;fill-opacity:1;fill-rule:nonzero;stroke:none"
             id="path630" />
        </g>
        <g
           id="g632"
           transform="translate(838.1849,200.8329)"
           style="fill:#ffffff">
          <path
             d="M 0,0 C 0,0 -15.58,-0.366 -15.736,-13.462 -16.024,-12.974 -24.297,1.462 0,0"
             style="fill:#ffffff;fill-opacity:1;fill-rule:nonzero;stroke:none"
             id="path634" />
        </g>
        <g
           id="g636"
           transform="translate(850.2831,216.4193)"
           style="fill:#ffffff">
          <path
             d="M 0,0 V 0 C -15.687,-3.229 -12.098,-15.592 -12.098,-15.592 -20.078,0.276 0,0 0,0"
             style="fill:#ffffff;fill-opacity:1;fill-rule:nonzero;stroke:none"
             id="path638" />
        </g>
        <g
           id="g640"
           transform="translate(806.7712,175.7393)"
           style="fill:#ffffff">
          <path
             d="M 0,0 C 4.093,11.04 15.173,11.481 15.577,11.497 3.797,13.815 0.798,7.856 0.11,3.674 -9.964,5.641 -18.58,5.846 -18.58,5.846 -6.473,4.153 0,0 0,0"
             style="fill:#ffffff;fill-opacity:1;fill-rule:nonzero;stroke:none"
             id="path642" />
        </g>
        <g
           id="g644"
           transform="translate(743.1521,142.9116)"
           style="fill:#ffffff">
          <path
             d="M 0,0 C 0,0 2.488,1.348 5.397,1.063 7.187,0.893 10.652,2.19 10.652,2.19 9.192,2.201 5.746,3.923 2.709,3.547 -0.324,3.169 0,0 0,0"
             style="fill:#ffffff;fill-opacity:1;fill-rule:nonzero;stroke:none"
             id="path646" />
        </g>
        <g
           id="g648"
           transform="translate(801.0847,150.7132)"
           style="fill:#ffffff">
          <path
             d="M 0,0 C 0,0 -0.246,2.387 2.033,2.669 4.31,2.956 6.892,1.656 7.986,1.653 c 0,0 -2.589,-0.977 -3.942,-0.85 C 1.87,1.013 0,0 0,0"
             style="fill:#ffffff;fill-opacity:1;fill-rule:nonzero;stroke:none"
             id="path650" />
        </g>
        <g
           id="g652"
           transform="translate(823.3155,141.663)"
           style="fill:#ffffff">
          <path
             d="M 0,0 C 0,0 2.238,1.222 4.863,0.972 6.476,0.813 8.948,1.032 8.948,1.032 7.632,1.042 5.563,3.731 2.439,3.208 -0.27,2.754 0,0 0,0"
             style="fill:#ffffff;fill-opacity:1;fill-rule:nonzero;stroke:none"
             id="path654" />
        </g>
        <g
           id="g656"
           transform="translate(836.9022,201.4398)"
           style="fill:#ffffff">
          <path
             d="m 0,0 c -18.969,4.572 -24.871,1.296 -24.871,1.296 0,0 0.418,1.071 0.685,1.672 0.426,0.948 0.543,1.195 0.663,1.422 C -9.62,4.929 0,0 0,0"
             style="fill:#ffffff;fill-opacity:1;fill-rule:nonzero;stroke:none"
             id="path658" />
        </g>
        <g
           id="g660"
           transform="translate(764.264,213.4941)"
           style="fill:#ffffff">
          <path
             d="m 0,0 c 0,0 -2.137,2.292 -4.641,2.292 -3.618,0 -6.636,-3.861 -9.854,-3.868 -3.224,0 -4.835,1.09 -4.835,1.09 0,0 1.954,-2.629 5.024,-2.629 3.995,0 6.95,3.927 9.599,3.927 C -2.066,0.818 0,0 0,0"
             style="fill:#ffffff;fill-opacity:1;fill-rule:nonzero;stroke:none"
             id="path662" />
        </g>
        <g
           id="g664"
           transform="translate(772.548,209.3571)"
           style="fill:#ffffff">
          <path
             d="m 0,0 c 0,0 0.558,-2.019 0.237,-5.703 -0.314,-6.316 -12.669,-15.017 -12.517,-25.482 0.085,-6.256 4.699,-9.993 4.699,-9.993 0,0 -2.071,5.519 -1.146,11.045 1.277,7.671 10.943,16.422 10.64,23.952 C 1.727,-1.741 0,0 0,0"
             style="fill:#ffffff;fill-opacity:1;fill-rule:nonzero;stroke:none"
             id="path666" />
        </g>
        <g
           id="g668"
           transform="translate(766.5738,168.289)"
           style="fill:#ffffff">
          <path
             d="m 0,0 c 0,0 -1.862,4.4 -0.461,8.305 0.913,2.517 3.296,4.666 7.999,5.842 0,0 -8.223,-7.487 -2.19,-13.953 0,0 -4.3,-4.566 -5.945,-8.472 -1.638,-3.895 -5.222,-12.069 -6.405,-13.973 -1.193,-1.89 -2.861,-4.334 -7.557,-6.45 -5.198,-0.455 -10.89,-1.322 -11.263,-5.339 0,0 -1.004,1.005 -0.911,3.54 0.094,2.537 4.303,5.372 8.702,5.22 4.401,-0.159 8.333,0.967 10.393,6.271 C -5.582,-13.696 -1.074,-0.933 0,0"
             style="fill:#ffffff;fill-opacity:1;fill-rule:nonzero;stroke:none"
             id="path670" />
        </g>
        <g
           id="g672"
           transform="translate(773.5851,167.8629)"
           style="fill:#ffffff">
          <path
             d="m 0,0 c 0,0 -6.701,-20.549 -18.45,-28.094 0,0 7.158,1.022 9.366,0.121 2.211,-0.906 4.478,-2.407 2.325,-5.842 0,0 4.258,2.338 3.082,5.856 -0.925,2.785 -5.101,3.01 -5.101,3.01 0,0 -1.203,0.52 -0.504,2.297 0.699,1.782 5.187,7.696 5.901,8.769 0.714,1.081 6.541,9.873 6.772,10.379 0,0 5.132,-0.728 7.59,4.161 C 13.546,5.741 8.08,10.66 8.08,10.66 c 0,0 2.397,-5.463 -0.374,-8.147 C 4.417,-0.665 0,0 0,0"
             style="fill:#ffffff;fill-opacity:1;fill-rule:nonzero;stroke:none"
             id="path674" />
        </g>
        <g
           id="g676"
           transform="translate(779.2969,163.0725)"
           style="fill:#ffffff">
          <path
             d="m 0,0 c 0,0 2.474,0.511 3.313,1.14 0,0 1.146,-1.241 5.879,-1.14 0.401,0.006 0.662,0 0.811,0 5.259,0.653 11.662,2.534 21.727,6.732 L 32.822,4.939 C 24.965,2.287 15.482,-5.181 3.591,-4.002 2.745,-3.916 -1.16,-3.133 -1.972,-2.88 -1.477,-2.216 0,0 0,0"
             style="fill:#ffffff;fill-opacity:1;fill-rule:nonzero;stroke:none"
             id="path678" />
        </g>
        <g
           id="g680"
           transform="translate(813.1533,153.0851)"
           style="fill:#ffffff">
          <path
             d="m 0,0 c -1.022,-1.696 -2.55,-3.958 -5.803,-5.053 -3.532,0.071 -7.78,-0.799 -8.067,-3.81 0,0 -0.748,0.759 -0.687,2.649 0.07,1.91 2.677,3.986 6.529,3.776 3.303,-0.179 5.434,1.191 6.861,4.811 0.976,2.428 -0.06,7.65 1.246,10.958 0,0 1.779,-1.38 2.565,-2.033 0,0 0.065,0.023 -0.312,-0.879 C 1.105,7.493 1.69,3.263 0,0"
             style="fill:#ffffff;fill-opacity:1;fill-rule:nonzero;stroke:none"
             id="path682" />
        </g>
        <g
           id="g684"
           transform="translate(818.1638,163.2884)"
           style="fill:#ffffff">
          <path
             d="M 0,0 C 0,0 1.011,-0.689 1.987,-1.217 1.176,-3.176 0.916,-4.418 0.759,-4.832 c -0.336,-0.923 -1.451,-4.677 -1.98,-6.016 -0.527,-1.328 0.373,-1.712 0.373,-1.712 0,0 3.135,-0.177 3.829,-2.263 0.884,-2.639 -2.302,-4.388 -2.302,-4.388 1.605,2.569 -0.091,3.699 -1.748,4.376 -1.662,0.674 -6.515,-0.089 -6.515,-0.089 C -2.487,-12.134 -0.818,-1.925 0,0"
             style="fill:#ffffff;fill-opacity:1;fill-rule:nonzero;stroke:none"
             id="path686" />
        </g>
        <g
           id="g688"
           transform="translate(837.4539,142.4926)"
           style="fill:#ffffff">
          <path
             d="m 0,0 c 0,0 1.36,-2.833 0.587,-3.875 -3.082,-0.091 -5.179,0.006 -9.727,-0.457 -4.208,-0.427 -6.933,-0.703 -7.264,-4.327 0,0 -0.909,0.909 -0.831,3.196 0.087,2.281 3.883,4.83 7.849,4.684 0,0 4.965,-0.088 5.524,0.207 1.186,0.633 -1.834,6.412 -2.35,7.455 -4.402,8.806 -4.291,11.661 -4.467,12.127 0,0 -12.321,2.309 -15.352,10.703 9.785,-8.318 17.882,-8.249 17.882,-8.249 C -7.125,17.473 -2.919,5.655 0,0"
             style="fill:#ffffff;fill-opacity:1;fill-rule:nonzero;stroke:none"
             id="path690" />
        </g>
        <g
           id="g692"
           transform="translate(845.2683,185.0506)"
           style="fill:#ffffff">
          <path
             d="m 0,0 c -1.514,-4.495 -2.448,-9.361 -2.263,-14.674 0.168,-4.865 3.318,-11.629 10.983,-10.943 3.988,0.352 6.483,2.935 7.768,5.549 1.507,3.08 1.407,6.243 1.407,6.243 0,0 0.1,5.026 -4.719,9.295 C 10.533,-2.118 6.453,-0.263 0,0 m -4.621,3.744 c 1.28,0.039 2.364,0.023 3.579,-0.055 5.349,11.429 14.465,23.257 14.465,30.231 0,4.508 -3.104,7.537 -3.104,7.537 L 9.792,39.762 c 0,0 -2.516,5.756 -4.368,7.209 l 0.058,-0.038 c 0,0 5.788,-2.305 7.762,-3.907 v 0.03 L 11.78,42.675 h -0.053 c 3.69,-3.41 3.482,-8.82 3.482,-8.82 C 15.507,25.556 6.518,16.024 1.313,3.488 c 11.721,-1.461 19.91,-8.753 19.91,-16.686 0,-11.118 -6.803,-15.028 -12.986,-15.113 -2.181,-0.02 -4.599,0.325 -7.426,2 -3.299,1.95 -6.053,5.578 -6.053,12.647 0,6.928 1.611,11.228 2.521,13.655 l -0.024,0.025 c -2.809,-0.1 -5.579,-0.435 -7.993,-0.938 0,0 -2.181,-0.649 -3.165,-0.949 2.618,-1.533 5.182,-4.027 6.08,-7.931 0.57,-2.797 0.304,-6.356 -1.085,-10.885 -0.297,-4.434 1.634,-11.012 3.133,-15.903 l 1.679,-4.47 c 0.894,-1.975 2.28,-2.531 2.28,-2.531 0,0 3.436,-0.504 4.399,-2.586 1.294,-2.77 -0.92,-4.183 -0.92,-4.183 0.793,3.333 -2.091,3.696 -3.791,3.949 l -0.139,0.02 c -1.663,0.24 -2.771,0.094 -2.771,0.094 0.212,1.13 -1.947,7.142 -1.799,6.749 0,0 -2.77,7.958 -3.935,11.459 -1.218,3.602 -2.041,8.72 -2.041,8.72 0,0 8.309,13.849 -10.279,20.096 0,0 1.307,0.137 2.314,0.006 2.098,0.823 4.815,1.392 4.815,1.392 3.304,0.895 7.031,1.477 11.342,1.619"
             style="fill:#ffffff;fill-opacity:1;fill-rule:nonzero;stroke:none"
             id="path694" />
        </g>
        <g
           id="g696"
           transform="translate(770.2524,221.2237)"
           style="fill:#ffffff">
          <path
             d="m 0,0 c 0,0 -1.958,-3.374 -5.008,-1.413 0,0 0.071,2.008 1.797,1.816 C -1.481,0.208 -1.711,-0.501 0,0 m -7.164,-0.429 c 0,0 -6.43,2.05 -10.423,-1.208 l 2.103,-3.625 c 0,0 6.098,4.976 10.606,-2.162 0,0 -3.361,-4.394 -10.452,-3.158 0,0 1.933,-3.324 6.636,-3.295 4.709,0.033 9.288,4.765 10.762,3.17 0,0 -0.496,6.741 7.727,9.12 0,0 1.881,-1.53 2.218,-2.391 0,0 2.697,2.126 2.553,7.337 -0.147,5.218 -3.088,7.589 -4.137,8.478 0,0 0.619,-3.114 -0.766,-6.016 C 8.86,4.134 7.086,2.027 4.371,1.948 c 0,0 -2.233,-0.039 -3.714,0.41 -1.481,0.448 -7.37,2.43 -7.821,-2.787"
             style="fill:#ffffff;fill-opacity:1;fill-rule:nonzero;stroke:none"
             id="path698" />
        </g>
        <g
           id="g700"
           transform="translate(713.7717,114.8689)"
           style="fill:#ffffff">
          <path
             d="M 0,0 H 1.971 V -13.933 H 7.1 v -1.704 H 0 Z"
             style="fill:#ffffff;fill-opacity:1;fill-rule:nonzero;stroke:none"
             id="path702" />
        </g>
        <path
           d="m 722.709,116.036 h 1.883 V 99.232 h -1.883 z"
           style="fill:#ffffff;fill-opacity:1;fill-rule:nonzero;stroke:none"
           id="path704" />
        <g
           id="g706"
           transform="translate(731.5352,96.9009)"
           style="fill:#ffffff">
          <path
             d="m 0,0 c -0.561,-1.948 -1.367,-2.644 -2.8,-2.644 -0.45,0 -0.942,0.046 -1.278,0.137 l 0.09,1.699 c 0.29,-0.131 0.627,-0.222 1.03,-0.222 0.538,0 0.941,0.245 1.254,1.435 l 0.448,1.746 -3.605,11.606 h 1.971 l 2.555,-9.32 h 0.043 l 2.374,9.32 h 1.883 z"
             style="fill:#ffffff;fill-opacity:1;fill-rule:nonzero;stroke:none"
             id="path708" />
        </g>
        <g
           id="g710"
           transform="translate(748.761,99.2319)"
           style="fill:#ffffff">
          <path
             d="M 0,0 H -2.15 L -4.546,9.656 H -4.592 L -6.787,0 h -2.151 l -3.024,11.426 h 1.972 l 2.172,-9.545 h 0.044 l 2.175,9.545 h 2.24 l 2.261,-9.545 h 0.045 l 2.151,9.545 h 1.883 z"
             style="fill:#ffffff;fill-opacity:1;fill-rule:nonzero;stroke:none"
             id="path712" />
        </g>
        <g
           id="g714"
           transform="translate(757.3414,100.5978)"
           style="fill:#ffffff">
          <path
             d="M 0,0 C 1.792,0 2.62,1.477 2.62,4.348 2.62,7.213 1.792,8.692 0,8.692 -1.793,8.692 -2.621,7.213 -2.621,4.348 -2.621,1.477 -1.793,0 0,0 m 0,10.215 c 3.024,0 4.592,-2.284 4.592,-5.867 0,-3.585 -1.568,-5.871 -4.592,-5.871 -3.026,0 -4.595,2.286 -4.595,5.871 0,3.583 1.569,5.867 4.595,5.867"
             style="fill:#ffffff;fill-opacity:1;fill-rule:nonzero;stroke:none"
             id="path716" />
        </g>
        <g
           id="g718"
           transform="translate(767.9368,109.2897)"
           style="fill:#ffffff">
          <path
             d="m 0,0 c -1.725,0 -2.51,-1.478 -2.51,-4.345 0,-2.869 0.785,-4.347 2.51,-4.347 1.724,0 2.508,1.478 2.508,4.347 C 2.508,-1.478 1.724,0 0,0 m 4.391,-7.951 c 0,-0.694 0.067,-1.412 0.09,-2.107 H 2.666 L 2.598,-8.377 H 2.553 c -0.493,-0.896 -1.344,-1.837 -3.002,-1.837 -2.351,0 -3.942,1.928 -3.942,5.869 0,3.943 1.591,5.869 3.942,5.869 1.3,0 2.151,-0.515 2.913,-1.723 h 0.044 v 6.945 h 1.883 z"
             style="fill:#ffffff;fill-opacity:1;fill-rule:nonzero;stroke:none"
             id="path720" />
        </g>
        <g
           id="g722"
           transform="translate(774.879,108.1933)"
           style="fill:#ffffff">
          <path
             d="M 0,0 C 0,0.826 -0.066,1.657 -0.09,2.465 H 1.725 L 1.793,0.672 H 1.838 C 2.442,2.06 3.406,2.62 5.087,2.62 V 0.76 C 4.862,0.808 4.615,0.826 4.368,0.826 2.913,0.826 1.883,-0.425 1.883,-2.913 V -8.961 H 0 Z"
             style="fill:#ffffff;fill-opacity:1;fill-rule:nonzero;stroke:none"
             id="path724" />
        </g>
        <g
           id="g726"
           transform="translate(787.4245,104.8322)"
           style="fill:#ffffff">
          <path
             d="m 0,0 c -0.335,0.046 -0.806,0.046 -1.322,0.046 -2.217,0 -3.271,-1.055 -3.271,-2.374 0,-1.212 0.628,-1.997 1.927,-1.997 1.636,0 2.666,1.323 2.666,2.89 z m -5.466,5.041 c 0.941,0.606 2.107,0.941 3.225,0.941 1.68,0 2.689,-0.717 3.049,-1.075 C 1.299,4.414 1.792,3.719 1.792,2.105 v -5.959 c 0,-0.67 0.044,-1.345 0.091,-1.746 H 0.179 L 0.068,-4.056 H 0.023 c -0.516,-0.873 -1.456,-1.7 -3.203,-1.7 -1.883,0 -3.293,1.095 -3.293,3.291 0,2.219 1.455,3.854 5.375,3.854 H 0 v 0.514 c 0,0.854 -0.066,1.345 -0.426,1.838 -0.38,0.517 -1.12,0.716 -1.903,0.716 -1.166,0 -2.286,-0.468 -2.936,-1.184 z"
             style="fill:#ffffff;fill-opacity:1;fill-rule:nonzero;stroke:none"
             id="path728" />
        </g>
        <g
           id="g730"
           transform="translate(797.8634,105.8186)"
           style="fill:#ffffff">
          <path
             d="M 0,0 C 0,2.375 -0.74,3.562 -2.241,3.562 -3.449,3.562 -4.525,2.664 -4.57,0 Z m -4.57,-1.435 c 0,-2.642 1.03,-3.876 3.114,-3.876 0.942,0 1.97,0.471 2.622,0.945 l 0.088,-1.705 c -0.896,-0.425 -2.06,-0.672 -3.203,-0.672 -3.023,0 -4.592,2.286 -4.592,5.87 0,3.584 1.569,5.868 4.411,5.868 2.579,0 4.013,-2.062 4.013,-5.42 v -1.01 z"
             style="fill:#ffffff;fill-opacity:1;fill-rule:nonzero;stroke:none"
             id="path732" />
        </g>
        <g
           id="g734"
           transform="translate(806.8685,99.3646)"
           style="fill:#ffffff">
          <path
             d="m 0,0 c -0.449,-0.155 -1.075,-0.289 -1.591,-0.289 -1.725,0 -2.644,0.694 -2.644,2.711 V 9.769 H -6.05 v 1.524 h 1.815 v 2.329 l 1.883,0.561 v -2.89 H 0 V 9.769 H -2.352 V 3.027 c 0,-1.3 0.335,-1.793 1.186,-1.793 0.472,0 0.808,0.134 1.166,0.292 z"
             style="fill:#ffffff;fill-opacity:1;fill-rule:nonzero;stroke:none"
             id="path736" />
        </g>
        <g
           id="g738"
           transform="translate(808.4573,116.0358)"
           style="fill:#ffffff">
          <path
             d="m 0,0 h 1.883 v -6.946 h 0.044 c 0.493,0.963 1.479,1.724 2.799,1.724 1.994,0 3.339,-1.141 3.339,-3.654 v -7.928 H 6.184 v 7.372 c 0,1.813 -0.672,2.596 -1.881,2.596 -1.48,0 -2.42,-1.029 -2.42,-3.089 v -6.879 H 0 Z"
             style="fill:#ffffff;fill-opacity:1;fill-rule:nonzero;stroke:none"
             id="path740" />
        </g>
        <g
           id="g742"
           transform="translate(834.2199,99.5452)"
           style="fill:#ffffff">
          <path
             d="m 0,0 c -0.941,-0.289 -1.927,-0.47 -2.846,-0.47 -4.951,0 -7.034,3.764 -7.034,7.999 0,4.883 2.845,7.952 6.922,7.952 1.122,0 2.241,-0.203 2.958,-0.562 v -1.927 c -0.851,0.538 -1.836,0.785 -2.935,0.785 -2.554,0 -4.883,-2.036 -4.883,-5.846 0,-4.033 1.612,-6.699 5.018,-6.699 1.008,0 1.992,0.269 2.8,0.74 z"
             style="fill:#ffffff;fill-opacity:1;fill-rule:nonzero;stroke:none"
             id="path744" />
        </g>
        <g
           id="g746"
           transform="translate(840.245,96.9009)"
           style="fill:#ffffff">
          <path
             d="m 0,0 c -0.561,-1.948 -1.367,-2.644 -2.8,-2.644 -0.448,0 -0.942,0.046 -1.278,0.137 l 0.09,1.699 c 0.29,-0.131 0.629,-0.222 1.03,-0.222 0.538,0 0.941,0.245 1.254,1.435 l 0.45,1.746 -3.607,11.606 h 1.971 l 2.555,-9.32 h 0.045 l 2.373,9.32 h 1.882 z"
             style="fill:#ffffff;fill-opacity:1;fill-rule:nonzero;stroke:none"
             id="path748" />
        </g>
        <g
           id="g750"
           transform="translate(845.7762,108.1933)"
           style="fill:#ffffff">
          <path
             d="M 0,0 C 0,0.826 -0.066,1.657 -0.088,2.465 H 1.725 L 1.792,0.76 h 0.046 c 0.605,1.3 1.568,1.86 2.823,1.86 1.21,0 2.107,-0.626 2.688,-1.794 0.605,1.125 1.478,1.794 2.778,1.794 1.971,0 3.316,-1.142 3.316,-3.653 v -7.928 h -1.882 v 7.843 c 0,1.453 -0.627,2.124 -1.747,2.124 -1.389,0 -2.15,-0.85 -2.15,-2.912 V -8.961 H 5.781 v 7.843 c 0,1.453 -0.629,2.124 -1.747,2.124 -1.39,0 -2.15,-0.85 -2.15,-2.912 V -8.961 H 0 Z"
             style="fill:#ffffff;fill-opacity:1;fill-rule:nonzero;stroke:none"
             id="path752" />
        </g>
        <g
           id="g754"
           transform="translate(861.5021,108.1933)"
           style="fill:#ffffff">
          <path
             d="M 0,0 C 0,0.826 -0.066,1.657 -0.09,2.465 H 1.725 L 1.792,0.672 H 1.836 C 2.44,2.06 3.404,2.62 5.086,2.62 V 0.76 C 4.861,0.808 4.615,0.826 4.369,0.826 2.913,0.826 1.883,-0.425 1.883,-2.913 V -8.961 H 0 Z"
             style="fill:#ffffff;fill-opacity:1;fill-rule:nonzero;stroke:none"
             id="path756" />
        </g>
        <g
           id="g758"
           transform="translate(876.198,101.6969)"
           style="fill:#ffffff">
          <path
             d="m 0,0 c 0,-0.831 0.068,-1.657 0.09,-2.465 h -1.815 l -0.067,1.705 h -0.044 c -0.606,-1.303 -1.57,-1.861 -2.89,-1.861 -1.994,0 -3.339,1.143 -3.339,3.651 v 7.931 h 1.882 v -7.37 c 0,-1.816 0.672,-2.601 1.881,-2.601 1.479,0 2.421,1.03 2.421,3.092 V 8.961 H 0 Z"
             style="fill:#ffffff;fill-opacity:1;fill-rule:nonzero;stroke:none"
             id="path760" />
        </g>
        <g
           id="g762"
           transform="translate(713.9622,89.4958)"
           style="fill:#ffffff">
          <path
             d="M 0,0 H 2.06 L 4.615,-12.68 H 4.66 L 7.46,0 h 2.508 l 2.802,-12.68 h 0.043 L 15.549,0 h 1.881 l -3.406,-15.637 h -2.33 L 8.737,-2.24 H 8.693 L 5.735,-15.637 H 3.404 Z"
             style="fill:#ffffff;fill-opacity:1;fill-rule:nonzero;stroke:none"
             id="path764" />
        </g>
        <g
           id="g766"
           transform="translate(738.3801,80.444)"
           style="fill:#ffffff">
          <path
             d="M 0,0 C 0,2.375 -0.74,3.565 -2.241,3.565 -3.452,3.565 -4.525,2.669 -4.57,0 Z m -4.57,-1.433 c 0,-2.642 1.03,-3.874 3.114,-3.874 0.94,0 1.97,0.468 2.621,0.941 l 0.089,-1.705 c -0.896,-0.425 -2.062,-0.671 -3.205,-0.671 -3.022,0 -4.591,2.285 -4.591,5.869 0,3.584 1.569,5.869 4.412,5.869 2.578,0 4.011,-2.06 4.011,-5.421 v -1.008 z"
             style="fill:#ffffff;fill-opacity:1;fill-rule:nonzero;stroke:none"
             id="path768" />
        </g>
        <path
           d="m 742.971,90.661 h 1.883 V 73.858 h -1.883 z"
           style="fill:#ffffff;fill-opacity:1;fill-rule:nonzero;stroke:none"
           id="path770" />
        <g
           id="g772"
           transform="translate(747.7183,76.077)"
           style="fill:#ffffff">
          <path
             d="m 0,0 c 0.852,-0.514 1.748,-0.851 2.689,-0.851 1.435,0 2.173,0.738 2.173,1.611 0,0.785 -0.403,1.322 -1.456,1.795 L 2.151,3.115 C 0.516,3.854 -0.09,4.593 -0.09,6.048 c 0,1.883 1.457,3.315 3.675,3.315 0.942,0 1.77,-0.156 2.42,-0.402 L 5.915,7.347 C 5.333,7.616 4.527,7.841 3.676,7.841 2.443,7.841 1.793,7.168 1.793,6.271 1.793,5.353 2.465,4.84 3.721,4.345 L 4.392,4.075 C 5.781,3.518 6.654,2.576 6.654,1.166 c 0,-1.974 -1.052,-3.541 -3.673,-3.541 -1.188,0 -2.263,0.245 -3.092,0.67 z"
             style="fill:#ffffff;fill-opacity:1;fill-rule:nonzero;stroke:none"
             id="path774" />
        </g>
        <g
           id="g776"
           transform="translate(756.5004,90.6613)"
           style="fill:#ffffff">
          <path
             d="m 0,0 h 1.883 v -6.946 h 0.043 c 0.494,0.964 1.478,1.726 2.8,1.726 1.994,0 3.339,-1.143 3.339,-3.652 v -7.931 H 6.183 v 7.371 c 0,1.816 -0.674,2.599 -1.88,2.599 -1.481,0 -2.42,-1.032 -2.42,-3.092 v -6.878 H 0 Z"
             style="fill:#ffffff;fill-opacity:1;fill-rule:nonzero;stroke:none"
             id="path778" />
        </g>
        <g
           id="g780"
           transform="translate(783.2931,74.5092)"
           style="fill:#ffffff">
          <path
             d="m 0,0 c -0.92,-0.335 -2.488,-0.808 -3.877,-0.808 -4.95,0 -7.033,3.764 -7.033,7.999 0,4.883 2.845,7.951 6.921,7.951 1.345,0 2.599,-0.18 3.674,-0.693 V 12.48 c -1.186,0.604 -2.508,0.962 -3.65,0.962 -2.554,0 -4.885,-2.039 -4.885,-5.849 0,-4.033 1.613,-6.697 5.02,-6.697 0.625,0 1.433,0.157 1.947,0.426 v 4.929 h -2.621 v 1.7 H 0 Z"
             style="fill:#ffffff;fill-opacity:1;fill-rule:nonzero;stroke:none"
             id="path782" />
        </g>
        <g
           id="g784"
           transform="translate(790.4146,75.2261)"
           style="fill:#ffffff">
          <path
             d="M 0,0 C 1.793,0 2.622,1.478 2.622,4.345 2.622,7.211 1.793,8.692 0,8.692 -1.792,8.692 -2.62,7.211 -2.62,4.345 -2.62,1.478 -1.792,0 0,0 m 0,10.214 c 3.026,0 4.595,-2.286 4.595,-5.869 0,-3.585 -1.569,-5.869 -4.595,-5.869 -3.024,0 -4.592,2.284 -4.592,5.869 0,3.583 1.568,5.869 4.592,5.869"
             style="fill:#ffffff;fill-opacity:1;fill-rule:nonzero;stroke:none"
             id="path786" />
        </g>
        <g
           id="g788"
           transform="translate(796.015,85.2838)"
           style="fill:#ffffff">
          <path
             d="M 0,0 H 2.062 L 4.57,-9.542 H 4.615 L 7.17,0 H 9.14 L 5.713,-11.425 H 3.472 Z"
             style="fill:#ffffff;fill-opacity:1;fill-rule:nonzero;stroke:none"
             id="path790" />
        </g>
        <g
           id="g792"
           transform="translate(812.7045,80.444)"
           style="fill:#ffffff">
          <path
             d="M 0,0 C 0,2.375 -0.74,3.565 -2.241,3.565 -3.45,3.565 -4.527,2.669 -4.57,0 Z m -4.57,-1.433 c 0,-2.642 1.03,-3.874 3.112,-3.874 0.944,0 1.972,0.468 2.623,0.941 l 0.089,-1.705 c -0.896,-0.425 -2.062,-0.671 -3.203,-0.671 -3.024,0 -4.592,2.285 -4.592,5.869 0,3.584 1.568,5.869 4.411,5.869 2.578,0 4.011,-2.06 4.011,-5.421 v -1.008 z"
             style="fill:#ffffff;fill-opacity:1;fill-rule:nonzero;stroke:none"
             id="path794" />
        </g>
        <g
           id="g796"
           transform="translate(816.6681,82.8188)"
           style="fill:#ffffff">
          <path
             d="M 0,0 C 0,0.831 -0.066,1.657 -0.09,2.465 H 1.725 L 1.793,0.675 H 1.836 C 2.44,2.063 3.404,2.621 5.086,2.621 V 0.761 C 4.861,0.808 4.615,0.831 4.368,0.831 2.914,0.831 1.883,-0.425 1.883,-2.913 V -8.96 H 0 Z"
             style="fill:#ffffff;fill-opacity:1;fill-rule:nonzero;stroke:none"
             id="path798" />
        </g>
        <g
           id="g800"
           transform="translate(823.2986,82.8188)"
           style="fill:#ffffff">
          <path
             d="M 0,0 C 0,0.831 -0.066,1.657 -0.09,2.465 H 1.725 L 1.793,0.761 h 0.043 c 0.606,1.302 1.57,1.86 2.892,1.86 1.992,0 3.337,-1.143 3.337,-3.65 V -8.96 H 6.184 v 7.369 C 6.184,0.225 5.511,1.01 4.301,1.01 2.823,1.01 1.883,-0.023 1.883,-2.082 V -8.96 H 0 Z"
             style="fill:#ffffff;fill-opacity:1;fill-rule:nonzero;stroke:none"
             id="path802" />
        </g>
        <g
           id="g804"
           transform="translate(834.0957,82.8188)"
           style="fill:#ffffff">
          <path
             d="M 0,0 C 0,0.831 -0.068,1.657 -0.09,2.465 H 1.725 L 1.792,0.761 h 0.044 c 0.606,1.302 1.568,1.86 2.825,1.86 1.208,0 2.105,-0.627 2.688,-1.79 0.604,1.12 1.478,1.79 2.777,1.79 1.972,0 3.317,-1.143 3.317,-3.65 V -8.96 h -1.882 v 7.842 c 0,1.453 -0.629,2.128 -1.749,2.128 -1.388,0 -2.15,-0.854 -2.15,-2.911 V -8.96 H 5.78 v 7.842 C 5.78,0.335 5.152,1.01 4.033,1.01 2.644,1.01 1.883,0.156 1.883,-1.901 V -8.96 H 0 Z"
             style="fill:#ffffff;fill-opacity:1;fill-rule:nonzero;stroke:none"
             id="path806" />
        </g>
        <g
           id="g808"
           transform="translate(856.2502,80.444)"
           style="fill:#ffffff">
          <path
             d="M 0,0 C 0,2.375 -0.738,3.565 -2.24,3.565 -3.449,3.565 -4.525,2.669 -4.57,0 Z m -4.57,-1.433 c 0,-2.642 1.031,-3.874 3.114,-3.874 0.942,0 1.97,0.468 2.621,0.941 l 0.089,-1.705 c -0.894,-0.425 -2.06,-0.671 -3.202,-0.671 -3.025,0 -4.593,2.285 -4.593,5.869 0,3.584 1.568,5.869 4.413,5.869 2.577,0 4.011,-2.06 4.011,-5.421 v -1.008 z"
             style="fill:#ffffff;fill-opacity:1;fill-rule:nonzero;stroke:none"
             id="path810" />
        </g>
        <g
           id="g812"
           transform="translate(860.2153,82.8188)"
           style="fill:#ffffff">
          <path
             d="M 0,0 C 0,0.831 -0.068,1.657 -0.09,2.465 H 1.724 L 1.792,0.761 h 0.044 c 0.604,1.302 1.568,1.86 2.89,1.86 1.994,0 3.338,-1.143 3.338,-3.65 V -8.96 H 6.183 v 7.369 c 0,1.816 -0.674,2.601 -1.882,2.601 -1.478,0 -2.42,-1.033 -2.42,-3.092 V -8.96 H 0 Z"
             style="fill:#ffffff;fill-opacity:1;fill-rule:nonzero;stroke:none"
             id="path814" />
        </g>
        <g
           id="g816"
           transform="translate(876.0526,73.9943)"
           style="fill:#ffffff">
          <path
             d="m 0,0 c -0.449,-0.159 -1.075,-0.292 -1.591,-0.292 -1.725,0 -2.644,0.694 -2.644,2.711 V 9.766 H -6.05 v 1.523 h 1.815 v 2.329 l 1.883,0.561 v -2.89 H 0 V 9.766 H -2.352 V 3.023 c 0,-1.299 0.335,-1.791 1.187,-1.791 0.471,0 0.805,0.133 1.165,0.289 z"
             style="fill:#ffffff;fill-opacity:1;fill-rule:nonzero;stroke:none"
             id="path818" />
        </g>
        <g
           id="g820"
           transform="translate(878.1282,123.9009)"
           style="fill:#ffffff">
          <path
             d="m 0,0 h -166.663 c -0.338,0 -0.614,0.273 -0.614,0.613 0,0.338 0.276,0.614 0.614,0.614 L 0,1.227 C 0.337,1.227 0.613,0.951 0.613,0.613 0.613,0.273 0.337,0 0,0"
             style="fill:#ffffff;fill-opacity:1;fill-rule:nonzero;stroke:none"
             id="path822" />
        </g>
      </g>
    </g>
  </g>
</svg>
