<svg xmlns="http://www.w3.org/2000/svg" width="223.851" height="212.477" viewBox="0 0 59.227 56.218"><defs><clipPath id="a" clipPathUnits="userSpaceOnUse"><path d="M710.852 73.702H878.74V233.06H710.852Z"/></clipPath></defs><g clip-path="url(#a)" style="fill:#fff" transform="matrix(.35278 0 0 -.35278 -250.773 82.218)"><g style="fill:#fff"><path d="M0 0s.584 1.454 1.745 2.046c1.169.597 2.798.698 4.705.483 1.628-.177 5.001-1.669 9.873-5.715 6.781-5.632 9.204-9.114 9.255-8.947.427 1.367 2.056 4.01 2.056 4.01C24.43-5.317 13.237 2.001 9.753 3.388 5.832 4.968.444 5.388 0 0" style="fill:#fff;fill-opacity:1;fill-rule:nonzero;stroke:none" transform="translate(732.322 195.439)"/></g><g style="fill:#fff"><path d="M0 0c4.733 1.185 5.259-1.938 6.258-2.688l3.624-2.216C4.986 5.94 0 0 0 0" style="fill:#fff;fill-opacity:1;fill-rule:nonzero;stroke:none" transform="translate(736.39 202.213)"/></g><g style="fill:#fff"><path d="M0 0c11.234-8.233 1.818-12.043 1.818-12.043 2.207-.939 3.966-.306 4.925 1.125a9 9 0 0 1 .866 1.726c.316.888.352 1.612.352 1.612 3.982-3.904 8.32-10.575 11.155-14.117-.861 3.435-.197 4.978-.465 5.3-3.383 4.066-4.513 5.52-6.723 7.978C5.238-1.024 0 0 0 0" style="fill:#fff;fill-opacity:1;fill-rule:nonzero;stroke:none" transform="translate(738.473 196.7)"/></g><g style="fill:#fff"><path d="M0 0c-.529 1.357-.358 5.254-.208 5.959C.35 7.454.854 8.924 1.16 10.315l.247-.129 1.762-1.103c-.731.916-1.429 3.33-1.799 4.788a5 5 0 0 1-.114.569c-.773 3.128-2.351 4.955-2.351 4.955s1.154-2.982.764-5.4C-.715 8.948-7.876 3.161-6.259-5.684c.894-4.885 5.786-8.778 5.786-8.778s-1.559 3.219-2.661 9.291c-.438 2.387.34 4.262 1.4 7.127l.392-.367z" style="fill:#fff;fill-opacity:1;fill-rule:nonzero;stroke:none" transform="translate(785.044 197.494)"/></g><g style="fill:#fff"><path d="M0 0s-12.702-2.052-18.989-4.066c-6.289-2.016-15.464-5.98-19.623-11.179-4.155-5.203-.657-13.446-1.719-18.937-1.061-5.489-9.207-11.062-9.207-11.062s9.48 2.426 12.971 10.065c2.57 5.615-.691 9.519 3.249 18.187C-29.378-8.334 0 0 0 0" style="fill:#fff;fill-opacity:1;fill-rule:nonzero;stroke:none" transform="translate(834.482 232.034)"/></g><g style="fill:#fff"><path d="M0 0s-10.486-3.245-13.79-13.49l4.696 1.038S-9.028-6.064 0 0" style="fill:#fff;fill-opacity:1;fill-rule:nonzero;stroke:none" transform="translate(834.813 231.423)"/></g><g style="fill:#fff"><path d="M0 0s-16.511 3.299-32.737-1.467c-16.232-4.761-13.948-13.239-14.125-17.964-.165-4.729-4.17-15.216-18.453-13.832 0 0 8.466-4.626 17.898 2.975 9.424 7.606 2.846 16.819 10.435 21.21C-29.405-4.693-23.526-1.043 0 0" style="fill:#fff;fill-opacity:1;fill-rule:nonzero;stroke:none" transform="translate(851.418 217.248)"/></g><g style="fill:#fff"><path d="M0 0s6.45-.899 10.249-5.336c0 0-5.199 4.03-11.104 2.995 0 0 .565 1.162.855 2.341" style="fill:#fff;fill-opacity:1;fill-rule:nonzero;stroke:none" transform="translate(810.283 193.795)"/></g><g style="fill:#fff"><path d="M0 0s-15.58-.366-15.736-13.462C-16.024-12.974-24.297 1.462 0 0" style="fill:#fff;fill-opacity:1;fill-rule:nonzero;stroke:none" transform="translate(838.185 200.833)"/></g><g style="fill:#fff"><path d="M0 0c-15.687-3.229-12.098-15.592-12.098-15.592C-20.078.276 0 0 0 0" style="fill:#fff;fill-opacity:1;fill-rule:nonzero;stroke:none" transform="translate(850.283 216.42)"/></g><g style="fill:#fff"><path d="M0 0c4.093 11.04 15.173 11.481 15.577 11.497C3.797 13.815.798 7.856.11 3.674-9.964 5.641-18.58 5.846-18.58 5.846-6.473 4.153 0 0 0 0" style="fill:#fff;fill-opacity:1;fill-rule:nonzero;stroke:none" transform="translate(806.771 175.74)"/></g><g style="fill:#fff"><path d="M0 0s2.488 1.348 5.397 1.063c1.79-.17 5.255 1.127 5.255 1.127-1.46.011-4.906 1.733-7.943 1.357C-.324 3.169 0 0 0 0" style="fill:#fff;fill-opacity:1;fill-rule:nonzero;stroke:none" transform="translate(743.152 142.912)"/></g><g style="fill:#fff"><path d="M0 0s-.246 2.387 2.033 2.669c2.277.287 4.859-1.013 5.953-1.016 0 0-2.589-.977-3.942-.85C1.87 1.013 0 0 0 0" style="fill:#fff;fill-opacity:1;fill-rule:nonzero;stroke:none" transform="translate(801.085 150.713)"/></g><g style="fill:#fff"><path d="M0 0s2.238 1.222 4.863.972c1.613-.159 4.085.06 4.085.06-1.316.01-3.385 2.699-6.509 2.176C-.27 2.754 0 0 0 0" style="fill:#fff;fill-opacity:1;fill-rule:nonzero;stroke:none" transform="translate(823.316 141.663)"/></g><g style="fill:#fff"><path d="M0 0c-18.969 4.572-24.871 1.296-24.871 1.296s.418 1.071.685 1.672c.426.948.543 1.195.663 1.422C-9.62 4.929 0 0 0 0" style="fill:#fff;fill-opacity:1;fill-rule:nonzero;stroke:none" transform="translate(836.902 201.44)"/></g><g style="fill:#fff"><path d="M0 0s-2.137 2.292-4.641 2.292c-3.618 0-6.636-3.861-9.854-3.868-3.224 0-4.835 1.09-4.835 1.09s1.954-2.629 5.024-2.629c3.995 0 6.95 3.927 9.599 3.927C-2.066.818 0 0 0 0" style="fill:#fff;fill-opacity:1;fill-rule:nonzero;stroke:none" transform="translate(764.264 213.494)"/></g><g style="fill:#fff"><path d="M0 0s.558-2.019.237-5.703C-.077-12.019-12.432-20.72-12.28-31.185c.085-6.256 4.699-9.993 4.699-9.993s-2.071 5.519-1.146 11.045C-7.45-22.462 2.216-13.711 1.913-6.181 1.727-1.741 0 0 0 0" style="fill:#fff;fill-opacity:1;fill-rule:nonzero;stroke:none" transform="translate(772.548 209.357)"/></g><g style="fill:#fff"><path d="M0 0s-1.862 4.4-.461 8.305c.913 2.517 3.296 4.666 7.999 5.842 0 0-8.223-7.487-2.19-13.953 0 0-4.3-4.566-5.945-8.472-1.638-3.895-5.222-12.069-6.405-13.973-1.193-1.89-2.861-4.334-7.557-6.45-5.198-.455-10.89-1.322-11.263-5.339 0 0-1.004 1.005-.911 3.54.094 2.537 4.303 5.372 8.702 5.22 4.401-.159 8.333.967 10.393 6.271C-5.582-13.696-1.074-.933 0 0" style="fill:#fff;fill-opacity:1;fill-rule:nonzero;stroke:none" transform="translate(766.574 168.289)"/></g><g style="fill:#fff"><path d="M0 0s-6.701-20.549-18.45-28.094c0 0 7.158 1.022 9.366.121 2.211-.906 4.478-2.407 2.325-5.842 0 0 4.258 2.338 3.082 5.856-.925 2.785-5.101 3.01-5.101 3.01s-1.203.52-.504 2.297c.699 1.782 5.187 7.696 5.901 8.769.714 1.081 6.541 9.873 6.772 10.379 0 0 5.132-.728 7.59 4.161C13.546 5.741 8.08 10.66 8.08 10.66s2.397-5.463-.374-8.147C4.417-.665 0 0 0 0" style="fill:#fff;fill-opacity:1;fill-rule:nonzero;stroke:none" transform="translate(773.585 167.863)"/></g><g style="fill:#fff"><path d="M0 0s2.474.511 3.313 1.14c0 0 1.146-1.241 5.879-1.14.401.006.662 0 .811 0 5.259.653 11.662 2.534 21.727 6.732l1.092-1.793c-7.857-2.652-17.34-10.12-29.231-8.941-.846.086-4.751.869-5.563 1.122C-1.477-2.216 0 0 0 0" style="fill:#fff;fill-opacity:1;fill-rule:nonzero;stroke:none" transform="translate(779.297 163.072)"/></g><g style="fill:#fff"><path d="M0 0c-1.022-1.696-2.55-3.958-5.803-5.053-3.532.071-7.78-.799-8.067-3.81 0 0-.748.759-.687 2.649.07 1.91 2.677 3.986 6.529 3.776 3.303-.179 5.434 1.191 6.861 4.811.976 2.428-.06 7.65 1.246 10.958 0 0 1.779-1.38 2.565-2.033 0 0 .065.023-.312-.879C1.105 7.493 1.69 3.263 0 0" style="fill:#fff;fill-opacity:1;fill-rule:nonzero;stroke:none" transform="translate(813.153 153.085)"/></g><g style="fill:#fff"><path d="M0 0s1.011-.689 1.987-1.217C1.176-3.176.916-4.418.759-4.832c-.336-.923-1.451-4.677-1.98-6.016-.527-1.328.373-1.712.373-1.712s3.135-.177 3.829-2.263c.884-2.639-2.302-4.388-2.302-4.388 1.605 2.569-.091 3.699-1.748 4.376-1.662.674-6.515-.089-6.515-.089C-2.487-12.134-.818-1.925 0 0" style="fill:#fff;fill-opacity:1;fill-rule:nonzero;stroke:none" transform="translate(818.164 163.288)"/></g><g style="fill:#fff"><path d="M0 0s1.36-2.833.587-3.875c-3.082-.091-5.179.006-9.727-.457-4.208-.427-6.933-.703-7.264-4.327 0 0-.909.909-.831 3.196.087 2.281 3.883 4.83 7.849 4.684 0 0 4.965-.088 5.524.207 1.186.633-1.834 6.412-2.35 7.455-4.402 8.806-4.291 11.661-4.467 12.127 0 0-12.321 2.309-15.352 10.703 9.785-8.318 17.882-8.249 17.882-8.249C-7.125 17.473-2.919 5.655 0 0" style="fill:#fff;fill-opacity:1;fill-rule:nonzero;stroke:none" transform="translate(837.454 142.493)"/></g><g style="fill:#fff"><path d="M0 0c-1.514-4.495-2.448-9.361-2.263-14.674.168-4.865 3.318-11.629 10.983-10.943 3.988.352 6.483 2.935 7.768 5.549 1.507 3.08 1.407 6.243 1.407 6.243s.1 5.026-4.719 9.295C10.533-2.118 6.453-.263 0 0m-4.621 3.744c1.28.039 2.364.023 3.579-.055C4.307 15.118 13.423 26.946 13.423 33.92c0 4.508-3.104 7.537-3.104 7.537l-.527-1.695s-2.516 5.756-4.368 7.209l.058-.038s5.788-2.305 7.762-3.907v.03l-1.464-.381h-.053c3.69-3.41 3.482-8.82 3.482-8.82.298-8.299-8.691-17.831-13.896-30.367 11.721-1.461 19.91-8.753 19.91-16.686 0-11.118-6.803-15.028-12.986-15.113-2.181-.02-4.599.325-7.426 2-3.299 1.95-6.053 5.578-6.053 12.647 0 6.928 1.611 11.228 2.521 13.655l-.024.025c-2.809-.1-5.579-.435-7.993-.938 0 0-2.181-.649-3.165-.949 2.618-1.533 5.182-4.027 6.08-7.931.57-2.797.304-6.356-1.085-10.885-.297-4.434 1.634-11.012 3.133-15.903l1.679-4.47c.894-1.975 2.28-2.531 2.28-2.531s3.436-.504 4.399-2.586c1.294-2.77-.92-4.183-.92-4.183.793 3.333-2.091 3.696-3.791 3.949l-.139.02c-1.663.24-2.771.094-2.771.094.212 1.13-1.947 7.142-1.799 6.749 0 0-2.77 7.958-3.935 11.459-1.218 3.602-2.041 8.72-2.041 8.72S-4.504-5.52-23.092.727c0 0 1.307.137 2.314.006 2.098.823 4.815 1.392 4.815 1.392 3.304.895 7.031 1.477 11.342 1.619" style="fill:#fff;fill-opacity:1;fill-rule:nonzero;stroke:none" transform="translate(845.268 185.05)"/></g><g style="fill:#fff"><path d="M0 0s-1.958-3.374-5.008-1.413c0 0 .071 2.008 1.797 1.816C-1.481.208-1.711-.501 0 0m-7.164-.429s-6.43 2.05-10.423-1.208l2.103-3.625S-9.386-.286-4.878-7.424c0 0-3.361-4.394-10.452-3.158 0 0 1.933-3.324 6.636-3.295 4.709.033 9.288 4.765 10.762 3.17 0 0-.496 6.741 7.727 9.12 0 0 1.881-1.53 2.218-2.391 0 0 2.697 2.126 2.553 7.337-.147 5.218-3.088 7.589-4.137 8.478 0 0 .619-3.114-.766-6.016-.803-1.687-2.577-3.794-5.292-3.873 0 0-2.233-.039-3.714.41s-7.37 2.43-7.821-2.787" style="fill:#fff;fill-opacity:1;fill-rule:nonzero;stroke:none" transform="translate(770.252 221.224)"/></g><g style="fill:#fff"><path d="M0 0h1.971v-13.933H7.1v-1.704H0Z" style="fill:#fff;fill-opacity:1;fill-rule:nonzero;stroke:none" transform="translate(713.772 114.869)"/></g><path d="M722.709 116.036h1.883V99.232h-1.883z" style="fill:#fff;fill-opacity:1;fill-rule:nonzero;stroke:none"/><g style="fill:#fff"><path d="M0 0c-.561-1.948-1.367-2.644-2.8-2.644-.45 0-.942.046-1.278.137l.09 1.699c.29-.131.627-.222 1.03-.222.538 0 .941.245 1.254 1.435l.448 1.746-3.605 11.606h1.971l2.555-9.32h.043l2.374 9.32h1.883z" style="fill:#fff;fill-opacity:1;fill-rule:nonzero;stroke:none" transform="translate(731.535 96.9)"/></g><g style="fill:#fff"><path d="M0 0h-2.15l-2.396 9.656h-.046L-6.787 0h-2.151l-3.024 11.426h1.972l2.172-9.545h.044l2.175 9.545h2.24l2.261-9.545h.045l2.151 9.545h1.883z" style="fill:#fff;fill-opacity:1;fill-rule:nonzero;stroke:none" transform="translate(748.761 99.232)"/></g><g style="fill:#fff"><path d="M0 0c1.792 0 2.62 1.477 2.62 4.348 0 2.865-.828 4.344-2.62 4.344s-2.621-1.479-2.621-4.344C-2.621 1.477-1.793 0 0 0m0 10.215c3.024 0 4.592-2.284 4.592-5.867C4.592.763 3.024-1.523 0-1.523c-3.026 0-4.595 2.286-4.595 5.871 0 3.583 1.569 5.867 4.595 5.867" style="fill:#fff;fill-opacity:1;fill-rule:nonzero;stroke:none" transform="translate(757.341 100.598)"/></g><g style="fill:#fff"><path d="M0 0c-1.725 0-2.51-1.478-2.51-4.345 0-2.869.785-4.347 2.51-4.347s2.508 1.478 2.508 4.347C2.508-1.478 1.724 0 0 0m4.391-7.951c0-.694.067-1.412.09-2.107H2.666l-.068 1.681h-.045c-.493-.896-1.344-1.837-3.002-1.837-2.351 0-3.942 1.928-3.942 5.869 0 3.943 1.591 5.869 3.942 5.869 1.3 0 2.151-.515 2.913-1.723h.044v6.945h1.883z" style="fill:#fff;fill-opacity:1;fill-rule:nonzero;stroke:none" transform="translate(767.937 109.29)"/></g><g style="fill:#fff"><path d="M0 0c0 .826-.066 1.657-.09 2.465h1.815L1.793.672h.045C2.442 2.06 3.406 2.62 5.087 2.62V.76a3.5 3.5 0 0 1-.719.066c-1.455 0-2.485-1.251-2.485-3.739v-6.048H0Z" style="fill:#fff;fill-opacity:1;fill-rule:nonzero;stroke:none" transform="translate(774.879 108.193)"/></g><g style="fill:#fff"><path d="M0 0c-.335.046-.806.046-1.322.046-2.217 0-3.271-1.055-3.271-2.374 0-1.212.628-1.997 1.927-1.997C-1.03-4.325 0-3.002 0-1.435zm-5.466 5.041a6.1 6.1 0 0 0 3.225.941c1.68 0 2.689-.717 3.049-1.075.491-.493.984-1.188.984-2.802v-5.959c0-.67.044-1.345.091-1.746H.179L.068-4.056H.023c-.516-.873-1.456-1.7-3.203-1.7-1.883 0-3.293 1.095-3.293 3.291 0 2.219 1.455 3.854 5.375 3.854H0v.514c0 .854-.066 1.345-.426 1.838-.38.517-1.12.716-1.903.716-1.166 0-2.286-.468-2.936-1.184z" style="fill:#fff;fill-opacity:1;fill-rule:nonzero;stroke:none" transform="translate(787.424 104.832)"/></g><g style="fill:#fff"><path d="M0 0c0 2.375-.74 3.562-2.241 3.562-1.208 0-2.284-.898-2.329-3.562Zm-4.57-1.435c0-2.642 1.03-3.876 3.114-3.876.942 0 1.97.471 2.622.945l.088-1.705c-.896-.425-2.06-.672-3.203-.672-3.023 0-4.592 2.286-4.592 5.87s1.569 5.868 4.411 5.868c2.579 0 4.013-2.062 4.013-5.42v-1.01z" style="fill:#fff;fill-opacity:1;fill-rule:nonzero;stroke:none" transform="translate(797.863 105.819)"/></g><g style="fill:#fff"><path d="M0 0c-.449-.155-1.075-.289-1.591-.289-1.725 0-2.644.694-2.644 2.711v7.347H-6.05v1.524h1.815v2.329l1.883.561v-2.89H0V9.769h-2.352V3.027c0-1.3.335-1.793 1.186-1.793.472 0 .808.134 1.166.292z" style="fill:#fff;fill-opacity:1;fill-rule:nonzero;stroke:none" transform="translate(806.869 99.365)"/></g><g style="fill:#fff"><path d="M0 0h1.883v-6.946h.044c.493.963 1.479 1.724 2.799 1.724 1.994 0 3.339-1.141 3.339-3.654v-7.928H6.184v7.372c0 1.813-.672 2.596-1.881 2.596-1.48 0-2.42-1.029-2.42-3.089v-6.879H0Z" style="fill:#fff;fill-opacity:1;fill-rule:nonzero;stroke:none" transform="translate(808.457 116.036)"/></g><g style="fill:#fff"><path d="M0 0c-.941-.289-1.927-.47-2.846-.47-4.951 0-7.034 3.764-7.034 7.999 0 4.883 2.845 7.952 6.922 7.952 1.122 0 2.241-.203 2.958-.562v-1.927c-.851.538-1.836.785-2.935.785-2.554 0-4.883-2.036-4.883-5.846 0-4.033 1.612-6.699 5.018-6.699 1.008 0 1.992.269 2.8.74z" style="fill:#fff;fill-opacity:1;fill-rule:nonzero;stroke:none" transform="translate(834.22 99.545)"/></g><g style="fill:#fff"><path d="M0 0c-.561-1.948-1.367-2.644-2.8-2.644-.448 0-.942.046-1.278.137l.09 1.699c.29-.131.629-.222 1.03-.222.538 0 .941.245 1.254 1.435l.45 1.746-3.607 11.606h1.971l2.555-9.32h.045l2.373 9.32h1.882z" style="fill:#fff;fill-opacity:1;fill-rule:nonzero;stroke:none" transform="translate(840.245 96.9)"/></g><g style="fill:#fff"><path d="M0 0c0 .826-.066 1.657-.088 2.465h1.813L1.792.76h.046c.605 1.3 1.568 1.86 2.823 1.86 1.21 0 2.107-.626 2.688-1.794.605 1.125 1.478 1.794 2.778 1.794 1.971 0 3.316-1.142 3.316-3.653v-7.928h-1.882v7.843c0 1.453-.627 2.124-1.747 2.124-1.389 0-2.15-.85-2.15-2.912v-7.055H5.781v7.843c0 1.453-.629 2.124-1.747 2.124-1.39 0-2.15-.85-2.15-2.912v-7.055H0Z" style="fill:#fff;fill-opacity:1;fill-rule:nonzero;stroke:none" transform="translate(845.776 108.193)"/></g><g style="fill:#fff"><path d="M0 0c0 .826-.066 1.657-.09 2.465h1.815L1.792.672h.044C2.44 2.06 3.404 2.62 5.086 2.62V.76a3.5 3.5 0 0 1-.717.066c-1.456 0-2.486-1.251-2.486-3.739v-6.048H0Z" style="fill:#fff;fill-opacity:1;fill-rule:nonzero;stroke:none" transform="translate(861.502 108.193)"/></g><g style="fill:#fff"><path d="M0 0c0-.831.068-1.657.09-2.465h-1.815L-1.792-.76h-.044c-.606-1.303-1.57-1.861-2.89-1.861-1.994 0-3.339 1.143-3.339 3.651v7.931h1.882v-7.37c0-1.816.672-2.601 1.881-2.601 1.479 0 2.421 1.03 2.421 3.092v6.879H0Z" style="fill:#fff;fill-opacity:1;fill-rule:nonzero;stroke:none" transform="translate(876.198 101.697)"/></g><g style="fill:#fff"><path d="M0 0h2.06l2.555-12.68h.045L7.46 0h2.508l2.802-12.68h.043L15.549 0h1.881l-3.406-15.637h-2.33L8.737-2.24h-.044L5.735-15.637H3.404Z" style="fill:#fff;fill-opacity:1;fill-rule:nonzero;stroke:none" transform="translate(713.962 89.496)"/></g><g style="fill:#fff"><path d="M0 0c0 2.375-.74 3.565-2.241 3.565-1.211 0-2.284-.896-2.329-3.565Zm-4.57-1.433c0-2.642 1.03-3.874 3.114-3.874.94 0 1.97.468 2.621.941l.089-1.705c-.896-.425-2.062-.671-3.205-.671-3.022 0-4.591 2.285-4.591 5.869s1.569 5.869 4.412 5.869c2.578 0 4.011-2.06 4.011-5.421v-1.008z" style="fill:#fff;fill-opacity:1;fill-rule:nonzero;stroke:none" transform="translate(738.38 80.444)"/></g><path d="M742.971 90.661h1.883V73.858h-1.883z" style="fill:#fff;fill-opacity:1;fill-rule:nonzero;stroke:none"/><g style="fill:#fff"><path d="M0 0c.852-.514 1.748-.851 2.689-.851 1.435 0 2.173.738 2.173 1.611 0 .785-.403 1.322-1.456 1.795l-1.255.56C.516 3.854-.09 4.593-.09 6.048c0 1.883 1.457 3.315 3.675 3.315.942 0 1.77-.156 2.42-.402l-.09-1.614a5.5 5.5 0 0 1-2.239.494c-1.233 0-1.883-.673-1.883-1.57 0-.918.672-1.431 1.928-1.926l.671-.27c1.389-.557 2.262-1.499 2.262-2.909 0-1.974-1.052-3.541-3.673-3.541-1.188 0-2.263.245-3.092.67z" style="fill:#fff;fill-opacity:1;fill-rule:nonzero;stroke:none" transform="translate(747.718 76.077)"/></g><g style="fill:#fff"><path d="M0 0h1.883v-6.946h.043c.494.964 1.478 1.726 2.8 1.726 1.994 0 3.339-1.143 3.339-3.652v-7.931H6.183v7.371c0 1.816-.674 2.599-1.88 2.599-1.481 0-2.42-1.032-2.42-3.092v-6.878H0Z" style="fill:#fff;fill-opacity:1;fill-rule:nonzero;stroke:none" transform="translate(756.5 90.661)"/></g><g style="fill:#fff"><path d="M0 0c-.92-.335-2.488-.808-3.877-.808-4.95 0-7.033 3.764-7.033 7.999 0 4.883 2.845 7.951 6.921 7.951 1.345 0 2.599-.18 3.674-.693V12.48c-1.186.604-2.508.962-3.65.962-2.554 0-4.885-2.039-4.885-5.849C-8.85 3.56-7.237.896-3.83.896c.625 0 1.433.157 1.947.426v4.929h-2.621v1.7H0Z" style="fill:#fff;fill-opacity:1;fill-rule:nonzero;stroke:none" transform="translate(783.293 74.51)"/></g><g style="fill:#fff"><path d="M0 0c1.793 0 2.622 1.478 2.622 4.345S1.793 8.692 0 8.692s-2.62-1.481-2.62-4.347S-1.792 0 0 0m0 10.214c3.026 0 4.595-2.286 4.595-5.869C4.595.76 3.026-1.524 0-1.524c-3.024 0-4.592 2.284-4.592 5.869 0 3.583 1.568 5.869 4.592 5.869" style="fill:#fff;fill-opacity:1;fill-rule:nonzero;stroke:none" transform="translate(790.415 75.226)"/></g><g style="fill:#fff"><path d="M0 0h2.062L4.57-9.542h.045L7.17 0h1.97L5.713-11.425H3.472Z" style="fill:#fff;fill-opacity:1;fill-rule:nonzero;stroke:none" transform="translate(796.015 85.284)"/></g><g style="fill:#fff"><path d="M0 0c0 2.375-.74 3.565-2.241 3.565-1.209 0-2.286-.896-2.329-3.565Zm-4.57-1.433c0-2.642 1.03-3.874 3.112-3.874.944 0 1.972.468 2.623.941l.089-1.705c-.896-.425-2.062-.671-3.203-.671-3.024 0-4.592 2.285-4.592 5.869s1.568 5.869 4.411 5.869c2.578 0 4.011-2.06 4.011-5.421v-1.008z" style="fill:#fff;fill-opacity:1;fill-rule:nonzero;stroke:none" transform="translate(812.705 80.444)"/></g><g style="fill:#fff"><path d="M0 0c0 .831-.066 1.657-.09 2.465h1.815l.068-1.79h.043c.604 1.388 1.568 1.946 3.25 1.946V.761c-.225.047-.471.07-.718.07-1.454 0-2.485-1.256-2.485-3.744V-8.96H0Z" style="fill:#fff;fill-opacity:1;fill-rule:nonzero;stroke:none" transform="translate(816.668 82.819)"/></g><g style="fill:#fff"><path d="M0 0c0 .831-.066 1.657-.09 2.465h1.815L1.793.761h.043c.606 1.302 1.57 1.86 2.892 1.86 1.992 0 3.337-1.143 3.337-3.65V-8.96H6.184v7.369c0 1.816-.673 2.601-1.883 2.601-1.478 0-2.418-1.033-2.418-3.092V-8.96H0Z" style="fill:#fff;fill-opacity:1;fill-rule:nonzero;stroke:none" transform="translate(823.299 82.819)"/></g><g style="fill:#fff"><path d="M0 0c0 .831-.068 1.657-.09 2.465h1.815L1.792.761h.044c.606 1.302 1.568 1.86 2.825 1.86 1.208 0 2.105-.627 2.688-1.79.604 1.12 1.478 1.79 2.777 1.79 1.972 0 3.317-1.143 3.317-3.65V-8.96h-1.882v7.842c0 1.453-.629 2.128-1.749 2.128-1.388 0-2.15-.854-2.15-2.911V-8.96H5.78v7.842c0 1.453-.628 2.128-1.747 2.128-1.389 0-2.15-.854-2.15-2.911V-8.96H0Z" style="fill:#fff;fill-opacity:1;fill-rule:nonzero;stroke:none" transform="translate(834.096 82.819)"/></g><g style="fill:#fff"><path d="M0 0c0 2.375-.738 3.565-2.24 3.565-1.209 0-2.285-.896-2.33-3.565Zm-4.57-1.433c0-2.642 1.031-3.874 3.114-3.874.942 0 1.97.468 2.621.941l.089-1.705c-.894-.425-2.06-.671-3.202-.671-3.025 0-4.593 2.285-4.593 5.869s1.568 5.869 4.413 5.869c2.577 0 4.011-2.06 4.011-5.421v-1.008z" style="fill:#fff;fill-opacity:1;fill-rule:nonzero;stroke:none" transform="translate(856.25 80.444)"/></g><g style="fill:#fff"><path d="M0 0c0 .831-.068 1.657-.09 2.465h1.814L1.792.761h.044c.604 1.302 1.568 1.86 2.89 1.86 1.994 0 3.338-1.143 3.338-3.65V-8.96H6.183v7.369c0 1.816-.674 2.601-1.882 2.601-1.478 0-2.42-1.033-2.42-3.092V-8.96H0Z" style="fill:#fff;fill-opacity:1;fill-rule:nonzero;stroke:none" transform="translate(860.215 82.819)"/></g><g style="fill:#fff"><path d="M0 0c-.449-.159-1.075-.292-1.591-.292-1.725 0-2.644.694-2.644 2.711v7.347H-6.05v1.523h1.815v2.329l1.883.561v-2.89H0V9.766h-2.352V3.023c0-1.299.335-1.791 1.187-1.791.471 0 .805.133 1.165.289z" style="fill:#fff;fill-opacity:1;fill-rule:nonzero;stroke:none" transform="translate(876.053 73.994)"/></g><g style="fill:#fff"><path d="M0 0h-166.663a.613.613 0 1 0 0 1.227H0A.613.613 0 0 0 0 0" style="fill:#fff;fill-opacity:1;fill-rule:nonzero;stroke:none" transform="translate(878.128 123.9)"/></g></g></svg>